<svg width="500" height="500" viewBox="0 0 500 500" fill="none" xmlns="http://www.w3.org/2000/svg">
<rect width="500" height="500" fill="white"/>
<g clip-path="url(#clip0_2003_11150)">
<path d="M203.755 222.725C193.965 219.685 179.145 216.975 165.575 216.975C110.165 216.975 83.285 253.375 83.285 291.005C83.285 314.805 98.525 330.425 119.085 330.425C133.005 330.425 148.015 324.425 158.395 305.285H158.845C158.205 313.355 157.525 321.315 157.265 327.765H188.295C187.805 313.715 189.915 292.385 192.595 278.005L203.765 222.725H203.755ZM161.935 264.745C156.655 293.475 143.335 303.845 133.155 303.845C123.765 303.845 118.465 296.395 118.465 285.375C118.465 263.875 135.155 242.355 156.545 242.355C160.335 242.355 163.735 242.775 166.255 243.335L161.935 264.745Z" fill="#B8201D"/>
<path d="M246.545 269.205C229.815 270.465 225.685 278.185 224.685 281.335C224.475 281.975 224.935 282.655 225.595 282.735C226.505 282.825 227.685 283.095 228.175 283.865C228.965 285.035 226.685 289.765 226.155 290.825C226.075 290.975 225.985 291.085 225.875 291.185L214.425 300.545C214.425 300.545 214.385 300.585 214.365 300.605C213.795 301.285 208.685 307.335 204.345 312.435C202.385 308.265 201.425 303.435 201.455 298.005C201.455 291.105 202.515 284.125 204.095 276.655L225.915 169.575H259.295L246.295 232.365L246.725 232.425C250.795 227.865 256.045 224.085 261.985 221.425C263.305 221.915 265.075 222.685 267.025 223.765L259.635 224.685V226.815L269.575 225.415C269.805 225.585 270.895 226.265 271.025 226.335C274.945 229.335 278.605 233.695 279.385 239.725C281.255 253.925 267.675 267.585 246.545 269.185V269.205Z" fill="#B8201D"/>
<path d="M318.955 256.945C318.955 290.255 295.565 330.425 243.585 330.425C226.135 330.425 214.015 325.805 207.395 317.355C208.145 314.775 208.995 312.115 209.925 310.965C219.055 299.595 232.355 293.215 240.275 290.195C240.745 289.785 248.235 283.315 248.745 280.915L251.175 281.465C251.175 281.465 246.705 284.765 247.155 287.995L277.485 284.165C277.695 284.125 277.895 284.055 278.055 283.915L287.915 275.555C288.065 275.475 288.215 275.405 288.365 275.325L299.715 272.435C300.415 272.245 301.075 272.775 301.075 273.475L301.155 279.925C301.155 280.175 301.075 280.415 300.925 280.625L292.925 290.885C292.565 291.355 292.625 292.015 293.075 292.395L294.945 293.945C295.455 294.365 296.225 294.245 296.565 293.685L305.465 279.065C305.575 278.875 305.635 278.645 305.615 278.425L304.875 267.715C304.835 267.075 304.215 266.605 303.575 266.735L295.595 268.375C295.255 268.455 294.935 268.355 294.675 268.145L292.075 265.935C291.845 265.745 291.715 265.485 291.695 265.185L290.615 248.605C290.595 248.095 290.915 247.625 291.425 247.495C293.895 246.855 300.815 245.045 301.835 244.535C303.075 243.915 302.985 241.255 302.985 241.255L285.855 235.105C285.445 234.955 285.135 234.555 285.135 234.085L285.025 220.425C285.025 219.855 284.575 219.385 284.025 219.345L282.285 219.215L282.345 230.855C282.345 231.855 281.135 232.325 280.455 231.605L276.495 227.365C276.325 227.155 276.215 226.915 276.215 226.645L276.025 219.235L274.045 219.145L274.155 223.875C274.175 224.785 273.175 225.305 272.435 224.795L265.585 219.965C270.975 218.025 276.845 216.965 282.865 216.965C306.515 216.965 318.925 234.905 318.925 256.935L318.955 256.945Z" fill="#408F49"/>
<path d="M391.705 243.025C399.405 243.025 404.435 244.385 408.565 246.215L416.715 221.205C411.155 218.995 402.055 216.975 392.025 216.975C348.455 216.975 317.335 245.925 317.335 284.155C317.335 314.955 339.155 330.425 366.735 330.425C380.935 330.425 393.105 327.765 401.215 323.765L400.215 298.775C394.125 301.505 386.745 303.985 376.165 303.985C363.415 303.985 352.515 296.685 352.515 280.765C352.515 261.485 366.885 243.025 391.705 243.025Z" fill="#408F49"/>
</g>
<defs>
<clipPath id="clip0_2003_11150">
<rect width="333.43" height="160.85" fill="white" transform="translate(83.285 169.575)"/>
</clipPath>
</defs>
</svg>
