<svg width="500" height="500" viewBox="0 0 500 500" fill="none" xmlns="http://www.w3.org/2000/svg">
<rect width="500" height="500" fill="white"/>
<g clip-path="url(#clip0_2003_11310)">
<path d="M383.336 162.631C373.905 157.15 363.027 153.91 351.412 153.612H267.955V259.421H247.031V153.612H207.87L189.373 182.193L83.1247 346.388H115.114L152.902 287.993H215.938V346.388H247.031V287.993H267.955V346.388H299.058V287.993H349.675C361.795 287.993 373.168 284.781 382.99 279.16C403.234 267.582 416.875 245.78 416.875 220.793C416.875 195.807 403.383 174.247 383.336 162.631ZM215.938 259.421H171.39L215.938 190.578V259.421ZM349.675 259.421H299.058V182.193H349.675C371.001 182.193 388.285 199.476 388.285 220.802C388.285 242.129 371.001 259.421 349.675 259.421Z" fill="#42BEFF"/>
</g>
<defs>
<clipPath id="clip0_2003_11310">
<rect width="333.751" height="192.777" fill="white" transform="translate(83.1247 153.612)"/>
</clipPath>
</defs>
</svg>
