<svg width="500" height="500" viewBox="0 0 500 500" fill="none" xmlns="http://www.w3.org/2000/svg">
<rect width="500" height="500" fill="white"/>
<g clip-path="url(#clip0_2003_11053)">
<path d="M250 331.005C345.466 331.005 422.856 294.738 422.856 250C422.856 205.262 345.466 168.995 250 168.995C154.534 168.995 77.144 205.262 77.144 250C77.144 294.738 154.534 331.005 250 331.005Z" fill="#02603B"/>
<path d="M170.947 250.067C169.905 249.779 169.062 250.067 168.418 250.999C164.537 257.875 159.391 261.313 152.958 261.313C147.768 261.313 143.243 258.784 139.339 253.705C135.435 248.625 133.483 242.193 133.483 234.385C133.483 229.417 134.703 225.402 137.166 222.319C139.628 219.236 142.578 217.705 145.994 217.705C148.123 217.705 150.008 218.26 151.65 219.346C153.291 220.433 154.6 221.764 155.62 223.361C156.618 224.936 157.594 226.511 158.526 228.064C159.457 229.616 160.544 230.947 161.809 232.034C163.073 233.121 164.515 233.675 166.156 233.675C167.953 233.675 169.372 233.165 170.415 232.167C171.457 231.147 171.967 229.838 171.967 228.197C171.967 224.271 169.638 220.7 165.003 217.528C160.367 214.334 154.91 212.737 148.633 212.737C140.604 212.737 134.082 215.465 129.025 220.921C123.968 226.378 121.461 233.343 121.461 241.794C121.461 249.823 124.212 256.921 129.691 263.11C135.169 269.298 141.713 272.403 149.299 272.403C156.219 272.403 161.675 270.474 165.668 266.592C169.661 262.71 171.879 257.964 172.389 252.352C172.5 251.154 172.034 250.4 170.991 250.111L170.947 250.067Z" fill="white"/>
<path d="M218.57 263.531L217.505 248.226C217.128 242.437 215.487 238.2 212.603 235.494C209.72 232.788 206.193 231.435 202.045 231.435C197.454 231.435 193.883 232.965 191.332 236.026L191.42 211.472C191.42 210.651 191.154 210.097 190.644 209.831C190.134 209.564 189.402 209.609 188.47 209.986L177.668 214.733C176.581 215.287 176.027 215.952 176.027 216.773V217.017C176.027 217.572 176.648 218.348 177.868 219.391C179.088 220.433 179.709 221.609 179.709 222.917V263.664C179.709 264.928 179.132 266.126 178.001 267.257C176.848 268.41 176.293 269.253 176.293 269.786V270.118C176.293 271.05 176.914 271.516 178.178 271.516H193.328C194.637 271.516 195.302 271.05 195.302 270.118V269.786C195.302 269.231 194.725 268.388 193.55 267.257C192.374 266.104 191.798 264.906 191.798 263.664V245.098C191.798 242.37 192.419 240.196 193.639 238.555C194.858 236.913 196.566 236.093 198.762 236.093C203.132 236.093 205.505 240.019 205.882 247.871L206.703 263.575C206.747 264.884 206.282 266.104 205.261 267.257C204.241 268.41 203.753 269.253 203.753 269.786V270.118C203.753 271.05 204.352 271.516 205.55 271.516H219.79C220.988 271.516 221.587 271.05 221.587 270.118V269.786C221.587 269.187 221.121 268.322 220.189 267.168C219.258 266.015 218.747 264.795 218.636 263.486L218.57 263.531Z" fill="white"/>
<path d="M264.817 267.834C264.329 267.634 263.841 267.168 263.375 266.392C262.909 265.638 262.598 264.618 262.443 263.353L260.647 248.204C260.048 243.013 258.051 238.932 254.68 235.938C251.286 232.943 246.961 231.435 241.66 231.435C237.246 231.435 233.519 232.278 230.48 233.963C227.442 235.649 225.933 237.912 225.933 240.751C225.933 242.126 226.377 243.213 227.286 244.056C228.196 244.899 229.371 245.32 230.835 245.32C232.188 245.32 233.32 244.766 234.185 243.679C235.05 242.592 235.693 241.394 236.07 240.085C236.447 238.777 237.113 237.579 238.044 236.492C238.976 235.405 240.174 234.851 241.637 234.851C243.989 234.851 245.652 235.915 246.628 238.045C247.604 240.174 248.38 243.834 248.913 249.002L249.002 249.978C246.65 248.337 243.678 247.516 240.085 247.516C235.826 247.516 232.277 248.603 229.438 250.799C226.599 252.973 225.201 256.033 225.268 259.96C225.268 263.952 226.687 266.991 229.527 269.12C232.366 271.25 236.07 272.314 240.661 272.314C245.785 272.314 249.423 270.739 251.552 267.568C251.774 269.253 252.44 270.429 253.549 271.05C254.658 271.671 256.432 271.982 258.828 271.982C264.062 271.982 266.68 271.183 266.68 269.608C266.68 269.12 266.48 268.743 266.103 268.455C265.726 268.189 265.282 267.945 264.794 267.767L264.817 267.834ZM248.602 266.525C247.515 268.033 246.074 268.765 244.255 268.765C242.236 268.765 240.595 267.723 239.308 265.66C238.022 263.597 237.379 261.069 237.379 258.141C237.379 256.078 237.933 254.414 239.064 253.15C240.173 251.886 241.615 251.265 243.368 251.265C245.12 251.265 246.562 251.886 247.737 253.15C248.913 254.414 249.6 256.211 249.822 258.54L250.066 261.401C250.177 263.309 249.689 265.017 248.602 266.525Z" fill="white"/>
<path d="M337.238 263.619L336.262 249.047C335.818 242.836 334.221 238.333 331.426 235.583C328.654 232.832 325.171 231.457 321.023 231.457C318.251 231.457 315.744 232.122 313.526 233.431C311.308 234.74 309.667 236.536 308.58 238.843C305.741 233.941 301.216 231.479 295.005 231.479C290.037 231.479 286.266 233.453 283.715 237.379V233.542C283.715 232.677 283.471 232.056 282.983 231.701C282.495 231.346 281.785 231.39 280.854 231.834L270.539 236.581C269.386 237.135 268.832 237.69 268.832 238.289V238.621C268.832 239.176 269.164 239.708 269.852 240.219C270.539 240.729 271.205 241.35 271.848 242.06C272.491 242.769 272.824 243.634 272.824 244.677V263.752C272.824 265.061 272.247 266.281 271.072 267.435C269.896 268.588 269.32 269.431 269.32 269.963V270.296C269.32 271.227 269.941 271.693 271.205 271.693H286.421C287.685 271.693 288.306 271.227 288.306 270.296V269.963C288.306 269.409 287.73 268.566 286.554 267.435C285.379 266.281 284.802 265.061 284.802 263.752V245.254C284.802 242.592 285.423 240.396 286.687 238.71C287.952 237.024 289.659 236.182 291.833 236.182C294.007 236.182 295.67 237.202 296.979 239.22C298.288 241.239 298.953 244.1 298.953 247.804V263.752C298.953 265.061 298.465 266.281 297.489 267.435C296.513 268.588 296.025 269.431 296.025 269.963V270.296C296.025 271.227 296.646 271.693 297.911 271.693H312.062C313.26 271.693 313.859 271.227 313.859 270.296V269.963C313.859 269.409 313.371 268.566 312.417 267.435C311.463 266.281 310.975 265.061 310.975 263.752V248.603C310.975 247.072 310.864 245.764 310.643 244.677C310.754 242.17 311.397 240.13 312.617 238.533C313.815 236.958 315.367 236.159 317.275 236.159C319.515 236.159 321.201 237.135 322.354 239.065C323.508 240.995 324.173 244.233 324.395 248.758L325.216 263.73C325.326 265.039 324.883 266.259 323.862 267.412C322.842 268.566 322.354 269.409 322.354 269.941V270.274C322.354 271.205 322.975 271.671 324.24 271.671H338.391C339.589 271.671 340.188 271.205 340.188 270.274V269.941C340.188 269.342 339.722 268.477 338.79 267.324C337.859 266.17 337.349 264.95 337.238 263.642V263.619Z" fill="white"/>
<path d="M377.408 255.146C376.587 253.638 375.522 252.485 374.214 251.664C372.905 250.843 371.441 250.156 369.844 249.579C368.225 249.002 366.628 248.492 365.053 248.026C363.478 247.56 362.036 247.05 360.705 246.518C359.375 245.986 358.332 245.187 357.511 244.145C356.691 243.102 356.291 241.838 356.291 240.307C356.291 238.777 356.779 237.49 357.755 236.426C358.731 235.361 360.018 234.829 361.593 234.829C363.168 234.829 364.454 235.383 365.43 236.514C366.406 237.623 367.094 238.866 367.471 240.196C367.848 241.527 368.513 242.769 369.445 243.878C370.376 244.987 371.596 245.564 373.127 245.564C374.435 245.564 375.545 245.165 376.432 244.344C377.319 243.524 377.785 242.525 377.785 241.305C377.785 238.622 376.21 236.337 373.082 234.385C369.955 232.455 365.896 231.479 360.927 231.479C355.959 231.479 352.011 232.61 348.927 234.873C345.844 237.135 344.314 240.019 344.314 243.501C344.314 246.451 345.09 248.825 346.643 250.666C348.195 252.485 350.103 253.771 352.321 254.503C354.561 255.235 356.802 255.9 359.042 256.477C361.282 257.054 363.168 257.919 364.72 259.05C366.273 260.181 367.049 261.756 367.049 263.708C367.049 265.46 366.495 266.791 365.363 267.723C364.254 268.655 362.813 269.12 361.06 269.12C359.308 269.12 357.8 268.566 356.691 267.435C355.582 266.326 354.805 265.083 354.406 263.708C354.007 262.355 353.297 261.113 352.321 259.982C351.345 258.873 350.059 258.296 348.484 258.296C347.02 258.296 345.822 258.673 344.935 259.449C344.048 260.226 343.582 261.335 343.582 262.799C343.582 265.416 345.223 267.656 348.484 269.52C351.744 271.383 355.959 272.292 361.083 272.292C366.206 272.292 370.687 271.183 373.859 268.987C377.031 266.769 378.606 263.974 378.606 260.603C378.606 258.473 378.206 256.655 377.386 255.168L377.408 255.146Z" fill="white"/>
</g>
<defs>
<clipPath id="clip0_2003_11053">
<rect width="345.712" height="162.01" fill="white" transform="translate(77.144 168.995)"/>
</clipPath>
</defs>
</svg>
