<svg width="500" height="500" viewBox="0 0 500 500" fill="none" xmlns="http://www.w3.org/2000/svg">
<rect width="500" height="500" fill="white"/>
<g clip-path="url(#clip0_2003_11130)">
<path d="M348.981 93.3252H151.02V406.675H348.981V93.3252Z" fill="#991F36"/>
<path d="M216.777 274.228C204.432 260.668 195.987 243.492 193.245 224.505C185.865 216.404 177.084 209.594 167.297 204.47C167.171 206.634 167.113 208.814 167.113 211.012C167.113 250.344 186.276 285.29 215.762 306.986C217.062 300.771 217.75 294.331 217.75 287.73C217.75 283.143 217.423 278.64 216.777 274.228Z" fill="#F0F3FA"/>
<path d="M304.936 303.086C298.889 304.319 292.633 304.964 286.234 304.964C285.722 304.964 285.202 304.964 284.691 304.939C286.284 313.753 289.111 322.148 292.993 329.931C297.036 329.704 301.019 329.277 304.936 328.656V303.086Z" fill="#F0F3FA"/>
<path d="M264.957 328.22C255.698 326.543 246.817 323.8 238.431 320.11C240.779 311.825 242.246 303.17 242.725 294.263C247.798 296.93 253.14 299.144 258.701 300.847C259.715 310.349 261.837 319.515 264.957 328.22Z" fill="#F0F3FA"/>
<path d="M304.935 93.3587V118.929C298.889 117.696 292.632 117.05 286.233 117.05C241.022 117.05 203.166 149.145 194.26 191.748C187.249 186.582 179.651 182.171 171.591 178.623C184.104 134.393 221.583 100.529 267.783 93.3252H304.709C304.784 93.3336 304.86 93.3504 304.935 93.3587Z" fill="#F0F3FA"/>
<path d="M348.98 377.851V403.958C309.917 394.447 278.333 365.623 264.957 328.22C271.859 329.47 278.971 330.124 286.233 330.124C288.498 330.124 290.754 330.057 292.993 329.931C304.272 352.616 324.475 370.127 348.98 377.851Z" fill="#F0F3FA"/>
<path d="M348.98 172.443V198.55C310.889 210.55 283.197 246.201 283.197 288.2C283.197 293.911 283.709 299.505 284.69 304.939C275.666 304.805 266.944 303.38 258.701 300.847C258.265 296.687 258.038 292.469 258.038 288.2C258.038 232.221 296.85 185.14 348.98 172.443Z" fill="#F0F3FA"/>
<path d="M292.993 329.931C290.754 330.057 288.498 330.124 286.233 330.124C278.971 330.124 271.859 329.47 264.957 328.22C261.837 319.515 259.715 310.349 258.701 300.847C266.945 303.38 275.666 304.805 284.69 304.939C286.284 313.754 289.11 322.148 292.993 329.931Z" fill="#991F36"/>
<path d="M151.02 171.747V197.795C156.689 199.514 162.132 201.753 167.298 204.47C167.776 195.564 169.243 186.909 171.591 178.623C165.025 175.739 158.14 173.424 151.02 171.747Z" fill="#F0F3FA"/>
<path d="M238.431 320.11C226.732 361.514 193.144 393.818 151.02 403.714V377.666C183.584 367.787 208.726 340.674 215.763 306.986C222.774 312.152 230.372 316.563 238.431 320.11Z" fill="#F0F3FA"/>
<path d="M242.725 294.263C242.247 303.17 240.779 311.825 238.431 320.11C230.372 316.563 222.774 312.152 215.763 306.986C217.063 300.771 217.75 294.33 217.75 287.73C217.75 283.143 217.423 278.64 216.777 274.228C224.157 282.33 232.938 289.139 242.725 294.263Z" fill="#991F36"/>
<path d="M192.273 211.012C192.273 215.591 192.6 220.094 193.245 224.505C185.865 216.404 177.085 209.594 167.298 204.47C167.776 195.564 169.243 186.909 171.592 178.623C179.651 182.171 187.249 186.582 194.26 191.748C192.96 197.962 192.273 204.411 192.273 211.012Z" fill="#F0F3FA"/>
<path d="M242.91 287.73C242.91 289.919 242.851 292.1 242.725 294.263C232.938 289.139 224.158 282.33 216.778 274.228C214.035 255.233 205.59 238.066 193.245 224.505C192.6 220.094 192.272 215.591 192.272 211.012C192.272 204.412 192.96 197.962 194.26 191.748C223.747 213.452 242.91 248.398 242.91 287.73Z" fill="#F0F3FA"/>
</g>
<defs>
<clipPath id="clip0_2003_11130">
<rect width="197.961" height="313.35" fill="white" transform="translate(151.02 93.3252)"/>
</clipPath>
</defs>
</svg>
