<svg width="500" height="500" viewBox="0 0 500 500" fill="none" xmlns="http://www.w3.org/2000/svg">
<rect width="500" height="500" fill="white"/>
<g clip-path="url(#clip0_2003_10917)">
<path d="M291.977 190.615C283.527 187.365 275.757 181.335 270.437 174.015L265.497 165.525C265.427 165.405 265.237 165.455 265.247 165.595C265.327 167.705 265.007 169.995 265.217 172.025C265.247 172.325 265.867 172.885 265.697 173.515C265.677 173.565 265.627 173.605 265.567 173.615C263.337 173.815 261.427 172.405 259.597 171.365C259.587 171.365 259.577 171.355 259.567 171.345C259.397 171.155 257.607 169.225 256.917 168.495C256.827 168.405 256.677 168.475 256.687 168.595C257.357 176.465 256.587 183.845 253.837 191.305C252.677 194.465 250.167 197.225 250.817 200.965C250.817 201.025 250.867 201.065 250.927 201.075C252.437 201.355 254.187 201.915 255.527 202.745C255.657 202.825 255.777 202.905 255.897 202.985C256.777 203.595 258.057 205.435 258.307 205.605C258.317 205.615 258.327 205.625 258.347 205.635C258.567 205.965 258.767 206.255 258.927 206.495C258.927 206.495 258.927 206.505 258.937 206.515C258.977 206.605 258.947 206.695 258.887 206.745C258.827 206.805 258.737 206.835 258.647 206.775C257.317 205.985 253.877 204.245 243.937 204.875C243.447 204.905 242.937 204.945 242.417 204.985C242.597 204.885 242.787 204.745 242.997 204.565C243.407 204.215 243.807 203.085 244.297 202.485C244.747 201.935 245.777 201.675 246.067 201.105C247.457 198.355 244.157 194.405 242.917 192.085C242.917 192.085 242.917 192.075 242.917 192.065L240.657 185.905C240.607 185.765 240.417 185.795 240.397 185.935C239.737 192.105 233.137 195.115 232.777 200.945C232.777 201.025 232.837 201.085 232.917 201.085C234.837 200.995 237.077 201.555 238.757 202.635H238.767C239.507 202.995 240.427 204.065 241.167 205.075C241.347 205.315 241.507 205.545 241.657 205.765C241.727 205.865 241.797 205.965 241.857 206.065C241.977 206.245 242.087 206.405 242.177 206.545C242.197 206.575 242.197 206.605 242.197 206.635C242.197 206.665 242.177 206.695 242.157 206.715C242.117 206.755 242.057 206.765 241.997 206.735C240.697 205.995 236.837 204.375 229.117 205.645C228.727 205.715 228.327 205.785 227.917 205.865C227.677 205.915 227.437 205.955 227.187 206.015C226.967 206.065 226.737 206.105 226.507 206.165C226.087 206.255 225.647 206.365 225.207 206.475C225.147 206.495 225.077 206.475 225.047 206.415C223.677 204.065 227.877 202.135 228.177 201.255C229.277 198.055 225.787 193.635 226.647 190.095C226.687 189.955 226.497 189.875 226.407 189.985C224.917 191.945 223.807 194.225 221.717 195.695C216.957 199.025 204.317 195.755 199.527 192.415C199.447 192.365 199.457 192.245 199.527 192.195C200.637 191.495 207.697 189.075 209.027 188.425C217.317 184.395 224.907 177.365 227.807 168.435C228.057 167.665 230.227 160.265 228.557 160.095C228.507 160.095 228.457 160.115 228.427 160.165C226.977 162.535 226.417 165.335 224.837 167.715C222.607 171.065 218.287 174.385 214.437 175.795C214.347 175.825 214.247 175.745 214.257 175.655C214.377 174.645 215.867 170.265 214.607 169.175C214.557 169.125 214.467 169.145 214.417 169.205C207.447 178.455 197.097 186.115 186.197 190.155C186.077 190.205 185.977 190.075 186.027 189.965C190.597 181.225 193.847 172.015 194.857 162.145C194.867 162.035 194.757 161.955 194.657 162.015L191.007 164.045C190.917 164.095 190.817 164.045 190.807 163.945C189.737 153.335 193.207 140.995 200.517 133.035C206.847 126.145 215.637 124.005 220.867 133.185C220.897 133.235 220.887 133.305 220.847 133.345C214.167 140.285 219.027 151.235 229.037 147.495C229.107 147.465 229.137 147.385 229.117 147.315C226.967 141.465 226.907 135.295 230.887 130.185C230.927 130.135 230.927 130.055 230.887 130.015L227.277 126.205C227.187 126.105 227.277 125.945 227.417 125.985C232.007 127.415 233.537 125.015 237.187 123.235C240.197 121.775 244.707 120.015 247.637 122.445C248.667 123.305 248.717 124.405 249.477 125.125C249.967 125.595 250.787 125.515 251.287 126.125C252.147 127.175 252.817 131.495 251.287 130.995C248.037 128.395 244.487 130.805 243.227 134.165C243.187 134.255 243.277 134.355 243.367 134.345C250.897 133.615 254.747 140.795 255.757 147.305C255.767 147.385 255.847 147.435 255.917 147.415C261.857 146.195 261.727 137.355 257.707 133.695C257.657 133.655 257.647 133.595 257.677 133.535C259.347 130.155 263.577 127.475 267.277 127.165C282.917 125.835 292.097 151.165 290.077 163.925C290.067 164.015 289.957 164.065 289.877 164.015L286.187 161.965C286.097 161.915 285.987 161.975 285.987 162.085C285.727 171.855 288.687 181.415 292.187 190.415C292.237 190.525 292.127 190.635 292.017 190.595L291.977 190.615Z" fill="#171D64"/>
<path d="M334.397 242.725C333.167 242.845 332.067 242.725 330.867 242.425C324.887 240.955 315.977 235.785 309.717 233.375C267.267 216.985 225.387 217.085 182.767 232.935C175.737 235.545 166.567 240.755 159.797 242.435C158.597 242.725 157.497 242.855 156.267 242.735C173.747 222.855 198.727 210.405 224.817 206.225C224.857 206.225 224.887 206.205 224.917 206.195C225.357 206.085 225.797 205.975 226.217 205.885C226.447 205.835 226.677 205.785 226.897 205.735C227.147 205.685 227.387 205.635 227.627 205.585C228.037 205.505 228.437 205.435 228.827 205.365C236.547 204.095 240.417 205.705 241.707 206.455C241.767 206.485 241.827 206.475 241.867 206.435C241.907 206.395 241.927 206.335 241.887 206.265C241.797 206.125 241.687 205.965 241.567 205.785C241.507 205.695 241.437 205.595 241.367 205.485C241.217 205.265 241.047 205.035 240.877 204.795C241.207 204.985 241.617 205.005 242.137 204.715C242.657 204.665 243.167 204.635 243.657 204.605C253.597 203.975 257.037 205.725 258.367 206.505C258.457 206.555 258.557 206.535 258.607 206.475C258.667 206.425 258.697 206.325 258.657 206.245C258.657 206.245 258.657 206.235 258.647 206.225C258.487 205.985 258.287 205.685 258.067 205.365C258.067 205.365 258.067 205.345 258.057 205.345C260.247 205.935 264.297 205.905 266.847 206.365C292.837 211.125 316.817 222.815 334.397 242.735V242.725Z" fill="#ED1B2F"/>
<path d="M241.916 206.355C241.916 206.355 241.896 206.415 241.876 206.435C241.896 206.415 241.906 206.385 241.916 206.355Z" fill="#ED1B2F"/>
<path d="M241.897 206.265C241.897 206.265 241.917 206.325 241.917 206.355C241.917 206.325 241.917 206.295 241.897 206.265C241.807 206.125 241.697 205.955 241.577 205.785C241.697 205.965 241.807 206.125 241.897 206.265Z" fill="#ED1B2F"/>
<path d="M258.627 206.465C258.567 206.525 258.477 206.555 258.387 206.495C257.057 205.705 253.617 203.965 243.677 204.595C253.857 203.905 257.497 205.625 258.637 206.465H258.627Z" fill="#ED1B2F"/>
<path d="M103.007 260.595C95.0866 256.685 77.8266 256.265 68.9966 257.135C68.3866 257.195 67.8166 257.135 67.5166 257.825C68.4466 262.315 71.6866 265.485 74.1866 269.115L74.6466 310.795H93.8166C94.4266 310.795 99.0066 309.525 99.8966 309.215C120.427 301.935 122.407 270.195 103.007 260.605V260.595ZM97.3066 297.595C96.2366 298.115 92.5366 299.525 91.5766 299.525H85.0366V268.875H92.4766C93.3566 268.875 96.9766 270.505 97.9666 271.055C107.697 276.505 107.357 292.715 97.3166 297.595H97.3066Z" fill="#171D64"/>
<path d="M306.746 255.525C271.416 256.085 276.666 318.645 311.876 311.035C340.476 304.855 336.596 255.055 306.746 255.525ZM307.116 300.005C290.576 300.345 289.656 269.295 305.436 267.185C323.366 264.785 325.016 299.635 307.116 300.005Z" fill="#171D64"/>
<path d="M219.406 257.605V310.785L216.906 310.365L187.396 283.075L186.046 282.405V310.795H174.776V257.615L177.286 258.045C186.876 266.095 195.436 275.465 204.986 283.535C205.826 284.245 207.066 285.345 208.156 285.555V257.615H219.426L219.406 257.605Z" fill="#171D64"/>
<path d="M272.617 281.045V306.055C249.847 321.085 224.907 304.355 229.917 277.345C233.667 257.115 255.357 250.665 272.177 260.305V273.375C269.637 270.955 266.637 269.125 263.257 268.095C233.727 259.105 233.537 307.175 261.807 299.525V292.085C261.807 289.525 257.847 283.385 256.397 281.045H272.627H272.617Z" fill="#171D64"/>
<path d="M419.856 299.525L420.536 300.205V310.795H388.066V257.615H422.786C422.846 260.385 421.136 264.465 419.136 266.365C418.786 266.705 415.996 268.435 415.796 268.435H399.336V278.355H417.376V289.175H399.336V299.545H419.856V299.525Z" fill="#171D64"/>
<path d="M144.966 258.325C144.096 257.115 141.936 257.635 140.566 257.685L116.146 311.235C124.176 310.955 130.816 306.375 133.346 298.685L133.956 298.575C137.886 299.135 141.846 299.585 145.586 300.975C153.156 303.785 159.256 310.875 168.006 311.235L144.976 258.315L144.966 258.325ZM137.786 288.705C137.106 288.055 142.146 278.715 142.306 276.985L149.066 291.855C145.356 290.725 141.756 288.815 137.796 288.705H137.786Z" fill="#171D64"/>
<path d="M379.047 257.605V268.425H363.717V310.795H352.437L351.987 268.425H336.657V257.605H379.047Z" fill="#171D64"/>
<path d="M168.993 354.864C168.993 359.088 167.341 362.346 164.047 364.639C161.15 366.687 157.503 367.716 153.126 367.716C147.819 367.716 143.631 366.687 140.572 364.639V354.738C141.817 356.11 143.568 357.292 145.824 358.303C148.081 359.314 150.274 359.81 152.404 359.81C156.231 359.81 158.135 358.357 158.135 355.451C158.135 353.637 156.366 351.777 152.846 349.882C150.03 348.357 147.873 347.156 146.384 346.272C142.151 343.736 140.039 340.261 140.039 335.838C140.039 335.432 140.057 335.053 140.102 334.692C140.346 331.037 142.052 328.203 145.229 326.19C148.09 324.385 151.664 323.474 155.969 323.474C160.798 323.474 164.543 324.457 167.197 326.434V335.55C164.218 332.896 160.698 331.569 156.637 331.569C152.936 331.569 151.086 332.68 151.086 334.891C151.086 336.705 152.918 338.636 156.574 340.685C158.18 341.57 160.373 342.815 163.153 344.431C167.052 346.886 169.011 350.369 169.011 354.873L168.993 354.864Z" fill="#171D64"/>
<path d="M214.679 349.674C214.679 355.469 212.956 359.927 209.517 363.041C206.078 366.164 201.277 367.716 195.121 367.716C188.966 367.716 184.155 366.155 180.699 363.041C177.242 359.918 175.509 355.469 175.509 349.674V334.584C175.509 329.674 174.182 326.777 171.529 325.892V324.566H186.439V349.918C186.439 352.454 187.062 354.548 188.307 356.2C189.832 358.249 192.125 359.277 195.184 359.277C197.883 359.277 200.022 358.465 201.611 356.832C203.199 355.198 203.993 352.896 203.993 349.918V324.566H214.679V349.674Z" fill="#171D64"/>
<path d="M260.971 364.332C256.665 366.669 251.25 367.843 244.734 367.843C237.532 367.843 231.737 365.992 227.351 362.292C222.685 358.348 220.347 352.815 220.347 345.694C220.347 339.052 222.721 333.663 227.468 329.521C232.053 325.495 237.811 323.483 244.734 323.483C251.656 323.483 256.277 324.548 259.337 326.678V335.667C256.277 333.014 252.017 331.687 246.539 331.687C242.396 331.687 238.921 332.986 236.124 335.577C233.326 338.176 231.927 341.543 231.927 345.685C231.927 349.828 233.299 353.14 236.033 355.731C238.768 358.33 242.207 359.62 246.349 359.62C247.721 359.62 249.084 359.503 250.456 359.259V352.202H243.994V344.774H260.953V364.323L260.971 364.332Z" fill="#171D64"/>
<path d="M308.345 366.76H296.467L293.002 357.707H276.657L273.398 366.76H262.902L279.743 324.575H290.971L308.354 366.76H308.345ZM290.258 350.577L285.565 338.393C285.204 337.382 284.906 336.19 284.671 334.819H284.554C284.391 335.866 284.094 337.048 283.66 338.384L279.256 350.577H290.258Z" fill="#171D64"/>
<path d="M350.295 366.76H338.67L333.571 358.014C331.396 354.268 329.627 351.813 328.264 350.649C327.334 349.882 326.251 349.503 325.006 349.503H323.137V366.76H312.217V334.593C312.217 329.683 310.89 326.786 308.236 325.901V324.575H329.175C333.435 324.575 336.856 325.694 339.437 327.923C342.009 330.152 343.3 333.185 343.3 337.003C343.3 339.051 342.722 340.965 341.576 342.734C340.43 344.503 338.887 345.793 336.955 346.597C338.399 347.562 340.412 350.135 342.993 354.323L344.446 356.678L350.304 366.76H350.295ZM332.244 337.301C332.244 335.568 331.72 334.223 330.674 333.257C329.627 332.291 328.183 331.813 326.332 331.813H323.137V342.734H326.332C328.183 342.734 329.627 342.246 330.674 341.29C331.72 340.324 332.244 338.997 332.244 337.31V337.301Z" fill="#171D64"/>
</g>
<defs>
<clipPath id="clip0_2003_10917">
<rect width="355.26" height="257.49" fill="white" transform="translate(67.5264 121.255)"/>
</clipPath>
</defs>
</svg>
