<svg width="500" height="500" viewBox="0 0 500 500" fill="none" xmlns="http://www.w3.org/2000/svg">
<rect width="500" height="500" fill="white"/>
<g clip-path="url(#clip0_2003_10891)">
<path d="M339.24 243.152C338.01 243.272 336.91 243.152 335.71 242.852C329.73 241.382 320.82 236.212 314.56 233.802C272.11 217.412 230.23 217.512 187.61 233.362C180.58 235.972 171.41 241.182 164.64 242.862C163.44 243.152 162.34 243.282 161.11 243.162C178.59 223.282 203.57 210.832 229.66 206.652C229.7 206.652 229.73 206.632 229.76 206.622C230.2 206.512 230.64 206.402 231.06 206.312C231.29 206.262 231.52 206.212 231.74 206.162C231.99 206.112 232.23 206.062 232.47 206.012C232.88 205.932 233.28 205.862 233.67 205.792C241.39 204.522 245.26 206.132 246.55 206.882C246.61 206.912 246.67 206.902 246.71 206.862C246.75 206.822 246.77 206.762 246.73 206.692C246.64 206.552 246.53 206.392 246.41 206.212C246.35 206.122 246.28 206.022 246.21 205.912C246.06 205.692 245.89 205.462 245.72 205.222C246.05 205.412 246.46 205.432 246.98 205.142C247.5 205.092 248.01 205.062 248.5 205.032C258.44 204.402 261.88 206.152 263.21 206.932C263.3 206.982 263.4 206.962 263.45 206.902C263.51 206.852 263.54 206.752 263.5 206.672C263.5 206.672 263.5 206.662 263.49 206.652C263.33 206.412 263.13 206.112 262.91 205.792C262.91 205.792 262.91 205.772 262.9 205.772C265.09 206.362 269.14 206.332 271.69 206.792C297.68 211.552 321.66 223.242 339.24 243.162V243.152Z" fill="#ED1B2F"/>
<path d="M246.76 206.782C246.76 206.782 246.74 206.842 246.72 206.862C246.74 206.842 246.75 206.812 246.76 206.782Z" fill="#ED1B2F"/>
<path d="M246.74 206.692C246.74 206.692 246.76 206.752 246.76 206.782C246.76 206.752 246.76 206.722 246.74 206.692C246.65 206.552 246.54 206.382 246.42 206.212C246.54 206.392 246.65 206.552 246.74 206.692Z" fill="#ED1B2F"/>
<path d="M263.471 206.892C263.411 206.952 263.321 206.982 263.231 206.922C261.901 206.132 258.461 204.392 248.521 205.022C258.701 204.332 262.341 206.052 263.481 206.892H263.471Z" fill="#ED1B2F"/>
<path d="M254.92 375.662H242.29L241.83 343.212L233.05 375.222L222.71 375.692L213.65 342.762C213.37 345.752 213.37 348.762 213.4 351.782L213.01 366.072V366.162C212.96 367.042 212.93 367.932 212.93 368.842V368.882L212.74 375.672H202.59L204.38 333.082H221.53L228.97 358.552L235.5 333.082H252.91L254.9 375.672L254.92 375.662Z" fill="#171D64"/>
<path d="M107.85 261.022C99.9303 257.112 82.6704 256.692 73.8404 257.562C73.2304 257.622 72.6604 257.562 72.3604 258.252C73.2904 262.742 76.5304 265.912 79.0304 269.542L79.4904 311.222H98.6604C99.2704 311.222 103.85 309.952 104.74 309.642C125.27 302.362 127.25 270.622 107.85 261.032V261.022ZM102.15 298.012C101.08 298.532 97.3804 299.942 96.4204 299.942H89.8804V269.292H97.3204C98.2004 269.292 101.82 270.922 102.81 271.472C112.54 276.922 112.2 293.132 102.16 298.012H102.15Z" fill="#171D64"/>
<path d="M311.59 255.952C276.26 256.512 281.51 319.072 316.72 311.462C345.32 305.282 341.44 255.482 311.59 255.952ZM311.96 300.432C295.42 300.772 294.5 269.722 310.28 267.612C328.21 265.212 329.86 300.062 311.96 300.432Z" fill="#171D64"/>
<path d="M224.25 258.032V311.212L221.75 310.792L192.24 283.502L190.89 282.832V311.222H179.62V258.042L182.13 258.472C191.72 266.522 200.28 275.892 209.83 283.962C210.67 284.672 211.91 285.772 213 285.982V258.042H224.27L224.25 258.032Z" fill="#171D64"/>
<path d="M277.461 281.472V306.482C254.691 321.512 229.751 304.782 234.761 277.772C238.511 257.542 260.201 251.092 277.021 260.732V273.802C274.481 271.382 271.481 269.552 268.101 268.522C238.571 259.532 238.381 307.602 266.651 299.952V292.512C266.651 289.952 262.691 283.812 261.241 281.472H277.471H277.461Z" fill="#171D64"/>
<path d="M424.7 299.952L425.38 300.632V311.222H392.91V258.042H427.63C427.69 260.812 425.98 264.892 423.98 266.792C423.63 267.132 420.84 268.862 420.64 268.862H404.18V278.782H422.22V289.602H404.18V299.972H424.7V299.952Z" fill="#171D64"/>
<path d="M323.69 375.662L304.98 350.872L305.87 375.662H295.05C295.6 368.352 295.43 339.332 294.63 333.072H306.21L322.55 354.922L322.1 333.072H332.48L332.92 375.662H323.67H323.69Z" fill="#171D64"/>
<path d="M149.81 258.742C148.94 257.532 146.78 258.052 145.41 258.102L120.99 311.652C129.02 311.372 135.66 306.792 138.19 299.102L138.8 298.992C142.73 299.552 146.69 300.002 150.43 301.392C158 304.202 164.1 311.292 172.85 311.652L149.82 258.732L149.81 258.742ZM142.63 289.132C141.95 288.482 146.99 279.142 147.15 277.412L153.91 292.282C150.2 291.152 146.6 289.242 142.64 289.132H142.63Z" fill="#171D64"/>
<path d="M288.84 366.202H273.86V358.312L274.54 357.632H286.94L287.39 349.062L273.86 349.522V341.412H287.5V333.082H260.7C260.18 333.562 260.79 333.842 260.79 333.982V375.672H288.27L288.84 366.212V366.202Z" fill="#171D64"/>
<path d="M197.55 366.202L196.86 375.662H169.24V333.972C169.24 333.832 169.09 333.562 168.95 333.072H195.7V341.402H182.31V349.512L195.84 349.052L195.38 357.622H182.3V366.192H197.53L197.55 366.202Z" fill="#171D64"/>
<path d="M383.89 258.032V268.852H368.56V311.212H357.28L356.83 268.852H341.5V258.032H383.89Z" fill="#171D64"/>
<path d="M164.28 363.952L163.78 374.712C150.27 379.162 134.58 376.312 131.5 360.442C127.32 338.882 143.77 326.712 163.79 333.802L163.38 344.572C161.37 343.702 160.05 342.232 157.7 341.912C147.22 340.462 143.85 348.252 144.89 357.422C145.98 367.032 157.32 369.002 164.28 363.952Z" fill="#171D64"/>
<path d="M369.01 341.862H359.09C359.31 350.942 359.07 360.072 359.07 369.152C359.07 371.532 358.87 372.982 358.87 375.672H346.02L346.47 341.872H336.55V333.542L337 333.092H369.46L369.02 341.872L369.01 341.862Z" fill="#171D64"/>
<path d="M296.57 190.762C288.12 187.512 280.35 181.482 275.03 174.162L270.09 165.672C270.02 165.552 269.83 165.602 269.84 165.742C269.92 167.852 269.6 170.142 269.81 172.172C269.84 172.472 270.46 173.032 270.29 173.662C270.27 173.712 270.22 173.752 270.16 173.762C267.93 173.962 266.02 172.552 264.19 171.512C264.18 171.512 264.17 171.502 264.16 171.492C263.99 171.302 262.2 169.372 261.51 168.642C261.42 168.552 261.27 168.622 261.28 168.742C261.95 176.612 261.18 183.992 258.43 191.452C257.27 194.612 254.76 197.372 255.41 201.112C255.41 201.172 255.46 201.212 255.52 201.222C257.03 201.502 258.78 202.062 260.12 202.892C260.25 202.972 260.37 203.052 260.49 203.132C261.37 203.742 262.65 205.582 262.9 205.752C262.91 205.762 262.92 205.772 262.94 205.782C263.16 206.112 263.36 206.402 263.52 206.642C263.52 206.642 263.52 206.652 263.53 206.662C263.57 206.752 263.54 206.842 263.48 206.892C263.42 206.952 263.33 206.982 263.24 206.922C261.91 206.132 258.47 204.392 248.53 205.022C248.04 205.052 247.53 205.092 247.01 205.132C247.19 205.032 247.38 204.892 247.59 204.712C248 204.362 248.4 203.232 248.89 202.632C249.34 202.082 250.37 201.822 250.66 201.252C252.05 198.502 248.75 194.552 247.51 192.232C247.51 192.232 247.51 192.222 247.51 192.212L245.25 186.052C245.2 185.912 245.01 185.942 244.99 186.082C244.33 192.252 237.73 195.262 237.37 201.092C237.37 201.172 237.43 201.232 237.51 201.232C239.43 201.142 241.67 201.702 243.35 202.782H243.36C244.1 203.142 245.02 204.212 245.76 205.222C245.94 205.462 246.1 205.692 246.25 205.912C246.32 206.012 246.39 206.112 246.45 206.212C246.57 206.392 246.68 206.552 246.77 206.692C246.79 206.722 246.79 206.752 246.79 206.782C246.79 206.812 246.77 206.842 246.75 206.862C246.71 206.902 246.65 206.912 246.59 206.882C245.29 206.142 241.43 204.522 233.71 205.792C233.32 205.862 232.92 205.932 232.51 206.012C232.27 206.062 232.03 206.102 231.78 206.162C231.56 206.212 231.33 206.252 231.1 206.312C230.68 206.402 230.24 206.512 229.8 206.622C229.74 206.642 229.67 206.622 229.64 206.562C228.27 204.212 232.47 202.282 232.77 201.402C233.87 198.202 230.38 193.782 231.24 190.242C231.28 190.102 231.09 190.022 231 190.132C229.51 192.092 228.4 194.372 226.31 195.842C221.55 199.172 208.91 195.902 204.12 192.562C204.04 192.512 204.05 192.392 204.12 192.342C205.23 191.642 212.29 189.222 213.62 188.572C221.91 184.542 229.5 177.512 232.4 168.582C232.65 167.812 234.82 160.412 233.15 160.242C233.1 160.242 233.05 160.262 233.02 160.312C231.57 162.682 231.01 165.482 229.43 167.862C227.2 171.212 222.88 174.532 219.03 175.942C218.94 175.972 218.84 175.892 218.85 175.802C218.97 174.792 220.46 170.412 219.2 169.322C219.15 169.272 219.06 169.292 219.01 169.352C212.04 178.602 201.69 186.262 190.79 190.302C190.67 190.352 190.57 190.222 190.62 190.112C195.19 181.372 198.44 172.162 199.45 162.292C199.46 162.182 199.35 162.102 199.25 162.162L195.6 164.192C195.51 164.242 195.41 164.192 195.4 164.092C194.33 153.482 197.8 141.142 205.11 133.182C211.44 126.292 220.23 124.152 225.46 133.332C225.49 133.382 225.48 133.452 225.44 133.492C218.76 140.432 223.62 151.382 233.63 147.642C233.7 147.612 233.73 147.532 233.71 147.462C231.56 141.612 231.5 135.442 235.48 130.332C235.52 130.282 235.52 130.202 235.48 130.162L231.87 126.352C231.78 126.252 231.87 126.092 232.01 126.132C236.6 127.562 238.13 125.162 241.78 123.382C244.79 121.922 249.3 120.162 252.23 122.592C253.26 123.452 253.31 124.552 254.07 125.272C254.56 125.742 255.38 125.662 255.88 126.272C256.74 127.322 257.41 131.642 255.88 131.142C252.63 128.542 249.08 130.952 247.82 134.312C247.78 134.402 247.87 134.502 247.96 134.492C255.49 133.762 259.34 140.942 260.35 147.452C260.36 147.532 260.44 147.582 260.51 147.562C266.45 146.342 266.32 137.502 262.3 133.842C262.25 133.802 262.24 133.742 262.27 133.682C263.94 130.302 268.17 127.622 271.87 127.312C287.51 125.982 296.69 151.312 294.67 164.072C294.66 164.162 294.55 164.212 294.47 164.162L290.78 162.112C290.69 162.062 290.58 162.122 290.58 162.232C290.32 172.002 293.28 181.562 296.78 190.562C296.83 190.672 296.72 190.782 296.61 190.742L296.57 190.762Z" fill="#171D64"/>
</g>
<defs>
<clipPath id="clip0_2003_10891">
<rect width="355.26" height="255.2" fill="white" transform="translate(72.3701 121.402)"/>
</clipPath>
</defs>
</svg>
