<svg width="500" height="500" viewBox="0 0 500 500" fill="none" xmlns="http://www.w3.org/2000/svg">
<rect width="500" height="500" fill="white"/>
<g clip-path="url(#clip0_2003_10774)">
<path d="M365.675 376.601H134.324V123.398H365.675V376.601ZM139.404 371.522H360.596V128.477H139.404V371.522Z" fill="#1489CC"/>
<path d="M275.954 257.866C275.827 258.196 275.713 258.539 275.611 258.882C275.675 258.691 275.738 258.501 275.789 258.323C275.84 258.171 275.89 258.018 275.954 257.866Z" fill="#1489CC"/>
<path d="M337.994 257.726C337.817 257.257 337.639 256.787 337.448 256.317C337.588 256.647 337.728 256.977 337.855 257.32C337.906 257.46 337.944 257.587 337.994 257.726Z" fill="#1489CC"/>
<path d="M338.515 259.263C338.439 258.996 338.35 258.742 338.261 258.488C338.312 258.615 338.35 258.742 338.401 258.882C338.439 259.009 338.477 259.136 338.515 259.263Z" fill="#1489CC"/>
<path d="M351.594 138.597V263.682H350.565C350.54 263.39 350.502 263.098 350.451 262.806C347.429 241.537 329.106 225.144 307 225.144C296.448 225.144 286.76 228.878 279.192 235.112C278.95 226.846 275.979 219.799 270.164 215.316C263.218 209.958 253.593 209.285 243.092 213.412C233.531 217.17 224.16 224.56 216.694 234.261C213.482 238.439 210.764 242.858 208.618 247.34C206.511 241.905 203.933 238.629 203.857 238.54L202.524 236.902L148.394 236.839V138.597H351.594Z" fill="#1489CC"/>
<path d="M196.708 278.792C194.448 282.246 191.362 285.826 187.274 289.471L148.381 289.255V245.727H148.394L198.079 245.778C200.86 250.273 206.942 263.237 196.708 278.792Z" fill="#1489CC"/>
<path d="M256.806 265.142C252.413 270.843 247.321 275.49 242.216 278.792C233.226 284.633 224.16 286.271 218.726 282.093C217.52 281.166 216.605 280.036 215.92 278.792C213.698 274.779 213.825 269.586 214.193 266.386C215.158 258.145 219.119 249.117 225.405 240.965C231.665 232.839 239.372 226.681 247.118 223.633C249.34 222.77 252.667 221.741 256.082 221.741C258.66 221.741 261.263 222.338 263.46 224.014C271.967 230.579 268.919 249.397 256.806 265.142Z" fill="#1489CC"/>
<path d="M340.001 269.065C340.001 269.522 339.988 269.98 339.975 270.437C339.963 270.665 339.95 270.906 339.937 271.135C339.925 271.427 339.899 271.719 339.861 272.011C339.848 272.278 339.823 272.532 339.785 272.798V272.824C339.747 273.243 339.683 273.662 339.62 274.081C339.544 274.614 339.442 275.147 339.341 275.668C339.328 275.693 339.328 275.719 339.315 275.744C339.226 276.227 339.112 276.709 338.985 277.179C338.858 277.725 338.706 278.258 338.541 278.792C338.261 279.706 337.931 280.595 337.576 281.471C337.461 281.763 337.334 282.055 337.22 282.334C337.157 282.449 337.106 282.576 337.055 282.69C336.903 283.02 336.75 283.337 336.598 283.655C336.001 284.848 335.341 286.017 334.604 287.121C334.388 287.451 334.16 287.782 333.931 288.099C333.703 288.442 333.449 288.772 333.208 289.089C332.408 290.143 331.531 291.146 330.605 292.099C330.338 292.378 330.059 292.657 329.766 292.924C329.741 292.962 329.703 293 329.665 293.013C329.398 293.267 329.144 293.508 328.878 293.75C328.776 293.851 328.662 293.94 328.548 294.029C328.294 294.257 328.04 294.473 327.773 294.676C326.986 295.324 326.16 295.933 325.31 296.492C324.967 296.733 324.611 296.962 324.256 297.178C323.71 297.521 323.151 297.851 322.58 298.143C322.148 298.371 321.729 298.6 321.284 298.803C320.878 299.006 320.459 299.197 320.04 299.375C319.405 299.654 318.758 299.908 318.097 300.136C317.767 300.263 317.412 300.378 317.069 300.492C316.472 300.682 315.85 300.86 315.228 301.025C314.745 301.152 314.25 301.266 313.755 301.368C313.628 301.393 313.501 301.419 313.374 301.444C312.955 301.533 312.536 301.609 312.117 301.673C311.99 301.686 311.85 301.711 311.71 301.724C311.418 301.774 311.126 301.812 310.834 301.838C310.517 301.876 310.199 301.914 309.882 301.939C309.717 301.939 309.552 301.965 309.387 301.978C309.107 302.003 308.815 302.016 308.523 302.028C308.028 302.054 307.508 302.066 307 302.066C306.492 302.066 305.971 302.054 305.476 302.028C305.184 302.028 304.892 302.003 304.613 301.978C304.447 301.965 304.282 301.952 304.117 301.939C303.8 301.914 303.482 301.876 303.165 301.838C302.873 301.812 302.581 301.774 302.289 301.724C302.149 301.711 302.009 301.686 301.883 301.673C301.464 301.609 301.044 301.533 300.625 301.444C300.498 301.419 300.371 301.393 300.245 301.368C299.749 301.266 299.254 301.152 298.772 301.025C298.149 300.86 297.527 300.682 296.93 300.492C296.588 300.378 296.232 300.263 295.902 300.136C295.242 299.908 294.594 299.654 293.959 299.375C293.54 299.197 293.121 299.006 292.715 298.803C292.27 298.6 291.851 298.371 291.42 298.143C290.848 297.851 290.29 297.521 289.744 297.178C289.388 296.962 289.033 296.733 288.69 296.492C287.839 295.933 287.014 295.324 286.226 294.676C285.96 294.473 285.706 294.257 285.452 294.029C285.338 293.94 285.223 293.851 285.122 293.75C284.855 293.508 284.601 293.267 284.334 293.013C284.296 293 284.258 292.962 284.233 292.924C283.941 292.657 283.661 292.378 283.395 292.099C282.468 291.146 281.592 290.143 280.792 289.089C280.551 288.772 280.297 288.442 280.068 288.099C279.839 287.782 279.611 287.451 279.395 287.121C278.659 286.017 277.998 284.848 277.401 283.655C277.249 283.337 277.097 283.02 276.944 282.69C276.894 282.576 276.843 282.449 276.779 282.334C276.665 282.055 276.538 281.763 276.424 281.471C276.068 280.595 275.738 279.706 275.459 278.792C275.294 278.258 275.141 277.725 275.014 277.179C274.887 276.709 274.773 276.227 274.684 275.744C274.672 275.719 274.672 275.693 274.659 275.668C274.557 275.147 274.456 274.614 274.379 274.081C274.316 273.662 274.252 273.243 274.214 272.824V272.798C274.176 272.532 274.151 272.278 274.138 272.011C274.1 271.719 274.075 271.427 274.062 271.135C274.049 270.906 274.037 270.665 274.024 270.437C274.011 269.98 273.999 269.522 273.999 269.065C273.999 268.672 274.011 268.291 274.024 267.897C274.024 267.554 274.049 267.211 274.075 266.869C274.087 266.538 274.126 266.208 274.151 265.878C274.202 265.37 274.265 264.85 274.341 264.342C274.367 264.113 274.405 263.872 274.456 263.631C274.456 263.555 274.468 263.466 274.494 263.389C274.506 263.301 274.519 263.224 274.532 263.148C274.545 263.097 274.557 263.034 274.57 262.983C274.57 262.958 274.57 262.92 274.583 262.894C274.608 262.755 274.633 262.615 274.659 262.488C274.659 262.45 274.659 262.399 274.684 262.361C274.773 261.891 274.887 261.447 275.002 260.99C275.04 260.825 275.078 260.672 275.129 260.507C275.205 260.177 275.306 259.86 275.408 259.542C275.471 259.314 275.535 259.098 275.611 258.882C275.713 258.539 275.827 258.196 275.954 257.866C276.094 257.485 276.233 257.104 276.386 256.736C276.475 256.52 276.563 256.317 276.652 256.101C276.767 255.822 276.894 255.53 277.033 255.25C277.16 254.971 277.3 254.692 277.44 254.412C277.655 253.968 277.897 253.523 278.138 253.079C278.341 252.698 278.557 252.33 278.786 251.962C278.951 251.695 279.128 251.416 279.306 251.149C279.42 250.959 279.547 250.768 279.674 250.59C279.916 250.235 280.157 249.879 280.424 249.536C280.665 249.206 280.919 248.876 281.173 248.559C281.477 248.178 281.782 247.81 282.1 247.441C282.125 247.39 282.163 247.352 282.214 247.314C282.468 247.01 282.735 246.718 283.027 246.425C283.128 246.298 283.242 246.184 283.357 246.07C283.636 245.778 283.928 245.486 284.22 245.219C284.258 245.168 284.309 245.118 284.36 245.08C284.715 244.737 285.084 244.407 285.464 244.089C285.858 243.746 286.252 243.416 286.671 243.099C287.077 242.781 287.483 242.464 287.915 242.172C288.309 241.892 288.702 241.626 289.109 241.359C289.185 241.296 289.248 241.258 289.325 241.232C289.718 240.965 290.125 240.724 290.544 240.483C290.874 240.28 291.217 240.089 291.559 239.912C291.585 239.899 291.623 239.873 291.648 239.873C291.991 239.683 292.347 239.493 292.715 239.327C293.185 239.099 293.68 238.87 294.175 238.667C294.658 238.451 295.165 238.261 295.673 238.07C296.08 237.918 296.511 237.778 296.93 237.639C297.578 237.423 298.226 237.245 298.899 237.08C299.254 236.978 299.622 236.89 299.991 236.826C300.232 236.763 300.473 236.712 300.714 236.674C301.616 236.496 302.53 236.356 303.47 236.255C303.622 236.242 303.749 236.229 303.901 236.204C304.257 236.178 304.612 236.153 304.981 236.128C305.26 236.102 305.552 236.09 305.844 236.09C306.225 236.077 306.606 236.064 307 236.064C307.393 236.064 307.787 236.064 308.181 236.09C308.46 236.09 308.739 236.102 309.006 236.128C310.466 236.217 311.888 236.394 313.285 236.674C313.526 236.712 313.767 236.763 314.009 236.826C314.377 236.89 314.745 236.978 315.101 237.08C315.774 237.245 316.434 237.436 317.082 237.639C317.501 237.778 317.92 237.918 318.326 238.07C318.834 238.261 319.342 238.451 319.824 238.667C320.319 238.87 320.815 239.099 321.284 239.327C321.653 239.493 322.008 239.683 322.351 239.873C322.376 239.873 322.415 239.899 322.44 239.912C322.783 240.089 323.126 240.28 323.456 240.483C324.154 240.877 324.84 241.296 325.5 241.753C325.856 241.994 326.211 242.248 326.554 242.502C326.694 242.591 326.821 242.692 326.948 242.794C327.227 243.01 327.494 243.213 327.76 243.429C328.56 244.076 329.322 244.762 330.046 245.473C330.236 245.651 330.427 245.841 330.605 246.032C331.392 246.832 332.141 247.683 332.827 248.559C333.081 248.876 333.335 249.206 333.576 249.536C333.842 249.879 334.084 250.235 334.325 250.59C334.452 250.768 334.579 250.959 334.693 251.149C334.871 251.416 335.049 251.695 335.214 251.962C335.442 252.33 335.658 252.698 335.861 253.079C336.128 253.549 336.382 254.031 336.623 254.527C336.903 255.085 337.157 255.644 337.41 256.228C337.41 256.266 337.423 256.292 337.449 256.317C337.639 256.787 337.817 257.257 337.995 257.726C338.083 257.98 338.185 258.234 338.261 258.488C338.35 258.742 338.439 258.996 338.515 259.263C338.553 259.39 338.591 259.517 338.629 259.644C338.731 259.948 338.807 260.266 338.896 260.583C338.934 260.723 338.972 260.85 338.998 260.99C339.112 261.447 339.226 261.891 339.315 262.361C339.328 262.399 339.328 262.45 339.341 262.488C339.404 262.78 339.455 263.085 339.506 263.389C339.531 263.466 339.544 263.555 339.544 263.631C339.594 263.872 339.633 264.113 339.658 264.342C339.734 264.85 339.798 265.37 339.848 265.878C339.874 266.208 339.912 266.538 339.925 266.869C339.95 267.211 339.963 267.554 339.975 267.897C339.975 268.291 340.001 268.672 340.001 269.065Z" fill="#1489CC"/>
</g>
<defs>
<clipPath id="clip0_2003_10774">
<rect width="231.351" height="253.203" fill="white" transform="translate(134.324 123.398)"/>
</clipPath>
</defs>
</svg>
