<svg width="500" height="500" viewBox="0 0 500 500" fill="none" xmlns="http://www.w3.org/2000/svg">
<rect width="500" height="500" fill="white"/>
<g clip-path="url(#clip0_2003_10060)">
<path d="M235.258 112.328L259.213 124.861L398.547 387.672H121.356L101.454 369.245L235.258 112.328Z" fill="#231F20"/>
<path d="M258.163 136.277L387.861 380.923H129.835L258.163 136.277Z" fill="url(#paint0_linear_2003_10060)"/>
<path d="M257.373 164.299C257.373 164.299 247.974 176.466 249.632 189.919C251.29 203.372 253.685 206.688 253.685 206.688C253.685 206.688 259.769 194.155 259.397 187.889C259.025 181.622 256.629 170.565 257.367 164.299H257.373Z" fill="#ED1C24"/>
<path d="M265.48 185.187C265.48 185.187 272.112 194.951 269.905 207.301C267.699 219.651 261.426 214.122 260.689 229.788C260.689 229.788 252.765 223.887 257.738 213.019C262.712 202.151 266.4 197.719 265.48 185.187Z" fill="#ED1C24"/>
<path d="M281.7 216.153C281.7 216.153 273.593 219.469 275.069 229.423C276.544 239.378 281.518 234.952 281.335 242.876L280.414 249.508C280.414 249.508 286.315 242.876 285.943 235.318C285.571 227.759 278.939 228.686 281.707 216.153H281.7Z" fill="#ED1C24"/>
<path d="M244.161 212.099C244.161 212.099 254.357 222.666 242.81 238.639C231.263 254.611 234.579 256.824 234.579 256.824C234.579 256.824 224.54 251.335 232.614 237.536C240.232 224.514 242.321 228.319 244.161 212.105V212.099Z" fill="#ED1C24"/>
<path d="M261.159 277.236C261.002 277.614 260.826 277.993 260.63 278.384C259.67 280.304 258.861 282.046 258.176 283.626C254.488 292.157 254.488 295.832 254.488 295.832C254.488 295.832 249.56 292.307 250.584 283.626C250.767 282.053 251.146 280.31 251.785 278.384C251.935 277.941 252.073 277.51 252.21 277.099C255.924 265.93 255.408 266.851 253.75 260.447C253.75 260.447 265.956 265.747 261.159 277.236Z" fill="#ED1C24"/>
<path d="M299.755 263.437C299.755 263.659 299.735 263.881 299.703 264.103C299.683 264.253 299.651 264.41 299.611 264.56C299.579 264.69 299.546 264.814 299.5 264.938C299.461 265.069 299.409 265.199 299.357 265.323C299.35 265.337 299.35 265.35 299.337 265.356C299.298 265.467 299.246 265.578 299.181 265.689C299.168 265.728 299.148 265.761 299.128 265.8C299.089 265.878 299.043 265.963 298.991 266.041C298.959 266.107 298.919 266.165 298.874 266.231C298.815 266.335 298.743 266.433 298.678 266.531C298.658 266.551 298.645 266.57 298.632 266.59C298.541 266.714 298.443 266.838 298.345 266.962C298.247 267.092 298.13 267.223 298.006 267.353C298.084 267.262 298.169 267.177 298.234 267.086C298.417 266.857 298.587 266.629 298.737 266.4C298.828 266.263 298.913 266.126 298.991 265.989C299.004 265.957 299.024 265.924 299.037 265.898C299.128 265.741 299.2 265.585 299.272 265.428C299.305 265.356 299.331 265.278 299.363 265.206C299.579 264.625 299.696 264.038 299.696 263.444C299.696 263.169 299.67 262.902 299.624 262.634C299.618 262.575 299.605 262.523 299.592 262.471C299.592 262.464 299.592 262.458 299.592 262.451C299.572 262.34 299.546 262.229 299.513 262.125C299.494 262.04 299.468 261.955 299.435 261.877C299.396 261.74 299.344 261.609 299.278 261.472C299.246 261.381 299.2 261.283 299.148 261.185C299.102 261.087 299.05 260.983 298.991 260.885C298.88 260.683 298.75 260.474 298.606 260.271C298.515 260.141 298.423 260.017 298.325 259.893C298.123 259.638 297.895 259.384 297.653 259.136C297.536 259.012 297.418 258.894 297.288 258.777C297.222 258.718 297.157 258.652 297.092 258.594C298.587 259.893 299.5 261.303 299.709 262.765C299.742 262.987 299.761 263.215 299.761 263.437H299.755Z" stroke="#ED1C24" stroke-width="0.652736" stroke-miterlimit="10"/>
<path d="M250.754 277.014C238.437 276.224 228.071 273.587 222.295 270.003C219.162 268.045 217.38 265.813 217.38 263.437C217.38 260.056 220.989 256.955 226.994 254.553C234.54 251.531 245.865 249.605 258.522 249.605C271.178 249.605 282.503 251.531 290.049 254.553C291.55 255.154 292.908 255.8 294.096 256.479C294.318 256.609 294.533 256.733 294.742 256.864C294.873 256.942 294.997 257.027 295.121 257.112C295.186 257.151 295.251 257.197 295.316 257.236H295.323C295.329 257.242 295.342 257.249 295.349 257.256H295.356C295.356 257.256 295.375 257.269 295.388 257.282C295.421 257.301 295.46 257.321 295.493 257.347C295.623 257.432 295.747 257.523 295.865 257.608C295.878 257.615 295.891 257.628 295.904 257.641C295.923 257.654 295.936 257.66 295.95 257.667C295.982 257.686 296.008 257.712 296.034 257.732C296.087 257.771 296.139 257.81 296.185 257.843C296.25 257.895 296.315 257.941 296.374 257.987C296.406 258.013 296.439 258.039 296.472 258.065C296.602 258.176 296.733 258.28 296.85 258.378C296.85 258.385 296.87 258.391 296.876 258.404C296.948 258.463 297.02 258.528 297.085 258.587C297.151 258.646 297.216 258.711 297.281 258.77C297.412 258.887 297.529 259.005 297.647 259.129C297.888 259.377 298.117 259.632 298.319 259.886C298.417 260.01 298.508 260.134 298.6 260.265C298.743 260.467 298.874 260.676 298.985 260.878C299.044 260.976 299.096 261.081 299.141 261.178C299.187 261.27 299.233 261.368 299.272 261.466C299.337 261.603 299.389 261.733 299.429 261.87C299.461 261.949 299.487 262.034 299.507 262.112C299.54 262.223 299.566 262.334 299.585 262.445C299.585 262.451 299.585 262.458 299.585 262.464C299.598 262.517 299.611 262.569 299.618 262.628C299.664 262.895 299.69 263.163 299.69 263.437C299.69 264.031 299.572 264.618 299.357 265.199C299.324 265.271 299.298 265.349 299.265 265.421C299.194 265.578 299.115 265.735 299.03 265.891C299.017 265.917 298.998 265.95 298.985 265.983C298.906 266.12 298.822 266.257 298.73 266.394C298.58 266.622 298.41 266.851 298.228 267.079C298.162 267.171 298.077 267.255 297.999 267.347C297.927 267.438 297.842 267.53 297.758 267.614C297.679 267.699 297.594 267.791 297.503 267.876C297.301 268.078 297.085 268.274 296.857 268.47C296.243 268.985 295.545 269.488 294.762 269.977C288.384 273.953 276.4 276.759 262.36 277.197" stroke="#ED1C24" stroke-width="1.30547" stroke-miterlimit="10"/>
<path d="M249.775 276.949C237.889 276.088 227.915 273.496 222.288 270.004C219.155 268.046 217.373 265.813 217.373 263.438V283.738C217.373 299.723 235.8 312.686 258.535 312.686C281.27 312.686 299.69 299.723 299.69 283.738V283.627H299.696V264.103C299.677 264.26 299.644 264.41 299.605 264.56C299.572 264.691 299.54 264.815 299.494 264.939C299.455 265.069 299.403 265.2 299.35 265.324C299.344 265.337 299.344 265.35 299.331 265.357C299.292 265.468 299.24 265.578 299.174 265.689C299.161 265.729 299.142 265.761 299.122 265.8C299.083 265.879 299.037 265.964 298.985 266.042C298.952 266.107 298.913 266.166 298.867 266.231C298.809 266.336 298.737 266.434 298.672 266.531C298.652 266.551 298.639 266.571 298.626 266.59C298.535 266.714 298.437 266.838 298.339 266.962C298.306 267.001 298.273 267.047 298.228 267.086C298.162 267.178 298.078 267.263 297.999 267.354C297.928 267.445 297.843 267.537 297.758 267.622C297.679 267.706 297.595 267.798 297.503 267.883C297.301 268.085 297.085 268.281 296.857 268.477C296.243 268.992 295.545 269.495 294.762 269.984C288.587 273.829 277.157 276.584 263.705 277.158" stroke="#ED1C24" stroke-width="1.30547" stroke-miterlimit="10"/>
<path d="M299.703 264.102V262.764" stroke="#ED1C24" stroke-width="0.652736" stroke-miterlimit="10"/>
<path d="M279.553 351.855C279.553 351.855 291.596 341.164 284.958 326.79C278.319 312.417 296.139 309.467 300.565 295.211L299.703 305.041L304.129 298.285C304.129 298.285 301.302 310.08 302.405 317.822C303.508 325.563 295.036 347.802 279.553 351.855Z" fill="#ED1C24"/>
<path d="M271.994 313.214C273.3 314.023 274.553 315.015 275.617 316.132C278.939 319.617 276.531 324.806 275.434 328.821C275.434 328.821 281.948 327.718 281.087 334.225C280.225 340.733 274.82 352.659 274.82 352.659C274.82 352.659 271.629 349.467 272.732 345.041C273.698 341.171 277.02 334.48 274.461 332.868C273.77 332.43 272.849 332.711 272.399 333.39L269.657 337.548C269.657 337.548 266.341 333.122 269.657 327.352C272.973 321.582 272.177 314.696 271.994 313.22V313.214Z" fill="#ED1C24"/>
<path d="M238.209 329.434C238.209 329.434 244.723 332.385 243.985 340.616C243.248 348.847 243.496 352.9 246.936 354.989C246.936 354.989 248.489 355.589 248.672 356.373C248.567 355.942 249.755 354.401 249.971 354.042C251.094 352.189 253.456 350.289 253.391 347.9C253.326 345.309 250.062 343.168 248.528 341.373C246.87 339.441 244.703 336.934 245.056 334.193C245.252 332.659 246.172 331.125 246.759 329.715C247.993 326.771 249.769 323.579 250.01 320.335C250.252 317.091 244.847 312.293 247.934 299.97C247.934 299.97 260.33 307.731 258.3 321.693C257.817 325.002 257.138 328.39 255.695 331.432C254.573 333.788 251.172 337.117 253.535 339.754C253.639 339.872 253.757 339.982 253.894 340.061C254.018 340.133 254.161 340.178 254.299 340.224C255.663 340.694 256.851 341.706 257.928 342.639C260.121 344.545 260.624 347.221 259.547 349.884C258.287 353.005 255.839 355.596 253.404 357.848C253.13 358.096 249.52 361.497 249.233 361.281C249.233 361.281 244.703 356.797 239.821 354.31C234.938 351.823 236.133 341.131 238.62 336.804C241.107 332.476 238.202 329.421 238.202 329.421L238.209 329.434Z" fill="#ED1C24"/>
<path d="M216.505 308.801C216.505 308.801 223.137 305.485 215.95 291.843C215.95 291.843 213.803 289.813 214.658 283.919C214.658 283.919 207.412 288.945 211.035 297.744C213.183 302.966 216.316 301.491 216.505 308.801Z" fill="#ED1C24"/>
<path d="M228.431 307.306C228.431 307.306 236.355 310.439 231.257 329.976C231.257 329.976 229.292 340.172 233.47 349.329C233.47 349.329 229.044 349.578 226.1 342.756C226.1 342.756 223.215 347.117 218.483 347.424C218.483 347.424 218.666 345.276 217.008 337.345C215.35 329.415 218.052 319.65 217.008 316.889L221.127 321.432L221.375 313.135C221.375 313.135 224.26 320.139 225.428 319.832C226.596 319.526 226.858 315.74 228.254 313.997C229.482 312.463 228.437 307.3 228.437 307.3L228.431 307.306Z" fill="#ED1C24"/>
<path d="M304.37 268.933L317.699 260.121L318.567 261.433L305.238 270.245L304.37 268.933ZM307.725 274.011L304.977 269.853L306.054 269.142L308.789 273.28C309.409 274.22 310.147 274.814 310.995 275.062C311.844 275.31 312.666 275.167 313.463 274.644C314.272 274.109 314.709 273.378 314.768 272.445C314.827 271.511 314.514 270.526 313.822 269.481L311.309 265.676L312.366 264.977L314.631 268.411C315.264 269.364 315.982 269.971 316.785 270.225C317.595 270.48 318.358 270.369 319.076 269.899C319.833 269.396 320.251 268.731 320.323 267.889C320.395 267.053 320.127 266.165 319.514 265.239L317.223 261.766L318.3 261.055L320.604 264.547C321.485 265.878 321.877 267.145 321.779 268.346C321.681 269.547 321.1 270.5 320.042 271.198C319.246 271.727 318.397 271.916 317.503 271.766C316.609 271.616 315.754 271.087 314.944 270.173L315.277 269.951C315.982 271.25 316.237 272.432 316.028 273.496C315.819 274.56 315.251 275.402 314.324 276.015C313.162 276.785 311.994 276.988 310.826 276.622C309.657 276.257 308.619 275.389 307.712 274.018L307.725 274.011Z" fill="black"/>
<path d="M311.55 280.447L326.563 274.971L327.105 276.452L312.092 281.929L311.55 280.447ZM314.951 289.762L318.691 287.268C319.324 286.851 319.775 286.446 320.036 286.054C320.297 285.656 320.408 285.219 320.369 284.736C320.323 284.253 320.186 283.678 319.944 283.012L318.613 279.37L319.605 279.011L321.021 282.895C321.367 283.848 321.57 284.657 321.615 285.304C321.661 285.95 321.517 286.537 321.191 287.046C320.858 287.562 320.316 288.071 319.553 288.58L315.525 291.328L314.951 289.762ZM320.329 283.195L318.789 278.979L319.735 278.633L321.211 282.673C321.609 283.763 322.19 284.52 322.953 284.951C323.717 285.382 324.566 285.428 325.493 285.088C326.406 284.755 327.013 284.181 327.327 283.358C327.633 282.536 327.594 281.589 327.203 280.512L325.721 276.452L326.935 276.009L328.423 280.095C328.978 281.609 329.05 282.954 328.645 284.129C328.241 285.304 327.398 286.119 326.119 286.589C324.84 287.059 323.684 286.975 322.666 286.348C321.648 285.721 320.865 284.67 320.329 283.195Z" fill="black"/>
<path d="M317.111 304.71L329.67 298.091L330.976 297.458L330.989 297.549L329.585 297.223L315.923 293.346L315.76 291.779L332.32 296.459L332.516 298.307L317.301 306.361L317.124 304.703L317.111 304.71ZM320.225 294.364L321.511 294.227L322.399 302.641L321.113 302.778L320.225 294.364Z" fill="black"/>
<path d="M315.499 318.482L331.296 320.877L331.054 322.457L315.258 320.061L315.499 318.482ZM315.512 318.417L328.815 312.189L332.862 310.59L332.653 311.981L319.279 318.221L315.31 319.807L315.519 318.41L315.512 318.417ZM317.099 307.934L332.895 310.329L332.66 311.883L316.864 309.487L317.099 307.934Z" fill="black"/>
<path d="M313.665 327.874C313.13 329.095 312.914 330.25 313.019 331.334C313.123 332.424 313.528 333.403 314.233 334.265C314.938 335.133 315.93 335.844 317.209 336.406C318.515 336.98 319.722 337.234 320.839 337.169C321.955 337.104 322.947 336.738 323.822 336.079C324.696 335.42 325.395 334.48 325.93 333.259L327.444 329.819L328.626 330.342L327.111 333.781C326.446 335.302 325.577 336.477 324.507 337.306C323.443 338.135 322.229 338.618 320.878 338.742C319.52 338.866 318.077 338.592 316.544 337.913C315.023 337.248 313.848 336.373 313.025 335.289C312.196 334.206 311.733 332.992 311.635 331.647C311.537 330.302 311.818 328.866 312.483 327.352L313.998 323.912L315.179 324.434L313.665 327.874ZM314.435 322.9L329.063 329.33L328.43 330.772L313.802 324.343L314.435 322.9Z" fill="black"/>
<path d="M188.372 322.999L187.106 323.253L185.246 313.945L186.512 313.691L188.372 322.999ZM202.987 321.204L187.321 324.337L187.015 322.79L202.68 319.657L202.987 321.204ZM195.676 321.537L194.41 321.791L192.713 313.312L193.979 313.058L195.676 321.537Z" fill="black"/>
<path d="M201.022 308.515L185.056 309.213L184.985 307.64L200.951 306.941L201.016 308.515H201.022Z" fill="black"/>
<path d="M200.715 303.6L184.847 301.707L185.037 300.147L200.905 302.04L200.715 303.6ZM194.123 297.184L193.594 301.642L192.589 301.525L193.098 297.256C193.235 296.107 193.059 295.167 192.569 294.436C192.08 293.705 191.349 293.287 190.363 293.17C189.397 293.052 188.594 293.294 187.948 293.888C187.302 294.482 186.91 295.343 186.773 296.479L186.264 300.774L184.978 300.624L185.494 296.309C185.683 294.71 186.225 293.476 187.119 292.608C188.013 291.747 189.136 291.394 190.487 291.551C191.838 291.714 192.83 292.301 193.457 293.326C194.084 294.351 194.306 295.637 194.123 297.19V297.184ZM201.89 293.757L197.426 294.292C196.675 294.377 196.094 294.534 195.676 294.769C195.265 295.004 194.965 295.35 194.782 295.8C194.599 296.25 194.469 296.831 194.384 297.53L193.927 301.381L192.876 301.257L193.366 297.151C193.483 296.14 193.672 295.337 193.927 294.736C194.182 294.136 194.567 293.679 195.095 293.372C195.624 293.065 196.342 292.856 197.256 292.745L202.086 292.112L201.89 293.77V293.757Z" fill="black"/>
<path d="M202.713 290.198L187.68 284.781L188.215 283.299L203.248 288.723L202.713 290.205V290.198ZM189.273 284.18L188.059 283.743L191.277 274.813L192.491 275.251L189.273 284.18ZM195.905 286.569L194.664 286.125L197.602 277.992L198.842 278.436L195.905 286.569ZM203.091 289.161L201.877 288.723L205.095 279.794L206.309 280.231L203.091 289.161Z" fill="black"/>
<path d="M314.154 354.383C315.733 354.383 317.013 353.103 317.013 351.524C317.013 349.945 315.733 348.665 314.154 348.665C312.575 348.665 311.295 349.945 311.295 351.524C311.295 353.103 312.575 354.383 314.154 354.383Z" fill="black"/>
<path d="M297.751 362.856C299.33 362.856 300.61 361.576 300.61 359.997C300.61 358.418 299.33 357.138 297.751 357.138C296.172 357.138 294.892 358.418 294.892 359.997C294.892 361.576 296.172 362.856 297.751 362.856Z" fill="black"/>
<path d="M293.607 367.743C295.186 367.743 296.466 366.463 296.466 364.884C296.466 363.305 295.186 362.025 293.607 362.025C292.028 362.025 290.748 363.305 290.748 364.884C290.748 366.463 292.028 367.743 293.607 367.743Z" fill="black"/>
<path d="M278.123 369.86C279.702 369.86 280.982 368.58 280.982 367.001C280.982 365.422 279.702 364.142 278.123 364.142C276.544 364.142 275.264 365.422 275.264 367.001C275.264 368.58 276.544 369.86 278.123 369.86Z" fill="black"/>
<path d="M273.978 374.747C275.557 374.747 276.837 373.467 276.837 371.888C276.837 370.309 275.557 369.029 273.978 369.029C272.399 369.029 271.119 370.309 271.119 371.888C271.119 373.467 272.399 374.747 273.978 374.747Z" fill="black"/>
<path d="M253.515 373.964C255.094 373.964 256.374 372.684 256.374 371.105C256.374 369.526 255.094 368.246 253.515 368.246C251.937 368.246 250.656 369.526 250.656 371.105C250.656 372.684 251.937 373.964 253.515 373.964Z" fill="black"/>
<path d="M247.53 373.964C249.109 373.964 250.389 372.684 250.389 371.105C250.389 369.526 249.109 368.246 247.53 368.246C245.951 368.246 244.671 369.526 244.671 371.105C244.671 372.684 245.951 373.964 247.53 373.964Z" fill="black"/>
<path d="M233.887 368.618C235.466 368.618 236.746 367.338 236.746 365.759C236.746 364.18 235.466 362.9 233.887 362.9C232.308 362.9 231.028 364.18 231.028 365.759C231.028 367.338 232.308 368.618 233.887 368.618Z" fill="black"/>
<path d="M227.902 368.618C229.481 368.618 230.761 367.338 230.761 365.759C230.761 364.18 229.481 362.9 227.902 362.9C226.323 362.9 225.043 364.18 225.043 365.759C225.043 367.338 226.323 368.618 227.902 368.618Z" fill="black"/>
<path d="M214.351 358.39C215.93 358.39 217.21 357.11 217.21 355.531C217.21 353.952 215.93 352.672 214.351 352.672C212.772 352.672 211.492 353.952 211.492 355.531C211.492 357.11 212.772 358.39 214.351 358.39Z" fill="black"/>
</g>
<defs>
<linearGradient id="paint0_linear_2003_10060" x1="258.848" y1="136.277" x2="258.848" y2="377.346" gradientUnits="userSpaceOnUse">
<stop stop-color="#FFF315"/>
<stop offset="1" stop-color="white"/>
</linearGradient>
<clipPath id="clip0_2003_10060">
<rect width="297.093" height="275.344" fill="white" transform="translate(101.454 112.328)"/>
</clipPath>
</defs>
</svg>
