<svg width="500" height="500" viewBox="0 0 500 500" fill="none" xmlns="http://www.w3.org/2000/svg">
<rect width="500" height="500" fill="white"/>
<g clip-path="url(#clip0_2003_10724)">
<path d="M119.09 214.375L114.8 237.135L135.09 237.205L134.01 242.965L113.71 242.885L109 267.805L131.59 267.885L130.51 273.645L105.61 273.555C102.05 273.545 99.37 270.305 100.04 266.795L110.15 213.225C110.66 210.525 113.02 208.575 115.77 208.585L142.77 208.685L141.69 214.445L119.1 214.365L119.09 214.375Z" fill="#00597D"/>
<path d="M149 247.935C147.82 254.165 148.01 259.115 149.58 262.775C151.17 266.615 154.09 268.555 158.34 268.565C161.32 268.575 164.2 267.765 166.96 266.145L168.16 271.335C165.08 273.595 160.85 274.715 155.48 274.695C149.5 274.675 145.06 272.265 142.16 267.465C139.25 262.675 138.56 256.245 140.08 248.185C141.63 240.005 144.8 233.535 149.62 228.755C154.2 224.175 159.54 221.895 165.65 221.925C170.82 221.935 174.55 223.085 176.85 225.355L173.85 230.165C171.84 228.525 169.34 227.695 166.35 227.685C157.33 227.645 151.54 234.405 148.99 247.925L149 247.935Z" fill="#00597D"/>
<path d="M215.67 229.655C212.97 224.605 208.1 222.075 201.07 222.045C194.17 222.015 188.42 224.515 183.82 229.545C179.57 234.125 176.69 240.415 175.18 248.405C173.69 256.265 174.17 262.535 176.6 267.205C179.37 272.255 184.23 274.795 191.2 274.825C198.16 274.845 203.95 272.345 208.54 267.325C212.74 262.675 215.58 256.425 217.06 248.555C218.58 240.505 218.11 234.205 215.65 229.655H215.67ZM208.23 248.535C205.64 262.255 200.33 269.105 192.3 269.065C184.21 269.035 181.46 262.165 184.05 248.445C186.71 234.345 192.09 227.315 200.18 227.345C208.2 227.375 210.89 234.445 208.23 248.535Z" fill="#00597D"/>
<path d="M263.64 229.535C260.69 224.935 256.1 222.625 249.87 222.605C245.76 222.595 241.97 223.325 238.5 224.825L244.17 194.045L234.55 199.875L221.06 271.335C224.45 273.745 229.57 274.955 236.4 274.985C244.23 275.015 250.77 272.525 256.04 267.505C261.05 262.745 264.35 256.195 265.92 247.835C267.36 240.235 266.6 234.135 263.65 229.535H263.64ZM257 248.095C254.28 262.475 247.81 269.645 237.57 269.615C234.27 269.605 231.83 269.185 230.28 268.365L237.62 229.465C240.38 228.155 243.41 227.505 246.71 227.515C251.47 227.535 254.71 229.595 256.45 233.685C257.96 237.275 258.14 242.085 257 248.105V248.095Z" fill="#00597D"/>
<path d="M295.9 222.395C289.8 222.375 284.09 223.615 278.77 226.115L279.93 231.035C284.85 228.905 289.36 227.855 293.47 227.865C301.37 227.905 304.68 231.275 303.4 238.015L302.82 241.125C293.16 242.035 285.77 243.705 280.66 246.155C274.24 249.215 270.44 253.865 269.26 260.095C267.37 270.105 273.22 275.125 286.82 275.175C294.18 275.205 300.35 274.025 305.31 271.655L311.48 238.985C313.56 227.965 308.37 222.445 295.9 222.395ZM297.61 268.695C295.21 269.825 292.15 270.375 288.43 270.365C279.94 270.325 276.35 266.855 277.66 259.935C278.56 255.145 281.15 251.625 285.42 249.375C288.82 247.565 294.35 246.225 302.01 245.375L297.6 268.695H297.61Z" fill="#00597D"/>
<path d="M88.98 301.025L88.56 303.225L93.76 303.245L89.49 325.815H92.98L97.24 303.265H102.44L102.86 301.085L88.97 301.035L88.98 301.025Z" fill="#00597D"/>
<path d="M117.71 308.125C116.75 306.905 115.09 306.285 112.73 306.265C111.24 306.265 109.6 306.665 107.81 307.475L109.67 297.615H106.3L100.96 325.855H104.33L107.47 309.245C108.72 308.595 110.1 308.285 111.6 308.285C114.36 308.295 115.49 309.585 115.01 312.125L112.41 325.895H115.79L118.42 312.025C118.72 310.445 118.48 309.135 117.72 308.125H117.71Z" fill="#00597D"/>
<path d="M137.26 315.725C138.53 309.395 136.53 306.205 131.28 306.195C128.8 306.185 126.67 307.015 124.88 308.685C123.01 310.455 121.76 312.955 121.16 316.165C120.53 319.505 120.9 322.045 122.26 323.805C123.54 325.465 125.58 326.305 128.36 326.315C130.94 326.325 133.08 325.895 134.79 325.015L134.31 322.915C132.8 323.655 131.05 324.025 129.05 324.015C125.28 324.005 123.62 321.815 124.07 317.445L137.27 315.725H137.26ZM126.79 310.025C127.9 308.825 129.23 308.235 130.8 308.235C133.93 308.245 135.1 310.295 134.33 314.375L124.31 315.745C124.76 313.225 125.58 311.315 126.79 310.025Z" fill="#00597D"/>
<path d="M166.11 303.075C164.84 301.655 162.72 300.935 159.76 300.925C157.08 300.925 154.82 301.365 152.97 302.265L148.49 326.025H151.86L153.8 315.745L154.96 315.855C155.59 315.905 156.18 315.935 156.73 315.935C159.78 315.945 162.24 315.215 164.12 313.735C165.79 312.395 166.84 310.635 167.25 308.445C167.69 306.165 167.3 304.375 166.1 303.075H166.11ZM163.89 308.385C163.19 312.085 160.81 313.935 156.75 313.925C156.29 313.925 155.81 313.895 155.31 313.845L154.19 313.735L156.15 303.335C156.97 303.025 157.99 302.875 159.2 302.875C163.02 302.885 164.57 304.725 163.88 308.385H163.89Z" fill="#00597D"/>
<path d="M176.61 306.355C174.29 306.355 172.11 306.815 170.08 307.765L170.52 309.645C172.4 308.835 174.12 308.435 175.69 308.435C178.7 308.445 179.96 309.735 179.48 312.305L179.25 313.495C175.57 313.835 172.75 314.485 170.8 315.405C168.35 316.565 166.9 318.345 166.46 320.715C165.73 324.535 167.97 326.445 173.15 326.465C175.96 326.465 178.31 326.025 180.2 325.125L182.56 312.675C183.35 308.475 181.37 306.365 176.61 306.345V306.355ZM177.26 324.005C176.34 324.435 175.18 324.645 173.76 324.635C170.52 324.625 169.15 323.295 169.65 320.655C169.99 318.835 170.98 317.485 172.61 316.635C173.91 315.935 176.01 315.435 178.94 315.105L177.26 323.995V324.005Z" fill="#00597D"/>
<path d="M200.96 308.285C199.93 307.055 198.1 306.435 195.5 306.425C192.52 306.415 189.94 306.865 187.77 307.765L184.29 326.155H187.67L190.89 309.145C192.08 308.695 193.4 308.465 194.85 308.475C197.68 308.485 198.86 309.755 198.38 312.265L195.75 326.195H199.13L201.77 312.205C202.07 310.605 201.81 309.285 200.96 308.275V308.285Z" fill="#00597D"/>
<path d="M227.51 301.535H224.41L210.89 326.255H214.08L218.02 318.865L226.97 318.895L228.03 326.325H231.63L227.51 301.545V301.535ZM218.99 316.915L223.88 307.505C224.51 306.185 224.96 305.185 225.25 304.515H225.33C225.27 305.215 225.33 306.215 225.52 307.515L226.77 316.945L218.99 316.915Z" fill="#00597D"/>
<path d="M246.91 300.135L247.29 298.115C245.11 298.005 243.31 298.515 241.9 299.625C240.49 300.735 239.6 302.265 239.23 304.205L238.72 306.945H236.37L236 308.875H238.35L235.05 326.345H238.43L241.72 308.905H245.25L245.62 306.965H242.09L242.67 303.855C243.11 301.485 244.53 300.235 246.9 300.135H246.91Z" fill="#00597D"/>
<path d="M248.08 308.025L244.61 326.385H247.99L251.19 309.445C251.95 309.015 252.87 308.805 253.95 308.805C254.63 308.805 255.27 308.915 255.89 309.105L257.14 306.695C253.37 306.585 250.35 307.035 248.08 308.035V308.025Z" fill="#00597D"/>
<path d="M263.96 300.315C263.65 299.975 263.23 299.795 262.69 299.785C262.13 299.785 261.63 299.965 261.19 300.305C260.74 300.645 260.47 301.065 260.39 301.545C260.3 302.025 260.41 302.435 260.73 302.765C261.04 303.105 261.48 303.275 262.03 303.275C262.56 303.275 263.05 303.115 263.49 302.785C263.93 302.445 264.2 302.035 264.29 301.565C264.38 301.095 264.27 300.675 263.95 300.315H263.96ZM259.66 307.015L255.99 326.425H259.37L263.03 307.035H259.66V307.015Z" fill="#00597D"/>
<path d="M274.9 308.905C276.03 308.905 276.99 309.225 277.76 309.855L278.9 308.015C278.03 307.145 276.61 306.715 274.63 306.705C272.3 306.705 270.27 307.565 268.51 309.305C266.67 311.125 265.46 313.595 264.87 316.715C264.29 319.785 264.56 322.235 265.67 324.065C266.78 325.895 268.48 326.815 270.75 326.815C272.8 326.825 274.41 326.395 275.59 325.545L275.13 323.565C274.08 324.185 272.98 324.495 271.84 324.485C270.22 324.485 269.11 323.745 268.5 322.275C267.9 320.885 267.82 319.005 268.27 316.625C269.24 311.465 271.45 308.895 274.89 308.905H274.9Z" fill="#00597D"/>
<path d="M288.56 306.765C286.23 306.765 284.06 307.225 282.03 308.185L282.47 310.055C284.34 309.245 286.06 308.845 287.63 308.855C290.64 308.855 291.9 310.155 291.42 312.715L291.19 313.905C287.51 314.245 284.69 314.895 282.74 315.815C280.29 316.985 278.85 318.755 278.4 321.125C277.68 324.945 279.91 326.855 285.09 326.875C287.9 326.875 290.25 326.435 292.14 325.535L294.49 313.085C295.29 308.885 293.3 306.775 288.55 306.755L288.56 306.765ZM289.21 324.415C288.29 324.845 287.13 325.055 285.71 325.045C282.47 325.045 281.11 323.705 281.61 321.065C281.95 319.245 282.94 317.905 284.57 317.045C285.87 316.345 287.98 315.845 290.9 315.515L289.22 324.405L289.21 324.415Z" fill="#00597D"/>
<path d="M312.91 308.695C311.88 307.465 310.06 306.845 307.45 306.835C304.47 306.825 301.88 307.275 299.71 308.175L296.24 326.575H299.61L302.83 309.565C304.02 309.105 305.34 308.885 306.79 308.885C309.62 308.895 310.8 310.165 310.32 312.685L307.69 326.615H311.07L313.72 312.625C314.02 311.025 313.75 309.715 312.9 308.695H312.91Z" fill="#00597D"/>
<path d="M341.77 311.825C343.08 310.765 343.89 309.435 344.2 307.795C344.55 305.945 344.09 304.455 342.81 303.325C341.44 302.165 339.35 301.575 336.57 301.575C333.71 301.565 331.36 302.015 329.52 302.915L325.22 325.655C326.82 326.575 329.11 327.045 332.1 327.045C334.96 327.055 337.31 326.515 339.16 325.415C341.19 324.195 342.43 322.405 342.88 320.025C343.2 318.305 342.78 316.805 341.6 315.555C340.63 314.525 339.44 313.865 338.02 313.595V313.515C339.44 313.285 340.69 312.715 341.77 311.805V311.825ZM338.25 315.825C339.35 316.715 339.71 318.115 339.35 320.065C338.73 323.335 336.4 324.955 332.35 324.945C330.86 324.945 329.67 324.745 328.78 324.355L330.64 314.495H332.39C335.2 314.505 337.16 314.955 338.25 315.835V315.825ZM332.66 312.825H330.96L332.62 304.035C333.75 303.685 334.93 303.505 336.17 303.515C339.82 303.525 341.35 305.045 340.78 308.045C340.46 309.725 339.69 310.935 338.46 311.695C337.23 312.455 335.3 312.835 332.67 312.825H332.66Z" fill="#00597D"/>
<path d="M355.63 307.005C353.31 307.005 351.13 307.465 349.1 308.415L349.54 310.295C351.41 309.485 353.14 309.085 354.71 309.085C357.72 309.095 358.98 310.385 358.5 312.955L358.27 314.145C354.58 314.485 351.77 315.135 349.82 316.055C347.37 317.215 345.92 318.995 345.48 321.365C344.75 325.185 346.99 327.095 352.17 327.115C354.98 327.115 357.32 326.675 359.22 325.775L361.57 313.325C362.37 309.125 360.39 307.015 355.63 306.995V307.005ZM356.28 324.665C355.36 325.095 354.2 325.305 352.78 325.295C349.54 325.285 348.17 323.955 348.67 321.315C349.01 319.495 350 318.155 351.63 317.285C352.93 316.595 355.03 316.085 357.95 315.765L356.27 324.655L356.28 324.665Z" fill="#00597D"/>
<path d="M379.97 308.935C378.94 307.705 377.12 307.085 374.51 307.075C371.53 307.065 368.95 307.515 366.78 308.415L363.3 326.805H366.68L369.9 309.795C371.08 309.345 372.41 309.125 373.86 309.125C376.69 309.135 377.87 310.395 377.39 312.915L374.76 326.845H378.13L380.78 312.855C381.08 311.255 380.82 309.935 379.96 308.925L379.97 308.935Z" fill="#00597D"/>
<path d="M400.43 307.535H396.92L387.88 316.485L391.25 298.635H387.99L382.65 326.875H385.91L387.8 316.885L393.78 326.915H397.6L390.98 316.565L400.43 307.525V307.535Z" fill="#00597D"/>
<path d="M403.35 285.735H94.9V288.915H403.35V285.735Z" fill="#B4D333"/>
<path d="M386.65 247.485L404.02 274.665L394 274.625L378.32 248.305L373.36 274.555L364.8 274.515L374.63 222.445C374.71 222.065 374.78 221.685 374.84 221.315C374.85 221.245 374.87 221.175 374.88 221.105C388.43 146.385 272.24 186.265 264.3 189.065C271.94 186.245 378.78 147.775 385.1 200.435C385.66 205.075 385.44 210.435 384.3 216.575L378.51 247.265L402.2 223.735L411.42 223.775L386.63 247.495L386.65 247.485Z" fill="#00597D"/>
<path d="M360.91 237.745L353.97 274.475L345.12 274.435L352.02 237.905C353.27 231.295 350.18 227.975 342.76 227.955C338.94 227.945 335.48 228.525 332.36 229.705L323.93 274.355L315.08 274.325L324.19 226.085C329.88 223.715 336.64 222.535 344.47 222.575C351.3 222.595 356.08 224.225 358.79 227.435C361.01 230.085 361.73 233.525 360.93 237.735L360.91 237.745Z" fill="#00597D"/>
<path d="M264.33 189.055C264.26 189.085 264.2 189.105 264.15 189.125C264.14 189.125 264.12 189.125 264.11 189.135C264.01 189.175 263.95 189.195 263.93 189.195" fill="#00597D"/>
<path d="M263.9 189.215C263.9 189.215 263.9 189.215 263.91 189.215C263.93 189.215 263.99 189.185 264.09 189.155C264.1 189.155 264.12 189.155 264.13 189.145C264.18 189.125 264.24 189.105 264.31 189.075" fill="#00597D"/>
</g>
<defs>
<clipPath id="clip0_2003_10724">
<rect width="322.88" height="154.27" fill="white" transform="translate(88.56 172.865)"/>
</clipPath>
</defs>
</svg>
