<svg width="500" height="500" viewBox="0 0 500 500" fill="none" xmlns="http://www.w3.org/2000/svg">
<rect width="500" height="500" fill="white"/>
<g clip-path="url(#clip0_2003_10800)">
<path d="M250 423.23C345.672 423.23 423.23 345.672 423.23 250C423.23 154.328 345.672 76.77 250 76.77C154.328 76.77 76.77 154.328 76.77 250C76.77 345.672 154.328 423.23 250 423.23Z" fill="#5C3092"/>
<path d="M149.701 173.363H186.668V185.373H164.169V196.083H179.867V207.368H164.169V226.904H149.701V173.372V173.363Z" fill="white"/>
<path d="M187.464 200.133C187.464 180.526 198.97 172.354 212.572 172.354C227.183 172.354 232.975 179.881 235.213 189.432L221.54 193.483C220.09 188.344 218.064 184.294 212.493 184.294C205.329 184.294 201.933 190.157 201.933 200.133C201.933 210.109 205.479 216.335 212.643 216.335C218.286 216.335 220.603 212.789 222.265 206.138L235.938 209.181C233.338 220.032 227.183 227.921 212.572 227.921C197.962 227.921 187.464 219.749 187.464 200.142V200.133Z" fill="white"/>
<path d="M241.581 173.363H260.754L270.155 209.676H270.297L278.761 173.363H298.368V226.895H284.553V193.757H284.412C283.545 199.258 282.678 202.654 281.52 206.775L275.877 226.886H263.142L257.641 206.775C256.412 202.433 255.757 200.045 254.599 193.032H254.457V226.886H241.581V173.354V173.363Z" fill="white"/>
<path d="M306.336 173.363H328.835C337.732 173.363 348.292 174.734 348.292 186.531C348.292 194.27 343.516 197.746 338.165 198.754V198.895C344.675 200.054 349.592 203.167 349.592 212.064C349.592 223.711 338.74 226.895 329.693 226.895H306.327V173.363H306.336ZM327.385 194.712C332.594 194.712 334.548 192.687 334.548 189.574C334.548 186.461 332.594 184.435 327.535 184.435H320.522V194.712H327.393H327.385ZM327.747 216.053C333.177 216.053 335.486 213.957 335.486 210.269C335.486 206.581 333.098 204.697 327.597 204.697H320.504V216.053H327.738H327.747Z" fill="white"/>
<path d="M157.28 260.228H353.103V289.334H146.888V270.62C146.888 264.88 151.549 260.228 157.28 260.228Z" fill="#FFB822"/>
<path d="M146.888 298.54H353.112V327.645H157.28C151.54 327.645 146.888 322.985 146.888 317.254V298.54Z" fill="#FFB822"/>
</g>
<defs>
<clipPath id="clip0_2003_10800">
<rect width="346.46" height="346.46" fill="white" transform="translate(76.77 76.77)"/>
</clipPath>
</defs>
</svg>
