<svg width="500" height="500" viewBox="0 0 500 500" fill="none" xmlns="http://www.w3.org/2000/svg">
<rect width="500" height="500" fill="white"/>
<g clip-path="url(#clip0_2003_10836)">
<path d="M171.223 350.639C170.899 350.404 170.585 350.146 170.271 349.889C170.529 350.023 170.775 350.157 171.033 350.269C171.089 350.393 171.145 350.516 171.223 350.639Z" stroke="#28166F" stroke-width="1.12002" stroke-miterlimit="10"/>
<path d="M162.208 290.024C158.243 310.487 161.681 331.106 171.033 350.27C170.776 350.158 170.529 350.023 170.272 349.889C160.494 345.028 151.377 339.495 143.033 333.402C102.735 304.035 80.4127 261.934 88.4432 220.516C95.8129 182.513 127.073 153.538 169.51 139.605L197.903 163.899C158.624 178.548 130.018 206.515 123.018 242.647C120.274 256.815 121.081 271.073 124.945 284.872C125.437 286.619 128.002 286.193 127.946 284.39C127.722 277.782 128.237 271.129 129.514 264.487C137.321 224.245 171.907 194.128 218.197 181.27L248.74 207.411C203.536 220.594 169.891 250.409 162.208 290.024Z" fill="#28166F"/>
<path d="M337.792 209.976C341.757 189.513 338.319 168.894 328.967 149.73C329.224 149.842 329.471 149.977 329.728 150.111C339.506 154.972 348.623 160.505 356.967 166.598C397.265 195.965 419.587 238.066 411.557 279.485C404.187 317.487 372.927 346.462 330.49 360.395L302.097 336.101C341.376 321.452 369.982 293.485 376.982 257.353C379.726 243.185 378.919 228.927 375.055 215.128C374.563 213.381 371.998 213.807 372.054 215.61C372.278 222.218 371.762 228.871 370.486 235.513C362.679 275.755 328.093 305.872 281.803 318.73L251.26 292.589C296.464 279.406 330.109 249.591 337.792 209.976Z" fill="#84C125"/>
<path d="M171.223 350.639C170.899 350.404 170.585 350.146 170.271 349.889C170.529 350.023 170.775 350.157 171.033 350.269C171.089 350.393 171.145 350.516 171.223 350.639Z" stroke="#28166F" stroke-width="1.12002" stroke-miterlimit="10"/>
</g>
<defs>
<clipPath id="clip0_2003_10836">
<rect width="326.362" height="220.789" fill="white" transform="translate(86.8193 139.605)"/>
</clipPath>
</defs>
</svg>
