<svg width="500" height="500" viewBox="0 0 500 500" fill="none" xmlns="http://www.w3.org/2000/svg">
<rect width="500" height="500" fill="white"/>
<g clip-path="url(#clip0_2003_10601)">
<path d="M213.683 368.277C214.966 362.828 214.828 358.496 213.89 355.047C213.421 353.322 212.731 351.846 211.945 350.549C211.172 349.225 210.262 348.094 209.31 347.142C207.379 345.252 205.309 343.941 203.681 343.1C202.053 342.272 200.895 341.941 200.895 341.941C198.053 348.797 199.198 354.467 201.253 358.151C202.26 360.027 203.447 361.462 204.371 362.427C205.309 363.366 205.999 363.835 205.999 363.835C205.999 363.835 204.274 362.965 201.833 362.124C199.391 361.296 196.107 360.689 193.031 361.131C186.244 362.165 182.795 364.635 182.795 364.635C182.795 364.635 183.36 366.69 185.278 369.022C187.168 371.395 190.575 373.878 195.928 374.706C201.336 375.409 205.778 373.823 208.855 372.029C211.945 370.222 213.683 368.277 213.683 368.277Z" fill="#A44640"/>
<path d="M190.451 359.627C193.679 358.096 195.569 356.316 195.569 356.316C199.073 345.638 196.48 339.058 193.045 334.891C191.348 332.781 189.334 331.374 187.816 330.394C186.299 329.415 185.167 328.973 185.167 328.973C183.429 332.284 182.712 335.361 182.657 338.106C182.629 340.81 183.236 343.196 184.064 345.155C184.878 347.142 185.954 348.646 186.809 349.667C187.664 350.687 188.299 351.226 188.299 351.226C188.299 351.226 186.685 350.163 184.284 349.184C181.912 348.163 178.78 347.17 175.593 347.418C172.144 347.666 169.551 348.246 167.771 348.839C166.005 349.418 165.095 349.956 165.095 349.956C165.095 349.956 165.453 352.067 167.164 354.592C168.019 355.847 169.261 357.144 170.903 358.33C172.558 359.517 174.641 360.579 177.318 361.158C179.98 361.765 182.436 361.765 184.643 361.434C186.864 361.062 188.823 360.372 190.437 359.613L190.451 359.627Z" fill="#A44640"/>
<path d="M173.166 345.694C176.504 344.48 178.546 342.865 178.546 342.865C180.795 337.692 181.415 333.388 181.07 329.87C180.726 326.352 179.553 323.483 177.994 321.303C176.477 319.082 174.711 317.426 173.248 316.35C171.786 315.288 170.751 314.708 170.751 314.708C166.599 320.986 166.847 326.6 168.103 330.698C169.455 334.712 171.758 337.126 171.758 337.126C171.758 337.126 170.269 335.912 167.978 334.698C165.661 333.512 162.653 332.215 159.494 332.132C156.045 332.05 153.327 332.45 151.534 332.822C149.727 333.222 148.775 333.664 148.775 333.664C148.775 333.664 148.816 334.202 149.037 335.085C149.244 335.968 149.672 337.168 150.43 338.478C151.934 341.113 154.762 344.314 159.963 346.011C165.095 347.777 169.868 346.852 173.179 345.666L173.166 345.694Z" fill="#A44640"/>
<path d="M157.204 330.215C160.68 329.29 162.86 327.883 162.86 327.883C164.212 325.414 165.123 323.151 165.716 321.054C166.323 318.93 166.599 316.985 166.612 315.219C166.64 313.439 166.378 311.853 165.992 310.39C165.619 308.914 165.081 307.59 164.433 306.431C163.108 304.113 161.536 302.306 160.239 301.065C158.928 299.837 157.921 299.202 157.921 299.202C155.562 302.085 154.265 304.927 153.672 307.59C153.369 308.928 153.244 310.211 153.244 311.425C153.272 312.625 153.424 313.743 153.645 314.777C154.1 316.847 154.831 318.557 155.452 319.744C156.1 320.903 156.638 321.537 156.638 321.537C156.638 321.537 155.203 320.241 153.093 318.764C150.982 317.288 147.975 315.812 144.898 315.343C141.491 314.888 138.773 314.971 136.91 315.191C135.048 315.412 134.041 315.757 134.041 315.757C134.041 315.757 134 317.895 135.227 320.71C136.4 323.551 139.021 326.945 143.974 329.249C149.037 331.429 153.727 331.111 157.19 330.201L157.204 330.215Z" fill="#A44640"/>
<path d="M142.87 313.164C146.402 312.626 148.719 311.439 148.719 311.439C155.093 302.183 154.569 295.243 152.596 290.332C151.644 287.863 150.14 285.973 149.064 284.593C147.933 283.227 147.023 282.482 147.023 282.482C144.332 285.062 142.691 287.739 141.78 290.332C140.883 292.898 140.787 295.326 140.966 297.451C141.146 299.589 141.697 301.355 142.235 302.569C142.76 303.797 143.201 304.5 143.201 304.5C143.201 304.5 141.96 303.024 139.945 301.382C138.014 299.686 135.296 297.809 132.178 297.064C128.854 296.209 126.164 295.961 124.287 295.947C122.411 295.947 121.376 296.154 121.376 296.154C121.376 296.154 121.087 298.292 121.956 301.272C122.37 302.776 123.184 304.404 124.425 306.073C125.694 307.715 127.35 309.425 129.778 310.791C132.165 312.171 134.551 312.916 136.759 313.247C138.993 313.564 141.09 313.44 142.856 313.178L142.87 313.164Z" fill="#A44640"/>
<path d="M136.414 293.601C140.153 289.352 142.084 285.489 142.87 282.109C143.753 278.674 143.519 275.68 142.801 273.17C142.181 270.617 141.035 268.548 140.042 267.1C139.118 265.623 138.332 264.768 138.332 264.768C132.22 269.196 130.551 274.535 130.385 278.812C130.316 280.937 130.716 282.73 131.061 284.027C131.42 285.31 131.765 286.069 131.765 286.069C131.765 286.069 130.73 284.441 128.95 282.551C127.102 280.702 124.784 278.426 121.777 277.295C118.493 276.067 115.914 275.432 114.051 275.17C112.203 274.908 111.154 274.991 111.154 274.991C111.154 274.991 110.547 277.101 111.058 280.192C111.678 283.199 113.237 287.338 117.707 290.676C122.053 294.098 126.881 294.732 130.413 294.636C133.972 294.511 136.4 293.615 136.4 293.615L136.414 293.601Z" fill="#A44640"/>
<path d="M120.273 274.646C122.025 274.826 123.57 274.743 124.66 274.646C125.75 274.536 126.385 274.384 126.385 274.384C134.786 266.907 136.069 260.189 135.434 255.043C135.076 252.477 134.372 250.27 133.572 248.711C132.786 247.152 132.165 246.186 132.165 246.186C128.813 247.938 126.578 250.049 125.046 252.284C123.543 254.505 122.646 256.85 122.342 258.933C122.025 261.016 122.122 262.865 122.287 264.189C122.453 265.514 122.701 266.314 122.701 266.314C122.701 266.314 122.48 265.886 122.108 265.169C121.722 264.465 121.156 263.5 120.411 262.437C119.666 261.375 118.728 260.23 117.652 259.14C116.617 258.036 115.403 257.016 114.024 256.229C111.016 254.519 108.395 253.567 106.643 253.029C104.863 252.491 103.815 252.422 103.815 252.422C103.815 252.422 103.594 252.932 103.373 253.829C103.125 254.739 102.973 256.022 103.042 257.581C103.111 259.14 103.415 260.989 104.16 262.975C104.932 264.934 106.27 266.99 108.188 269.004C110.078 271.018 112.313 272.315 114.396 273.184C116.493 274.053 118.507 274.481 120.273 274.66V274.646Z" fill="#A44640"/>
<path d="M112.906 253.429C116.41 254.256 119.004 254.022 119.004 254.022C121.349 252.477 123.225 250.904 124.715 249.359C126.274 247.8 127.447 246.241 128.33 244.737C129.212 243.22 129.764 241.757 130.137 240.336C130.551 238.916 130.744 237.55 130.771 236.267C130.771 233.715 130.371 231.438 129.888 229.783C129.392 228.127 128.854 227.106 128.854 227.106C125.35 228.32 122.784 230.059 120.908 232.031C119.969 233.011 119.211 234.046 118.59 235.094C118.01 236.129 117.597 237.177 117.265 238.184C116.631 240.199 116.424 242.047 116.369 243.385C116.383 244.71 116.548 245.524 116.548 245.524C116.548 245.524 115.9 243.703 114.81 241.371C113.692 239.04 111.816 236.253 109.416 234.266C106.726 232.114 104.325 230.762 102.614 229.962C100.89 229.162 99.8692 228.927 99.8692 228.927C99.8692 228.927 99.5657 229.397 99.2484 230.252C98.9173 231.107 98.5448 232.363 98.3654 233.935C98.2137 235.494 98.1171 237.398 98.6551 239.467C99.1794 241.537 100.131 243.799 101.718 246.075C105.139 250.587 109.402 252.615 112.906 253.442V253.429Z" fill="#A44640"/>
<path d="M103.497 228.155C105.222 229.617 107.112 230.611 108.767 231.287C112.092 232.652 114.686 232.804 114.686 232.804C124.867 228.072 128.04 222.126 129.033 217.105C129.543 214.594 129.295 212.276 129.171 210.566C128.978 208.855 128.619 207.751 128.619 207.751C124.95 208.4 122.121 209.71 119.928 211.366C117.748 213.007 116.396 214.98 115.403 216.87C114.41 218.76 113.913 220.554 113.747 221.864C113.554 223.175 113.568 224.002 113.568 224.002C113.568 224.002 113.265 222.099 112.451 219.629C111.733 217.16 110.437 214.111 108.215 211.766C105.925 209.227 103.801 207.503 102.242 206.454C100.683 205.392 99.7035 205.006 99.7035 205.006C99.7035 205.006 98.2825 206.661 97.372 209.71C96.8754 211.228 96.6822 213.09 96.8478 215.228C97.0547 217.353 97.4686 219.753 98.8482 222.25C100.173 224.761 101.8 226.679 103.511 228.141L103.497 228.155Z" fill="#A44640"/>
<path d="M108.078 208.772C111.126 210.635 113.651 211.2 113.651 211.2C119.1 209.669 122.839 207.544 125.35 205.213C127.985 202.881 129.488 200.343 130.261 197.915C131.199 195.501 131.434 193.197 131.434 191.459C131.42 190.59 131.434 189.872 131.392 189.375C131.365 188.879 131.323 188.589 131.323 188.589C123.736 188.713 119.445 192.162 116.824 195.584C114.41 199.032 113.913 202.357 113.913 202.357C113.913 202.357 113.968 200.44 113.541 197.874C113.044 195.294 112.423 192.107 110.588 189.458C109.609 188.024 108.643 186.796 107.76 185.761C106.905 184.74 106.119 183.926 105.443 183.292C104.091 182.022 103.18 181.484 103.18 181.484C103.18 181.484 102.752 181.829 102.159 182.547C101.566 183.25 100.752 184.312 100.159 185.747C98.931 188.603 97.855 192.949 99.7036 198.329C101.359 203.668 105.084 206.924 108.078 208.786V208.772Z" fill="#A44640"/>
<path d="M110.837 186.423C113.609 188.741 116.051 189.692 116.051 189.692C121.556 189.003 125.639 187.471 128.564 185.554C130.026 184.588 131.158 183.526 132.137 182.408C133.144 181.305 133.93 180.16 134.537 179.015C135.144 177.87 135.572 176.724 135.876 175.648C136.221 174.586 136.427 173.593 136.579 172.738C136.897 171.027 136.869 169.868 136.869 169.868C129.474 168.944 124.453 171.648 121.583 174.724C120.107 176.242 119.1 177.814 118.466 178.987C117.872 180.173 117.665 180.987 117.665 180.987C117.665 180.987 117.9 179.07 117.969 176.49C118.01 173.91 117.596 170.585 116.244 167.73C114.727 164.598 113.237 162.349 112.037 160.887C110.864 159.425 110.05 158.776 110.05 158.776C110.05 158.776 108.174 159.921 106.45 162.556C104.697 165.178 103.346 169.371 104.159 174.862C105.18 180.408 108.174 184.147 110.864 186.437L110.837 186.423Z" fill="#A44640"/>
<path d="M121.584 168.751C132.827 168.999 138.318 165.012 141.408 160.805C142.925 158.694 143.85 156.528 144.374 154.845C144.926 153.176 145.077 152.017 145.077 152.017C137.862 150.113 132.551 152.113 129.199 154.707C125.819 157.301 124.439 160.349 124.439 160.349C124.439 160.349 125.019 158.515 125.364 155.949C125.722 153.383 125.874 150.085 124.922 147.05C123.86 143.753 122.673 141.325 121.694 139.711C120.714 138.097 119.997 137.352 119.997 137.352C119.997 137.352 117.997 138.221 115.941 140.566C113.899 142.898 111.816 146.774 111.94 152.376C112.092 157.963 114.548 162.101 116.921 164.778C119.28 167.454 121.556 168.751 121.556 168.751H121.584Z" fill="#A44640"/>
<path d="M130.082 148.83C141.173 150.651 147.188 147.381 150.83 143.601C152.624 141.698 153.824 139.656 154.583 138.056C155.341 136.469 155.659 135.338 155.659 135.338C148.733 132.51 143.215 133.806 139.545 135.945C135.862 138.069 134.068 140.911 134.068 140.911C134.068 140.911 134.882 139.159 135.586 136.676C136.276 134.179 136.883 130.937 136.317 127.805C135.71 124.398 134.827 121.832 134.082 120.121C133.323 118.411 132.703 117.555 132.703 117.555C132.703 117.555 130.606 118.162 128.274 120.204C125.943 122.232 123.377 125.791 122.784 131.323C122.19 136.855 124.08 141.284 126.053 144.25C128.026 147.23 130.095 148.83 130.095 148.83H130.082Z" fill="#A44640"/>
<path d="M280.164 395.621C266.189 392.047 246.944 383.66 232.928 377.052C233.452 372.265 232.928 368.471 231.824 365.491C230.583 362.166 228.679 359.697 226.582 358C224.526 356.234 222.333 355.103 220.636 354.441C218.925 353.792 217.767 353.502 217.767 353.502C215.463 360.69 217.215 366.029 219.491 369.657C221.836 373.189 224.706 374.913 224.706 374.913C224.706 374.913 222.94 374.127 220.415 373.548C217.877 373.009 214.621 372.54 211.558 373.299C208.22 374.141 205.723 375.231 204.095 376.086C202.467 376.955 201.667 377.645 201.667 377.645C201.667 377.645 201.846 378.155 202.288 378.928C202.715 379.714 203.433 380.763 204.509 381.825C206.633 383.949 210.165 386.267 215.601 386.543C220.995 386.902 225.354 384.791 228.251 382.791C229.603 381.853 230.638 380.914 231.397 380.169C245.565 387.053 264.037 398.821 278.247 402.463L280.178 395.621H280.164Z" fill="#A44640"/>
<path d="M160.956 98.062C130.578 108.85 140.994 128.95 140.994 128.95C168.765 122.811 160.956 98.062 160.956 98.062Z" fill="#A44640"/>
<path d="M286.317 368.277C285.034 362.828 285.172 358.496 286.11 355.047C286.579 353.322 287.269 351.846 288.055 350.549C288.828 349.225 289.738 348.094 290.69 347.142C292.622 345.252 294.691 343.941 296.319 343.1C297.947 342.272 299.106 341.941 299.106 341.941C301.947 348.797 300.802 354.467 298.747 358.151C297.74 360.027 296.553 361.462 295.629 362.427C294.691 363.366 294.001 363.835 294.001 363.835C294.001 363.835 295.726 362.965 298.167 362.124C300.609 361.296 303.893 360.689 306.969 361.131C313.756 362.165 317.205 364.635 317.205 364.635C317.205 364.635 316.64 366.69 314.722 369.022C312.832 371.395 309.425 373.878 304.072 374.706C298.664 375.409 294.222 373.823 291.145 372.029C288.055 370.222 286.317 368.277 286.317 368.277Z" fill="#A44640"/>
<path d="M309.549 359.627C306.32 358.096 304.43 356.316 304.43 356.316C300.926 345.638 303.52 339.058 306.955 334.891C308.652 332.781 310.666 331.374 312.184 330.394C313.701 329.415 314.832 328.973 314.832 328.973C316.571 332.284 317.288 335.361 317.343 338.106C317.371 340.81 316.764 343.196 315.936 345.155C315.122 347.142 314.046 348.646 313.191 349.667C312.335 350.687 311.701 351.226 311.701 351.226C311.701 351.226 313.315 350.163 315.715 349.184C318.088 348.163 321.22 347.17 324.407 347.418C327.855 347.666 330.449 348.246 332.229 348.839C333.995 349.418 334.905 349.956 334.905 349.956C334.905 349.956 334.546 352.067 332.836 354.592C331.98 355.847 330.739 357.144 329.097 358.33C327.442 359.517 325.358 360.579 322.682 361.158C320.02 361.765 317.564 361.765 315.357 361.434C313.136 361.062 311.177 360.372 309.562 359.613L309.549 359.627Z" fill="#A44640"/>
<path d="M326.835 345.694C323.496 344.48 321.455 342.865 321.455 342.865C319.206 337.692 318.585 333.388 318.93 329.87C319.275 326.352 320.447 323.483 322.006 321.303C323.524 319.082 325.29 317.426 326.752 316.35C328.214 315.288 329.249 314.708 329.249 314.708C333.402 320.986 333.153 326.6 331.898 330.698C330.546 334.712 328.242 337.126 328.242 337.126C328.242 337.126 329.732 335.912 332.022 334.698C334.34 333.512 337.347 332.215 340.506 332.132C343.955 332.05 346.673 332.45 348.466 332.822C350.274 333.222 351.226 333.664 351.226 333.664C351.226 333.664 351.184 334.202 350.963 335.085C350.757 335.968 350.329 337.168 349.57 338.478C348.066 341.113 345.238 344.314 340.037 346.011C334.905 347.777 330.132 346.852 326.821 345.666L326.835 345.694Z" fill="#A44640"/>
<path d="M342.783 330.215C339.306 329.29 337.126 327.883 337.126 327.883C335.775 325.414 334.864 323.151 334.271 321.054C333.664 318.93 333.388 316.985 333.374 315.219C333.346 313.439 333.609 311.853 333.995 310.39C334.367 308.914 334.905 307.59 335.554 306.431C336.878 304.113 338.451 302.306 339.748 301.065C341.058 299.837 342.065 299.202 342.065 299.202C344.424 302.085 345.721 304.927 346.314 307.59C346.618 308.928 346.742 310.211 346.742 311.425C346.714 312.625 346.563 313.743 346.342 314.777C345.887 316.847 345.156 318.557 344.535 319.744C343.886 320.903 343.348 321.537 343.348 321.537C343.348 321.537 344.783 320.241 346.894 318.764C349.005 317.288 352.012 315.812 355.088 315.343C358.496 314.888 361.214 314.971 363.076 315.191C364.938 315.412 365.946 315.757 365.946 315.757C365.946 315.757 365.987 317.895 364.759 320.71C363.587 323.551 360.965 326.945 356.013 329.249C350.95 331.429 346.259 331.111 342.796 330.201L342.783 330.215Z" fill="#A44640"/>
<path d="M357.13 313.164C353.598 312.626 351.281 311.439 351.281 311.439C344.907 302.183 345.431 295.243 347.404 290.332C348.356 287.863 349.86 285.973 350.936 284.593C352.067 283.227 352.978 282.482 352.978 282.482C355.668 285.062 357.309 287.739 358.22 290.332C359.117 292.898 359.213 295.326 359.034 297.451C358.854 299.589 358.303 301.355 357.765 302.569C357.24 303.797 356.799 304.5 356.799 304.5C356.799 304.5 358.04 303.024 360.055 301.382C361.986 299.686 364.704 297.809 367.822 297.064C371.146 296.209 373.837 295.961 375.713 295.947C377.589 295.947 378.624 296.154 378.624 296.154C378.624 296.154 378.913 298.292 378.044 301.272C377.63 302.776 376.816 304.404 375.575 306.073C374.306 307.715 372.65 309.425 370.222 310.791C367.835 312.171 365.449 312.916 363.241 313.247C361.007 313.564 358.91 313.44 357.144 313.178L357.13 313.164Z" fill="#A44640"/>
<path d="M363.586 293.601C359.848 289.352 357.916 285.489 357.13 282.109C356.247 278.674 356.482 275.68 357.199 273.17C357.82 270.617 358.965 268.548 359.958 267.1C360.882 265.623 361.669 264.768 361.669 264.768C367.78 269.196 369.45 274.535 369.615 278.812C369.684 280.937 369.284 282.73 368.939 284.027C368.58 285.31 368.236 286.069 368.236 286.069C368.236 286.069 369.27 284.441 371.05 282.551C372.898 280.702 375.216 278.426 378.224 277.295C381.507 276.067 384.087 275.432 385.949 275.17C387.798 274.908 388.846 274.991 388.846 274.991C388.846 274.991 389.453 277.101 388.943 280.192C388.322 283.199 386.763 287.338 382.293 290.676C377.948 294.098 373.119 294.732 369.587 294.636C366.028 294.511 363.6 293.615 363.6 293.615L363.586 293.601Z" fill="#A44640"/>
<path d="M379.727 274.646C377.975 274.826 376.43 274.743 375.34 274.646C374.25 274.536 373.616 274.384 373.616 274.384C365.214 266.907 363.931 260.189 364.566 255.043C364.924 252.477 365.628 250.27 366.428 248.711C367.215 247.152 367.835 246.186 367.835 246.186C371.188 247.938 373.423 250.049 374.954 252.284C376.458 254.505 377.354 256.85 377.658 258.933C377.975 261.016 377.879 262.865 377.713 264.189C377.547 265.514 377.299 266.314 377.299 266.314C377.299 266.314 377.52 265.886 377.892 265.169C378.279 264.465 378.844 263.5 379.589 262.437C380.334 261.375 381.272 260.23 382.348 259.14C383.383 258.036 384.597 257.016 385.977 256.229C388.984 254.519 391.605 253.567 393.357 253.029C395.137 252.491 396.185 252.422 396.185 252.422C396.185 252.422 396.406 252.932 396.627 253.829C396.875 254.739 397.027 256.022 396.958 257.581C396.889 259.14 396.585 260.989 395.84 262.975C395.068 264.934 393.73 266.99 391.812 269.004C389.922 271.018 387.687 272.315 385.604 273.184C383.507 274.053 381.493 274.481 379.727 274.66V274.646Z" fill="#A44640"/>
<path d="M387.094 253.429C383.59 254.256 380.997 254.022 380.997 254.022C378.651 252.477 376.775 250.904 375.285 249.359C373.726 247.8 372.554 246.241 371.671 244.737C370.788 243.22 370.236 241.757 369.864 240.336C369.45 238.916 369.257 237.55 369.229 236.267C369.229 233.715 369.629 231.438 370.112 229.783C370.609 228.127 371.147 227.106 371.147 227.106C374.651 228.32 377.217 230.059 379.093 232.031C380.031 233.011 380.79 234.046 381.411 235.094C381.99 236.129 382.404 237.177 382.735 238.184C383.37 240.199 383.576 242.047 383.632 243.385C383.618 244.71 383.452 245.524 383.452 245.524C383.452 245.524 384.101 243.703 385.191 241.371C386.308 239.04 388.184 236.253 390.585 234.266C393.275 232.114 395.675 230.762 397.386 229.962C399.11 229.162 400.131 228.927 400.131 228.927C400.131 228.927 400.435 229.397 400.752 230.252C401.083 231.107 401.456 232.363 401.635 233.935C401.787 235.494 401.883 237.398 401.345 239.467C400.821 241.537 399.869 243.799 398.283 246.075C394.861 250.587 390.598 252.615 387.094 253.442V253.429Z" fill="#A44640"/>
<path d="M396.503 228.155C394.778 229.617 392.888 230.611 391.233 231.287C387.908 232.652 385.314 232.804 385.314 232.804C375.133 228.072 371.96 222.126 370.967 217.105C370.456 214.594 370.705 212.276 370.829 210.566C371.022 208.855 371.381 207.751 371.381 207.751C375.05 208.4 377.879 209.71 380.072 211.366C382.252 213.007 383.604 214.98 384.597 216.87C385.59 218.76 386.087 220.554 386.252 221.864C386.446 223.175 386.432 224.002 386.432 224.002C386.432 224.002 386.735 222.099 387.549 219.629C388.267 217.16 389.563 214.111 391.785 211.766C394.075 209.227 396.199 207.503 397.758 206.454C399.317 205.392 400.296 205.006 400.296 205.006C400.296 205.006 401.717 206.661 402.628 209.71C403.125 211.228 403.318 213.09 403.152 215.228C402.945 217.353 402.531 219.753 401.152 222.25C399.827 224.761 398.199 226.679 396.489 228.141L396.503 228.155Z" fill="#A44640"/>
<path d="M391.923 208.772C388.874 210.635 386.349 211.2 386.349 211.2C380.9 209.669 377.161 207.544 374.651 205.213C372.016 202.881 370.512 200.343 369.739 197.915C368.801 195.501 368.567 193.197 368.567 191.459C368.58 190.59 368.567 189.872 368.608 189.375C368.636 188.879 368.677 188.589 368.677 188.589C376.265 188.713 380.555 192.162 383.176 195.584C385.59 199.032 386.087 202.357 386.087 202.357C386.087 202.357 386.032 200.44 386.46 197.874C386.956 195.294 387.577 192.107 389.412 189.458C390.391 188.024 391.357 186.796 392.24 185.761C393.095 184.74 393.882 183.926 394.558 183.292C395.91 182.022 396.82 181.484 396.82 181.484C396.82 181.484 397.248 181.829 397.841 182.547C398.434 183.25 399.248 184.312 399.841 185.747C401.069 188.603 402.145 192.949 400.297 198.329C398.641 203.668 394.916 206.924 391.923 208.786V208.772Z" fill="#A44640"/>
<path d="M389.164 186.423C386.391 188.741 383.949 189.692 383.949 189.692C378.444 189.003 374.361 187.471 371.436 185.554C369.974 184.588 368.843 183.526 367.863 182.408C366.856 181.305 366.07 180.16 365.463 179.015C364.856 177.87 364.428 176.724 364.124 175.648C363.78 174.586 363.573 173.593 363.421 172.738C363.104 171.027 363.131 169.868 363.131 169.868C370.526 168.944 375.547 171.648 378.417 174.724C379.893 176.242 380.9 177.814 381.535 178.987C382.128 180.173 382.335 180.987 382.335 180.987C382.335 180.987 382.1 179.07 382.031 176.49C381.99 173.91 382.404 170.585 383.756 167.73C385.273 164.598 386.763 162.349 387.963 160.887C389.136 159.425 389.95 158.776 389.95 158.776C389.95 158.776 391.826 159.921 393.551 162.556C395.303 165.178 396.655 169.371 395.841 174.862C394.82 180.408 391.826 184.147 389.136 186.437L389.164 186.423Z" fill="#A44640"/>
<path d="M378.417 168.751C367.173 168.999 361.682 165.012 358.592 160.805C357.075 158.694 356.15 156.528 355.626 154.845C355.074 153.176 354.923 152.017 354.923 152.017C362.138 150.113 367.449 152.113 370.801 154.707C374.181 157.301 375.561 160.349 375.561 160.349C375.561 160.349 374.981 158.515 374.637 155.949C374.278 153.383 374.126 150.085 375.078 147.05C376.14 143.753 377.327 141.325 378.306 139.711C379.286 138.097 380.003 137.352 380.003 137.352C380.003 137.352 382.003 138.221 384.059 140.566C386.101 142.898 388.184 146.774 388.06 152.376C387.908 157.963 385.452 162.101 383.08 164.778C380.72 167.454 378.444 168.751 378.444 168.751H378.417Z" fill="#A44640"/>
<path d="M369.919 148.83C358.827 150.651 352.812 147.381 349.17 143.601C347.377 141.698 346.176 139.656 345.418 138.056C344.659 136.469 344.342 135.338 344.342 135.338C351.267 132.51 356.785 133.806 360.455 135.945C364.138 138.069 365.932 140.911 365.932 140.911C365.932 140.911 365.118 139.159 364.414 136.676C363.724 134.179 363.117 130.937 363.683 127.805C364.29 124.398 365.173 121.832 365.918 120.121C366.677 118.411 367.298 117.555 367.298 117.555C367.298 117.555 369.394 118.162 371.726 120.204C374.057 122.232 376.623 125.791 377.217 131.323C377.81 136.855 375.92 141.284 373.947 144.25C371.974 147.23 369.905 148.83 369.905 148.83H369.919Z" fill="#A44640"/>
<path d="M219.836 395.621C233.811 392.047 253.056 383.66 267.072 377.052C266.548 372.265 267.072 368.471 268.176 365.491C269.417 362.166 271.321 359.697 273.418 358C275.474 356.234 277.667 355.103 279.364 354.441C281.075 353.792 282.233 353.502 282.233 353.502C284.537 360.69 282.785 366.029 280.509 369.657C278.164 373.189 275.294 374.913 275.294 374.913C275.294 374.913 277.06 374.127 279.585 373.548C282.123 373.009 285.379 372.54 288.442 373.299C291.78 374.141 294.277 375.231 295.905 376.086C297.533 376.955 298.333 377.645 298.333 377.645C298.333 377.645 298.154 378.155 297.712 378.928C297.285 379.714 296.567 380.763 295.491 381.825C293.367 383.949 289.835 386.267 284.399 386.543C279.005 386.902 274.646 384.791 271.749 382.791C270.397 381.853 269.362 380.914 268.603 380.169C254.435 387.053 235.963 398.821 221.753 402.463L219.822 395.621H219.836Z" fill="#A44640"/>
<path d="M339.044 98.062C369.422 108.85 359.006 128.95 359.006 128.95C331.236 122.825 339.044 98.062 339.044 98.062Z" fill="#A44640"/>
<path d="M320.889 278.15H172.834V286.828H320.889V278.15Z" fill="#A44640"/>
<path d="M245.661 309.26C239.991 309.26 234.307 308.349 228.9 306.514L225.23 305.273C216.994 302.486 208.22 302.224 199.818 304.486L190.382 307.039L188.12 298.665L197.556 296.112C207.613 293.395 218.139 293.712 228.017 297.05L231.686 298.292C240.971 301.437 251.18 301.341 260.409 298.03L264.258 296.65C273.722 293.257 283.889 292.663 293.684 294.926L305.452 297.644L303.506 306.1L291.739 303.383C283.572 301.493 275.087 302.003 267.196 304.817L263.347 306.197C257.663 308.239 251.676 309.246 245.689 309.246L245.661 309.26Z" fill="#A44640"/>
<path d="M246.834 324.297C241.164 324.297 235.48 323.386 230.072 321.551L226.402 320.31C218.166 317.523 209.392 317.261 200.991 319.523L198.715 311.149C208.772 308.432 219.298 308.749 229.175 312.088L232.845 313.329C242.129 316.475 252.338 316.378 261.568 313.067L265.417 311.688C274.88 308.294 285.048 307.701 294.843 309.963L292.897 318.42C284.73 316.53 276.246 317.026 268.355 319.855L264.506 321.234C258.822 323.262 252.835 324.283 246.848 324.283L246.834 324.297Z" fill="#A44640"/>
<path d="M246.613 338.175C240.943 338.175 235.259 337.265 229.851 335.43L226.182 334.188C222.098 332.809 217.849 332.036 213.531 331.912L213.793 323.235C218.953 323.4 224.057 324.311 228.955 325.966L232.624 327.208C241.909 330.353 252.104 330.257 261.347 326.96L265.196 325.58C269.9 323.897 274.797 322.89 279.778 322.6L280.288 331.264C276.136 331.512 272.038 332.34 268.12 333.747L264.271 335.127C258.588 337.155 252.6 338.175 246.613 338.175Z" fill="#A44640"/>
<path d="M278.647 177.138H214.069C205.53 177.138 198.591 170.199 198.591 161.66V113.016C198.591 104.477 205.53 97.5376 214.069 97.5376H279.626C288.166 97.5376 295.105 104.477 295.105 113.016V126.729H279.474V113.168H214.207V161.522H278.495V148.954H247.441V133.323H278.633C287.172 133.323 294.112 140.263 294.112 148.802V161.66C294.112 170.199 287.172 177.138 278.633 177.138H278.647Z" fill="#A44640"/>
<path d="M278.647 267.197H214.069C205.53 267.197 198.591 260.257 198.591 251.718V203.074C198.591 194.535 205.53 187.596 214.069 187.596H279.626C288.166 187.596 295.105 194.535 295.105 203.074V216.787H279.474V203.226H214.207V251.58H278.495V239.012H247.441V223.382H278.633C287.172 223.382 294.112 230.321 294.112 238.86V251.718C294.112 260.257 287.172 267.197 278.633 267.197H278.647Z" fill="#A44640"/>
</g>
<defs>
<clipPath id="clip0_2003_10601">
<rect width="306.443" height="304.925" fill="white" transform="translate(96.7788 97.5376)"/>
</clipPath>
</defs>
</svg>
