<svg width="500" height="500" viewBox="0 0 500 500" fill="none" xmlns="http://www.w3.org/2000/svg">
<rect width="500" height="500" fill="white"/>
<rect x="127.227" y="127.227" width="245.546" height="245.546" fill="#DE4A07"/>
<path d="M212.488 282.676H225.323V325.489H236.582V282.676H249.417V273.267H212.488V282.676Z" fill="white"/>
<path d="M252.776 299.456C252.776 316.462 256.8 326.39 274.785 326.39C279.406 326.39 283.586 325.714 287.688 324.823V314.974C283.958 315.875 279.856 316.541 276.204 316.541C266.58 316.541 264.417 311.988 264.417 299.378C264.417 286.768 266.58 282.215 276.351 282.215C279.934 282.215 283.811 282.813 287.688 283.782V273.933C283.136 272.885 278.887 272.366 274.785 272.366C256.956 272.366 252.776 282.069 252.776 299.446V299.456Z" fill="white"/>
<path d="M314.69 272.376C296.412 272.376 292.309 282.225 292.309 299.378C292.309 316.531 296.412 326.38 314.69 326.38C332.969 326.38 337.149 316.531 337.149 299.378C337.149 282.225 333.116 272.376 314.69 272.376ZM314.69 316.541C305.889 316.541 303.95 311.694 303.95 299.378C303.95 287.062 305.889 282.215 314.69 282.215C323.492 282.215 325.509 287.062 325.509 299.378C325.509 311.694 323.57 316.541 314.69 316.541Z" fill="white"/>
<path d="M189.138 305.262H196.97V316.394C196.97 316.394 189.774 318.195 185.153 316.932C179.181 315.63 178.016 310.676 178.016 300.416C178.016 287.355 183.283 282.783 193.73 282.783C197.538 282.783 202.306 283.38 207.162 284.35V274.501C202.159 273.531 196.863 272.934 192.32 272.934C173.816 272.934 166.385 282.734 166.385 299.965C166.385 317.197 170.301 326.507 187.16 327.095H187.268C187.777 327.104 188.296 327.124 188.834 327.124C189.079 327.124 189.334 327.124 189.569 327.114C189.804 327.124 190.039 327.114 190.274 327.104C190.734 327.104 191.194 327.075 191.644 327.046C192.672 326.967 193.681 326.86 194.669 326.723C194.699 326.723 194.728 326.713 194.758 326.713C201.973 325.685 207.485 323.169 207.485 323.169V296.47H189.128V305.272L189.138 305.262Z" fill="white"/>
<path d="M337.15 160.266H268.343V228.378H337.15V160.266Z" fill="white"/>
</svg>
