<svg width="500" height="500" viewBox="0 0 500 500" fill="none" xmlns="http://www.w3.org/2000/svg">
<rect width="500" height="500" fill="white"/>
<g clip-path="url(#clip0_2003_10676)">
<path d="M194.095 143.185C196.784 143.185 198.965 141.004 198.965 138.315C198.965 135.625 196.784 133.445 194.095 133.445C191.405 133.445 189.225 135.625 189.225 138.315C189.225 141.004 191.405 143.185 194.095 143.185Z" fill="#988356"/>
<path d="M317.035 119.485C317.995 115.095 314.355 105.565 311.025 101.425C310.545 100.835 309.835 100.485 309.075 100.485C308.765 100.485 308.445 100.535 308.145 100.655C296.265 105.325 286.215 111.455 272.995 112.255C250.635 113.605 216.465 93.7549 196.655 107.965C189.095 113.385 192.165 116.855 190.945 124.165C190.715 125.535 190.195 126.785 189.535 127.985C185.575 129.735 182.805 133.695 182.805 138.305C182.805 143.255 186.005 147.475 190.455 148.985C191.415 149.525 192.305 150.285 193.495 153.265L208.525 199.215L233.045 274.245C238.975 287.555 244.805 285.325 255.285 277.715C290.505 252.165 309.895 199.335 305.465 157.225C304.685 149.765 302.165 138.035 302.175 132.725C302.175 131.795 302.815 130.995 303.725 130.805C303.865 130.775 304.005 130.755 304.145 130.755C304.645 130.755 305.145 130.955 305.515 131.315C306.325 132.115 306.985 133.025 307.435 134.125C309.235 138.455 310.645 150.675 310.955 155.665C313.555 198.235 298.175 237.005 271.805 269.565C273.275 269.905 273.665 268.745 274.545 268.005C311.475 237.005 318.005 188.385 316.475 143.105C316.305 137.895 314.505 130.955 314.825 125.885C315.035 122.635 316.555 121.725 317.045 119.475L317.035 119.485ZM217.545 117.035C219.265 116.775 221.215 117.715 222.525 119.175L222.575 119.225C222.995 119.695 223.435 120.115 223.945 120.485C224.675 121.035 225.645 121.735 226.825 122.525L217.155 139.415L214.575 134.175L214.555 134.135C214.215 133.575 213.915 132.965 213.655 132.315L213.635 132.275L213.615 132.245C211.345 126.525 211.945 117.845 217.545 117.015V117.035ZM246.055 198.155L240.315 186.495L263.755 139.435C266.555 140.315 269.505 141.175 272.625 141.995C272.665 141.995 272.695 142.015 272.735 142.025L246.065 198.165L246.055 198.155ZM276.835 143.055C279.465 143.695 283.825 144.705 287.585 145.555L255.475 217.295L248.395 202.915L276.835 143.065V143.055ZM238.005 181.795L232.965 171.565L250.885 134.865C253.425 135.885 256.135 136.885 259.045 137.875C259.275 137.955 259.525 138.035 259.765 138.115L238.015 181.795H238.005ZM230.645 166.855L226.425 158.285C236.045 139.945 239.595 133.105 240.915 130.505C242.795 131.415 244.845 132.335 247.035 133.275L230.645 166.855ZM224.155 153.675L219.355 143.935L230.315 124.795C231.085 125.265 231.905 125.755 232.785 126.265C233.065 126.415 233.335 126.565 233.585 126.725C234.705 127.355 235.905 128.005 237.195 128.675C235.245 132.475 229.315 143.815 224.145 153.695L224.155 153.675ZM278.475 231.235C271.715 243.465 261.665 256.045 249.585 263.205C247.315 262.775 238.515 240.365 236.965 236.675C234.695 231.255 232.475 225.825 230.295 220.375C228.085 214.865 225.915 209.345 223.775 203.815C221.615 198.265 219.485 192.695 217.375 187.115C215.265 181.545 213.165 175.985 211.075 170.405C209.005 164.875 206.935 159.335 204.865 153.805C204.285 152.235 203.695 150.675 203.105 149.105C202.805 148.315 202.515 147.515 202.215 146.725C201.945 146.015 201.745 145.135 201.355 144.475C201.335 144.475 201.325 144.475 201.295 144.465C200.425 145.115 199.215 145.585 198.175 145.965C197.245 146.315 196.285 146.555 195.305 146.665C193.435 146.875 191.485 146.615 189.825 145.675C188.415 144.885 187.325 143.635 186.615 142.185C181.395 131.525 198.145 123.145 202.495 135.695L204.985 141.285L253.785 250.795C258.235 247.145 262.295 243.045 265.895 238.555L265.925 238.525L265.245 237.145L264.775 236.185L257.865 222.145L291.735 146.475C291.935 146.515 292.135 146.555 292.315 146.595L292.855 146.715C297.675 175.405 292.505 205.845 278.475 231.245V231.235ZM308.205 121.605C298.575 129.265 283.535 133.285 271.375 132.605C260.625 132.005 232.785 121.395 223.765 115.215C221.705 113.805 219.325 111.055 223.275 111.765C244.835 121.745 270.205 133.215 294.015 123.855C297.065 122.665 308.295 114.545 310.105 116.195C311.875 117.805 309.615 120.485 308.205 121.605Z" fill="#988356"/>
<path d="M142.385 329.935C142.385 330.565 141.135 330.845 138.635 330.785C135.675 330.715 134.095 331.375 133.905 332.775C133.775 333.565 133.705 336.185 133.705 340.615V344.685C125.795 350.045 118.245 352.725 111.065 352.725C101.625 352.725 93.7247 349.405 87.3747 342.755C81.0247 336.105 77.8447 327.825 77.8447 317.925C77.8447 307.415 81.1047 298.675 87.6147 291.695C94.1347 284.715 102.305 281.225 112.155 281.225C116.215 281.225 120.395 282.225 124.725 284.215C126.325 284.945 127.415 285.315 128.015 285.315C129.075 285.315 129.975 284.515 130.705 282.925C131.035 282.125 131.405 281.725 131.805 281.725C132.265 281.725 132.505 282.055 132.505 282.725C132.505 282.855 132.405 284.185 132.205 286.715C132.135 287.515 132.105 289.405 132.105 292.395C132.105 294.655 132.235 298.115 132.505 302.765C132.505 304.025 132.175 304.655 131.505 304.655C130.575 304.655 129.945 303.325 129.605 300.665C128.805 294.815 126.875 290.195 123.825 286.805C121.565 284.345 118.405 283.115 114.345 283.115C101.775 283.115 95.4947 294.285 95.4947 316.625C95.4947 330.525 97.5647 340.195 101.705 345.645C104.305 349.105 107.775 350.835 112.115 350.835C117.585 350.835 120.325 347.375 120.325 340.465C120.325 335.275 120.105 332.375 119.665 331.735C119.225 331.105 118.105 330.785 116.285 330.785H113.765C112.355 330.785 111.645 330.485 111.645 329.885C111.645 329.285 112.205 328.985 113.345 328.985C115.675 328.985 118.595 329.025 122.125 329.085H141.175C141.975 329.085 142.375 329.365 142.375 329.935H142.385Z" fill="black" stroke="black" stroke-miterlimit="10"/>
<path d="M187.435 303.535C187.435 303.885 186.645 304.085 185.065 304.125C183.105 304.175 181.925 304.495 181.505 305.105C181.365 305.295 181.275 305.685 181.225 306.295V335.955C181.225 346.985 175.965 352.505 165.445 352.505C160.045 352.505 155.855 350.855 152.875 347.545C150.645 345.075 149.525 340.705 149.525 334.425V307.615C149.525 306.125 149.295 305.215 148.825 304.895C148.355 304.565 146.895 304.315 144.425 304.125C143.915 304.075 143.655 303.895 143.655 303.565C143.655 303.145 144.075 302.935 144.915 302.935H150.845C154.945 302.985 157.965 302.985 159.925 302.935C162.535 302.935 163.555 302.935 162.995 302.935H164.465C165.255 302.935 165.655 303.165 165.655 303.635C165.655 304.055 164.935 304.265 163.495 304.265C161.445 304.265 160.355 304.635 160.215 305.385C160.125 305.895 160.075 306.385 160.075 306.855V333.005C160.075 336.785 160.145 339.185 160.285 340.205C160.615 343.235 161.475 345.425 162.865 346.775C164.585 348.455 166.845 349.295 169.635 349.295C172.795 349.295 175.125 348.275 176.615 346.225C178.425 343.755 179.335 339.335 179.335 332.965V307.135C179.335 305.925 178.985 305.135 178.295 304.765C177.835 304.485 176.935 304.345 175.605 304.345C173.945 304.295 173.115 304.015 173.115 303.505C173.115 303.135 173.445 302.945 174.095 302.945C174.795 302.945 175.815 302.985 177.165 303.045C178.515 303.115 179.535 303.145 180.235 303.145C180.285 303.145 180.675 303.075 181.425 302.935H185.265C186.705 302.935 187.425 303.135 187.425 303.525L187.435 303.535Z" fill="black" stroke="black" stroke-miterlimit="10"/>
<path d="M211.515 350.805C211.515 351.205 211.215 351.395 210.605 351.395C210.275 351.395 209.975 351.375 209.695 351.325C206.905 351.185 204.505 351.115 202.505 351.115C200.505 351.115 197.335 351.185 193.285 351.325C191.935 351.375 190.935 351.395 190.285 351.395C189.585 351.395 189.235 351.185 189.235 350.765C189.235 350.535 189.365 350.395 189.615 350.345C189.875 350.295 190.765 350.255 192.305 350.205C193.745 349.925 194.585 349.495 194.815 348.915C195.045 348.335 195.165 346.455 195.165 343.295V307.125C195.115 306.285 195.095 305.895 195.095 305.935C195.095 304.775 193.935 304.185 191.605 304.185C190.305 304.185 189.655 304.025 189.655 303.695C189.655 303.365 189.745 303.185 189.935 303.135C190.125 303.085 190.725 303.065 191.745 303.065C191.275 303.065 192.115 303.065 194.255 303.065H210.105C210.705 303.065 211.015 303.245 211.015 303.595C211.015 303.855 210.915 304.025 210.705 304.085C210.495 304.155 209.785 304.205 208.575 304.255C207.135 304.345 206.245 304.655 205.925 305.165L205.715 306.495V345.885C205.715 347.885 205.935 349.065 206.375 349.445C206.815 349.815 208.315 350.075 210.875 350.215C211.295 350.265 211.505 350.465 211.505 350.805H211.515Z" fill="black" stroke="black" stroke-miterlimit="10"/>
<path d="M260.525 303.775C260.525 304.005 260.355 304.145 260.015 304.195C259.675 304.245 258.455 304.315 256.355 304.405C255.125 304.455 254.415 304.705 254.235 305.175C254.055 305.455 253.985 306.945 254.025 309.645V350.765C254.025 351.555 253.865 351.955 253.535 351.955C253.025 351.955 249.635 348.105 243.375 340.405C237.115 332.705 230.235 323.895 222.745 313.985V347.845C222.745 348.825 223.055 349.425 223.665 349.665C224.655 350.035 225.805 350.225 227.125 350.225C228.675 350.225 229.545 350.345 229.735 350.575C229.785 350.625 229.805 350.715 229.805 350.855C229.805 351.225 229.455 351.415 228.755 351.415C228.335 351.415 227.985 351.395 227.705 351.345C224.915 351.255 223.165 351.205 222.465 351.205C220.835 351.205 218.695 351.255 216.045 351.345C214.745 351.395 214.185 351.415 214.365 351.415C213.665 351.415 213.315 351.235 213.315 350.855C213.315 350.525 214.335 350.295 216.385 350.155C218.755 349.965 220.135 349.595 220.505 349.035C220.735 348.665 220.855 346.985 220.855 344.015V315.365C220.855 312.435 220.805 310.675 220.715 310.065C220.435 308.025 219.625 306.535 218.275 305.605C217.255 304.905 215.345 304.515 212.545 304.425C211.805 304.375 211.425 304.155 211.425 303.765C211.425 303.325 211.755 303.105 212.405 303.105C212.685 303.105 213.685 303.155 215.405 303.245C216.245 303.295 217.495 303.315 219.175 303.315C222.615 303.315 225.415 303.245 227.555 303.105L252.055 334.665V306.955C252.055 305.835 251.865 305.125 251.495 304.825C251.125 304.525 250.335 304.345 249.125 304.295L246.125 304.155C245.565 304.105 245.285 303.945 245.285 303.665C245.285 303.295 245.705 303.105 246.545 303.105H251.085C255.785 303.105 258.535 303.125 259.325 303.175C260.115 303.225 260.515 303.435 260.515 303.805L260.525 303.775Z" fill="black" stroke="black" stroke-miterlimit="10"/>
<path d="M308.355 303.775C308.355 304.005 308.185 304.145 307.845 304.195C307.505 304.245 306.285 304.315 304.185 304.405C302.955 304.455 302.245 304.705 302.065 305.175C301.885 305.455 301.815 306.945 301.855 309.645V350.765C301.855 351.555 301.695 351.955 301.365 351.955C300.855 351.955 297.465 348.105 291.205 340.405C284.945 332.705 278.065 323.895 270.575 313.985V347.845C270.575 348.825 270.875 349.425 271.495 349.665C272.485 350.035 273.635 350.225 274.955 350.225C276.505 350.225 277.375 350.345 277.565 350.575C277.615 350.625 277.635 350.715 277.635 350.855C277.635 351.225 277.285 351.415 276.585 351.415C276.165 351.415 275.815 351.395 275.535 351.345C272.745 351.255 270.995 351.205 270.295 351.205C268.665 351.205 266.525 351.255 263.875 351.345C262.575 351.395 262.015 351.415 262.195 351.415C261.495 351.415 261.145 351.235 261.145 350.855C261.145 350.525 262.165 350.295 264.215 350.155C266.585 349.965 267.965 349.595 268.335 349.035C268.565 348.665 268.685 346.985 268.685 344.015V315.365C268.685 312.435 268.635 310.675 268.545 310.065C268.265 308.025 267.455 306.535 266.105 305.605C265.085 304.905 263.175 304.515 260.385 304.425C259.645 304.375 259.265 304.155 259.265 303.765C259.265 303.325 259.595 303.105 260.245 303.105C260.525 303.105 261.525 303.155 263.245 303.245C264.085 303.295 265.335 303.315 267.015 303.315C270.455 303.315 273.255 303.245 275.395 303.105L299.905 334.665V306.955C299.905 305.835 299.715 305.125 299.345 304.825C298.975 304.525 298.185 304.345 296.975 304.295L293.975 304.155C293.415 304.105 293.135 303.945 293.135 303.665C293.135 303.295 293.555 303.105 294.395 303.105H298.935C303.635 303.105 306.385 303.125 307.175 303.175C307.965 303.225 308.365 303.435 308.365 303.805L308.355 303.775Z" fill="black" stroke="black" stroke-miterlimit="10"/>
<path d="M349.475 339.105C349.475 339.195 349.455 341.365 349.405 345.595C349.355 347.825 349.325 349.435 349.305 350.415C349.285 351.395 349.265 351.855 349.265 351.815C336.975 351.255 326.225 351.095 317.015 351.325H311.145C310.305 351.325 309.885 351.145 309.885 350.795C309.885 350.535 309.995 350.375 310.195 350.335C310.405 350.295 311.115 350.225 312.325 350.135C314.515 349.995 315.695 349.365 315.885 348.255C315.975 347.655 316.025 346.975 316.025 346.235V310.895C316.025 308.105 316.005 306.575 315.955 306.295C315.905 305.555 315.675 305.045 315.255 304.765C314.835 304.485 313.975 304.345 312.675 304.345C311.235 304.345 310.515 304.135 310.515 303.715C310.515 303.255 311.155 303.015 312.435 303.015C313.715 303.015 315.495 302.995 317.775 302.945C326.335 302.755 333.345 302.715 338.785 302.805H343.535C344.555 302.805 345.815 302.735 347.305 302.595L347.935 310.205C348.165 312.625 348.285 314.115 348.285 314.675C348.285 315.145 348.055 315.375 347.585 315.375C347.115 315.375 346.815 314.775 346.675 313.565C346.255 310.355 344.955 308.015 342.785 306.545C340.615 305.075 337.405 304.345 333.155 304.345C331.845 304.345 329.605 304.415 326.435 304.555V325.155C331.575 325.205 334.815 324.845 336.155 324.075C337.485 323.305 338.385 321.315 338.855 318.105C339.085 316.385 339.435 315.525 339.905 315.525C340.325 315.525 340.535 315.945 340.535 316.785C340.535 317.625 340.465 319.345 340.325 321.955C340.275 322.835 340.255 324.025 340.255 325.515C340.255 329.515 340.305 332.545 340.395 334.595C340.445 334.875 340.465 335.225 340.465 335.645C340.465 336.205 340.255 336.485 339.835 336.485C339.505 336.485 339.295 336.385 339.205 336.175C339.115 335.965 338.975 335.215 338.785 333.905C338.315 330.605 337.675 328.545 336.855 327.725C336.035 326.915 334.155 326.505 331.205 326.505H326.435V349.965H330.915C336.055 349.875 339.175 349.755 340.295 349.615C341.695 349.425 343.045 348.915 344.355 348.075C345.525 347.145 346.325 346.145 346.775 345.075C347.215 344.005 347.695 342.025 348.215 339.145C348.355 338.445 348.585 338.095 348.915 338.095C349.285 338.095 349.475 338.445 349.475 339.145V339.105Z" fill="black" stroke="black" stroke-miterlimit="10"/>
<path d="M385.775 337.575C385.775 341.815 384.275 345.315 381.275 348.085C378.275 350.855 374.445 352.235 369.795 352.235C366.955 352.235 363.045 351.285 358.065 349.375C357.695 349.235 357.365 349.165 357.085 349.165C356.295 349.165 355.685 350.005 355.265 351.675C355.125 352.185 354.935 352.445 354.705 352.445C354.335 352.445 354.145 352.115 354.145 351.465C354.145 350.865 354.265 349.785 354.495 348.255C354.685 346.995 354.775 345.535 354.775 343.855C354.775 342.505 354.755 341.435 354.705 340.645C354.615 339.065 354.565 338.135 354.565 337.855C354.565 337.115 354.795 336.735 355.265 336.735C355.735 336.735 356.145 337.735 356.525 339.735C357.175 343.185 358.645 345.855 360.925 347.765C363.395 349.815 366.045 350.835 368.885 350.835C371.395 350.835 373.515 350.045 375.235 348.465C376.955 346.885 377.815 344.955 377.815 342.675C377.815 340.715 377.255 339.165 376.135 337.995C375.295 337.155 372.595 335.505 368.035 333.035C362.965 330.335 359.515 327.635 357.705 324.935C356.035 322.465 355.195 319.535 355.195 316.135C355.195 312.135 356.615 308.815 359.455 306.185C362.295 303.555 365.875 302.245 370.205 302.245C372.535 302.245 375.025 302.805 377.675 303.925C378.555 304.295 379.185 304.485 379.565 304.485C380.265 304.485 380.725 303.885 380.965 302.665C381.055 302.245 381.265 302.035 381.595 302.035C382.055 302.035 382.295 302.335 382.295 302.945C382.295 303.175 382.245 303.825 382.155 304.905C382.065 305.975 382.015 306.855 382.015 307.555C382.015 309.975 382.105 312.025 382.295 313.695C382.345 313.835 382.365 314.025 382.365 314.255C382.365 314.675 382.175 314.885 381.805 314.885C381.385 314.885 380.965 314.145 380.545 312.655C380.125 311.165 379.395 309.685 378.345 308.225C377.295 306.755 376.235 305.705 375.165 305.045C373.765 304.205 372.135 303.785 370.275 303.785C367.665 303.785 365.595 304.415 364.065 305.665C362.535 306.915 361.765 308.645 361.765 310.835C361.765 312.745 362.485 314.435 363.925 315.895C365.365 317.365 368.135 319.235 372.235 321.515C377.265 324.305 380.585 326.545 382.215 328.215C384.585 330.685 385.775 333.795 385.775 337.575Z" fill="black" stroke="black" stroke-miterlimit="10"/>
<path d="M422.155 337.575C422.155 341.815 420.655 345.315 417.655 348.085C414.655 350.855 410.825 352.235 406.175 352.235C403.335 352.235 399.425 351.285 394.445 349.375C394.075 349.235 393.745 349.165 393.465 349.165C392.675 349.165 392.065 350.005 391.645 351.675C391.505 352.185 391.315 352.445 391.085 352.445C390.715 352.445 390.525 352.115 390.525 351.465C390.525 350.865 390.645 349.785 390.875 348.255C391.065 346.995 391.155 345.535 391.155 343.855C391.155 342.505 391.135 341.435 391.085 340.645C390.995 339.065 390.945 338.135 390.945 337.855C390.945 337.115 391.175 336.735 391.645 336.735C392.115 336.735 392.525 337.735 392.905 339.735C393.555 343.185 395.025 345.855 397.305 347.765C399.775 349.815 402.425 350.835 405.265 350.835C407.775 350.835 409.895 350.045 411.615 348.465C413.335 346.885 414.195 344.955 414.195 342.675C414.195 340.715 413.635 339.165 412.515 337.995C411.675 337.155 408.975 335.505 404.415 333.035C399.345 330.335 395.895 327.635 394.085 324.935C392.415 322.465 391.575 319.535 391.575 316.135C391.575 312.135 392.995 308.815 395.835 306.185C398.675 303.555 402.255 302.245 406.585 302.245C408.915 302.245 411.405 302.805 414.055 303.925C414.935 304.295 415.565 304.485 415.945 304.485C416.645 304.485 417.105 303.885 417.345 302.665C417.435 302.245 417.645 302.035 417.975 302.035C418.435 302.035 418.675 302.335 418.675 302.945C418.675 303.175 418.625 303.825 418.535 304.905C418.445 305.975 418.395 306.855 418.395 307.555C418.395 309.975 418.485 312.025 418.675 313.695C418.725 313.835 418.745 314.025 418.745 314.255C418.745 314.675 418.555 314.885 418.185 314.885C417.765 314.885 417.345 314.145 416.925 312.655C416.505 311.165 415.775 309.685 414.725 308.225C413.675 306.755 412.615 305.705 411.545 305.045C410.145 304.205 408.515 303.785 406.655 303.785C404.045 303.785 401.975 304.415 400.445 305.665C398.915 306.915 398.145 308.645 398.145 310.835C398.145 312.745 398.865 314.435 400.305 315.895C401.745 317.365 404.515 319.235 408.615 321.515C413.645 324.305 416.965 326.545 418.595 328.215C420.965 330.685 422.155 333.795 422.155 337.575Z" fill="black" stroke="black" stroke-miterlimit="10"/>
<path d="M169.505 399.085V367.405H173.245L191.415 394.075L190.885 394.165V367.415H194.315V399.095H190.575L172.405 372.425L172.935 372.335V399.085H169.505Z" fill="#E1322A"/>
<path d="M200.655 399.085V367.405H204.265V399.085H200.655Z" fill="#E1322A"/>
<path d="M224.855 399.525C221.625 399.525 218.825 398.865 216.455 397.545C214.075 396.225 212.245 394.375 210.955 391.975C209.665 389.585 209.015 386.765 209.015 383.505C209.015 380.245 209.655 377.385 210.925 374.905C212.205 372.425 213.975 370.485 216.245 369.075C218.515 367.665 221.135 366.965 224.095 366.965C226.415 366.965 228.515 367.405 230.405 368.285C232.295 369.165 233.855 370.385 235.065 371.935C236.285 373.495 237.025 375.295 237.285 377.345H233.675C233.385 375.175 232.375 373.445 230.665 372.155C228.945 370.865 226.795 370.215 224.215 370.215C221.895 370.215 219.875 370.765 218.145 371.865C216.415 372.965 215.075 374.495 214.115 376.465C213.165 378.435 212.685 380.745 212.685 383.415C212.685 386.085 213.175 388.385 214.155 390.305C215.135 392.225 216.565 393.705 218.425 394.725C220.285 395.755 222.525 396.265 225.135 396.265C226.925 396.265 228.525 396.005 229.935 395.495C231.345 394.985 232.615 394.185 233.765 393.095L237.375 394.415C235.765 396.115 233.905 397.395 231.805 398.245C229.705 399.095 227.385 399.525 224.835 399.525H224.855ZM233.785 394.415V384.165L235.145 385.525H225.115V382.355H237.395V394.415H233.785Z" fill="#E1322A"/>
<path d="M243.025 399.085V367.405H246.635V399.085H243.025ZM244.875 370.575V367.405H263.885V370.575H244.875ZM244.875 384.165V380.995H262.655V384.165H244.875ZM244.875 399.085V395.915H264.235V399.085H244.875Z" fill="#E1322A"/>
<path d="M268.465 399.085V367.405H280.165C282.425 367.405 284.345 367.775 285.925 368.505C287.505 369.235 288.715 370.255 289.555 371.565C290.395 372.875 290.805 374.415 290.805 376.205C290.805 377.995 290.385 379.555 289.555 380.895C288.725 382.235 287.505 383.275 285.925 384.015C284.345 384.755 282.415 385.135 280.165 385.135H271.105V381.965H280.035C282.385 381.965 284.165 381.455 285.385 380.425C286.605 379.395 287.215 377.995 287.215 376.205C287.215 374.415 286.615 373.065 285.415 372.065C284.215 371.065 282.425 370.565 280.045 370.565H272.085V399.075H268.475L268.465 399.085ZM287.025 399.085L270.175 383.375H275.105L292.485 399.085H287.025Z" fill="#E1322A"/>
<path d="M296.095 399.085V367.405H299.705V399.085H296.095Z" fill="#E1322A"/>
<path d="M303.835 399.085L316.065 367.405H319.235L307.315 399.085H303.835ZM309.905 386.275H326.445V389.445H309.905V386.275ZM329.005 399.085L317.085 367.405H320.475L332.705 399.085H329.005Z" fill="#E1322A"/>
<path d="M209.215 268.035H74.6948V273.145H209.215V268.035Z" fill="#C23C42"/>
<path d="M425.305 268.035H290.785V273.145H425.305V268.035Z" fill="#C23C42"/>
</g>
<defs>
<clipPath id="clip0_2003_10676">
<rect width="350.61" height="299.05" fill="white" transform="translate(74.6948 100.475)"/>
</clipPath>
</defs>
</svg>
