<svg width="500" height="500" viewBox="0 0 500 500" fill="none" xmlns="http://www.w3.org/2000/svg">
<rect width="500" height="500" fill="white"/>
<g clip-path="url(#clip0_2003_10715)">
<path d="M430.404 268.216L409.687 339.53C409.687 339.53 352.072 317.75 254.05 317.75C146.902 317.75 88.5781 336.376 88.5781 336.376L69.5972 265.753C69.5972 265.753 122.658 247.014 233.278 245.185L189.773 201.307L250.019 141.061L310.62 201.475L268.104 245.223C369.523 247.406 430.404 268.216 430.404 268.216Z" fill="#D13833"/>
<path d="M138.205 348.694H150.243V351.27H141.228V366.929H138.205V348.694ZM139.828 356.458H149.477V359.034H139.828V356.458Z" fill="#B19A59"/>
<path d="M153.901 348.694H156.925V364.353H165.585V366.929H153.901V348.694Z" fill="#B19A59"/>
<path d="M171.426 366.07C170.026 365.286 168.925 364.185 168.122 362.729C167.32 361.292 166.909 359.612 166.909 357.69C166.909 355.786 167.32 354.144 168.141 352.706C168.962 351.288 170.082 350.187 171.482 349.422C172.882 348.656 174.412 348.283 176.054 348.283C177.697 348.283 179.246 348.656 180.646 349.422C182.045 350.187 183.147 351.269 183.968 352.688C184.789 354.106 185.2 355.767 185.2 357.671C185.2 359.593 184.789 361.254 183.968 362.71C183.147 364.166 182.045 365.286 180.646 366.051C179.246 366.835 177.715 367.227 176.054 367.227C174.393 367.227 172.826 366.835 171.426 366.051V366.07ZM179.115 363.718C180.03 363.158 180.739 362.356 181.262 361.31C181.784 360.265 182.027 359.071 182.027 357.708C182.027 356.346 181.766 355.17 181.243 354.144C180.72 353.136 180.011 352.352 179.097 351.792C178.182 351.232 177.174 350.971 176.054 350.971C174.935 350.971 173.908 351.251 173.012 351.792C172.116 352.333 171.388 353.117 170.866 354.144C170.343 355.151 170.082 356.327 170.082 357.671C170.082 359.033 170.343 360.228 170.866 361.273C171.388 362.318 172.098 363.121 173.012 363.699C173.908 364.278 174.935 364.558 176.054 364.558C177.174 364.558 178.201 364.278 179.115 363.718Z" fill="#B19A59"/>
<path d="M192.329 366.35C191.209 365.753 190.351 364.894 189.735 363.774C189.119 362.655 188.801 361.273 188.801 359.687V348.694H191.825V359.538C191.825 360.583 192.012 361.479 192.366 362.244C192.739 363.009 193.243 363.569 193.897 363.98C194.55 364.372 195.315 364.577 196.192 364.577C197.069 364.577 197.853 364.39 198.507 363.998C199.16 363.606 199.664 363.046 200.037 362.3C200.41 361.553 200.578 360.658 200.578 359.612V348.713H203.602V359.687C203.602 361.273 203.284 362.636 202.669 363.756C202.053 364.894 201.175 365.771 200.056 366.369C198.936 366.966 197.648 367.264 196.192 367.264C194.736 367.264 193.449 366.966 192.329 366.369V366.35Z" fill="#B19A59"/>
<path d="M208.23 348.694H216.181C217.543 348.694 218.682 348.937 219.596 349.403C220.511 349.87 221.201 350.504 221.649 351.326C222.097 352.128 222.321 353.061 222.321 354.107C222.321 355.525 221.967 356.663 221.239 357.541C220.511 358.418 219.596 358.996 218.458 359.295V359.351L222.788 366.966H219.316L215.509 360.116C215.397 359.93 215.322 359.799 215.229 359.743C215.154 359.687 214.986 359.668 214.744 359.668H209.854V357.111H215.882C217.002 357.111 217.842 356.85 218.402 356.328C218.962 355.805 219.26 355.096 219.26 354.219C219.26 353.304 218.962 352.595 218.383 352.091C217.805 351.568 216.965 351.307 215.864 351.307H211.179V366.966H208.211V348.731L208.23 348.694Z" fill="#B19A59"/>
<path d="M233.594 348.694H238.596L243.915 364.614H243.187L248.506 348.694H253.359V366.929H250.466V349.366H250.97L245.035 366.929H241.955L235.983 349.366H236.506V366.929H233.613V348.694H233.594Z" fill="#B19A59"/>
<path d="M258.156 348.694H261.18V366.929H258.156V348.694Z" fill="#B19A59"/>
<path d="M266.014 348.694H269.037V364.353H277.697V366.929H266.014V348.694Z" fill="#B19A59"/>
<path d="M281.037 348.694H284.061V364.353H292.721V366.929H281.037V348.694Z" fill="#B19A59"/>
<path d="M297.126 365.715C295.764 364.689 294.998 363.214 294.849 361.254H297.798C297.947 362.374 298.433 363.214 299.254 363.811C300.075 364.409 301.083 364.689 302.277 364.689C303.024 364.689 303.696 364.577 304.312 364.371C304.927 364.147 305.394 363.849 305.749 363.438C306.103 363.027 306.271 362.542 306.271 361.982C306.271 361.254 305.954 360.695 305.301 360.247C304.648 359.799 303.714 359.444 302.501 359.183L300.597 358.772C298.862 358.38 297.555 357.783 296.697 356.962C295.838 356.141 295.409 355.058 295.409 353.752C295.409 352.688 295.708 351.755 296.305 350.933C296.902 350.112 297.705 349.459 298.731 349.011C299.739 348.544 300.859 348.321 302.072 348.321C303.976 348.321 305.562 348.806 306.812 349.776C308.063 350.747 308.772 352.091 308.959 353.808H306.01C305.879 352.912 305.45 352.184 304.759 351.661C304.069 351.139 303.173 350.859 302.072 350.859C301.4 350.859 300.765 350.971 300.206 351.195C299.646 351.419 299.198 351.736 298.843 352.128C298.488 352.52 298.339 352.986 298.339 353.49C298.339 354.181 298.582 354.685 299.048 355.058C299.534 355.431 300.299 355.711 301.381 355.935L303.565 356.402C305.375 356.775 306.775 357.41 307.764 358.25C308.754 359.108 309.257 360.228 309.257 361.646C309.257 362.878 308.94 363.886 308.287 364.726C307.634 365.566 306.775 366.2 305.711 366.611C304.648 367.022 303.509 367.245 302.277 367.245C300.206 367.245 298.489 366.742 297.126 365.715Z" fill="#B19A59"/>
<path d="M320.213 348.694H327.193C328.612 348.694 329.825 348.918 330.795 349.385C331.784 349.851 332.512 350.504 333.016 351.363C333.52 352.222 333.763 353.229 333.763 354.368C333.763 355.581 333.501 356.589 332.998 357.466C332.494 358.325 331.728 358.996 330.739 359.463C329.75 359.93 328.556 360.172 327.137 360.172H323.199V366.947H320.176V348.713L320.213 348.694ZM329.75 356.738C330.385 356.178 330.721 355.413 330.721 354.424C330.721 353.435 330.403 352.688 329.75 352.11C329.097 351.55 328.182 351.27 327.007 351.27H323.255V357.578H327.007C328.201 357.578 329.134 357.298 329.769 356.738H329.75Z" fill="#B19A59"/>
<path d="M337.197 348.694H340.22V364.353H348.88V366.929H337.197V348.694Z" fill="#B19A59"/>
<path d="M354.666 366.07C353.303 365.286 352.221 364.185 351.418 362.729C350.615 361.292 350.205 359.612 350.205 357.69C350.205 355.786 350.615 354.144 351.437 352.706C352.258 351.288 353.34 350.187 354.703 349.422C356.065 348.656 357.521 348.283 359.107 348.283C360.507 348.283 361.795 348.544 362.971 349.067C364.128 349.59 365.098 350.318 365.845 351.251C366.592 352.184 367.058 353.285 367.245 354.536H364.24C364.053 353.826 363.717 353.192 363.232 352.669C362.747 352.128 362.15 351.717 361.44 351.419C360.731 351.12 359.966 350.971 359.107 350.971C358.044 350.971 357.092 351.251 356.215 351.811C355.337 352.371 354.666 353.154 354.162 354.162C353.658 355.17 353.415 356.346 353.415 357.671C353.415 359.033 353.658 360.228 354.162 361.273C354.666 362.318 355.356 363.121 356.215 363.699C357.073 364.278 358.044 364.558 359.107 364.558C360.395 364.558 361.478 364.241 362.374 363.606C363.269 362.972 363.904 362.094 364.259 360.993H367.264C367.021 362.281 366.517 363.382 365.77 364.334C365.024 365.267 364.072 365.995 362.934 366.499C361.795 367.003 360.507 367.264 359.107 367.264C357.502 367.264 356.028 366.872 354.684 366.088L354.666 366.07Z" fill="#B19A59"/>
<path d="M107.709 341.733C108.474 341.583 183.558 324.319 255.264 324.319C326.97 324.319 391.602 341.191 392.256 341.322V341.359C391.602 341.229 326.597 328.052 255.264 328.052C183.932 328.052 108.456 341.583 107.69 341.733H107.709Z" fill="url(#paint0_linear_2003_10715)"/>
<path d="M429.135 259.911C428.538 259.743 373.965 244.942 299.87 240.948C307.597 237.365 326.167 228.5 343.524 218.253C346.585 218.048 352.968 217.077 360.303 212.71C367.283 208.548 371.632 200.336 372.752 198.003C372.882 197.723 372.677 197.406 372.36 197.443C369.747 197.705 360.303 198.918 353.472 203.696C347.481 207.895 343.786 214.017 342.33 216.816C321.651 229.022 299.254 239.231 295.876 240.762C290.725 240.519 285.48 240.314 280.161 240.183L319.299 201.811L250.505 132.755L182.793 200.859L220.363 239.194C217.097 239.213 210.303 239.343 200.729 239.866C199.553 239.343 175.738 228.668 153.883 215.752C152.427 212.953 148.731 206.831 142.74 202.632C135.91 197.854 126.466 196.641 123.853 196.379C123.536 196.342 123.312 196.659 123.461 196.939C124.581 199.272 128.929 207.466 135.91 211.646C143.226 216.014 149.609 216.984 152.688 217.189C170.344 227.641 189.269 236.637 196.753 240.071C169.635 241.714 123.703 246.305 70.8853 259.22L71.3332 261.03C155.338 240.482 221.93 241.023 222.602 241.023H224.861L185.462 200.84L250.523 135.405L316.649 201.792L275.682 241.937L277.903 241.993C284.099 242.124 290.184 242.348 296.175 242.647C296.175 242.647 296.193 242.647 296.212 242.647C371.912 246.323 428.052 261.553 428.668 261.721L429.172 259.929L429.135 259.911Z" fill="url(#paint1_linear_2003_10715)"/>
<path d="M331.86 218.925C332.998 218.253 334.099 217.544 335.219 216.835C338.821 214.502 342.778 212.02 345.148 208.362C347.276 205.095 348.396 201.176 348.806 197.313C348.844 196.921 348.433 196.641 348.078 196.827C347.724 197.014 347.369 197.201 347.033 197.387C343.058 199.552 338.933 202.296 336.395 206.122C335.126 208.026 334.249 210.209 333.39 212.318C332.588 214.297 331.841 216.312 331.132 218.328C330.983 218.776 331.468 219.149 331.86 218.925Z" fill="url(#paint2_linear_2003_10715)"/>
<path d="M352.764 230.814C356.608 230.254 360.322 228.537 363.495 226.316C363.813 226.092 363.757 225.588 363.383 225.439C363.01 225.29 362.637 225.159 362.263 225.01C358.027 223.442 353.249 222.135 348.695 222.751C346.418 223.05 344.197 223.815 342.051 224.562C340.016 225.252 338.019 226.017 336.041 226.82C335.612 226.988 335.63 227.604 336.078 227.753C337.329 228.164 338.598 228.537 339.867 228.91C343.992 230.086 348.452 231.43 352.782 230.814H352.764Z" fill="url(#paint3_linear_2003_10715)"/>
<path d="M315.828 221.445C315.025 223.424 314.279 225.439 313.569 227.455C313.42 227.903 313.905 228.276 314.297 228.052C315.436 227.38 316.537 226.671 317.657 225.962C321.259 223.629 325.215 221.147 327.586 217.489C329.713 214.222 330.833 210.303 331.244 206.44C331.281 206.048 330.871 205.768 330.516 205.954C330.161 206.141 329.807 206.328 329.471 206.514C325.495 208.679 321.371 211.423 318.832 215.249C317.563 217.153 316.686 219.336 315.828 221.445Z" fill="url(#paint4_linear_2003_10715)"/>
<path d="M345.913 233.613C341.676 232.008 336.917 230.646 332.363 231.206C330.086 231.485 327.865 232.232 325.7 232.941C323.666 233.613 321.65 234.36 319.672 235.144C319.243 235.312 319.261 235.927 319.691 236.077C320.941 236.487 322.192 236.898 323.461 237.271C327.567 238.503 332.027 239.884 336.357 239.306C340.221 238.802 343.935 237.103 347.126 234.92C347.462 234.696 347.406 234.21 347.033 234.042C346.66 233.893 346.305 233.744 345.932 233.613H345.913Z" fill="url(#paint5_linear_2003_10715)"/>
<path d="M372.136 243.02C371.725 243.263 371.856 243.86 372.304 243.935C373.61 244.14 374.916 244.327 376.223 244.495C380.478 245.036 385.088 245.689 389.269 244.439C393.002 243.319 396.398 241.042 399.198 238.373C399.478 238.093 399.347 237.627 398.955 237.533C398.563 237.44 398.19 237.365 397.798 237.272C393.375 236.357 388.448 235.779 384.043 237.085C381.841 237.72 379.769 238.821 377.735 239.885C375.831 240.874 373.965 241.938 372.136 243.02Z" fill="url(#paint6_linear_2003_10715)"/>
<path d="M355.376 235.367C353.099 236.823 350.878 238.354 348.676 239.921C348.191 240.257 348.433 241.022 349.031 241.06C350.71 241.19 352.39 241.284 354.07 241.358C359.538 241.601 365.492 241.937 370.643 239.903C375.216 238.092 379.247 234.863 382.439 231.205C382.775 230.832 382.532 230.235 382.028 230.16C381.524 230.086 381.02 230.03 380.516 229.955C374.768 229.283 368.441 229.059 363.01 231.168C360.304 232.213 357.803 233.818 355.376 235.367Z" fill="url(#paint7_linear_2003_10715)"/>
<path d="M312.953 214.745C312.598 214.931 312.244 215.118 311.908 215.305C307.932 217.47 303.808 220.213 301.269 224.039C300 225.943 299.123 228.127 298.265 230.236C297.462 232.214 296.716 234.23 296.006 236.245C295.857 236.693 296.342 237.066 296.734 236.842C297.873 236.171 298.974 235.461 300.094 234.752C303.696 232.419 307.652 229.937 310.023 226.279C312.15 223.013 313.27 219.093 313.681 215.23C313.718 214.838 313.308 214.558 312.953 214.745Z" fill="url(#paint8_linear_2003_10715)"/>
<path d="M391.509 246.137C391.005 246.174 390.912 246.883 391.379 247.051C409.65 254.218 422.752 256.159 423.406 254.89C424.059 253.565 414.708 247.648 407.989 246.323C402.969 245.334 395.13 245.819 391.509 246.137Z" fill="url(#paint9_linear_2003_10715)"/>
<path d="M160.975 215.771C162.076 216.481 163.196 217.19 164.335 217.862C164.745 218.104 165.212 217.712 165.063 217.264C164.353 215.249 163.625 213.233 162.804 211.255C161.946 209.146 161.05 206.962 159.799 205.058C157.261 201.214 153.136 198.489 149.161 196.324C148.806 196.137 148.471 195.951 148.116 195.764C147.761 195.577 147.351 195.857 147.388 196.249C147.799 200.094 148.937 204.032 151.046 207.298C153.416 210.956 157.373 213.438 160.975 215.771Z" fill="url(#paint10_linear_2003_10715)"/>
<path d="M160.172 225.755C158.193 224.953 156.178 224.188 154.162 223.497C151.997 222.751 149.776 221.985 147.518 221.687C142.964 221.071 138.186 222.377 133.949 223.945C133.576 224.076 133.203 224.225 132.83 224.374C132.456 224.524 132.4 225.009 132.718 225.252C135.89 227.473 139.586 229.208 143.449 229.75C147.779 230.365 152.24 229.022 156.364 227.846C157.634 227.491 158.884 227.099 160.153 226.689C160.601 226.539 160.62 225.923 160.191 225.755H160.172Z" fill="url(#paint11_linear_2003_10715)"/>
<path d="M178.556 224.916C179.657 225.626 180.777 226.335 181.916 227.007C182.326 227.249 182.793 226.857 182.643 226.409C181.934 224.394 181.206 222.378 180.385 220.4C179.527 218.291 178.631 216.107 177.38 214.203C174.842 210.359 170.717 207.634 166.742 205.469C166.387 205.282 166.051 205.095 165.697 204.909C165.342 204.722 164.932 205.002 164.969 205.394C165.38 209.239 166.518 213.177 168.627 216.443C170.997 220.101 174.954 222.583 178.556 224.916Z" fill="url(#paint12_linear_2003_10715)"/>
<path d="M149.179 232.998C148.806 233.147 148.75 233.651 149.086 233.875C152.277 236.059 155.991 237.757 159.855 238.261C164.185 238.84 168.645 237.44 172.751 236.227C174.02 235.853 175.271 235.461 176.521 235.032C176.969 234.883 176.988 234.267 176.54 234.099C174.543 233.315 172.527 232.569 170.512 231.897C168.347 231.187 166.107 230.441 163.849 230.161C159.276 229.601 154.517 230.963 150.299 232.569C149.926 232.718 149.552 232.849 149.198 232.998H149.179Z" fill="url(#paint13_linear_2003_10715)"/>
<path d="M106.906 243.394C111.087 244.663 115.716 244.009 119.952 243.45C121.259 243.282 122.565 243.095 123.872 242.89C124.338 242.815 124.45 242.218 124.04 241.975C122.192 240.893 120.326 239.829 118.441 238.84C116.425 237.776 114.335 236.693 112.132 236.04C107.709 234.752 102.8 235.331 98.3771 236.227C97.9851 236.301 97.5932 236.395 97.2199 236.488C96.828 236.581 96.6974 237.048 96.9773 237.328C99.7769 239.997 103.174 242.274 106.906 243.394Z" fill="url(#paint14_linear_2003_10715)"/>
<path d="M125.551 238.858C130.702 240.892 136.637 240.556 142.124 240.313C143.804 240.239 145.484 240.145 147.163 240.015C147.761 239.977 147.985 239.212 147.518 238.876C145.334 237.308 143.095 235.778 140.818 234.322C138.391 232.773 135.891 231.168 133.184 230.123C127.753 228.033 121.426 228.238 115.678 228.91C115.174 228.966 114.67 229.04 114.166 229.115C113.662 229.19 113.419 229.768 113.755 230.16C116.947 233.837 120.96 237.047 125.551 238.858Z" fill="url(#paint15_linear_2003_10715)"/>
<path d="M196.119 233.688C197.22 234.397 198.34 235.106 199.478 235.778C199.889 236.021 200.355 235.629 200.206 235.181C199.497 233.165 198.769 231.149 197.948 229.171C197.089 227.062 196.193 224.878 194.943 222.975C192.405 219.13 188.28 216.405 184.305 214.24C183.95 214.053 183.614 213.867 183.259 213.68C182.905 213.493 182.494 213.773 182.531 214.165C182.942 218.01 184.081 221.948 186.19 225.214C188.56 228.872 192.517 231.355 196.119 233.688Z" fill="url(#paint16_linear_2003_10715)"/>
<path d="M104.815 246.006C105.282 245.819 105.189 245.129 104.685 245.092C101.064 244.774 93.2253 244.289 88.2048 245.278C81.4858 246.603 72.1353 252.52 72.7886 253.845C73.4231 255.114 86.525 253.192 104.815 246.006Z" fill="url(#paint17_linear_2003_10715)"/>
<path d="M240.897 195.274H263.883V167.242L280.744 183.082V220.226L263.883 236.664V209.111H240.897V237.274L224.018 221.47V183.082L240.897 167.241V195.274Z" fill="white" stroke="#DFAD0E"/>
<path d="M93.3379 282.101L102.539 280.422L104.853 293.094L116.182 291.023L113.868 278.35L123.069 276.67L129.284 310.75L120.083 312.43L117.563 298.656L106.234 300.728L108.754 314.501L99.5529 316.181L93.3379 282.101Z" fill="white"/>
<path d="M132.42 292.646C130.553 280.104 138.336 273.591 146.623 272.359C154.872 271.127 164.204 275.084 166.07 287.644C167.937 300.186 160.154 306.7 151.905 307.932C143.618 309.164 134.267 305.207 132.401 292.665L132.42 292.646ZM156.813 289.007C155.88 282.717 152.576 279.264 147.761 279.992C142.909 280.72 140.744 284.957 141.677 291.265C142.61 297.555 145.951 301.232 150.822 300.504C155.637 299.795 157.765 295.297 156.832 289.007H156.813Z" fill="white"/>
<path d="M170.456 269.597L179.62 268.589L194.364 286.506H194.458L192.33 267.189L200.841 266.256L204.629 300.69L196.025 301.642L180.74 283.837H180.646L182.774 303.117L174.263 304.05L170.475 269.615L170.456 269.597Z" fill="white"/>
<path d="M209.724 265.509L234.398 263.997L234.883 271.762L219.56 272.713L219.915 278.312L230.852 277.641L231.299 284.938L220.363 285.61L220.755 292.012L236.88 291.022L237.347 298.544L211.871 300.112L209.743 265.528L209.724 265.509Z" fill="white"/>
<path d="M251.252 283.893L239.363 263.606L249.012 263.699L256.067 276.036L263.383 263.83L272.939 263.923L260.621 283.987L260.49 298.451L251.121 298.358L251.252 283.893Z" fill="white"/>
<path d="M277.026 264.073L286.395 264.931L288.075 278.761C288.43 281.057 288.728 282.811 288.915 286.04H289.008C289.718 283.016 290.334 281.28 291.061 279.097L295.167 265.752L303.603 266.536L305.414 280.478C305.824 283.147 306.104 284.304 306.31 287.663H306.403C307.131 284.397 307.541 283.501 308.344 280.851L312.357 267.357L320.886 268.141L308.755 301.811L300.972 301.101L298.247 279.078H298.154L290.949 300.168L283.017 299.44L277.008 264.091L277.026 264.073Z" fill="white"/>
<path d="M327.25 269.186L351.718 272.713L350.598 280.403L335.406 278.201L334.603 283.762L345.447 285.33L344.402 292.553L333.558 290.985L332.644 297.331L348.62 299.645L347.537 307.111L322.285 303.453L327.231 269.167L327.25 269.186Z" fill="white"/>
<path d="M359.109 273.964L368.328 275.606L363.588 302.295L377.922 304.833L376.597 312.261L353.043 308.081L359.09 273.964H359.109Z" fill="white"/>
<path d="M388.336 279.246L397.518 281.131L392.069 307.689L406.346 310.62L404.834 318.01L381.393 313.214L388.354 279.265L388.336 279.246Z" fill="white"/>
<path d="M93.3379 282.101L102.539 280.422L104.853 293.094L116.182 291.023L113.868 278.35L123.069 276.67L129.284 310.75L120.083 312.43L117.563 298.656L106.234 300.728L108.754 314.501L99.5529 316.181L93.3379 282.101Z" stroke="#DFAD0E"/>
<path d="M132.42 292.646C130.553 280.104 138.336 273.591 146.623 272.359C154.872 271.127 164.204 275.084 166.07 287.644C167.937 300.186 160.154 306.7 151.905 307.932C143.618 309.164 134.267 305.207 132.401 292.665L132.42 292.646ZM156.813 289.007C155.88 282.717 152.576 279.264 147.761 279.992C142.909 280.72 140.744 284.957 141.677 291.265C142.61 297.555 145.951 301.232 150.822 300.504C155.637 299.795 157.765 295.297 156.832 289.007H156.813Z" stroke="#DFAD0E"/>
<path d="M170.456 269.597L179.62 268.589L194.364 286.506H194.458L192.33 267.189L200.841 266.256L204.629 300.69L196.025 301.642L180.74 283.837H180.646L182.774 303.117L174.263 304.05L170.475 269.615L170.456 269.597Z" stroke="#DFAD0E"/>
<path d="M209.724 265.509L234.398 263.997L234.883 271.762L219.56 272.713L219.915 278.312L230.852 277.641L231.299 284.938L220.363 285.61L220.755 292.012L236.88 291.022L237.347 298.544L211.871 300.112L209.743 265.528L209.724 265.509Z" stroke="#DFAD0E"/>
<path d="M251.252 283.893L239.363 263.606L249.012 263.699L256.067 276.036L263.383 263.83L272.939 263.923L260.621 283.987L260.49 298.451L251.121 298.358L251.252 283.893Z" stroke="#DFAD0E"/>
<path d="M277.026 264.073L286.395 264.931L288.075 278.761C288.43 281.057 288.728 282.811 288.915 286.04H289.008C289.718 283.016 290.334 281.28 291.061 279.097L295.167 265.752L303.603 266.536L305.414 280.478C305.824 283.147 306.104 284.304 306.31 287.663H306.403C307.131 284.397 307.541 283.501 308.344 280.851L312.357 267.357L320.886 268.141L308.755 301.811L300.972 301.101L298.247 279.078H298.154L290.949 300.168L283.017 299.44L277.008 264.091L277.026 264.073Z" stroke="#DFAD0E"/>
<path d="M327.25 269.186L351.718 272.713L350.598 280.403L335.406 278.201L334.603 283.762L345.447 285.33L344.402 292.553L333.558 290.985L332.644 297.331L348.62 299.645L347.537 307.111L322.285 303.453L327.231 269.167L327.25 269.186Z" stroke="#DFAD0E"/>
<path d="M359.109 273.964L368.328 275.606L363.588 302.295L377.922 304.833L376.597 312.261L353.043 308.081L359.09 273.964H359.109Z" stroke="#DFAD0E"/>
<path d="M388.336 279.246L397.518 281.131L392.069 307.689L406.346 310.62L404.834 318.01L381.393 313.214L388.354 279.265L388.336 279.246Z" stroke="#DFAD0E"/>
</g>
<defs>
<linearGradient id="paint0_linear_2003_10715" x1="70.8853" y1="273.289" x2="429.172" y2="279.847" gradientUnits="userSpaceOnUse">
<stop stop-color="#DFAD0E"/>
<stop offset="0.495192" stop-color="#C1B79A"/>
<stop offset="1" stop-color="#DFAD0E"/>
</linearGradient>
<linearGradient id="paint1_linear_2003_10715" x1="70.8853" y1="273.289" x2="429.172" y2="279.847" gradientUnits="userSpaceOnUse">
<stop stop-color="#DFAD0E"/>
<stop offset="0.495192" stop-color="#C1B79A"/>
<stop offset="1" stop-color="#DFAD0E"/>
</linearGradient>
<linearGradient id="paint2_linear_2003_10715" x1="70.8853" y1="273.289" x2="429.172" y2="279.847" gradientUnits="userSpaceOnUse">
<stop stop-color="#DFAD0E"/>
<stop offset="0.495192" stop-color="#C1B79A"/>
<stop offset="1" stop-color="#DFAD0E"/>
</linearGradient>
<linearGradient id="paint3_linear_2003_10715" x1="70.8853" y1="273.289" x2="429.172" y2="279.847" gradientUnits="userSpaceOnUse">
<stop stop-color="#DFAD0E"/>
<stop offset="0.495192" stop-color="#C1B79A"/>
<stop offset="1" stop-color="#DFAD0E"/>
</linearGradient>
<linearGradient id="paint4_linear_2003_10715" x1="70.8853" y1="273.289" x2="429.172" y2="279.847" gradientUnits="userSpaceOnUse">
<stop stop-color="#DFAD0E"/>
<stop offset="0.495192" stop-color="#C1B79A"/>
<stop offset="1" stop-color="#DFAD0E"/>
</linearGradient>
<linearGradient id="paint5_linear_2003_10715" x1="70.8853" y1="273.289" x2="429.172" y2="279.847" gradientUnits="userSpaceOnUse">
<stop stop-color="#DFAD0E"/>
<stop offset="0.495192" stop-color="#C1B79A"/>
<stop offset="1" stop-color="#DFAD0E"/>
</linearGradient>
<linearGradient id="paint6_linear_2003_10715" x1="70.8853" y1="273.289" x2="429.172" y2="279.847" gradientUnits="userSpaceOnUse">
<stop stop-color="#DFAD0E"/>
<stop offset="0.495192" stop-color="#C1B79A"/>
<stop offset="1" stop-color="#DFAD0E"/>
</linearGradient>
<linearGradient id="paint7_linear_2003_10715" x1="70.8853" y1="273.289" x2="429.172" y2="279.847" gradientUnits="userSpaceOnUse">
<stop stop-color="#DFAD0E"/>
<stop offset="0.495192" stop-color="#C1B79A"/>
<stop offset="1" stop-color="#DFAD0E"/>
</linearGradient>
<linearGradient id="paint8_linear_2003_10715" x1="70.8853" y1="273.289" x2="429.172" y2="279.847" gradientUnits="userSpaceOnUse">
<stop stop-color="#DFAD0E"/>
<stop offset="0.495192" stop-color="#C1B79A"/>
<stop offset="1" stop-color="#DFAD0E"/>
</linearGradient>
<linearGradient id="paint9_linear_2003_10715" x1="70.8853" y1="273.289" x2="429.172" y2="279.847" gradientUnits="userSpaceOnUse">
<stop stop-color="#DFAD0E"/>
<stop offset="0.495192" stop-color="#C1B79A"/>
<stop offset="1" stop-color="#DFAD0E"/>
</linearGradient>
<linearGradient id="paint10_linear_2003_10715" x1="70.8853" y1="273.289" x2="429.172" y2="279.847" gradientUnits="userSpaceOnUse">
<stop stop-color="#DFAD0E"/>
<stop offset="0.495192" stop-color="#C1B79A"/>
<stop offset="1" stop-color="#DFAD0E"/>
</linearGradient>
<linearGradient id="paint11_linear_2003_10715" x1="70.8853" y1="273.289" x2="429.172" y2="279.847" gradientUnits="userSpaceOnUse">
<stop stop-color="#DFAD0E"/>
<stop offset="0.495192" stop-color="#C1B79A"/>
<stop offset="1" stop-color="#DFAD0E"/>
</linearGradient>
<linearGradient id="paint12_linear_2003_10715" x1="70.8853" y1="273.289" x2="429.172" y2="279.847" gradientUnits="userSpaceOnUse">
<stop stop-color="#DFAD0E"/>
<stop offset="0.495192" stop-color="#C1B79A"/>
<stop offset="1" stop-color="#DFAD0E"/>
</linearGradient>
<linearGradient id="paint13_linear_2003_10715" x1="70.8853" y1="273.289" x2="429.172" y2="279.847" gradientUnits="userSpaceOnUse">
<stop stop-color="#DFAD0E"/>
<stop offset="0.495192" stop-color="#C1B79A"/>
<stop offset="1" stop-color="#DFAD0E"/>
</linearGradient>
<linearGradient id="paint14_linear_2003_10715" x1="70.8853" y1="273.289" x2="429.172" y2="279.847" gradientUnits="userSpaceOnUse">
<stop stop-color="#DFAD0E"/>
<stop offset="0.495192" stop-color="#C1B79A"/>
<stop offset="1" stop-color="#DFAD0E"/>
</linearGradient>
<linearGradient id="paint15_linear_2003_10715" x1="70.8853" y1="273.289" x2="429.172" y2="279.847" gradientUnits="userSpaceOnUse">
<stop stop-color="#DFAD0E"/>
<stop offset="0.495192" stop-color="#C1B79A"/>
<stop offset="1" stop-color="#DFAD0E"/>
</linearGradient>
<linearGradient id="paint16_linear_2003_10715" x1="70.8853" y1="273.289" x2="429.172" y2="279.847" gradientUnits="userSpaceOnUse">
<stop stop-color="#DFAD0E"/>
<stop offset="0.495192" stop-color="#C1B79A"/>
<stop offset="1" stop-color="#DFAD0E"/>
</linearGradient>
<linearGradient id="paint17_linear_2003_10715" x1="70.8853" y1="273.289" x2="429.172" y2="279.847" gradientUnits="userSpaceOnUse">
<stop stop-color="#DFAD0E"/>
<stop offset="0.495192" stop-color="#C1B79A"/>
<stop offset="1" stop-color="#DFAD0E"/>
</linearGradient>
<clipPath id="clip0_2003_10715">
<rect width="360.806" height="234.491" fill="white" transform="translate(69.5972 132.755)"/>
</clipPath>
</defs>
</svg>
