<svg width="500" height="500" viewBox="0 0 500 500" fill="none" xmlns="http://www.w3.org/2000/svg">
<rect width="500" height="500" fill="white"/>
<g clip-path="url(#clip0_2003_10448)">
<path d="M239.58 107.025C239.58 107.025 252.41 136.535 220.04 207.495C187.67 278.455 199.52 297.665 215.71 329.545C215.71 329.545 200.29 296.165 234.1 230.705C281.11 139.715 239.58 107.015 239.58 107.015V107.025Z" fill="#E7342C"/>
<path d="M263.61 143.805C263.61 143.805 272.85 163.995 244.07 230.705C213.18 302.325 214.72 332.155 233.69 359.955C233.69 359.955 222.74 328.975 258.13 253.925C294.42 176.975 263.61 143.805 263.61 143.805Z" fill="#E7342C"/>
<path d="M286.24 181.715C286.24 181.715 287.14 222.255 257.28 279.455C252.4 288.795 248.29 298.535 245.35 308.655C238.99 330.565 235.84 361.825 251.41 389.685C251.41 389.685 244.02 341.675 276.43 285.045C312.73 221.605 286.24 181.715 286.24 181.715Z" fill="#E7342C"/>
<path d="M302.26 208.775C302.26 208.775 305.8 265.365 278.33 307.305C250.43 349.905 263.29 407.205 271.63 424.375C271.63 424.375 268.16 365.605 291.09 331.835C312.18 300.775 326.3 240.175 302.27 208.785L302.26 208.775Z" fill="#E7342C"/>
<path d="M223.8 179.365C216.42 197.375 209.14 211.065 202.75 225.805C202.75 225.835 202.72 225.945 202.65 226.105C201.31 229.825 188.6 266.235 194.03 293.955C194.03 293.955 192.51 291.075 191.54 289.235C190.87 287.975 190.28 286.685 189.79 285.345C189.79 285.335 189.79 285.315 189.78 285.305C189.76 285.255 189.75 285.205 189.73 285.145C184.2 268.465 184.25 249.935 186.91 232.705C189.36 216.885 194.51 201.555 201.58 187.225C228.44 132.695 222.57 75.625 222.57 75.625C222.57 75.625 252.08 110.355 223.8 179.365Z" fill="#E7342C"/>
</g>
<defs>
<clipPath id="clip0_2003_10448">
<rect width="129.7" height="348.75" fill="white" transform="translate(185.15 75.625)"/>
</clipPath>
</defs>
</svg>
