<svg width="500" height="500" viewBox="0 0 500 500" fill="none" xmlns="http://www.w3.org/2000/svg">
<rect width="500" height="500" fill="white"/>
<g clip-path="url(#clip0_2003_10483)">
<path d="M374.485 219.555H301.735V146.815H374.485V219.555ZM308.295 212.985H367.915V153.375H308.295V212.985Z" fill="#AC8D30"/>
<path d="M401.835 246.905H329.085V174.165H401.835V246.905ZM335.645 240.335H395.265V180.725H335.645V240.335Z" fill="#AC8D30"/>
<path d="M363.825 185.045H340.255V208.615H363.825V185.045Z" fill="#234B2B"/>
<path d="M144.305 199.855H103.475L98.585 215.465C103.625 214.515 111.195 213.415 116.395 213.575L123.805 213.895C123.485 222.245 123.485 236.125 123.485 243.685L123.805 276.945C124.275 324.395 113.395 333.225 96.845 341.735C98.425 342.055 103.625 343.315 106.775 343.315C109.145 343.315 128.685 342.215 136.255 323.455C138.305 318.405 141.295 310.685 141.295 275.215L140.975 238.955C140.815 223.505 141.445 207.905 144.285 199.865L144.305 199.855Z" fill="#234B2B"/>
<path d="M204.525 318.085C202.945 313.195 201.525 308.465 201.525 306.575L200.895 259.445C200.895 253.925 200.895 251.715 198.525 247.465C196.795 244.465 190.325 235.795 175.035 235.795C173.925 235.795 170.615 235.795 167.785 236.425L157.375 238.635L152.965 253.135C158.005 250.135 162.425 247.775 168.575 247.775C176.145 247.775 182.765 251.555 184.965 255.655C185.595 256.915 185.915 258.175 185.915 262.275V266.535C182.605 268.905 181.585 268.935 173.935 272.525C163.495 277.425 144.935 284.825 144.935 299.005C144.935 306.905 150.555 313.155 157.555 316.105C164.695 319.115 172.925 318.125 180.485 318.095C180.785 318.095 185.755 318.095 185.755 318.005C185.755 311.115 185.915 312.225 185.915 306.565H185.775C185.775 312.915 191.065 318.075 197.425 318.075H204.525V318.085ZM177.405 306.585C169.205 306.585 161.795 303.585 161.795 294.445C161.795 291.885 162.345 289.785 164.015 287.815C165.795 285.725 168.115 284.155 170.495 282.835C175.705 279.935 180.975 277.195 186.185 274.305L185.765 305.165C183.085 305.955 181.175 306.585 177.395 306.585H177.405Z" fill="#234B2B"/>
<path d="M237.935 318.085C235.725 314.455 233.205 310.205 233.205 295.225V255.975C233.205 254.185 233.235 252.565 233.305 251.105V235.325H213.185C216.335 241.785 217.445 245.575 217.445 256.135V318.085H237.935Z" fill="#234B2B"/>
<path d="M278.135 308.315H265.525C268.365 299.965 271.045 292.865 271.675 291.605L291.385 246.675C292.645 243.525 292.965 243.045 295.795 237.375L246.925 235.485L242.665 251.405C246.925 248.405 251.965 245.255 262.215 245.885L275.145 246.675L259.065 284.195C254.655 294.445 246.455 310.515 241.255 318.085H293.115L297.845 302.165C292.015 306.735 287.595 308.315 278.135 308.315Z" fill="#234B2B"/>
<path d="M233.975 199.855H215.885V217.945H233.975V199.855Z" fill="#AC8D30"/>
<path d="M312.645 277.885C322.735 277.885 325.535 284.245 325.535 287.915C325.535 292.715 322.245 295.085 320.145 296.655C324.085 299.025 327.425 302.645 327.425 307.175C327.425 311.705 323.755 315.755 320.525 316.885C318.255 317.695 315.235 318.395 312.595 318.345L303.425 318.235C304.825 313.865 304.985 309.065 304.985 306.695V288.515C304.985 281.175 304.125 279.235 303.585 277.885H312.645ZM310.975 296.435C315.345 295.305 318.905 292.925 318.905 288.235C318.905 283.545 315.345 281.705 310.975 281.335V296.435ZM310.975 314.715C320.305 314.875 320.625 308.245 320.625 306.895C320.625 303.875 318.955 299.125 310.975 297.185V314.715Z" fill="#234B2B"/>
<path d="M332.565 291.145L336.125 290.395C337.095 290.175 338.225 290.175 338.605 290.175C343.835 290.175 346.045 293.145 346.645 294.165C347.455 295.625 347.455 296.375 347.455 298.265L347.675 314.395C347.675 315.045 348.165 316.665 348.695 318.335H342.335V314.395C340.285 315.905 339.695 316.395 337.695 318.065C337.375 318.115 336.295 318.335 335.425 318.335C333.215 318.335 328.305 316.395 328.305 311.805C328.305 306.955 334.565 304.205 338.225 302.745C340.925 301.725 341.195 301.505 342.325 300.695V299.235C342.325 297.835 342.215 297.405 342.005 296.965C341.245 295.565 338.985 294.265 336.395 294.265C334.295 294.265 332.785 295.075 331.055 296.095L332.565 291.135V291.145ZM342.335 303.455L337.815 305.035C335.615 305.805 334.095 307.865 334.085 310.195C334.085 310.215 334.085 310.225 334.085 310.245C334.085 313.375 336.625 314.395 339.425 314.395C340.715 314.395 341.425 314.175 342.335 313.905V303.445V303.455Z" fill="#234B2B"/>
<path d="M362.885 291.095C364.015 290.505 365.365 289.805 367.195 289.805C369.735 289.805 374.315 291.905 374.315 297.195V313.485C374.315 315.755 374.535 316.455 375.335 318.335H368.105C368.965 316.065 368.965 315.045 368.965 313.645V298.055C368.965 297.085 367.995 294.385 363.845 294.385C361.205 294.385 360.125 295.135 358.825 296.005V312.075C358.825 315.045 358.935 315.955 359.315 318.335H352.145C353.335 315.635 353.545 312.615 353.545 309.705V294.545C353.545 293.785 353.055 291.365 352.785 290.015H358.875L358.825 295.515L362.875 291.095H362.885Z" fill="#234B2B"/>
<path d="M385.675 277.285C385.025 279.925 384.595 282.675 384.595 286.295V302.965L391.665 293.745C393.125 291.855 393.175 291.045 393.285 290.025H401.425C397.435 293.635 397.005 294.015 394.895 296.765L390.635 302.265L395.595 310.625C397.805 314.345 399.695 316.615 401.415 318.335H392.735C392.515 316.775 392.415 315.905 390.845 313.315L384.585 303.015V311.915C384.585 313.805 384.805 316.665 385.665 318.335H377.895C379.085 316.125 379.295 314.395 379.295 310.625V285.055C379.295 283.815 379.295 282.465 378.275 278.745L385.665 277.285H385.675Z" fill="#234B2B"/>
<path d="M147.095 351.065C147.095 352.245 146.155 353.185 145.005 353.185C143.855 353.185 142.915 352.245 142.915 351.065C142.915 349.885 143.855 348.975 145.005 348.975C146.155 348.975 147.095 349.915 147.095 351.065Z" fill="#234B2B"/>
<path d="M154.035 351.065C154.035 352.245 153.095 353.185 151.945 353.185C150.795 353.185 149.855 352.245 149.855 351.065C149.855 349.885 150.795 348.975 151.945 348.975C153.095 348.975 154.035 349.915 154.035 351.065Z" fill="#234B2B"/>
<path d="M160.975 351.065C160.975 352.245 160.035 353.185 158.885 353.185C157.735 353.185 156.795 352.245 156.795 351.065C156.795 349.885 157.735 348.975 158.885 348.975C160.035 348.975 160.975 349.915 160.975 351.065Z" fill="#234B2B"/>
<path d="M174.765 333.365L173.165 336.245C171.045 335.405 170.185 335.325 167.585 335.255V342.215H174.075L172.585 345.045C171.225 344.465 170.015 344.125 167.585 344.155V348.555C167.585 350.125 167.745 351.485 168.185 353.005H163.995C164.625 350.545 164.645 348.315 164.645 347.505V338.285C164.645 335.485 164.305 334.415 163.995 333.365H174.755H174.765Z" fill="#234B2B"/>
<path d="M187.255 333.215C193.745 333.215 197.025 338.135 197.025 343.115C197.025 349.245 192.315 353.145 186.765 353.145C180.425 353.145 176.505 348.015 176.505 342.985C176.505 338.615 180.435 333.215 187.265 333.215H187.255ZM187.565 351.015C191.935 351.015 193.975 346.905 193.975 343.845C193.975 339.765 190.855 335.315 186.275 335.315C182.325 335.315 179.785 338.745 179.785 342.545C179.785 347.855 183.815 351.025 187.565 351.025V351.015Z" fill="#234B2B"/>
<path d="M200.635 337.475C200.635 335.175 200.325 334.095 200.115 333.415L203.935 333.365C208.985 333.285 211.375 336.325 211.375 338.965C211.375 342.155 208.545 343.725 207.655 344.205C209.405 347.295 211.815 350.205 214.145 353.005H211.445C208.805 350.725 207.595 349.315 203.535 343.925V348.765C203.535 350.285 203.565 350.915 204.085 353.005H200.105C200.525 351.065 200.625 349.625 200.625 347.925V337.475H200.635ZM203.535 343.635C205.395 343.115 208.375 342.275 208.375 339.265C208.375 337.795 207.455 335.445 203.535 335.045V343.635Z" fill="#234B2B"/>
<path d="M239.875 347.635C241.285 350.695 242.205 351.955 242.935 352.945L238.275 352.995C238.275 352.135 238.175 351.135 237.465 349.535L236.315 346.895H229.425L228.435 349.015C228.095 349.745 227.335 351.445 227.445 352.995H222.655C223.305 352.235 223.885 351.525 225.505 348.305L233.075 333.275H233.235L239.885 347.625L239.875 347.635ZM230.525 344.605H235.285L233.005 339.345L230.515 344.605H230.525Z" fill="#234B2B"/>
<path d="M259.005 333.365C263.905 333.365 265.265 336.455 265.265 338.235C265.265 340.565 263.665 341.715 262.645 342.475C264.555 343.625 266.175 345.385 266.175 347.585C266.175 349.785 264.395 351.745 262.825 352.295C261.725 352.685 260.255 353.025 258.975 353.005L254.525 352.955C255.205 350.835 255.285 348.505 255.285 347.355V338.535C255.285 334.975 254.865 334.035 254.605 333.375H259.005V333.365ZM258.195 342.375C260.315 341.825 262.045 340.675 262.045 338.395C262.045 336.115 260.315 335.225 258.195 335.045V342.375ZM258.195 351.255C262.725 351.335 262.885 348.115 262.885 347.455C262.885 345.985 262.075 343.685 258.195 342.745V351.255Z" fill="#234B2B"/>
<path d="M279.145 333.365L277.655 336.405C275.455 335.405 274.305 335.145 272.235 335.225V342.085H278.385L276.705 344.835C274.455 344.185 273.725 344.075 272.225 343.975V351.145C274.735 351.145 276.125 351.145 280.285 349.735L278.845 353.005H268.555C268.895 351.855 269.285 350.465 269.285 347.955V338.345C269.285 337.005 269.105 335.075 268.555 333.375H279.135L279.145 333.365Z" fill="#234B2B"/>
<path d="M297.305 333.395L295.945 336.405C293.795 335.545 293.095 335.355 290.815 335.355V348.315C290.815 349.885 290.945 351.485 291.365 353.005H287.355C287.645 351.775 287.905 350.335 287.905 348.005V335.355C286.595 335.325 285.445 335.325 281.645 336.695L282.695 333.395H297.305Z" fill="#234B2B"/>
<path d="M314.325 333.395L312.965 336.405C310.815 335.545 310.115 335.355 307.835 335.355V348.315C307.835 349.885 307.965 351.485 308.385 353.005H304.375C304.665 351.775 304.925 350.335 304.925 348.005V335.355C303.615 335.325 302.465 335.325 298.665 336.695L299.715 333.395H314.325Z" fill="#234B2B"/>
<path d="M327.175 333.365L325.685 336.405C323.485 335.405 322.335 335.145 320.265 335.225V342.085H326.415L324.735 344.835C322.485 344.185 321.755 344.075 320.255 343.975V351.145C322.765 351.145 324.155 351.145 328.315 349.735L326.875 353.005H316.585C316.925 351.855 317.315 350.465 317.315 347.955V338.345C317.315 337.005 317.135 335.075 316.585 333.375H327.165L327.175 333.365Z" fill="#234B2B"/>
<path d="M331.475 337.475C331.475 335.175 331.165 334.095 330.955 333.415L334.775 333.365C339.825 333.285 342.215 336.325 342.215 338.965C342.215 342.155 339.385 343.725 338.495 344.205C340.245 347.295 342.655 350.205 344.985 353.005H342.285C339.645 350.725 338.435 349.315 334.375 343.925V348.765C334.375 350.285 334.405 350.915 334.925 353.005H330.945C331.365 351.065 331.465 349.625 331.465 347.925V337.475H331.475ZM334.375 343.635C336.235 343.115 339.215 342.275 339.215 339.265C339.215 337.795 338.295 335.445 334.375 335.045V343.635Z" fill="#234B2B"/>
<path d="M366.575 353.005H356.995C357.495 351.745 357.785 350.985 357.785 346.695V338.025C357.785 335.195 357.415 334.255 357.105 333.395H361.505C361.115 334.415 360.775 335.305 360.745 338.215L360.645 351.015C364.155 350.705 366.115 350.155 368.215 349.315L366.595 353.005H366.575Z" fill="#234B2B"/>
<path d="M375.005 333.365C374.635 334.515 374.275 335.595 374.275 338.545V347.575C374.275 349.805 374.435 350.925 375.005 352.995H370.585C370.975 351.765 371.345 350.635 371.345 347.365V338.015C371.345 335.785 371.085 334.555 370.585 333.355H375.005V333.365Z" fill="#234B2B"/>
<path d="M389.175 333.365L387.575 336.245C385.455 335.405 384.595 335.325 381.995 335.255V342.215H388.485L386.995 345.045C385.635 344.465 384.425 344.125 381.995 344.155V348.555C381.995 350.125 382.155 351.485 382.595 353.005H378.405C379.035 350.545 379.055 348.315 379.055 347.505V338.285C379.055 335.485 378.715 334.415 378.405 333.365H389.165H389.175Z" fill="#234B2B"/>
<path d="M401.995 333.365L400.505 336.405C398.305 335.405 397.155 335.145 395.085 335.225V342.085H401.235L399.555 344.835C397.305 344.185 396.575 344.075 395.075 343.975V351.145C397.585 351.145 398.975 351.145 403.135 349.735L401.695 353.005H391.405C391.745 351.855 392.135 350.465 392.135 347.955V338.345C392.135 337.005 391.955 335.075 391.405 333.375H401.985L401.995 333.365Z" fill="#234B2B"/>
</g>
<defs>
<clipPath id="clip0_2003_10483">
<rect width="306.29" height="206.37" fill="white" transform="translate(96.855 146.815)"/>
</clipPath>
</defs>
</svg>
