<svg width="500" height="500" viewBox="0 0 500 500" fill="none" xmlns="http://www.w3.org/2000/svg">
<rect width="500" height="500" fill="white"/>
<g clip-path="url(#clip0_2003_10519)">
<path d="M368.372 353.895C372.527 337.584 377.928 298.599 338.979 286.737C319.796 280.896 298.962 284.862 282.83 296.768C259.295 314.148 212.244 342.24 160.375 336.139C136.365 333.313 122.538 323.273 114.84 310.998C115.315 300.599 118.043 290.174 123.148 280.43C134.184 259.38 144.072 238.717 153.654 217.964C160.42 228.336 170.478 237.12 185.426 240.323C221.782 248.111 333.165 210.472 372.913 262.584C385.169 294.435 394.877 328.136 368.372 353.895Z" fill="url(#paint0_linear_2003_10519)"/>
<path d="M372.913 262.583C333.165 210.472 221.782 248.111 185.426 240.323C170.478 237.12 160.42 228.336 153.655 217.964C164.717 193.999 175.377 169.908 186.942 145C190.271 137.84 194.317 129.433 199.162 120.99C202.599 141.923 212.495 163.376 237.69 169.549C268.259 177.032 307.055 175.937 341.168 183.68C349.836 203.159 357.534 223.114 365.178 242.871C367.664 249.295 370.347 255.899 372.913 262.583Z" fill="url(#paint1_linear_2003_10519)"/>
<path d="M368.372 353.896C365.672 356.525 362.585 359.073 359.095 361.522L291.022 409.291C261.493 430.017 222.051 429.703 192.855 408.511L144.978 373.743C124.44 358.83 113.709 334.991 114.84 310.999C122.538 323.273 136.365 333.313 160.375 336.139C212.244 342.241 259.295 314.148 282.83 296.769C298.962 284.862 319.796 280.896 338.979 286.737C377.928 298.599 372.527 337.584 368.372 353.896Z" fill="url(#paint2_linear_2003_10519)"/>
<path d="M341.168 183.681C307.055 175.937 268.259 177.032 237.69 169.549C212.495 163.376 202.599 141.923 199.162 120.991C212.172 98.3264 230.898 75.375 256.666 75.375C276.154 76.7119 286.652 93.0955 297.607 107.433C315.498 130.842 329.244 156.817 341.168 183.681Z" fill="url(#paint3_linear_2003_10519)"/>
</g>
<defs>
<linearGradient id="paint0_linear_2003_10519" x1="114.84" y1="275.837" x2="393.113" y2="275.837" gradientUnits="userSpaceOnUse">
<stop stop-color="#146CB6"/>
<stop offset="1" stop-color="#1767B3"/>
</linearGradient>
<linearGradient id="paint1_linear_2003_10519" x1="172.969" y1="172.269" x2="350.828" y2="172.269" gradientUnits="userSpaceOnUse">
<stop stop-color="#26A154"/>
<stop offset="1" stop-color="#26A154"/>
</linearGradient>
<linearGradient id="paint2_linear_2003_10519" x1="121.29" y1="354.35" x2="371.254" y2="354.35" gradientUnits="userSpaceOnUse">
<stop stop-color="#863B31"/>
<stop offset="1" stop-color="#863B31"/>
</linearGradient>
<linearGradient id="paint3_linear_2003_10519" x1="199.162" y1="119.717" x2="305.725" y2="119.717" gradientUnits="userSpaceOnUse">
<stop stop-color="#FEE01B"/>
<stop offset="1" stop-color="#F89B30"/>
</linearGradient>
<clipPath id="clip0_2003_10519">
<rect width="270.481" height="349.25" fill="white" transform="translate(114.759 75.375)"/>
</clipPath>
</defs>
</svg>
