<svg width="500" height="500" viewBox="0 0 500 500" fill="none" xmlns="http://www.w3.org/2000/svg">
<rect width="500" height="500" fill="white"/>
<g clip-path="url(#clip0_2003_10557)">
<path d="M334.47 155.61H166.52C160.97 155.61 156.47 160.109 156.47 165.66V335.02C156.47 340.57 160.97 345.07 166.52 345.07H334.47C340.021 345.07 344.52 340.57 344.52 335.02V165.66C344.52 160.109 340.021 155.61 334.47 155.61Z" fill="#014783"/>
<path d="M350.08 370.69H150.9C139.93 370.69 131 361.76 131 350.79V149.9C131 138.93 139.93 130 150.9 130H350.09C361.06 130 369.99 138.93 369.99 149.9V350.79C369.99 361.76 361.06 370.69 350.09 370.69H350.08ZM150.9 142C146.55 142 143 145.54 143 149.9V350.79C143 355.15 146.54 358.69 150.9 358.69H350.09C354.44 358.69 357.99 355.15 357.99 350.79V149.9C357.99 145.54 354.45 142 350.09 142H150.9Z" fill="#014783"/>
<path d="M268.95 214.19C269.3 214.64 269.63 215.1 269.94 215.59C269.65 215.1 269.31 214.63 268.95 214.19ZM267.78 212.91C268.19 213.31 268.58 213.74 268.94 214.18C268.59 213.73 268.2 213.3 267.78 212.91Z" stroke="#EA3323" stroke-miterlimit="10"/>
<path d="M268.94 214.18C268.58 213.74 268.19 213.31 267.78 212.91C268.2 213.3 268.59 213.73 268.94 214.18Z" stroke="#EA3323" stroke-miterlimit="10"/>
<path d="M269.94 215.59C269.63 215.1 269.3 214.64 268.95 214.19C269.31 214.63 269.65 215.1 269.94 215.59Z" stroke="#EA3323" stroke-miterlimit="10"/>
<path d="M276.2 246.91C288.8 243.39 298.05 231.82 298.05 218.09C298.05 201.56 284.65 188.16 268.12 188.16H198.38V312.96H272.81C289.93 311.54 303.38 297.19 303.38 279.7C303.38 263.39 291.68 249.81 276.2 246.91ZM224.12 208.82H257.76C258.29 208.82 258.81 208.85 259.32 208.9C259.73 208.95 260.13 209.01 260.53 209.09C260.87 209.15 261.21 209.23 261.54 209.33C261.7 209.37 261.87 209.42 262.03 209.47C262.25 209.53 262.47 209.61 262.68 209.69C262.86 209.75 263.03 209.82 263.2 209.89C264.12 210.26 264.98 210.73 265.79 211.28C266.5 211.76 267.17 212.3 267.78 212.91C268.2 213.3 268.59 213.73 268.94 214.18H268.95C269.31 214.63 269.65 215.1 269.94 215.59H269.95C271.33 217.8 272.13 220.41 272.13 223.2C272.13 231.14 265.69 237.57 257.76 237.57H224.12V208.82ZM260.14 291.93H224.08V258.91H260.14C269.25 258.91 276.65 266.3 276.65 275.42C276.65 284.54 269.25 291.93 260.14 291.93Z" fill="white"/>
</g>
<defs>
<clipPath id="clip0_2003_10557">
<rect width="238.98" height="240.69" fill="white" transform="translate(131 130)"/>
</clipPath>
</defs>
</svg>
