<svg width="500" height="500" viewBox="0 0 500 500" fill="none" xmlns="http://www.w3.org/2000/svg">
<rect width="500" height="500" fill="white"/>
<g clip-path="url(#clip0_2003_10435)">
<path d="M249.995 347.22C345.037 347.22 422.085 303.693 422.085 250C422.085 196.307 345.037 152.78 249.995 152.78C154.952 152.78 77.9048 196.307 77.9048 250C77.9048 303.693 154.952 347.22 249.995 347.22Z" fill="#E67334"/>
<path d="M158.525 275.19C154.385 274.21 172.405 222.58 172.405 222.58C160.625 215.39 143.395 245.86 139.895 252.33C139.635 252.82 138.915 252.82 138.655 252.32C136.425 248.04 129.555 232.19 122.845 221.29C118.825 214.77 114.215 210.56 112.475 210.16C107.365 208.94 105.175 214.05 105.175 214.05L103.715 216.73C108.305 216.08 115.725 223.15 118.095 227.13L118.155 227.18C120.215 230.66 120.895 234.79 120.055 238.75C117.555 250.47 112.015 274.93 109.065 276.41C105.975 277.95 105.645 279.8 105.635 280.5H118.485C119.155 279.54 116.125 277.63 116.125 277.63L124.785 246.94L134.775 271.18C135.335 272.46 137.095 272.58 137.815 271.37L153.145 245.97C153.145 245.97 145.835 276.42 153.395 280.31C160.935 284.2 168.495 276.17 166.785 271.78C165.075 267.39 162.645 276.17 158.505 275.2L158.525 275.19Z" fill="black"/>
<path d="M212.535 232.86C212.155 229.21 209.885 224.25 205.045 223.04C198.955 221.53 193.645 223.61 189.125 227.1C186.605 229.07 184.325 231.46 182.275 233.89C176.695 240.61 173.385 249.15 171.595 257.7C169.845 266.06 169.695 277.78 178.905 281.64C179.575 281.92 180.285 282.14 181.005 282.3C190.435 284.33 198.095 274.6 202.435 267.65C205.525 262.71 207.995 257.38 209.945 251.88C211.985 246.08 213.155 239.07 212.535 232.86ZM200.425 255.05C196.475 268.88 189.365 278.96 184.535 277.59C179.705 276.21 178.995 263.87 182.945 250.05C186.905 236.23 194.025 226.14 198.845 227.52C203.675 228.9 204.385 241.22 200.425 255.04V255.05Z" fill="black"/>
<path d="M322.945 280.91C323.655 281.09 324.395 281.19 325.115 281.23C334.745 281.76 340.795 270.95 343.985 263.41C346.265 258.04 347.875 252.39 348.935 246.66C350.045 240.61 350.105 233.5 348.515 227.47C347.575 223.92 344.545 219.39 339.575 218.94C333.315 218.4 328.405 221.29 324.495 225.44C322.315 227.78 320.435 230.5 318.795 233.22C314.335 240.73 312.405 249.68 311.975 258.41C311.555 266.94 313.235 278.54 322.945 280.91ZM321.985 249.08C323.735 234.81 329.185 223.73 334.165 224.34C339.145 224.95 341.775 237.01 340.025 251.28C338.295 265.56 332.835 276.63 327.855 276.03C322.875 275.42 320.235 263.35 321.975 249.08H321.985Z" fill="black"/>
<path d="M261.555 298.48C248.165 287.27 237.335 252.71 237.335 252.71C248.905 242.11 253.605 234.75 250.855 228.95C247.505 221.88 239.405 220.06 233.195 220.06H217.845L223.445 225.42C223.445 225.42 210.785 270.24 209.805 274.14C209.205 276.52 206.605 278.18 204.685 279.11C204.655 279.12 204.625 279.14 204.595 279.15V279.99L227.795 279.97L227.835 277.55L219.795 276.32L235.145 228.09C255.115 233.21 228.325 256.84 228.325 256.84C228.325 256.84 240.125 319.66 297.255 317.72C352.045 315.87 381.455 290.31 381.455 290.31L372.155 282.83C305.405 323.99 272.555 307.67 261.555 298.47V298.48Z" fill="black"/>
<path d="M249.745 279.94H275.655L267.845 276.52L275.155 219.52H259.805L264.115 223.92L257.175 275.56L249.745 279.94Z" fill="black"/>
<path d="M279.065 274.34C281.885 277.14 286.185 279.12 290.095 279.78C294.205 280.47 298.455 279.44 301.875 277.15C305.585 274.66 308.485 270.78 309.315 266.34C310.295 261.09 308.075 256.07 304.495 252.3C299.205 246.72 291.435 239.33 290.365 231.24C289.645 225.78 298.515 217.06 302.155 224.08C303.515 226.7 303.615 230.23 303.395 233.12C303.025 232.94 311.795 233.67 311.795 233.67C311.905 233.16 311.995 232.65 312.065 232.14C313.305 222.6 305.155 214.89 295.695 217.58C283.765 220.97 276.925 235.35 284.665 245.69C286.885 248.65 289.625 251.17 292.375 253.63C293.695 254.82 295.125 255.89 296.305 257.24C298.465 259.71 299.415 263.15 299.665 266.38C299.875 269.13 299.505 272.42 297.255 274.32C295.075 276.15 292.005 275.76 289.615 274.59C286.945 273.28 285.415 271.22 284.365 268.5C283.695 266.77 283.025 264.95 282.755 263.1C282.745 263.11 276.365 269.49 276.365 269.49C275.725 270.13 277.925 273.07 278.235 273.44C278.505 273.76 278.785 274.07 279.075 274.36L279.065 274.34Z" fill="black"/>
<path d="M393.175 216.22C392.335 213.19 375.115 214.85 373.935 220.36C372.755 225.85 379.715 219.63 381.975 219.75C387.395 220.04 374.665 247.27 374.665 247.27C374.665 247.27 365.165 188.81 349.455 213.05C349.455 213.05 354.805 215.3 356.955 222.98C358.055 226.89 358.325 232.21 356.635 239.36C351.645 260.55 346.035 276.87 346.035 276.87L339.335 279.55H359.795L354.315 276.38L363.315 245.06C363.315 245.06 376.555 290.88 384.765 287.7C392.315 284.78 377.215 275.52 377.095 271.01C376.905 264.04 394.725 221.78 393.175 216.2V216.22Z" fill="black"/>
</g>
<defs>
<clipPath id="clip0_2003_10435">
<rect width="344.19" height="194.44" fill="white" transform="translate(77.9048 152.78)"/>
</clipPath>
</defs>
</svg>
