<svg width="500" height="500" viewBox="0 0 500 500" fill="none" xmlns="http://www.w3.org/2000/svg">
<rect width="500" height="500" fill="white"/>
<g clip-path="url(#clip0_2003_10215)">
<path d="M185.445 174.15C202.775 159.23 225.325 150.2 249.995 150.2C274.665 150.2 299.115 160 316.715 176.04L327.905 167.82L373.125 134.62C342.425 101.64 298.625 81 249.985 81C201.345 81 159.405 100.79 128.825 132.58L174.165 165.86L185.445 174.14V174.15Z" fill="#007CC2"/>
<path d="M386.755 151.28L340.485 182.08L329.105 189.65L251.105 241.55L172.145 188.03L160.825 180.36L114.805 149.16C94.0649 177.1 81.8149 211.72 81.8149 249.2C81.8149 314.04 118.515 370.32 172.265 398.38L207.515 353.54C166.345 336.78 137.345 296.37 137.345 249.2C137.345 243.07 137.825 237.04 138.795 231.18L151.595 238.37L249.785 293.49L348.375 238.16L361.175 230.97C362.145 236.89 362.655 242.99 362.655 249.2C362.655 296.71 333.225 337.38 291.595 353.9L326.885 398.82C381.125 370.91 418.205 314.4 418.205 249.2C418.205 212.67 406.565 178.86 386.775 151.28H386.755Z" fill="#014B92"/>
</g>
<defs>
<clipPath id="clip0_2003_10215">
<rect width="336.37" height="317.82" fill="white" transform="translate(81.8149 81)"/>
</clipPath>
</defs>
</svg>
