<svg width="500" height="500" viewBox="0 0 500 500" fill="none" xmlns="http://www.w3.org/2000/svg">
<rect width="500" height="500" fill="white"/>
<g clip-path="url(#clip0_2003_10024)">
<path d="M111.557 164.851H383.987C394.927 164.851 403.807 173.731 403.807 184.671V293.861H91.7374V184.671C91.7374 173.731 100.617 164.851 111.557 164.851Z" fill="#FFF699"/>
<path d="M91.7374 293.251H403.807V315.331C403.807 326.271 394.927 335.151 383.987 335.151H111.557C100.617 335.151 91.7374 326.271 91.7374 315.331V293.251Z" fill="#2D2997"/>
<path d="M131.407 215.26C131.407 214.32 131.537 213.45 131.787 212.64C132.037 211.83 132.397 211.13 132.867 210.54C133.337 209.95 133.897 209.49 134.567 209.16C135.237 208.84 135.977 208.67 136.807 208.67C137.817 208.67 138.647 208.88 139.317 209.29C139.987 209.7 140.477 210.32 140.797 211.15C141.117 211.98 141.287 213 141.287 214.23V231.94H149.547V212.56C149.547 210.15 149.127 208.16 148.277 206.6C147.427 205.03 146.277 203.87 144.827 203.12C143.377 202.37 141.707 201.99 139.837 201.99C137.857 201.99 136.107 202.47 134.577 203.42C133.317 204.2 132.277 205.34 131.417 206.79V202.91H123.157V231.95H131.417V215.27L131.407 215.26Z" fill="#2D2997"/>
<path d="M180.967 224.71V213.59C180.967 211.32 180.487 209.33 179.537 207.6C178.587 205.87 177.167 204.51 175.297 203.5C173.427 202.49 171.107 201.99 168.337 201.99C165.887 201.99 163.717 202.41 161.807 203.26C159.897 204.11 158.357 205.31 157.187 206.88C156.017 208.45 155.287 210.33 154.997 212.52H163.257C163.437 211.37 163.917 210.44 164.687 209.74C165.457 209.04 166.547 208.69 167.957 208.69C169.537 208.69 170.727 209.1 171.517 209.9C172.307 210.71 172.707 211.92 172.707 213.54V214.2C170.627 214.23 168.697 214.33 166.927 214.51C164.877 214.73 162.847 215.18 160.827 215.86C158.527 216.65 156.807 217.79 155.677 219.26C154.547 220.74 153.977 222.46 153.977 224.44C153.977 226.28 154.387 227.82 155.217 229.08C156.047 230.34 157.187 231.28 158.647 231.89C160.107 232.5 161.747 232.81 163.587 232.81C164.987 232.81 166.367 232.58 167.717 232.11C169.067 231.64 170.287 230.9 171.387 229.9C171.897 229.44 172.357 228.9 172.777 228.31C172.787 228.61 172.797 228.91 172.817 229.2C172.887 230.28 173.037 231.2 173.247 231.95H181.777C181.557 231.19 181.377 230.28 181.207 229.2C181.047 228.12 180.967 226.63 180.967 224.72V224.71ZM169.437 226.19C168.447 226.78 167.337 227.08 166.117 227.08C164.897 227.08 163.987 226.79 163.287 226.22C162.587 225.64 162.237 224.87 162.237 223.9C162.237 223.18 162.407 222.52 162.747 221.93C163.087 221.34 163.687 220.81 164.527 220.36C165.377 219.91 166.547 219.57 168.037 219.33C169.297 219.13 170.867 219.02 172.707 218.99V220.11C172.707 221.41 172.407 222.59 171.817 223.67C171.227 224.75 170.427 225.59 169.447 226.18L169.437 226.19Z" fill="#2D2997"/>
<path d="M195.097 225.59H186.847V231.94H195.097V225.59Z" fill="#2D2997"/>
<path d="M213.237 212.56V231.94H204.987V214.24C204.987 213.01 204.827 211.99 204.497 211.16C204.177 210.33 203.677 209.71 203.017 209.3C202.347 208.89 201.517 208.67 200.497 208.67C199.677 208.67 198.927 208.83 198.257 209.16C197.597 209.48 197.027 209.95 196.557 210.54C196.087 211.13 195.727 211.83 195.477 212.64C195.227 213.45 195.097 214.33 195.097 215.26V218.69H186.847V193.08H195.097V206.79C195.947 205.33 196.997 204.19 198.257 203.42C199.797 202.47 201.547 201.98 203.527 201.98C205.397 201.98 207.067 202.36 208.527 203.12C209.977 203.88 211.137 205.03 211.977 206.6C212.817 208.17 213.247 210.16 213.247 212.57L213.237 212.56Z" fill="#2D2997"/>
<path d="M224.197 230.94C226.317 232.18 228.817 232.8 231.697 232.8C235.077 232.8 237.977 231.91 240.387 230.13C242.797 228.35 244.307 225.64 244.917 222.01H236.657C236.337 223.38 235.757 224.4 234.927 225.09C234.097 225.77 233.077 226.12 231.847 226.12C229.977 226.12 228.547 225.37 227.557 223.88C226.567 222.39 226.077 220.24 226.077 217.43C226.077 214.62 226.547 212.42 227.477 210.93C228.417 209.44 229.797 208.69 231.637 208.69C232.827 208.69 233.857 209.04 234.737 209.74C235.617 210.44 236.207 211.66 236.487 213.38H244.747C244.427 210.83 243.647 208.7 242.427 207.01C241.207 205.32 239.667 204.06 237.807 203.23C235.957 202.4 233.897 201.99 231.627 201.99C228.787 201.99 226.307 202.59 224.207 203.8C222.097 205.01 220.477 206.75 219.317 209.04C218.167 211.33 217.587 214.12 217.587 217.43C217.587 220.74 218.157 223.33 219.287 225.63C220.417 227.93 222.047 229.71 224.177 230.95L224.197 230.94Z" fill="#2D2997"/>
<path d="M254.557 230.94C256.697 232.18 259.227 232.8 262.137 232.8C265.047 232.8 267.577 232.2 269.717 230.99C271.857 229.78 273.517 228.04 274.687 225.75C275.857 223.47 276.437 220.69 276.437 217.41C276.437 214.13 275.857 211.45 274.707 209.15C273.557 206.85 271.907 205.07 269.767 203.83C267.627 202.59 265.077 201.97 262.127 201.97C259.177 201.97 256.787 202.57 254.627 203.78C252.467 204.99 250.807 206.73 249.637 209.02C248.467 211.31 247.887 214.1 247.887 217.41C247.887 220.72 248.467 223.31 249.617 225.61C250.767 227.91 252.417 229.69 254.557 230.93V230.94ZM257.857 210.91C258.847 209.42 260.277 208.67 262.147 208.67C264.017 208.67 265.507 209.43 266.497 210.94C267.487 212.45 267.977 214.61 267.977 217.42C267.977 220.23 267.487 222.38 266.497 223.87C265.507 225.36 264.057 226.11 262.147 226.11C260.237 226.11 258.847 225.36 257.857 223.87C256.867 222.38 256.377 220.23 256.377 217.42C256.377 214.61 256.867 212.41 257.857 210.92V210.91Z" fill="#2D2997"/>
<path d="M148.957 261.93V250.81C148.957 248.54 148.477 246.55 147.527 244.82C146.577 243.09 145.157 241.73 143.287 240.72C141.417 239.71 139.097 239.21 136.327 239.21C133.877 239.21 131.707 239.63 129.797 240.48C127.887 241.33 126.347 242.53 125.177 244.1C124.007 245.67 123.277 247.55 122.987 249.74H131.247C131.427 248.59 131.907 247.66 132.677 246.96C133.447 246.26 134.537 245.91 135.947 245.91C137.527 245.91 138.717 246.32 139.507 247.12C140.297 247.93 140.697 249.14 140.697 250.76V251.42C138.617 251.45 136.687 251.55 134.917 251.73C132.867 251.95 130.837 252.4 128.817 253.08C126.517 253.87 124.797 255.01 123.667 256.48C122.537 257.96 121.967 259.68 121.967 261.66C121.967 263.5 122.377 265.04 123.207 266.3C124.037 267.56 125.177 268.5 126.637 269.11C128.097 269.72 129.737 270.03 131.577 270.03C132.977 270.03 134.357 269.8 135.707 269.33C137.057 268.86 138.277 268.12 139.377 267.12C139.887 266.66 140.347 266.12 140.767 265.53C140.777 265.83 140.787 266.13 140.807 266.42C140.877 267.5 141.027 268.42 141.237 269.17H149.767C149.547 268.41 149.367 267.5 149.197 266.42C149.037 265.34 148.957 263.85 148.957 261.94V261.93ZM137.427 263.42C136.437 264.01 135.327 264.31 134.107 264.31C132.887 264.31 131.977 264.02 131.277 263.45C130.577 262.87 130.227 262.1 130.227 261.13C130.227 260.41 130.397 259.75 130.737 259.16C131.077 258.57 131.677 258.04 132.517 257.59C133.367 257.14 134.537 256.8 136.027 256.56C137.287 256.36 138.857 256.25 140.697 256.22V257.34C140.697 258.64 140.397 259.82 139.807 260.9C139.217 261.98 138.417 262.82 137.437 263.41L137.427 263.42Z" fill="#2D2997"/>
<path d="M167.037 259.34L166.297 262.86L165.527 259.34L159.637 240.12H150.737L160.987 269.16H171.197L181.447 240.12H172.977L167.037 259.34Z" fill="#2D2997"/>
<path d="M192.627 240.12H184.367V269.16H192.627V240.12Z" fill="#2D2997"/>
<path d="M223.987 261.93V250.81C223.987 248.54 223.507 246.55 222.557 244.82C221.607 243.09 220.187 241.73 218.317 240.72C216.447 239.71 214.127 239.21 211.357 239.21C208.907 239.21 206.737 239.63 204.827 240.48C202.917 241.33 201.377 242.53 200.207 244.1C199.037 245.67 198.307 247.55 198.017 249.74H206.277C206.457 248.59 206.937 247.66 207.707 246.96C208.477 246.26 209.567 245.91 210.977 245.91C212.557 245.91 213.747 246.32 214.537 247.12C215.327 247.93 215.727 249.14 215.727 250.76V251.42C213.647 251.45 211.717 251.55 209.947 251.73C207.897 251.95 205.867 252.4 203.847 253.08C201.547 253.87 199.827 255.01 198.697 256.48C197.567 257.96 196.997 259.68 196.997 261.66C196.997 263.5 197.407 265.04 198.237 266.3C199.067 267.56 200.207 268.5 201.667 269.11C203.127 269.72 204.767 270.03 206.607 270.03C208.007 270.03 209.387 269.8 210.737 269.33C212.087 268.86 213.307 268.12 214.407 267.12C214.917 266.66 215.377 266.12 215.797 265.53C215.807 265.83 215.817 266.13 215.837 266.42C215.907 267.5 216.057 268.42 216.267 269.17H224.797C224.577 268.41 224.397 267.5 224.227 266.42C224.067 265.34 223.987 263.85 223.987 261.94V261.93ZM212.457 263.42C211.467 264.01 210.357 264.31 209.137 264.31C207.917 264.31 207.007 264.02 206.307 263.45C205.607 262.87 205.257 262.1 205.257 261.13C205.257 260.41 205.427 259.75 205.767 259.16C206.107 258.57 206.707 258.04 207.547 257.59C208.397 257.14 209.567 256.8 211.057 256.56C212.317 256.36 213.887 256.25 215.727 256.22V257.34C215.727 258.64 215.427 259.82 214.837 260.9C214.247 261.98 213.447 262.82 212.467 263.41L212.457 263.42Z" fill="#2D2997"/>
<path d="M251.537 240.34C250.077 239.58 248.417 239.21 246.547 239.21C244.567 239.21 242.817 239.69 241.287 240.64C240.027 241.42 238.987 242.56 238.127 244.01V240.13H229.867V269.17H238.127V252.49C238.127 251.55 238.257 250.68 238.507 249.87C238.757 249.06 239.117 248.36 239.587 247.77C240.057 247.18 240.617 246.72 241.287 246.39C241.957 246.07 242.697 245.9 243.527 245.9C244.537 245.9 245.367 246.11 246.037 246.52C246.707 246.93 247.197 247.55 247.517 248.38C247.837 249.21 248.007 250.23 248.007 251.46V269.17H256.267V249.79C256.267 247.38 255.847 245.39 254.997 243.83C254.147 242.26 252.997 241.1 251.547 240.35L251.537 240.34Z" fill="#2D2997"/>
<path d="M277.957 262.31C277.127 262.99 276.107 263.34 274.877 263.34C273.007 263.34 271.577 262.59 270.587 261.1C269.597 259.61 269.107 257.46 269.107 254.65C269.107 251.84 269.577 249.64 270.507 248.15C271.447 246.66 272.827 245.91 274.667 245.91C275.857 245.91 276.887 246.26 277.767 246.96C278.647 247.66 279.237 248.88 279.517 250.6H287.777C287.457 248.05 286.677 245.92 285.457 244.23C284.237 242.54 282.697 241.28 280.837 240.45C278.987 239.62 276.927 239.21 274.657 239.21C271.817 239.21 269.337 239.81 267.237 241.02C265.127 242.23 263.507 243.97 262.347 246.26C261.197 248.55 260.617 251.34 260.617 254.65C260.617 257.96 261.187 260.55 262.317 262.85C263.447 265.15 265.077 266.93 267.207 268.17C269.327 269.41 271.827 270.03 274.707 270.03C278.087 270.03 280.987 269.14 283.397 267.36C285.807 265.58 287.317 262.87 287.927 259.24H279.667C279.347 260.61 278.767 261.63 277.937 262.32L277.957 262.31Z" fill="#2D2997"/>
<path d="M310.887 259.61C310.457 260.94 309.787 261.91 308.887 262.52C307.987 263.13 306.857 263.44 305.487 263.44C303.467 263.44 301.937 262.68 300.867 261.17C300.027 259.97 299.527 258.35 299.347 256.31H319.297V254.47C319.297 251.3 318.717 248.58 317.567 246.29C316.417 244.01 314.777 242.25 312.657 241.03C310.537 239.81 308.037 239.19 305.157 239.19C302.277 239.19 299.767 239.79 297.627 241C295.487 242.21 293.827 243.95 292.657 246.24C291.487 248.53 290.907 251.32 290.907 254.63C290.907 257.94 291.487 260.53 292.657 262.83C293.827 265.13 295.497 266.91 297.677 268.15C299.857 269.39 302.457 270.01 305.477 270.01C309.037 270.01 312.077 269.11 314.597 267.31C317.117 265.51 318.757 262.94 319.507 259.59H310.867L310.887 259.61ZM305.167 245.79C307.037 245.79 308.477 246.55 309.487 248.06C310.097 248.98 310.527 250.15 310.767 251.57H299.527C299.767 250.15 300.187 248.98 300.797 248.06C301.807 246.55 303.257 245.79 305.167 245.79Z" fill="#2D2997"/>
<path d="M373.507 212.411C372.667 220.571 367.177 228.391 362.707 234.981C362.597 235.131 362.497 235.291 362.387 235.441C354.837 233.621 347.357 231.481 339.967 229.121C335.827 227.791 331.377 226.401 326.907 224.801C327.207 220.241 327.927 215.771 328.637 211.861C329.547 206.831 330.737 201.821 332.347 196.961C332.837 195.491 333.347 193.611 334.087 191.931C344.837 193.461 355.827 196.411 365.437 201.301C370.417 203.841 374.147 206.111 373.497 212.411H373.507Z" fill="#8BD6F6" stroke="#003E7C" stroke-width="3" stroke-miterlimit="10" stroke-linejoin="round"/>
<path d="M334.087 191.93C333.347 193.61 332.837 195.49 332.347 196.96C330.737 201.82 329.537 206.82 328.637 211.86C327.927 215.77 327.207 220.25 326.907 224.8C317.577 221.46 308.197 217.18 301.627 210.53C301.087 209.98 300.567 209.42 300.097 208.8C298.447 206.63 297.447 203.79 298.087 201.13C300.977 189.02 321.377 190.43 330.297 191.45C331.547 191.59 332.817 191.76 334.077 191.94L334.087 191.93Z" fill="#03ACED" stroke="#003E7C" stroke-width="3" stroke-miterlimit="10" stroke-linejoin="round"/>
<path d="M362.387 235.441C356.087 244.551 341.007 260.661 331.247 246.611C327.107 240.631 326.387 232.581 326.907 224.801C331.377 226.401 335.837 227.791 339.967 229.121C347.357 231.491 354.837 233.631 362.387 235.441Z" fill="#00A350" stroke="#003E7C" stroke-width="3" stroke-miterlimit="10" stroke-linejoin="round"/>
</g>
<defs>
<clipPath id="clip0_2003_10024">
<rect width="312.07" height="170.3" fill="white" transform="translate(91.7374 164.851)"/>
</clipPath>
</defs>
</svg>
