<svg width="500" height="500" viewBox="0 0 500 500" fill="none" xmlns="http://www.w3.org/2000/svg">
<rect width="500" height="500" fill="white"/>
<g clip-path="url(#clip0_2003_10049)">
<path d="M222.183 180.428V236.981L201.971 187.658C190.847 192.11 185.285 200.266 185.285 200.266C185.285 200.266 184.779 259.767 185.285 260.339C192.147 268.127 197.893 270.537 197.893 270.537V216.584L221.257 279.809C225.709 282.219 236.834 281.851 236.834 281.851V179.318C232.014 178.76 222.183 180.428 222.183 180.428Z" fill="#053484"/>
<path d="M282.439 227.892C282.439 227.892 293.379 218.069 288.001 204.902C282.623 191.736 267.421 179.502 244.431 179.128V281.851C244.431 281.851 289.302 278.509 291.895 243.836C291.895 243.836 293.563 232.345 282.439 227.892ZM259.817 199.156C265.011 199.524 276.693 204.16 276.51 211.581C276.319 218.994 271.499 221.221 271.499 221.221H259.817V199.156ZM279.103 248.663C276.51 261.081 260.007 262.939 260.007 262.939V235.864C273.725 234.938 281.697 236.239 279.103 248.663Z" fill="#053484"/>
<path d="M209.943 151.318C209.943 151.318 257.223 84.5735 285.592 114.61C313.96 144.646 304.07 245.077 275.026 310.403C296.722 274.247 308.398 241.984 315.89 194.317C320.92 162.291 324.099 126.791 306.546 98.0353C276.3 48.496 227.397 121.781 211.795 148.139C211.171 149.197 210.541 150.254 209.943 151.324V151.318Z" fill="#050E59"/>
<path d="M175.455 297.75C175.455 297.75 179.263 372.893 220.384 368.828C264.269 364.488 314.958 251.383 324.716 180.561C322.431 225.057 309.37 274.057 290.602 318.508C277.994 348.373 259.528 378.777 229.453 393.959C177.628 420.108 174.712 332.048 175.349 301.428C175.376 300.2 175.402 298.972 175.455 297.75Z" fill="#CDA455"/>
<path d="M180.465 97.1168C180.465 97.1168 200.861 93.4067 239.795 92.2969C239.795 92.2969 189.363 147.549 178.239 212.074C178.239 212.074 176.013 124.185 180.465 97.1168Z" fill="#0C80E3"/>
<path d="M289.86 408.615C289.86 408.615 258.707 429.011 212.359 411.951C212.359 411.951 283.188 394.523 306.178 304.414C306.178 304.414 296.906 382.105 289.86 408.615Z" fill="#0C80E3"/>
</g>
<defs>
<clipPath id="clip0_2003_10049">
<rect width="149.432" height="337.509" fill="white" transform="translate(175.284 81.2451)"/>
</clipPath>
</defs>
</svg>
