<svg width="500" height="500" viewBox="0 0 500 500" fill="none" xmlns="http://www.w3.org/2000/svg">
<rect width="500" height="500" fill="white"/>
<g clip-path="url(#clip0_2003_10288)">
<path d="M344.071 247.008C321.735 265.874 302.71 288.17 283.205 309.829L269.484 324.527L268.328 325.763C262.823 331.626 256.681 336.911 250 341.478C232.271 353.623 210.812 360.723 187.678 360.723C126.673 360.743 77.2139 311.284 77.2139 250.279C77.2139 189.273 126.673 139.794 187.678 139.794C207.92 139.794 226.886 145.239 243.2 154.752L227.923 170.766L211.889 187.578C204.371 184.666 196.214 183.071 187.678 183.071C150.564 183.071 120.49 213.165 120.49 250.279C120.49 287.393 150.564 317.467 187.678 317.467C198.866 317.467 209.416 314.735 218.67 309.908C218.829 309.809 218.989 309.729 219.148 309.649C223.356 307.435 227.265 304.783 230.875 301.752C233.348 299.678 235.661 297.424 237.835 295.011L252.493 280.812C264.279 268.128 275.547 254.906 288.271 243.119C290.325 241.205 315.533 219.387 316.809 220.623L344.091 247.028L344.071 247.008Z" fill="#55B848"/>
<path d="M422.787 250.279C422.787 311.285 373.328 360.744 312.322 360.744C291.442 360.744 271.938 354.96 255.305 344.889L286.516 312.322C294.453 315.633 303.169 317.467 312.322 317.467C349.416 317.467 379.51 287.393 379.51 250.279C379.51 218.969 358.092 192.644 329.114 185.185C329.055 185.165 329.015 185.165 328.975 185.146C275.368 169.789 243.379 229.758 209.955 260.032C200.941 268.188 185.704 277.143 185.704 277.143L156.448 249.143C156.448 249.143 173.938 236.459 181.795 228.781C187.738 222.977 207.302 200.98 214.482 192.863L222.679 184.108L222.738 184.049C235.821 170.966 247.946 157.305 264.898 149.148C280.932 141.41 298.841 138.299 316.55 139.516C318.764 139.675 320.978 139.895 323.171 140.174L323.351 140.354C325.166 140.513 326.941 140.732 328.755 141.012C381.983 148.949 422.787 194.838 422.787 250.279Z" fill="#55B848"/>
<path d="M328.716 141.011C326.941 140.732 325.166 140.512 323.351 140.353L323.171 140.173C324.986 140.393 326.841 140.672 328.716 141.011Z" fill="#55B848"/>
<path d="M312.961 216.914C312.961 216.914 295.65 229.838 291.023 233.926C279.416 244.157 245.912 280.253 234.864 290.564C226.787 298.142 214.283 305.122 214.283 305.122L188.396 280.054C188.396 280.054 206.565 269.026 214.741 261.567C236.02 242.202 253.231 218.171 276.784 201.359C282.468 197.291 288.49 193.222 288.49 193.222L295.77 200.262L312.961 216.914Z" fill="#55B848"/>
</g>
<defs>
<clipPath id="clip0_2003_10288">
<rect width="345.573" height="221.487" fill="white" transform="translate(77.2139 139.256)"/>
</clipPath>
</defs>
</svg>
