<svg width="500" height="500" viewBox="0 0 500 500" fill="none" xmlns="http://www.w3.org/2000/svg">
<rect width="500" height="500" fill="white"/>
<circle cx="250" cy="250" r="176.544" fill="#942043"/>
<g clip-path="url(#clip0_2003_10305)">
<path d="M279.137 320.326V366.141H220.87V320.326L250 291.196L279.137 320.326Z" fill="#FDE875"/>
<path d="M279.137 133.858V179.674L250 208.804L220.87 179.674V133.858H279.137Z" fill="#FDE875"/>
<path d="M320.326 279.137H279.137V320.326L250 291.196L220.87 320.326V279.137H179.674L208.811 250L179.681 220.87H220.87V179.674L250 208.804L279.137 179.674V220.87H320.319L291.196 250L320.326 279.137Z" fill="#942043"/>
<path d="M220.87 279.137V320.326L188.477 352.726L147.274 311.53L179.674 279.137H220.87Z" fill="white"/>
<path d="M352.726 188.47L320.319 220.87H279.137V179.674L311.53 147.274L352.726 188.47Z" fill="#FDE875"/>
<path d="M220.87 179.674V220.87H179.681L147.274 188.47L188.477 147.274L220.87 179.674Z" fill="#FDE875"/>
<path d="M352.726 311.53L311.53 352.726L279.137 320.326V279.137H320.326L352.726 311.53Z" fill="#FDE875"/>
<path d="M208.811 250L179.674 279.137H133.858V220.87H179.681L208.811 250Z" fill="#FDE875"/>
<path d="M366.141 220.87V279.137H320.326L291.196 250L320.319 220.87H366.141Z" fill="#FDE875"/>
</g>
<defs>
<clipPath id="clip0_2003_10305">
<rect width="232.283" height="232.283" fill="white" transform="translate(133.858 133.858)"/>
</clipPath>
</defs>
</svg>
