<svg width="500" height="500" viewBox="0 0 500 500" fill="none" xmlns="http://www.w3.org/2000/svg">
<rect width="500" height="500" fill="white"/>
<g clip-path="url(#clip0_2003_8733)">
<path d="M114.39 170.66H134.35C139.75 170.66 143.73 171.08 146.3 171.93C148.87 172.78 150.56 174 151.39 175.6C152.22 177.2 152.44 179.14 152.05 181.41C151.67 183.69 150.53 187.21 148.64 191.98L146.01 198.62C144.08 203.49 142.18 207.03 140.29 209.26C138.4 211.49 135.88 213.2 132.73 214.39C129.57 215.58 125.83 216.18 121.5 216.18H116.18L104.03 246.88H84.22L114.39 170.66ZM129.05 183.7L121.37 203.1C121.92 203.13 122.4 203.15 122.81 203.15C124.63 203.15 126.07 202.7 127.13 201.81C128.19 200.92 129.28 199.06 130.4 196.23L132.88 189.97C133.91 187.37 134.17 185.67 133.67 184.89C133.16 184.11 131.62 183.71 129.05 183.71V183.7Z" fill="#B8363E"/>
<path d="M207.4 170.66L177.23 246.89H157.41L170.08 214.87H164.15L151.48 246.89H131.66L161.83 170.66H181.65L170.86 197.92H176.79L187.58 170.66H207.4Z" fill="#B8363E"/>
<path d="M248.66 170.66L229.82 246.89H209.56L213.92 233.19H206.83L200.22 246.89H179.73L220.01 170.66H248.66ZM218.75 219.67C221.16 211.04 224.38 200.37 228.4 187.65C220.6 202.25 215.11 212.92 211.92 219.67H218.74H218.75Z" fill="#B8363E"/>
<path d="M262.4 170.66H276.43C285.78 170.66 291.97 171.02 295 171.74C298.03 172.46 300 174.31 300.91 177.27C301.82 180.24 300.99 184.97 298.42 191.46C296.07 197.39 293.76 201.38 291.47 203.42C289.19 205.46 285.8 206.69 281.31 207.09C284.85 208.06 286.97 209.37 287.67 211C288.37 212.63 288.62 214.13 288.41 215.5C288.2 216.87 286.88 220.62 284.44 226.78L276.48 246.88H258.07L268.1 221.55C269.72 217.47 270.39 214.94 270.14 213.97C269.88 213 268.39 212.51 265.66 212.51L252.06 246.88H232.24L262.4 170.66ZM277.06 183.7L270.35 200.65C272.58 200.65 274.26 200.34 275.4 199.73C276.54 199.12 277.77 197.13 279.1 193.77L280.76 189.58C281.72 187.16 281.91 185.58 281.35 184.83C280.78 184.08 279.36 183.7 277.07 183.7H277.06Z" fill="#B8363E"/>
<path d="M374.52 170.66L344.35 246.89H327.02L347.37 195.43L320.1 246.89H307.81L320.44 196.61L300.51 246.89H283.18L313.36 170.66H339.01C337.96 175.24 336.6 180.64 334.95 186.86L330.09 206.25L348.73 170.66H374.52Z" fill="#B8363E"/>
<path d="M415.78 170.66L396.94 246.89H376.68L381.04 233.19H373.95L367.34 246.89H346.85L387.13 170.66H415.78ZM385.87 219.67C388.28 211.04 391.5 200.37 395.52 187.65C387.72 202.25 382.23 212.92 379.04 219.67H385.86H385.87Z" fill="#B8363E"/>
<path d="M205.32 251.521H220.15C229.72 251.521 236.02 251.961 239.05 252.841C242.08 253.721 244.07 255.161 245.03 257.171C245.99 259.181 246.21 261.421 245.67 263.881C245.13 266.341 243.44 271.191 240.58 278.401L230.01 305.101C227.3 311.941 225.17 316.521 223.61 318.821C222.05 321.131 220.22 322.931 218.1 324.231C215.98 325.531 213.65 326.441 211.09 326.961C208.53 327.481 204.88 327.741 200.14 327.741H175.14L205.31 251.521H205.32ZM219.98 264.561L200.13 314.701C202.99 314.701 204.97 314.131 206.08 312.981C207.19 311.831 208.76 308.721 210.77 303.631L222.49 274.021C223.86 270.571 224.62 268.351 224.79 267.381C224.95 266.411 224.74 265.691 224.13 265.241C223.52 264.791 222.14 264.561 219.97 264.561H219.98Z" fill="#B8363E"/>
<path d="M257.65 251.52H290.7L284.66 266.77H271.43L265.71 281.22H278.09L272.35 295.72H259.97L253.34 312.48H267.89L261.85 327.73H227.48L257.65 251.51V251.52Z" fill="#B8363E"/>
<path d="M344 251.521L319.01 285.941L314.91 327.751H294.43L299.34 295.081L286.41 327.751H266.59L296.76 251.531H316.58L304.86 281.141L325.41 251.531H344.01L344 251.521Z" fill="#B8363E"/>
<path d="M373.42 296.15C370.39 303.81 368.06 309.23 366.44 312.42C364.82 315.61 362.54 318.52 359.59 321.15C356.65 323.79 353.28 325.81 349.49 327.22C345.7 328.63 341.65 329.34 337.35 329.34C333.05 329.34 329.87 328.67 327.15 327.34C324.43 326.01 322.61 324.01 321.69 321.34C320.77 318.67 320.74 315.77 321.61 312.63C322.48 309.49 324.46 304 327.57 296.15L332.73 283.11C335.76 275.45 338.09 270.03 339.71 266.84C341.33 263.65 343.61 260.74 346.56 258.11C349.5 255.47 352.87 253.45 356.66 252.04C360.45 250.63 364.5 249.92 368.8 249.92C373.1 249.92 376.28 250.59 379 251.92C381.72 253.25 383.54 255.26 384.46 257.92C385.38 260.59 385.41 263.49 384.54 266.63C383.67 269.77 381.69 275.26 378.58 283.11L373.42 296.15ZM363.51 271.1C364.91 267.55 365.62 265.28 365.61 264.3C365.61 263.31 365 262.82 363.77 262.82C362.73 262.82 361.78 263.22 360.92 264.02C360.05 264.82 358.84 267.18 357.29 271.11L343.2 306.7C341.45 311.13 340.55 313.86 340.5 314.89C340.45 315.93 341.09 316.44 342.4 316.44C343.71 316.44 344.85 315.84 345.7 314.65C346.55 313.46 347.86 310.62 349.64 306.13L363.51 271.1Z" fill="#B8363E"/>
</g>
<defs>
<clipPath id="clip0_2003_8733">
<rect width="331.56" height="158.68" fill="white" transform="translate(84.22 170.66)"/>
</clipPath>
</defs>
</svg>
