<svg width="500" height="500" viewBox="0 0 500 500" fill="none" xmlns="http://www.w3.org/2000/svg">
<rect width="500" height="500" fill="white"/>
<g clip-path="url(#clip0_2003_8949)">
<path d="M395.402 154.8C361.155 186.02 309.52 205.897 251.753 205.897C193.986 205.897 139.659 184.968 105.464 152.339C111.545 143.341 118.461 134.937 126.081 127.244C126.8 126.511 127.525 125.793 128.258 125.082C135.675 117.853 143.738 111.278 152.352 105.458C180.118 86.6839 213.588 75.7256 249.62 75.7256C285.652 75.7256 321.945 87.6273 350.371 107.875C357.679 113.085 364.566 118.84 370.974 125.082C371.707 125.785 372.44 126.511 373.158 127.244C381.468 135.633 388.935 144.865 395.402 154.8Z" fill="#FAF006"/>
<path d="M423.516 249.629C423.516 266.56 421.099 282.932 416.585 298.404C416.585 298.411 416.578 298.411 416.578 298.411C415.852 300.908 415.076 303.375 414.234 305.821C403.747 336.555 384.893 363.414 360.393 383.683C344.812 396.572 326.945 406.804 307.488 413.662H307.481C289.382 420.049 269.911 423.525 249.62 423.525C228.277 423.525 207.833 419.679 188.935 412.639C174.305 407.189 160.596 399.823 148.128 390.853C143.977 387.863 139.957 384.699 136.096 381.361C114.223 362.499 97.1034 338.29 86.7692 310.763C79.6209 291.742 75.7166 271.139 75.7166 249.629C75.7166 232.371 78.2348 215.702 82.9157 199.961C85.5863 190.991 88.9609 182.326 92.9668 174.031C96.6099 166.484 100.797 159.234 105.464 152.339C111.545 143.341 118.461 134.937 126.081 127.244C126.8 126.511 127.525 125.793 128.258 125.082C135.675 117.853 143.738 111.278 152.352 105.458C180.118 86.6839 213.588 75.7256 249.62 75.7256C285.652 75.7256 321.945 87.6273 350.371 107.875C357.679 113.085 364.566 118.84 370.974 125.082C371.707 125.785 372.44 126.511 373.158 127.244C381.468 135.633 388.935 144.865 395.402 154.8C399.415 160.954 403.043 167.376 406.266 174.031C409.241 180.178 411.861 186.528 414.103 193.059C420.207 210.789 423.516 229.824 423.516 249.629Z" fill="#FAF006" stroke="#2C056B" stroke-width="1.45143" stroke-miterlimit="10"/>
<path d="M249.62 423.524C310.79 423.524 360.379 345.669 360.379 249.628C360.379 153.588 310.79 75.7324 249.62 75.7324C188.45 75.7324 138.861 153.588 138.861 249.628C138.861 345.669 188.45 423.524 249.62 423.524Z" stroke="#2C056B" stroke-width="1.45143" stroke-miterlimit="10"/>
<path d="M249.62 423.524C279.788 423.524 304.245 345.669 304.245 249.628C304.245 153.588 279.788 75.7324 249.62 75.7324C219.452 75.7324 194.995 153.588 194.995 249.628C194.995 345.669 219.452 423.524 249.62 423.524Z" stroke="#2C056B" stroke-width="1.45143" stroke-miterlimit="10"/>
<path d="M414.234 305.821C403.747 336.555 384.893 363.414 360.393 383.683C344.812 396.572 326.945 406.804 307.488 413.662H307.481C289.382 420.049 269.911 423.525 249.62 423.525C228.277 423.525 207.833 419.678 188.936 412.639C174.305 407.189 160.596 399.823 148.129 390.853L157.338 374.953C157.389 374.873 157.447 374.793 157.512 374.713L161.017 370.86L166.591 364.727L175.568 354.85C175.757 354.647 175.873 354.393 175.916 354.125L176.62 349.574L176.896 347.76C177.005 347.071 176.577 346.403 175.902 346.207L155.001 340.089L127.482 332.034C126.981 331.889 126.611 331.482 126.502 330.974L102.256 216.616C102.147 216.122 102.321 215.614 102.699 215.273L102.938 215.063L116.146 203.422C116.879 202.777 118.033 203.06 118.382 203.974L120.261 208.851C120.522 209.54 121.284 209.91 121.988 209.685L123.208 209.308C123.701 209.156 124.071 208.742 124.165 208.227L125.305 202.203C125.392 201.746 125.247 201.282 124.92 200.948L122.032 198.059C121.727 197.755 121.582 197.334 121.633 196.905L122.431 190.011C122.511 189.307 123.113 188.77 123.824 188.77H127.177C127.511 188.77 127.838 188.647 128.092 188.429L132.954 184.242C133.375 183.879 133.963 183.799 134.463 184.031L139.086 186.187C139.522 186.39 140.037 186.354 140.443 186.092L143.02 184.423C143.186 184.322 143.375 184.249 143.571 184.22L147.105 183.676L149.711 183.269C150.538 183.146 151.293 183.763 151.329 184.605L151.438 187.312C151.452 187.827 151.184 188.32 150.734 188.582L149.181 189.481C148.375 189.946 148.237 191.056 148.905 191.702L153.898 196.535C154.174 196.811 154.558 196.956 154.95 196.935L160.328 196.622C161.01 196.586 161.569 196.064 161.641 195.381L162.273 189.888C162.309 189.561 162.229 189.235 162.055 188.966L161.663 188.364L160.342 186.325C160.168 186.049 160.096 185.729 160.132 185.403L160.422 182.761C160.466 182.406 160.633 182.086 160.901 181.854L163.151 179.902C163.412 179.677 163.579 179.358 163.63 179.017L164.929 168.965C164.972 168.653 164.907 168.334 164.74 168.066L162.984 165.134C162.708 164.676 162.193 164.415 161.663 164.459L152.759 165.221L151.271 165.344C150.763 165.388 150.269 165.148 149.986 164.72L144.863 157.042C144.529 156.534 143.898 156.302 143.31 156.469L139.21 157.644C139.079 157.681 138.948 157.695 138.818 157.695C138.535 157.695 138.244 157.608 138.012 157.434C137.49 157.064 137.286 156.389 137.519 155.794L142.533 142.789C142.613 142.571 142.751 142.382 142.925 142.23L154.399 132.31C154.624 132.114 154.783 131.852 154.849 131.562L155.821 127.346C155.923 126.925 156.206 126.576 156.59 126.395L162.737 123.492C163.129 123.311 163.579 123.311 163.964 123.507L165.981 124.515C166.388 124.719 166.671 125.103 166.743 125.553L167.81 132.404L167.955 133.333C168.02 133.79 168.311 134.182 168.732 134.378L172.992 136.432C173.376 136.613 173.819 136.613 174.204 136.432L178.289 134.465C178.797 134.218 179.109 133.688 179.08 133.13L178.464 121.714L178.195 116.714L177.723 107.904C177.709 107.592 177.796 107.28 177.97 107.026L191.584 87.4966C191.751 87.2644 191.976 87.0829 192.245 86.9813C194.386 86.2048 204.197 82.6706 206.382 83.0407C207.565 83.2366 208.182 85.5662 208.501 87.9248C208.508 87.9828 208.515 88.0409 208.515 88.0989C208.842 91.0381 207.362 93.8829 204.756 95.2908L199.785 97.9759C199.676 98.034 199.575 98.1066 199.487 98.1936L196.454 101.104C196.381 101.169 196.302 101.234 196.215 101.285L188.529 105.973C188.37 106.075 188.224 106.206 188.116 106.358L186.417 108.76C186.134 109.159 186.084 109.674 186.279 110.132L188.007 114.101C188.181 114.5 188.529 114.791 188.95 114.9L197.238 117.004C197.368 117.033 197.499 117.091 197.615 117.157L199.807 118.477C200.039 118.615 200.315 118.688 200.591 118.673L202.826 118.579C203.138 118.564 203.443 118.441 203.675 118.238L207.782 114.718C207.986 114.551 208.232 114.435 208.494 114.399L215.373 113.376C215.439 113.376 215.497 113.354 215.562 113.339L215.707 113.296L224.902 110.574C225.076 110.524 225.236 110.436 225.381 110.328L232.987 104.268C233.146 104.137 233.328 104.05 233.524 103.999L240.744 102.192C240.832 102.171 240.919 102.163 241.013 102.156L252.799 101.503C253.045 101.488 253.278 101.409 253.481 101.278L255.578 99.9136C255.789 99.7757 255.963 99.587 256.072 99.3548L258.786 93.8031C258.866 93.6434 258.916 93.462 258.924 93.2805L259.548 83.4906C259.577 83.0334 259.824 82.6198 260.215 82.3876L262.784 80.8127L263.35 80.4644C263.655 80.2757 264.025 80.2104 264.374 80.2902L284.788 84.6808H284.795L288.91 85.5662C289.121 85.6097 289.324 85.7041 289.498 85.842L293.577 89.144C293.939 89.4415 294.114 89.8769 294.092 90.3051C294.07 90.7043 293.889 91.0961 293.533 91.3574L287.822 95.6391C287.502 95.8786 287.299 96.2415 287.263 96.6334L286.029 110.146C285.986 110.618 285.703 111.039 285.274 111.257L283.257 112.309C283.257 112.309 283.192 112.345 283.163 112.367C282.771 112.606 282.524 113.027 282.502 113.492C282.342 117.099 281.689 131.62 281.45 132.215C281.29 132.622 280.652 133.26 280.158 133.717C279.781 134.066 279.621 134.596 279.752 135.096L280.187 136.744L280.637 138.442C280.789 139.044 281.326 139.465 281.951 139.487C283.489 139.523 286.211 139.596 286.501 139.596C286.755 139.596 289.367 138.202 291.283 137.165C291.973 136.787 292.568 136.461 292.938 136.257C293.199 136.12 293.489 136.061 293.787 136.098L296.944 136.504C297.336 136.555 297.742 136.439 298.04 136.17L299.215 135.147C299.556 134.85 299.731 134.414 299.694 133.964L299.564 132.462L299.092 127.099C299.077 126.961 299.041 126.823 298.99 126.693L298.025 124.341C297.909 124.044 297.887 123.717 297.982 123.412L299.157 119.414C299.186 119.297 299.208 119.174 299.215 119.058L299.44 110.937C299.462 110.219 300.021 109.631 300.732 109.58L306.639 109.108C307.43 109.043 308.113 109.653 308.149 110.444L308.599 120.473C308.621 120.901 308.838 121.3 309.187 121.547L313.36 124.544C313.737 124.813 313.955 125.256 313.94 125.713L313.897 127.672L313.432 147.027C313.418 147.506 313.171 147.941 312.764 148.188L308.062 151.098C307.815 151.258 307.518 151.331 307.22 151.309L302.496 150.939C302.401 150.931 302.3 150.917 302.205 150.888L296.095 149.088C295.645 148.957 295.166 149.059 294.81 149.349L294.339 149.734L284.592 157.695C284.324 157.913 284.15 158.225 284.099 158.559L283.068 164.945C282.996 165.409 282.691 165.801 282.27 165.997L275.238 169.205C275.187 169.227 275.143 169.248 275.093 169.278L270.455 172.079C269.584 172.609 268.467 172.064 268.336 171.056L268.278 170.591C268.227 170.17 268.372 169.742 268.67 169.437L276.406 161.578C276.66 161.316 276.805 160.975 276.813 160.612L276.936 152.92C276.936 152.608 276.834 152.296 276.646 152.049L266.892 139.349C266.682 139.066 266.362 138.877 266.014 138.819L264.258 138.522H264.25L263.205 138.347C262.792 138.275 262.385 138.398 262.088 138.652C261.79 138.892 261.594 139.255 261.572 139.668C261.485 141.715 261.326 145.046 261.231 145.329C261.115 145.67 263.8 149.182 264.737 150.387C264.947 150.656 265.049 150.982 265.034 151.309L264.795 156.222C264.787 156.425 264.729 156.628 264.635 156.81L261.021 163.668C260.89 163.914 260.84 164.19 260.869 164.466L261.464 170.083C261.493 170.33 261.587 170.569 261.732 170.772L264.366 174.278C264.628 174.633 264.715 175.083 264.591 175.504C264.236 176.745 263.488 179.307 263.278 179.619C263.06 179.953 260.404 182.986 259.417 184.111C259.178 184.387 259.054 184.735 259.069 185.098L259.286 189.714C259.308 190.149 259.533 190.555 259.896 190.802L261.783 192.094C261.87 192.152 261.95 192.225 262.022 192.304L264.04 194.496C264.591 195.091 264.519 196.035 263.888 196.543L259.221 200.295C258.931 200.527 258.568 200.636 258.198 200.592L252.494 199.99C252.399 199.975 252.305 199.961 252.218 199.932L243.372 197.101C242.66 196.869 241.898 197.239 241.637 197.936L239.634 203.205C239.554 203.415 239.525 203.64 239.547 203.865L239.743 205.607L241.528 221.253C241.55 221.449 241.615 221.645 241.717 221.819L245.164 227.523C245.389 227.894 245.774 228.14 246.202 228.191L250.774 228.735C251.086 228.772 251.405 228.706 251.674 228.539L256.688 225.433C256.892 225.31 257.117 225.237 257.356 225.223L264.265 224.853C264.519 224.838 264.751 224.766 264.962 224.628L268.314 222.429C268.51 222.306 268.663 222.131 268.772 221.935L275.797 209.272C276.072 208.771 276.631 208.488 277.197 208.56L284.665 209.489C284.882 209.518 285.093 209.598 285.282 209.722L299.506 219.424C299.839 219.649 300.246 219.722 300.638 219.628L303.236 218.975C303.287 218.96 303.337 218.945 303.388 218.931C303.715 218.808 303.976 218.575 304.143 218.263L305.536 215.571C305.761 215.128 305.74 214.606 305.486 214.185L302.8 209.845L301.451 207.668C301.32 207.457 301.146 207.29 300.928 207.174L297.51 205.317C296.908 204.99 296.632 204.286 296.85 203.64L297.234 202.464C297.43 201.877 297.989 201.485 298.613 201.507L301.472 201.594C301.712 201.601 301.944 201.673 302.147 201.797C302.271 201.869 302.379 201.956 302.474 202.065L312.757 213.648C312.83 213.728 312.91 213.8 312.997 213.865L321.713 220.02C322.438 220.528 323.447 220.252 323.803 219.439L327.409 211.253C327.547 210.941 327.794 210.687 328.106 210.542L333.658 207.994C334.659 207.53 335.77 208.35 335.632 209.446L335.182 212.98C335.153 213.227 335.051 213.466 334.899 213.662L331.009 218.699C330.69 219.112 330.624 219.664 330.842 220.143L331.829 222.269C332.018 222.676 332.388 222.973 332.83 223.06L336.292 223.735C336.764 223.822 337.243 223.67 337.577 223.322L342.279 218.408C342.737 217.929 343.455 217.835 344.021 218.176L350.988 222.4C351.605 222.777 351.837 223.554 351.525 224.2L348.259 231.065C348.078 231.442 347.737 231.725 347.323 231.82L326.604 236.834C326.553 236.849 326.502 236.863 326.451 236.885L307.997 243.605C307.619 243.743 307.198 243.714 306.85 243.525L304.186 242.096L300.355 240.035C300.137 239.919 299.956 239.752 299.825 239.541L294.368 230.724C294.143 230.368 293.772 230.129 293.359 230.078L279.984 228.307C279.694 228.271 279.396 228.322 279.135 228.467L266.747 235.172C266.536 235.289 266.29 235.347 266.05 235.347L250.273 234.955C249.939 234.948 249.613 235.056 249.351 235.274L238.233 244.375C237.914 244.629 237.725 245.013 237.718 245.42L237.573 251.247L237.493 254.259C237.479 254.992 238.038 255.623 238.77 255.688L268.539 258.352C269.113 258.403 269.599 258.809 269.759 259.361L294.912 346.86V346.875L295.384 348.529C295.471 348.841 295.449 349.168 295.326 349.465L293.831 353.007L293.185 354.545L293.177 354.567L290.209 361.599L286.82 369.633C286.748 369.815 286.711 370.01 286.711 370.206L286.82 376.956L287.11 394.271C287.118 394.554 287.205 394.823 287.364 395.055L293.627 403.894C293.91 404.293 294.382 404.518 294.876 404.482L300.572 404.068H300.58L307.634 403.553C308.011 403.531 308.359 403.35 308.606 403.067L313.795 396.949C313.904 396.818 314.034 396.71 314.187 396.63L323.207 391.637C323.454 391.499 323.657 391.288 323.788 391.027L328.665 381.085C328.825 380.751 329.115 380.497 329.47 380.374L343.883 375.446L344.435 375.257C344.471 375.243 344.507 375.228 344.544 375.214L350.328 372.681C350.777 372.485 351.09 372.071 351.155 371.585L355.299 341.403C355.335 341.149 355.299 340.895 355.197 340.655L353.971 337.839L349.014 326.446L325.102 271.436C324.819 270.798 325.058 270.05 325.653 269.688L360.371 248.351L374.414 239.723C375.089 239.309 375.967 239.534 376.359 240.209L412.725 302.388L413.661 303.985C413.719 304.086 413.77 304.188 413.799 304.304L414.234 305.821Z" fill="#281760"/>
<path d="M249.62 75.7256C287.176 75.7256 321.945 87.6273 350.371 107.875C323.694 127.288 289.832 138.892 252.98 138.892C216.128 138.892 179.494 126.315 152.352 105.458C180.118 86.6839 213.588 75.7256 249.62 75.7256Z" stroke="#2C056B" stroke-width="1.45143" stroke-miterlimit="10"/>
<path d="M360.393 383.683C344.812 396.572 326.945 406.804 307.489 413.662H307.481C289.382 420.049 269.911 423.525 249.62 423.525C228.277 423.525 207.833 419.678 188.936 412.639C174.305 407.189 160.597 399.823 148.129 390.853C143.978 387.863 139.957 384.699 136.096 381.361C143.303 377.435 151.685 373.9 161.018 370.86C163.536 370.032 166.127 369.248 168.783 368.501C180.576 365.177 193.653 362.586 207.645 360.896C219.895 359.415 232.834 358.624 246.224 358.624C261.594 358.624 276.385 359.669 290.209 361.599C290.601 361.658 290.986 361.708 291.371 361.766C305.166 363.755 317.983 366.621 329.427 370.214C334.529 371.818 339.362 373.567 343.883 375.446C349.972 377.972 355.502 380.729 360.393 383.683Z" stroke="#2C056B" stroke-width="1.45143" stroke-miterlimit="10"/>
<path d="M307.481 413.662C289.382 420.048 269.911 423.525 249.62 423.525C228.277 423.525 207.833 419.678 188.936 412.639C194.255 411.304 199.8 410.157 205.547 409.214C212.18 408.11 219.075 407.276 226.172 406.724C232.696 406.216 239.395 405.955 246.224 405.955C255.31 405.955 264.163 406.42 272.683 407.312C279.432 408.002 285.978 408.967 292.263 410.164C297.524 411.166 302.612 412.341 307.481 413.662Z" stroke="#2C056B" stroke-width="0.725716" stroke-miterlimit="10"/>
<path d="M427.87 247.168C427.87 261.203 426.252 274.854 423.182 287.953C394.712 326.67 325.66 353.993 244.99 353.993C175.016 353.993 113.788 333.434 80.2016 302.707C74.4684 285.232 71.3696 266.559 71.3696 247.168C71.3696 230.673 73.6048 214.7 77.8067 199.532C78.6123 196.629 81.1378 195.911 83.3802 197.921C117.561 228.575 177.172 248.873 244.99 248.873C312.808 248.873 376.722 227.08 410.214 194.554C411.498 193.305 412.746 192.043 413.951 190.758C415.555 189.053 418.414 189.67 419.14 191.898C421.07 197.812 422.696 203.872 424.002 210.04C426.542 222.015 427.877 234.432 427.877 247.161L427.87 247.168Z" fill="#FDF89B" stroke="#2C056B" stroke-width="1.45143" stroke-miterlimit="10"/>
<path d="M136.938 246.574C147.417 252.459 152.447 256.48 148.187 264.071C144.094 271.364 135.334 274.332 115.733 268.519L105.5 286.742C104.179 289.093 104.861 291.082 106.893 292.62L105.74 294.674L85.6953 283.418L86.8492 281.372C89.3384 282.272 91.2688 281.858 92.5896 279.499L113.904 241.53C115.094 239.404 114.637 236.849 112.554 235.579L113.708 233.525L136.945 246.567L136.938 246.574ZM125.232 251.588L118.2 264.114C126.248 266.139 132.577 262.699 134.79 258.751C136.706 255.333 136.133 251.915 131.952 249.571C128.309 247.524 126.807 248.78 125.225 251.588H125.232Z" fill="#D5281B"/>
<path d="M176.461 274.847C177.883 275.261 178.812 275.805 179.763 276.894L174.407 289.398L173.572 289.158C173.434 285.581 170.938 283.861 169.102 283.324C167.179 282.765 164.936 283.295 163.231 284.79C161.634 286.227 160.938 287.388 159.45 292.489L155.175 307.207C154.45 309.718 155.459 311.547 157.614 312.541L156.961 314.798L136.808 308.941L137.461 306.684C140.066 307.076 141.866 305.879 142.548 303.535L149.428 279.869C151.199 273.766 149.5 271.821 146.452 270.754L147.084 268.577L163.086 271.865C163.528 274.717 163.296 278.004 162.73 281.197C167.222 274.797 173.108 273.875 176.453 274.847H176.461Z" fill="#D5281B"/>
<path d="M200.351 278.556C205.787 279.297 212.993 282.555 215.221 291.38C215.743 293.383 215.881 295.596 216.034 298.347L190.278 301.62C189.821 310.169 193.696 316.584 199.48 317.368C205.779 318.224 210.438 313.05 213.682 307.251L214.771 307.665L207.993 324.589C207.325 323.703 206.44 323.057 205.663 322.956C203.595 322.673 200.728 323.696 195.728 323.014C180.887 321.004 174.356 310.183 175.996 298.107C177.963 283.607 188.877 277.003 200.351 278.564V278.556ZM190.626 295.872L202.833 294.014C203.399 288.557 202.064 284.152 198.399 283.92C194.741 283.687 191.592 287.476 190.626 295.872Z" fill="#D5281B"/>
<path d="M239.699 280.878C244.228 280.864 247.37 282.075 249.373 282.068C250.244 282.068 250.941 281.626 251.891 280.842L253.067 294.507L251.935 294.776C251.057 291.205 247.029 285.559 241.369 285.573C237.276 285.588 235.28 287.25 235.287 289.427C235.294 292.91 239.133 294.028 243.401 295.327C249.852 297.308 256.652 299.638 256.681 308.869C256.703 316.794 249.243 325.437 236.963 325.473C232 325.488 227.29 323.761 225.896 323.768C224.242 323.768 223.284 324.472 222.333 325.343L221.491 307.316L222.71 307.222C223.777 315.321 229.278 319.914 236.158 319.893C240.861 319.878 244.075 316.997 244.061 313.514C244.046 309.333 239.779 308.216 235.069 306.837C228.705 305.03 222.34 302.867 222.319 293.897C222.297 286.843 228.204 280.907 239.699 280.871V280.878Z" fill="#D5281B"/>
<path d="M274.592 262.104L276.595 279.318L283.344 278.535C285.245 278.317 285.739 277.99 286.98 276.619L285.666 284.928C284.977 284.304 284.592 283.999 283.38 284.144L277.241 284.856L280.238 310.633C280.673 314.356 282.103 316.112 284.868 315.793C286.167 315.641 289.034 314.697 290.964 306.402L292.118 306.533L291.196 319.705C288.221 321.279 285.369 322.397 281.131 322.89C273.003 323.834 268.278 321.664 267.19 312.324L264.171 286.372L259.323 286.938L259.069 284.776C264.512 283.353 264.345 275.835 264.018 273.063C263.837 271.503 263.292 269.819 263.176 269.565C269.643 267.852 273.873 262.801 274.585 262.104H274.592Z" fill="#D5281B"/>
<path d="M307.053 272.888L314.891 308.97C315.428 311.438 316.887 312.817 319.594 312.584L320.094 314.885L299.498 319.355L298.998 317.055C301.218 316.213 302.648 314.566 302.053 311.844L295.971 283.846C295.064 279.673 293.243 279.093 291.029 279.572L289.926 279.811L289.447 277.598L307.046 272.881L307.053 272.888ZM295.282 255.217C299.368 254.331 303.272 257.133 304.165 261.218C305.057 265.304 302.561 269.412 298.475 270.297C294.389 271.182 290.572 268.359 289.68 264.274C288.787 260.188 291.203 256.102 295.289 255.217H295.282Z" fill="#D5281B"/>
<path d="M355.604 257.141L356.474 259.42C353.818 261.002 353.354 262.947 354.159 265.066L364.167 291.17C364.914 293.122 366.264 293.724 367.955 294.472C370.06 295.343 372.469 296.751 374.058 300.902C377.549 310.009 368.391 320.423 356.924 324.821C349.849 327.535 342.004 328.958 334.536 327.245L336.851 312.368L338.048 312.564L338.077 312.644C338.107 313.936 338.622 315.518 339.057 316.65C340.088 319.335 345.552 322.644 353.767 319.495C359.784 317.187 364.189 312.143 362.287 307.179C360.916 303.601 357.541 303.311 354.696 304.4L347.381 307.208C338.52 310.605 328.389 308.522 322.997 294.45C319.818 286.155 318.853 271.227 338.041 263.868L355.604 257.134V257.141ZM335.987 288.448C339.667 298.042 344.674 302.839 349.798 300.873C352.643 299.784 352.672 297.905 351.583 295.06L341.51 268.796C340.719 268.912 340.117 269.05 339.224 269.391C334.304 271.648 332.533 279.421 335.987 288.448Z" fill="#D5281B"/>
<path d="M374.407 242.488C378.754 239.142 386.142 236.327 393.987 240.949C395.772 241.994 397.448 243.453 399.509 245.275L383.71 265.878C389.465 272.22 396.744 273.984 401.374 270.428C406.418 266.553 406.019 259.607 404.183 253.221L405.242 252.735L412.492 269.463C411.397 269.318 410.315 269.492 409.691 269.963C408.036 271.233 406.745 273.984 402.739 277.068C390.859 286.198 378.58 283.222 371.156 273.556C362.244 261.952 365.234 249.556 374.414 242.495L374.407 242.488ZM379.857 261.589L387.129 251.61C383.645 247.365 379.581 245.217 376.838 247.655C374.095 250.093 374.574 254.999 379.857 261.589Z" fill="#D5281B"/>
</g>
<defs>
<clipPath id="clip0_2003_8949">
<rect width="357.952" height="349.251" fill="white" transform="translate(70.644 75)"/>
</clipPath>
</defs>
</svg>
