<svg width="500" height="500" viewBox="0 0 500 500" fill="none" xmlns="http://www.w3.org/2000/svg">
<rect width="500" height="500" fill="white"/>
<g clip-path="url(#clip0_2003_8993)">
<path d="M386.277 189.586C382.42 209.622 376.864 228.972 369.771 247.472C356.763 251.851 341.4 254.891 323.718 256.558C269.689 261.722 254.033 290.551 251.614 317.484C240.272 289.015 233.343 258.617 241.776 237.47C249.162 219.003 268.283 209.328 298.648 208.674C338.099 207.824 367.451 201.418 386.277 189.586Z" fill="#081B56"/>
<path d="M363.462 262.966C344.145 307.091 316.069 345.824 281.716 376.548C279.821 373.508 277.827 370.141 275.735 366.546C268.773 354.551 264.589 341.019 264.36 327.16C264.23 319.152 265.178 311.537 267.531 304.673C274.493 284.342 293.843 272.51 324.992 269.536C339.144 268.196 351.99 265.973 363.495 262.934L363.462 262.966Z" fill="#081B56"/>
<path d="M390.853 159.123C390.461 162.817 390.003 166.478 389.513 170.106C375.556 185.827 344.244 194.62 298.353 195.6C238.899 196.875 225.629 229.789 225.008 257.179C224.256 289.211 240.206 327.159 253.705 353.372C254.261 354.484 254.849 355.562 255.405 356.641C261.746 368.636 267.695 378.507 271.813 384.979C270.015 386.515 268.185 387.986 266.354 389.359C260.21 394.229 253.901 398.805 247.43 403.119C171.142 352.228 117.081 265.874 104.693 165.17C148.589 138.532 199.153 123.398 252.986 123.398C302.602 123.398 349.441 136.276 390.853 159.123Z" fill="#081B56"/>
</g>
<defs>
<clipPath id="clip0_2003_8993">
<rect width="286.16" height="279.721" fill="white" transform="translate(104.693 123.398)"/>
</clipPath>
</defs>
</svg>
