<svg width="500" height="500" viewBox="0 0 500 500" fill="none" xmlns="http://www.w3.org/2000/svg">
<rect width="500" height="500" fill="white"/>
<g clip-path="url(#clip0_2003_9656)">
<path d="M141.705 249.27L249.985 183.05L356.185 249.27L249.145 315.48L141.705 249.27Z" fill="#C72645" stroke="#7F6700" stroke-width="3" stroke-miterlimit="10"/>
<path d="M63.285 238.01H110.995L250.805 152.55L389.125 238.18H356.765L249.975 172.46L135.475 242.91H63.165L63.285 238.01Z" fill="#C72645"/>
<path d="M436.715 261.99H389.005L249.195 347.45L110.875 261.83H143.235L250.025 327.54L364.525 257.1H436.835L436.715 261.99Z" fill="#C72645"/>
<path d="M216.645 232.579L212.605 233.329C212.785 232.519 212.865 231.849 212.865 231.309C212.865 227.819 210.745 226.079 206.515 226.079C203.175 226.079 201.505 227.279 201.505 229.679C201.505 231.479 203.375 233.029 207.105 234.319C214.315 236.799 217.915 240.459 217.915 245.299C217.915 248.139 216.905 250.419 214.885 252.139C212.865 253.859 210.175 254.719 206.825 254.719C199.405 254.719 195.685 251.839 195.685 246.089C195.685 245.619 195.725 245.039 195.795 244.349L199.995 243.429C199.675 244.699 199.515 245.809 199.515 246.749C199.515 250.469 201.645 252.329 205.905 252.329C209.315 252.329 211.025 250.989 211.025 248.309C211.025 246.319 208.985 244.569 204.895 243.059C198.995 240.889 196.045 237.429 196.045 232.669C196.045 229.979 197.025 227.799 198.995 226.159C200.965 224.509 203.555 223.689 206.765 223.689C213.355 223.689 216.655 226.659 216.655 232.589L216.645 232.579Z" fill="white"/>
<path d="M244.055 224.189V244.309C244.055 251.209 240.245 254.659 232.615 254.659C224.985 254.659 221.215 251.209 221.215 244.309V224.189H229.915V244.579C229.915 247.219 230.295 249.019 231.045 249.979C231.795 250.949 233.195 251.429 235.225 251.429C239.165 251.429 241.135 249.059 241.135 244.309V224.189H244.055Z" fill="white"/>
<path d="M270.475 224.189V254.179H263.815L251.295 235.199V254.179H248.375V224.189H253.885L267.545 244.689V224.189H270.465H270.475Z" fill="white"/>
<path d="M297.795 224.189V244.309C297.795 251.209 293.975 254.659 286.345 254.659C278.715 254.659 274.945 251.209 274.945 244.309V224.189H283.645V244.579C283.645 247.219 284.025 249.019 284.775 249.979C285.525 250.949 286.925 251.429 288.955 251.429C292.895 251.429 294.865 249.059 294.865 244.309V224.189H297.785H297.795Z" fill="white"/>
<path d="M199.515 271.36H197.365L202.205 257.92H204.545L209.385 271.36H207.235L203.435 260.36H203.335L199.525 271.36H199.515ZM199.875 266.1H206.855V267.81H199.875V266.1Z" fill="white"/>
<path d="M218.545 263.74L216.765 264.05C216.695 263.82 216.575 263.61 216.415 263.4C216.255 263.19 216.035 263.03 215.765 262.9C215.495 262.77 215.155 262.7 214.745 262.7C214.185 262.7 213.725 262.82 213.355 263.07C212.985 263.32 212.795 263.64 212.795 264.02C212.795 264.36 212.915 264.63 213.165 264.83C213.415 265.04 213.815 265.2 214.375 265.33L215.975 265.7C216.905 265.91 217.595 266.24 218.045 266.69C218.495 267.14 218.725 267.72 218.725 268.43C218.725 269.03 218.555 269.57 218.205 270.04C217.855 270.51 217.375 270.88 216.755 271.15C216.135 271.42 215.415 271.55 214.605 271.55C213.475 271.55 212.555 271.31 211.845 270.83C211.135 270.35 210.695 269.66 210.535 268.77L212.435 268.48C212.555 268.97 212.795 269.35 213.165 269.6C213.535 269.85 214.015 269.98 214.605 269.98C215.245 269.98 215.765 269.85 216.145 269.58C216.525 269.31 216.725 268.98 216.725 268.59C216.725 268.27 216.605 268.01 216.375 267.8C216.145 267.59 215.785 267.42 215.305 267.31L213.595 266.94C212.655 266.73 211.955 266.38 211.515 265.92C211.065 265.45 210.845 264.86 210.845 264.14C210.845 263.55 211.015 263.02 211.345 262.58C211.675 262.14 212.135 261.78 212.725 261.53C213.315 261.28 213.985 261.15 214.745 261.15C215.835 261.15 216.695 261.39 217.315 261.86C217.945 262.33 218.355 262.96 218.555 263.75L218.545 263.74Z" fill="white"/>
<path d="M228.355 263.74L226.575 264.05C226.505 263.82 226.385 263.61 226.225 263.4C226.065 263.19 225.845 263.03 225.575 262.9C225.305 262.77 224.965 262.7 224.555 262.7C223.995 262.7 223.535 262.82 223.165 263.07C222.795 263.32 222.605 263.64 222.605 264.02C222.605 264.36 222.725 264.63 222.975 264.83C223.225 265.04 223.625 265.2 224.185 265.33L225.785 265.7C226.715 265.91 227.405 266.24 227.855 266.69C228.305 267.14 228.535 267.72 228.535 268.43C228.535 269.03 228.365 269.57 228.015 270.04C227.665 270.51 227.185 270.88 226.565 271.15C225.945 271.42 225.225 271.55 224.415 271.55C223.285 271.55 222.365 271.31 221.655 270.83C220.945 270.35 220.505 269.66 220.345 268.77L222.245 268.48C222.365 268.97 222.605 269.35 222.975 269.6C223.345 269.85 223.825 269.98 224.415 269.98C225.055 269.98 225.575 269.85 225.955 269.58C226.335 269.31 226.535 268.98 226.535 268.59C226.535 268.27 226.415 268.01 226.185 267.8C225.955 267.59 225.595 267.42 225.115 267.31L223.405 266.94C222.465 266.73 221.765 266.38 221.325 265.92C220.875 265.45 220.655 264.86 220.655 264.14C220.655 263.55 220.825 263.02 221.155 262.58C221.485 262.14 221.945 261.78 222.535 261.53C223.125 261.28 223.795 261.15 224.555 261.15C225.645 261.15 226.505 261.39 227.125 261.86C227.755 262.33 228.165 262.96 228.365 263.75L228.355 263.74Z" fill="white"/>
<path d="M236.995 267.18V261.28H238.965V271.36H237.035V269.61H236.935C236.705 270.15 236.335 270.6 235.825 270.95C235.315 271.31 234.685 271.48 233.925 271.48C233.275 271.48 232.705 271.34 232.205 271.05C231.705 270.76 231.315 270.34 231.035 269.77C230.755 269.21 230.615 268.51 230.615 267.68V261.27H232.575V267.44C232.575 268.13 232.765 268.67 233.145 269.08C233.525 269.49 234.025 269.69 234.625 269.69C234.995 269.69 235.355 269.6 235.725 269.41C236.095 269.22 236.395 268.95 236.635 268.58C236.875 268.21 236.995 267.74 236.995 267.16V267.18Z" fill="white"/>
<path d="M241.505 271.36V261.28H243.405V262.88H243.505C243.685 262.34 244.015 261.91 244.475 261.6C244.945 261.29 245.465 261.13 246.055 261.13C246.175 261.13 246.325 261.13 246.495 261.14C246.665 261.15 246.795 261.16 246.895 261.17V263.05C246.815 263.03 246.675 263 246.475 262.97C246.275 262.94 246.075 262.93 245.875 262.93C245.415 262.93 244.995 263.03 244.635 263.22C244.275 263.42 243.985 263.68 243.775 264.03C243.565 264.38 243.465 264.76 243.465 265.2V271.36H241.505Z" fill="white"/>
<path d="M251.355 271.59C250.715 271.59 250.135 271.47 249.625 271.23C249.115 270.99 248.705 270.65 248.405 270.19C248.105 269.73 247.955 269.18 247.955 268.52C247.955 267.95 248.065 267.48 248.285 267.12C248.505 266.75 248.795 266.46 249.175 266.25C249.545 266.04 249.965 265.87 250.425 265.76C250.885 265.65 251.355 265.57 251.825 265.51C252.425 265.44 252.915 265.38 253.295 265.34C253.675 265.29 253.945 265.22 254.115 265.11C254.285 265 254.375 264.83 254.375 264.6V264.55C254.375 263.98 254.215 263.53 253.895 263.22C253.575 262.91 253.095 262.75 252.455 262.75C251.815 262.75 251.275 262.9 250.895 263.19C250.515 263.48 250.255 263.8 250.115 264.16L248.275 263.74C248.495 263.13 248.815 262.63 249.235 262.25C249.655 261.87 250.145 261.6 250.695 261.42C251.245 261.25 251.825 261.16 252.435 261.16C252.835 261.16 253.265 261.21 253.715 261.3C254.165 261.39 254.595 261.57 254.985 261.81C255.375 262.06 255.705 262.42 255.955 262.88C256.205 263.34 256.335 263.94 256.335 264.67V271.36H254.415V269.98H254.335C254.205 270.23 254.015 270.48 253.765 270.73C253.515 270.98 253.185 271.18 252.785 271.34C252.385 271.5 251.905 271.58 251.355 271.58V271.59ZM251.785 270.01C252.325 270.01 252.795 269.9 253.175 269.69C253.565 269.48 253.855 269.19 254.065 268.85C254.265 268.5 254.365 268.13 254.365 267.73V266.43C254.295 266.5 254.155 266.56 253.965 266.62C253.765 266.68 253.535 266.73 253.285 266.77C253.035 266.81 252.785 266.85 252.545 266.88C252.305 266.91 252.105 266.94 251.945 266.96C251.565 267.01 251.215 267.09 250.905 267.2C250.595 267.31 250.345 267.48 250.155 267.69C249.965 267.9 249.875 268.18 249.875 268.53C249.875 269.02 250.055 269.38 250.415 269.63C250.775 269.88 251.235 270 251.785 270V270.01Z" fill="white"/>
<path d="M260.815 265.38V271.37H258.855V261.29H260.735V262.93H260.855C261.085 262.4 261.455 261.97 261.945 261.64C262.445 261.32 263.065 261.15 263.825 261.15C264.515 261.15 265.115 261.29 265.625 261.58C266.145 261.87 266.545 262.29 266.825 262.86C267.105 263.43 267.255 264.12 267.255 264.95V271.36H265.295V265.18C265.295 264.45 265.105 263.88 264.725 263.46C264.345 263.04 263.825 262.84 263.155 262.84C262.695 262.84 262.295 262.94 261.945 263.13C261.595 263.33 261.315 263.62 261.115 263.99C260.915 264.37 260.805 264.82 260.805 265.36L260.815 265.38Z" fill="white"/>
<path d="M274.045 271.57C273.065 271.57 272.235 271.35 271.525 270.9C270.825 270.46 270.285 269.84 269.905 269.06C269.525 268.28 269.345 267.38 269.345 266.37C269.345 265.36 269.535 264.44 269.925 263.66C270.315 262.87 270.855 262.26 271.555 261.82C272.255 261.38 273.075 261.16 274.025 261.16C274.795 261.16 275.475 261.3 276.075 261.58C276.675 261.86 277.155 262.26 277.525 262.76C277.895 263.27 278.115 263.86 278.185 264.54H276.275C276.165 264.07 275.935 263.66 275.555 263.32C275.175 262.98 274.685 262.81 274.055 262.81C273.505 262.81 273.035 262.95 272.625 263.24C272.215 263.53 271.895 263.93 271.665 264.46C271.435 264.99 271.325 265.61 271.325 266.33C271.325 267.05 271.435 267.7 271.655 268.23C271.875 268.76 272.195 269.18 272.605 269.47C273.015 269.76 273.495 269.91 274.055 269.91C274.425 269.91 274.765 269.84 275.065 269.7C275.365 269.56 275.625 269.37 275.835 269.11C276.045 268.85 276.185 268.54 276.275 268.18H278.185C278.115 268.83 277.905 269.41 277.545 269.93C277.195 270.44 276.715 270.84 276.125 271.14C275.535 271.44 274.835 271.58 274.045 271.58V271.57Z" fill="white"/>
<path d="M284.545 271.57C283.555 271.57 282.695 271.36 281.985 270.93C281.275 270.5 280.715 269.9 280.335 269.13C279.945 268.35 279.755 267.44 279.755 266.4C279.755 265.36 279.945 264.46 280.335 263.67C280.725 262.88 281.265 262.27 281.965 261.83C282.665 261.39 283.485 261.17 284.415 261.17C284.985 261.17 285.535 261.26 286.065 261.45C286.595 261.64 287.075 261.93 287.505 262.34C287.925 262.74 288.265 263.26 288.505 263.9C288.755 264.54 288.875 265.32 288.875 266.23V266.93H280.865V265.46H286.955C286.955 264.94 286.855 264.49 286.645 264.08C286.435 263.68 286.145 263.36 285.765 263.13C285.385 262.9 284.945 262.78 284.435 262.78C283.885 262.78 283.405 262.91 282.995 263.18C282.585 263.45 282.275 263.8 282.045 264.23C281.815 264.66 281.715 265.13 281.715 265.63V266.78C281.715 267.45 281.835 268.03 282.075 268.5C282.315 268.97 282.645 269.33 283.075 269.58C283.505 269.83 284.005 269.95 284.575 269.95C284.945 269.95 285.285 269.9 285.595 269.79C285.905 269.68 286.165 269.52 286.385 269.31C286.605 269.1 286.775 268.83 286.895 268.52L288.755 268.85C288.605 269.4 288.335 269.88 287.955 270.28C287.575 270.68 287.095 271.01 286.515 271.23C285.935 271.46 285.285 271.57 284.555 271.57H284.545Z" fill="white"/>
<path d="M298.515 263.74L296.735 264.05C296.655 263.82 296.545 263.61 296.385 263.4C296.225 263.19 296.005 263.03 295.735 262.9C295.465 262.77 295.125 262.7 294.715 262.7C294.155 262.7 293.695 262.82 293.325 263.07C292.955 263.32 292.765 263.64 292.765 264.02C292.765 264.36 292.885 264.63 293.135 264.83C293.385 265.04 293.785 265.2 294.345 265.33L295.945 265.7C296.875 265.91 297.565 266.24 298.015 266.69C298.465 267.14 298.695 267.72 298.695 268.43C298.695 269.03 298.525 269.57 298.175 270.04C297.825 270.51 297.345 270.88 296.725 271.15C296.105 271.42 295.385 271.55 294.575 271.55C293.445 271.55 292.525 271.31 291.815 270.83C291.105 270.35 290.665 269.66 290.505 268.77L292.405 268.48C292.525 268.97 292.765 269.35 293.135 269.6C293.505 269.85 293.985 269.98 294.575 269.98C295.215 269.98 295.735 269.85 296.115 269.58C296.495 269.31 296.695 268.98 296.695 268.59C296.695 268.27 296.575 268.01 296.345 267.8C296.115 267.59 295.755 267.42 295.275 267.31L293.565 266.94C292.625 266.73 291.925 266.38 291.485 265.92C291.035 265.45 290.815 264.86 290.815 264.14C290.815 263.55 290.985 263.02 291.315 262.58C291.645 262.13 292.105 261.78 292.695 261.53C293.285 261.28 293.955 261.15 294.705 261.15C295.795 261.15 296.655 261.39 297.275 261.86C297.895 262.33 298.315 262.96 298.515 263.75V263.74Z" fill="white"/>
</g>
<defs>
<clipPath id="clip0_2003_9656">
<rect width="373.67" height="194.9" fill="white" transform="translate(63.165 152.55)"/>
</clipPath>
</defs>
</svg>
