<svg width="500" height="500" viewBox="0 0 500 500" fill="none" xmlns="http://www.w3.org/2000/svg">
<rect width="500" height="500" fill="white"/>
<g clip-path="url(#clip0_2003_9679)">
<path d="M361.119 113.791C319.474 97.0101 254.252 132.182 258.729 138.495C258.922 138.752 292.161 126.384 294.512 125.74C316.543 119.588 346.336 111.407 366.176 128.027C383.021 142.166 385.791 176.082 359.444 181.042C349.589 182.91 333.356 181.074 306.558 168.964C284.882 159.172 262.722 149.51 239.661 143.455C198.756 132.761 153.536 137.657 123.55 170.091C107.155 187.806 99.812 219.821 121.617 236.505C132.149 244.589 145.29 246.006 156.789 239.082C160.396 236.891 165.195 233.51 167.224 229.677C167.418 229.29 170.767 224.234 168.255 225.071C159.172 228.034 147.352 241.433 129.154 226.907C118.815 218.629 119.266 203.878 124.387 192.83C136.24 167.192 164.519 169.737 188.16 172.281C205.681 174.149 223.203 176.919 240.499 180.43C240.499 180.43 137.431 223.493 165.324 321.696C176.082 359.574 209.675 385.92 248.551 389.785C274.124 392.33 303.434 389.527 325.593 375.452C343.888 363.825 363.76 341.247 366.595 319.023C367.432 312.581 361.345 319.345 359.09 321.793C347.656 334.29 337.543 347.206 322.244 355.161C306.945 363.117 290.873 365.886 274.446 364.759V310.778C274.446 310.778 292.644 309.586 297.475 289.585C302.339 269.551 301.888 199.272 301.888 199.24C301.888 200.915 320.504 204.425 321.986 204.715C334.129 207.099 347.527 208.033 359.638 205.005C404.923 193.668 400.124 129.476 361.151 113.758L361.119 113.791ZM260.081 364.244C260.081 364.244 193.345 360.701 198.241 271.483C201.881 205.102 261.917 187.838 261.917 187.838L260.081 364.244ZM281.564 290.68C281.5 291.775 280.952 292.741 280.018 293.321C277.86 294.673 275.058 293.127 275.058 290.583V190.511L282.627 194.022C283.787 194.57 284.528 195.761 284.495 197.05L281.564 290.68Z" fill="#FF0000" stroke="#FFCE00" stroke-width="3.22085" stroke-miterlimit="10"/>
</g>
<defs>
<clipPath id="clip0_2003_9679">
<rect width="287.171" height="284.594" fill="white" transform="translate(106.415 107.703)"/>
</clipPath>
</defs>
</svg>
