<svg width="500" height="500" viewBox="0 0 500 500" fill="none" xmlns="http://www.w3.org/2000/svg">
<rect width="500" height="500" fill="white"/>
<g clip-path="url(#clip0_2003_9895)">
<path d="M249.66 422.786C345.275 422.786 422.786 345.275 422.786 249.66C422.786 154.045 345.275 76.5342 249.66 76.5342C154.045 76.5342 76.5337 154.045 76.5337 249.66C76.5337 345.275 154.045 422.786 249.66 422.786Z" fill="#BF0027"/>
<path d="M249.66 410.206C338.327 410.206 410.206 338.327 410.206 249.66C410.206 160.993 338.327 89.1143 249.66 89.1143C160.993 89.1143 89.1138 160.993 89.1138 249.66C89.1138 338.327 160.993 410.206 249.66 410.206Z" fill="#ED0000"/>
<path d="M235.205 348.844C306.929 348.844 365.073 290.7 365.073 218.976C365.073 147.251 306.929 89.1074 235.205 89.1074C163.48 89.1074 105.336 147.251 105.336 218.976C105.336 290.7 163.48 348.844 235.205 348.844Z" fill="url(#paint0_linear_2003_9895)"/>
<path d="M195.63 262.611C195.63 269.667 194.841 275.36 193.269 279.704C191.69 284.048 189.019 288.108 185.242 291.886C177.053 299.441 165.977 303.218 151.994 303.218C138.011 303.218 127.502 299.441 118.935 291.886C111.879 285.592 108.358 275.832 108.358 262.604V210.658C108.358 207.259 109.546 204.365 111.92 201.97C114.294 199.583 117.229 198.382 120.729 198.382C123.974 198.382 126.726 199.583 128.979 201.97C131.225 204.365 132.352 207.259 132.352 210.658V260.716C132.352 274.82 138.868 281.869 151.9 281.869C164.932 281.869 171.637 274.82 171.637 260.716V210.658C171.637 207.259 172.77 204.365 175.036 201.97C177.303 199.583 180.136 198.382 183.535 198.382C186.935 198.382 189.64 199.583 192.034 201.97C194.422 204.365 195.623 207.259 195.623 210.658V262.604L195.63 262.611Z" fill="white"/>
<path d="M281.572 210.665V209.107C281.572 206.119 282.706 203.583 284.972 201.505C287.238 199.427 289.943 198.389 293.093 198.389C296.493 198.389 299.326 199.4 301.593 201.411C303.859 203.427 304.992 205.883 304.992 208.777V291.704C304.992 294.982 303.812 297.721 301.444 299.92C299.077 302.119 296.163 303.225 292.709 303.225C289.255 303.225 286.598 302.139 284.365 299.967C282.125 297.795 281.006 295.097 281.006 291.866V290.004C276.372 295.346 272.264 298.881 268.696 300.621C265.127 302.355 260.331 303.225 254.321 303.225C241.539 303.225 230.861 298.227 222.281 288.237C213.701 278.24 209.411 265.835 209.411 250.996C209.411 236.156 213.755 223.535 222.443 213.471C231.131 203.414 241.896 198.389 254.746 198.389C260.662 198.389 265.323 199.158 268.723 200.689C272.122 202.227 276.405 205.552 281.566 210.665H281.572ZM257.775 220.298C250.719 220.298 244.992 223.124 240.588 228.77C236.176 234.422 233.977 241.889 233.977 251.178C233.977 260.466 236.115 267.751 240.399 273.397C244.675 279.05 250.348 281.869 257.397 281.869C264.824 281.869 270.618 279.171 274.773 273.775C278.928 268.378 281.006 260.776 281.006 250.989C281.006 241.201 278.928 234.105 274.773 228.581C270.618 223.056 264.952 220.291 257.775 220.291V220.298Z" fill="white"/>
<path d="M383.576 276.965C386.092 276.21 387.92 275.832 389.053 275.832C391.697 275.832 394.024 276.904 396.041 279.043C398.051 281.188 399.063 283.704 399.063 286.598C399.063 291.387 396.007 295.414 389.903 298.685C383.791 301.957 376.331 303.596 367.522 303.596C353.168 303.596 341.424 298.719 332.291 288.958C323.158 279.198 318.598 266.638 318.598 251.272C318.598 235.906 323.225 223.097 332.48 213.208C341.734 203.326 353.606 198.382 368.088 198.382C376.776 198.382 384.108 199.893 390.092 202.915C396.068 205.937 399.063 209.593 399.063 213.869C399.063 217.397 398.085 220.264 396.135 222.463C394.179 224.668 391.697 225.768 388.675 225.768C387.414 225.768 386.564 225.707 386.125 225.579C385.68 225.458 384.264 224.891 381.876 223.879C376.459 221.741 371.987 220.668 368.466 220.668C361.033 220.668 355.023 223.407 350.429 228.884C345.829 234.362 343.535 241.633 343.535 250.699C343.535 259.765 345.862 266.753 350.523 272.419C355.178 278.085 361.161 280.918 368.466 280.918C370.604 280.918 372.304 280.763 373.566 280.446C374.82 280.135 376.709 279.535 379.232 278.652L383.576 276.952V276.965Z" fill="white"/>
<path d="M176.554 336.931C176.237 336.776 175.913 336.648 175.596 336.567C175.279 336.479 174.976 336.439 174.686 336.439C174.24 336.439 173.876 336.547 173.593 336.756C173.316 336.965 173.175 337.242 173.175 337.579C173.175 337.775 173.208 337.923 173.269 338.031C173.336 338.139 173.478 338.26 173.707 338.409C173.93 338.557 174.132 338.665 174.301 338.746C174.47 338.827 174.841 338.982 175.401 339.205C175.947 339.4 176.446 339.603 176.898 339.812C177.269 339.974 177.627 340.169 177.964 340.392C178.51 340.763 178.928 341.188 179.212 341.667C179.495 342.146 179.637 342.678 179.637 343.279C179.637 344.459 179.164 345.424 178.227 346.186C177.289 346.948 176.082 347.326 174.611 347.326C173.431 347.326 172.304 347.056 171.239 346.51C170.173 345.97 169.633 345.35 169.633 344.655C169.633 344.264 169.761 343.933 170.018 343.657C170.274 343.38 170.584 343.245 170.935 343.245C171.191 343.245 171.589 343.4 172.122 343.704C172.426 343.879 172.696 344.041 172.932 344.176C173.168 344.311 173.458 344.432 173.802 344.527C174.146 344.621 174.456 344.675 174.733 344.675C175.252 344.675 175.684 344.54 176.028 344.277C176.372 344.007 176.547 343.684 176.547 343.292C176.547 342.746 175.987 342.26 174.881 341.835L173.815 341.424C172.635 340.972 171.792 340.567 171.272 340.21C170.483 339.643 170.085 338.827 170.085 337.761C170.085 336.601 170.53 335.643 171.421 334.901C172.311 334.159 173.451 333.788 174.847 333.788C176.028 333.788 177.067 334.031 177.957 334.51C178.847 334.996 179.293 335.549 179.293 336.176C179.293 336.527 179.171 336.83 178.935 337.08C178.699 337.329 178.402 337.451 178.038 337.451C177.775 337.451 177.498 337.377 177.202 337.235L176.541 336.925L176.554 336.931Z" fill="white"/>
<path d="M185.903 330.651C185.903 330.132 186.085 329.7 186.442 329.349C186.807 328.999 187.245 328.83 187.758 328.83C188.243 328.83 188.662 329.005 189.012 329.363C189.363 329.72 189.545 330.159 189.545 330.672C189.545 331.184 189.37 331.623 189.026 331.973C188.682 332.324 188.257 332.493 187.758 332.493C187.259 332.493 186.807 332.317 186.442 331.973C186.078 331.623 185.903 331.184 185.903 330.651ZM189.276 345.687C189.276 346.125 189.134 346.496 188.844 346.8C188.554 347.103 188.196 347.258 187.758 347.258C187.319 347.258 186.955 347.103 186.652 346.8C186.348 346.489 186.193 346.132 186.193 345.707V335.36C186.193 334.941 186.348 334.577 186.652 334.267C186.955 333.957 187.326 333.808 187.758 333.808C188.163 333.808 188.513 333.963 188.817 334.267C189.12 334.577 189.276 334.948 189.276 335.38V345.68V345.687Z" fill="white"/>
<path d="M199.576 335.34C199.832 335.022 200.021 334.827 200.136 334.766C200.912 334.112 201.903 333.788 203.097 333.788C204.44 333.788 205.607 334.24 206.591 335.144C207.03 335.582 207.347 336.068 207.536 336.601C207.725 337.134 207.826 337.795 207.826 338.591V345.768C207.826 346.186 207.677 346.55 207.387 346.861C207.097 347.171 206.733 347.319 206.295 347.319C205.856 347.319 205.492 347.171 205.188 346.867C204.891 346.571 204.736 346.2 204.736 345.768V339.009C204.736 338.301 204.494 337.694 204.008 337.194C203.522 336.695 202.929 336.446 202.234 336.446C201.539 336.446 200.918 336.695 200.426 337.188C199.934 337.68 199.684 338.287 199.684 338.995V345.768C199.684 346.206 199.536 346.571 199.232 346.874C198.935 347.171 198.571 347.326 198.153 347.326C197.735 347.326 197.35 347.178 197.047 346.874C196.75 346.571 196.595 346.206 196.595 345.768V335.144C196.595 334.773 196.75 334.456 197.053 334.193C197.364 333.936 197.735 333.802 198.173 333.802C198.544 333.802 198.868 333.936 199.144 334.2C199.421 334.463 199.556 334.786 199.556 335.164V335.36L199.576 335.34Z" fill="white"/>
<path d="M222.935 343.886C223.258 343.791 223.495 343.737 223.636 343.737C223.973 343.737 224.277 343.879 224.533 344.149C224.79 344.425 224.925 344.749 224.925 345.12C224.925 345.734 224.533 346.253 223.744 346.672C222.962 347.09 221.997 347.306 220.864 347.306C219.016 347.306 217.511 346.678 216.338 345.424C215.164 344.169 214.577 342.557 214.577 340.581C214.577 338.604 215.171 336.958 216.365 335.69C217.552 334.422 219.083 333.781 220.945 333.781C222.064 333.781 223.002 333.977 223.771 334.361C224.54 334.753 224.925 335.218 224.925 335.771C224.925 336.223 224.796 336.594 224.547 336.877C224.297 337.161 223.973 337.302 223.589 337.302C223.427 337.302 223.319 337.296 223.258 337.275C223.204 337.262 223.022 337.188 222.712 337.06C222.017 336.783 221.444 336.648 220.985 336.648C220.027 336.648 219.258 336.999 218.665 337.707C218.071 338.409 217.781 339.346 217.781 340.513C217.781 341.68 218.078 342.577 218.678 343.306C219.279 344.034 220.048 344.398 220.985 344.398C221.262 344.398 221.478 344.378 221.64 344.338C221.801 344.297 222.044 344.223 222.368 344.108L222.928 343.893L222.935 343.886Z" fill="white"/>
<path d="M234.18 341.552C234.274 341.909 234.375 342.213 234.483 342.476C234.591 342.732 234.706 342.975 234.834 343.205C235.077 343.623 235.448 343.96 235.954 344.203C236.453 344.446 236.999 344.567 237.579 344.567C238.47 344.567 239.333 344.297 240.176 343.751C240.534 343.501 240.81 343.333 241.013 343.245C241.215 343.157 241.404 343.11 241.586 343.11C241.991 343.11 242.314 343.232 242.557 343.474C242.8 343.717 242.922 344.028 242.922 344.405C242.922 344.783 242.746 345.167 242.389 345.532C241.127 346.719 239.468 347.313 237.411 347.313C235.481 347.313 233.903 346.692 232.675 345.444C231.448 344.196 230.827 342.584 230.827 340.614C230.827 338.645 231.427 337.066 232.621 335.758C233.822 334.449 235.299 333.788 237.067 333.788C238.928 333.788 240.426 334.49 241.559 335.893C242.011 336.439 242.395 337.12 242.699 337.936C243.009 338.753 243.158 339.495 243.158 340.176C243.158 340.675 243.043 341.033 242.82 341.242C242.591 341.451 242.2 341.559 241.633 341.559H234.18V341.552ZM237.094 336.311C235.461 336.311 234.47 337.37 234.132 339.495H240.008C239.65 337.377 238.679 336.311 237.094 336.311Z" fill="white"/>
<path d="M266.011 332.446H264.264C263.859 332.446 263.515 332.305 263.232 332.021C262.948 331.738 262.807 331.394 262.807 330.989C262.807 330.585 262.955 330.261 263.245 329.971C263.535 329.681 263.886 329.532 264.291 329.532H267.717C268.156 329.532 268.513 329.681 268.783 329.971C269.053 330.261 269.194 330.638 269.194 331.111V345.633C269.194 346.072 269.039 346.45 268.736 346.773C268.426 347.097 268.048 347.259 267.596 347.259C267.144 347.259 266.786 347.097 266.476 346.773C266.166 346.45 266.017 346.079 266.017 345.66V332.446H266.011Z" fill="white"/>
<path d="M279.636 337.403L278.834 336.722C278.071 335.96 277.694 334.989 277.694 333.808C277.694 332.5 278.172 331.4 279.137 330.516C280.102 329.633 281.296 329.194 282.719 329.194C284.142 329.194 285.356 329.633 286.314 330.503C287.272 331.38 287.744 332.479 287.744 333.808C287.744 334.456 287.643 335.002 287.441 335.447C287.238 335.892 287.043 336.236 286.847 336.466C286.651 336.695 286.314 337.012 285.828 337.403C286.118 337.532 286.348 337.653 286.51 337.754C286.672 337.862 286.807 337.95 286.921 338.031C287.42 338.388 287.825 338.914 288.135 339.609C288.446 340.304 288.594 341.026 288.594 341.768C288.594 343.373 288.034 344.709 286.921 345.774C285.801 346.84 284.405 347.38 282.719 347.38C281.032 347.38 279.656 346.847 278.543 345.774C277.43 344.702 276.871 343.373 276.871 341.768C276.871 340.972 277.039 340.223 277.383 339.508C277.613 338.989 277.876 338.591 278.172 338.307C278.469 338.024 278.962 337.72 279.643 337.397L279.636 337.403ZM282.719 338.712C282.004 338.712 281.41 338.975 280.931 339.501C280.452 340.027 280.216 340.702 280.216 341.532C280.216 342.307 280.459 342.982 280.945 343.548C281.43 344.115 282.011 344.398 282.692 344.398C283.373 344.398 284 344.122 284.486 343.575C284.972 343.022 285.215 342.355 285.215 341.559C285.215 340.763 284.979 340.075 284.513 339.528C284.041 338.989 283.447 338.712 282.719 338.712ZM282.719 331.96C282.166 331.96 281.7 332.162 281.309 332.567C280.918 332.972 280.729 333.484 280.729 334.098C280.729 334.665 280.925 335.157 281.309 335.582C281.7 336 282.166 336.216 282.719 336.216C283.272 336.216 283.764 336.014 284.149 335.609C284.54 335.204 284.729 334.692 284.729 334.078C284.729 333.464 284.533 332.978 284.149 332.574C283.758 332.169 283.285 331.967 282.719 331.967V331.96Z" fill="white"/>
<path d="M303.677 332.446H297.026C296.587 332.446 296.223 332.311 295.933 332.035C295.643 331.765 295.495 331.407 295.495 330.976C295.495 330.578 295.643 330.234 295.947 329.95C296.243 329.667 296.608 329.532 297.026 329.532H306.011C306.429 329.532 306.786 329.681 307.076 329.971C307.366 330.261 307.515 330.618 307.515 331.043C307.515 331.273 307.447 331.515 307.319 331.772L300.446 346.355C300.156 346.955 299.596 347.259 298.773 347.259C298.402 347.259 298.071 347.084 297.775 346.733C297.485 346.382 297.336 345.971 297.336 345.505C297.336 345.377 297.37 345.229 297.431 345.067L303.67 332.446H303.677Z" fill="white"/>
<path d="M320.021 340.513C319.292 340.769 318.712 340.904 318.274 340.904C316.817 340.904 315.616 340.385 314.665 339.333C313.721 338.287 313.242 336.965 313.242 335.38C313.242 333.613 313.795 332.149 314.894 331.002C315.994 329.849 317.397 329.275 319.097 329.275C320.796 329.275 322.22 329.849 323.319 331.002C324.419 332.149 324.972 333.633 324.972 335.447C324.972 336.614 324.702 337.882 324.156 339.258C323.609 340.635 322.854 342.004 321.882 343.36C321.073 344.493 320.102 345.626 318.968 346.759C318.517 347.211 318.071 347.441 317.633 347.441C317.194 347.441 316.803 347.292 316.506 346.995C316.21 346.699 316.054 346.328 316.054 345.896L316.102 345.484C316.196 345.289 316.351 345.073 316.56 344.83C316.655 344.736 316.979 344.398 317.532 343.812C317.984 343.346 318.395 342.861 318.759 342.375C319.124 341.889 319.542 341.269 320.007 340.527L320.021 340.513ZM319.144 332.351C318.382 332.351 317.768 332.628 317.296 333.181C316.823 333.734 316.594 334.449 316.594 335.326C316.594 336.203 316.83 336.877 317.296 337.451C317.768 338.017 318.361 338.301 319.09 338.301C319.818 338.301 320.419 338.038 320.898 337.511C321.377 336.985 321.613 336.297 321.613 335.454C321.613 334.53 321.383 333.781 320.931 333.208C320.479 332.641 319.879 332.351 319.137 332.351H319.144Z" fill="white"/>
</g>
<defs>
<linearGradient id="paint0_linear_2003_9895" x1="235.205" y1="89.1074" x2="235.205" y2="348.844" gradientUnits="userSpaceOnUse">
<stop stop-color="#F37171"/>
<stop offset="1" stop-color="#ED0000"/>
</linearGradient>
<clipPath id="clip0_2003_9895">
<rect width="346.252" height="346.252" fill="white" transform="translate(76.5337 76.5342)"/>
</clipPath>
</defs>
</svg>
