<svg width="500" height="500" viewBox="0 0 500 500" fill="none" xmlns="http://www.w3.org/2000/svg">
<rect width="500" height="500" fill="white"/>
<g clip-path="url(#clip0_2003_9993)">
<path d="M137.768 286.729C140.877 289.849 142.655 293.777 143.114 297.835C139.055 297.388 135.117 295.61 132.008 292.489C130.993 291.475 130.109 290.362 129.378 289.195C128.855 290.133 128.189 291.017 127.382 291.824C123.782 295.424 118.479 296.308 114.05 294.453C115.588 293.864 117.028 292.948 118.272 291.704C120.421 289.555 121.6 286.805 121.807 283.991C121.872 283.162 121.851 282.322 121.741 281.492C121.414 278.907 120.247 276.419 118.272 274.434C117.596 273.768 116.876 273.19 116.101 272.71C115.534 272.35 114.934 272.045 114.312 271.783C112.915 271.204 111.421 270.888 109.915 270.855C108.486 270.888 107.079 271.172 105.737 271.695C104.94 272.001 104.166 272.405 103.435 272.896C102.769 273.343 102.147 273.845 101.569 274.434C99.6164 276.376 98.4599 278.83 98.0999 281.361C98.0017 282.071 97.969 282.78 98.0017 283.489C98.0999 286.467 99.2782 289.424 101.569 291.704C102.649 292.795 103.904 293.635 105.235 294.224C100.849 295.948 95.6779 295.042 92.1322 291.497C91.8268 291.202 91.554 290.886 91.2922 290.569C91.2704 290.537 91.2376 290.515 91.2267 290.482C90.9322 290.133 90.6703 289.762 90.4412 289.38C90.3758 289.293 90.3212 289.195 90.2667 289.097C89.5357 290.242 88.6738 291.333 87.6701 292.337C84.5608 295.446 80.6224 297.224 76.564 297.683C77.0222 293.624 78.8005 289.686 81.9098 286.576C82.9244 285.562 84.0372 284.678 85.2045 283.947C84.2663 283.423 83.3826 282.758 82.5862 281.951C78.9859 278.35 78.1022 273.048 79.946 268.619C80.5351 270.157 81.4516 271.597 82.6953 272.841C84.8445 274.99 87.6047 276.168 90.4085 276.376C91.2485 276.441 92.0886 276.419 92.9177 276.31C95.4925 275.983 97.9908 274.816 99.9764 272.841C100.642 272.165 101.22 271.445 101.689 270.67C102.049 270.103 102.366 269.503 102.617 268.881C103.206 267.484 103.511 265.99 103.544 264.484C103.522 263.055 103.238 261.648 102.704 260.306C102.398 259.498 101.995 258.724 101.504 258.004C101.067 257.338 100.555 256.705 99.9764 256.127C98.0235 254.185 95.5797 253.018 93.0487 252.669C92.3395 252.571 91.6304 252.527 90.9213 252.56C87.9429 252.658 84.9754 253.847 82.6953 256.127C81.6043 257.218 80.7642 258.462 80.1751 259.793C78.4514 255.418 79.3678 250.236 82.9026 246.69C83.208 246.396 83.5135 246.112 83.8299 245.85C83.8626 245.828 83.8953 245.806 83.9172 245.785C84.2772 245.501 84.6481 245.239 85.03 244.999C85.1172 244.945 85.2154 244.879 85.3027 244.825C84.1572 244.105 83.0771 243.232 82.0734 242.239C78.9532 239.119 77.1749 235.191 76.7276 231.133C80.7861 231.58 84.7136 233.358 87.8338 236.479C88.8484 237.493 89.7321 238.606 90.463 239.773C90.9867 238.835 91.6522 237.951 92.4486 237.144C96.0598 233.544 101.351 232.66 105.78 234.504C104.242 235.104 102.813 236.02 101.569 237.253C99.42 239.413 98.2417 242.163 98.0344 244.977C97.9581 245.806 97.9799 246.647 98.089 247.476C98.4272 250.061 99.5836 252.549 101.569 254.534C102.235 255.2 102.966 255.778 103.729 256.258C104.308 256.618 104.897 256.924 105.519 257.185C106.926 257.764 108.41 258.08 109.915 258.113H109.926C111.344 258.08 112.752 257.796 114.094 257.273C114.901 256.967 115.676 256.564 116.396 256.073C117.061 255.625 117.683 255.123 118.272 254.534C120.214 252.592 121.37 250.138 121.731 247.607C121.829 246.897 121.861 246.188 121.84 245.479C121.741 242.501 120.552 239.544 118.272 237.264C117.181 236.173 115.937 235.333 114.606 234.744C118.981 233.02 124.163 233.926 127.709 237.471C128.004 237.766 128.287 238.082 128.549 238.399C128.571 238.431 128.593 238.453 128.604 238.486C128.898 238.835 129.16 239.206 129.4 239.588C129.455 239.675 129.52 239.773 129.575 239.872C130.295 238.726 131.157 237.635 132.16 236.631C135.28 233.522 139.208 231.744 143.266 231.286C142.819 235.344 141.041 239.282 137.921 242.392C136.906 243.406 135.793 244.29 134.626 245.021C135.564 245.545 136.448 246.21 137.244 247.017C140.855 250.618 141.739 255.92 139.884 260.349C139.295 258.811 138.379 257.371 137.135 256.127C134.986 253.978 132.237 252.8 129.422 252.592C128.593 252.527 127.753 252.549 126.924 252.658C124.338 252.985 121.84 254.152 119.865 256.127C119.189 256.804 118.621 257.524 118.141 258.298C117.781 258.866 117.476 259.466 117.214 260.076C116.636 261.484 116.319 262.978 116.287 264.484C116.319 265.902 116.592 267.321 117.127 268.662C117.432 269.47 117.836 270.244 118.327 270.964C118.763 271.63 119.276 272.263 119.865 272.841C121.807 274.783 124.262 275.939 126.793 276.299C127.502 276.398 128.211 276.441 128.92 276.408C131.898 276.31 134.855 275.121 137.135 272.841C138.226 271.75 139.066 270.506 139.655 269.175C141.379 273.55 140.474 278.732 136.928 282.278C136.633 282.572 136.317 282.856 136.001 283.118C135.968 283.14 135.946 283.162 135.913 283.183C135.564 283.467 135.193 283.729 134.811 283.969C134.724 284.023 134.626 284.089 134.528 284.143C135.673 284.864 136.764 285.736 137.768 286.729Z" fill="#878D8D"/>
<path d="M208.965 236.686C208.201 235.922 207.307 235.322 206.292 234.896C205.278 234.471 204.208 234.253 203.074 234.253C201.939 234.253 200.804 234.471 199.79 234.896C198.775 235.322 197.892 235.922 197.15 236.686C196.408 237.449 195.819 238.333 195.393 239.348C194.968 240.362 194.75 241.431 194.75 242.544V266.938C194.75 269 194.433 270.899 193.811 272.633C193.179 274.368 192.306 275.863 191.193 277.117C190.069 278.372 188.738 279.365 187.189 280.085C185.64 280.805 183.927 281.165 182.051 281.165C180.174 281.165 178.472 280.783 176.978 280.019C175.472 279.256 174.196 278.197 173.148 276.855C172.09 275.503 171.304 273.921 170.759 272.11C170.224 270.288 169.952 268.324 169.952 266.218V242.293C169.952 241.169 169.733 240.1 169.308 239.097C168.882 238.082 168.282 237.22 167.519 236.5C166.755 235.78 165.86 235.213 164.846 234.787C163.831 234.362 162.762 234.144 161.627 234.144C160.493 234.144 159.358 234.362 158.344 234.787C157.329 235.213 156.445 235.791 155.703 236.5C154.962 237.22 154.362 238.082 153.914 239.097C153.467 240.111 153.238 241.18 153.238 242.293V266.349C153.238 270.702 153.892 274.793 155.191 278.612C156.489 282.43 158.322 285.758 160.678 288.583C163.035 291.409 165.871 293.646 169.166 295.293C172.472 296.929 176.094 297.748 180.054 297.748C182.749 297.748 185.356 297.235 187.865 296.198C190.386 295.162 192.764 293.733 195.011 291.889C195.502 293.591 196.462 295.009 197.892 296.133C199.31 297.257 200.99 297.813 202.932 297.813C204.11 297.813 205.212 297.606 206.248 297.169C207.285 296.744 208.19 296.144 208.954 295.38C209.718 294.617 210.329 293.744 210.776 292.751C211.223 291.758 211.452 290.689 211.452 289.522V242.555C211.452 241.431 211.223 240.362 210.776 239.358C210.329 238.344 209.718 237.46 208.954 236.696L208.965 236.686Z" fill="#A8353A"/>
<path d="M278.351 243.635C275.449 240.711 272.056 238.409 268.172 236.729C264.288 235.049 260.121 234.198 255.67 234.198C252.702 234.198 249.855 234.591 247.116 235.376C244.378 236.162 241.792 237.275 239.37 238.715C238.65 237.362 237.625 236.282 236.305 235.442C234.985 234.613 233.512 234.198 231.886 234.198C230.719 234.198 229.628 234.416 228.613 234.842C227.599 235.267 226.715 235.857 225.951 236.598C225.188 237.34 224.588 238.202 224.162 239.195C223.737 240.188 223.519 241.257 223.519 242.424V312.236C223.519 313.403 223.737 314.483 224.162 315.465C224.588 316.458 225.188 317.32 225.951 318.062C226.715 318.804 227.599 319.382 228.613 319.818C229.628 320.244 230.708 320.462 231.886 320.462C233.065 320.462 234.09 320.244 235.116 319.818C236.152 319.393 237.036 318.804 237.778 318.062C238.52 317.32 239.109 316.458 239.567 315.465C240.014 314.472 240.243 313.403 240.243 312.236V294.442C242.534 295.74 244.967 296.733 247.553 297.41C250.138 298.086 252.844 298.424 255.67 298.424C260.121 298.424 264.288 297.584 268.172 295.893C272.056 294.213 275.449 291.922 278.351 289.02C281.253 286.118 283.544 282.714 285.224 278.808C286.904 274.903 287.755 270.746 287.755 266.338C287.755 261.931 286.915 257.72 285.224 253.836C283.544 249.952 281.253 246.548 278.351 243.624V243.635ZM269.82 272.306C269.012 274.172 267.921 275.797 266.547 277.194C265.172 278.59 263.557 279.681 261.692 280.467C259.826 281.252 257.819 281.645 255.659 281.645C253.499 281.645 251.557 281.252 249.691 280.467C247.826 279.681 246.2 278.59 244.804 277.194C243.407 275.797 242.305 274.172 241.498 272.306C240.691 270.441 240.287 268.455 240.287 266.338C240.287 264.222 240.691 262.182 241.498 260.338C242.305 258.494 243.407 256.88 244.804 255.483C246.2 254.087 247.826 253.007 249.691 252.21C251.557 251.425 253.542 251.032 255.659 251.032C257.775 251.032 259.826 251.425 261.692 252.21C263.557 252.996 265.172 254.087 266.547 255.483C267.921 256.88 269.001 258.494 269.82 260.338C270.627 262.182 271.031 264.178 271.031 266.338C271.031 268.499 270.627 270.441 269.82 272.306Z" fill="#A8353A"/>
<path d="M420.156 277.052C418.804 275.885 417.516 275.165 416.283 274.892C415.051 274.62 413.872 274.609 412.749 274.86C411.625 275.111 410.578 275.547 409.618 276.169C408.647 276.802 407.741 277.445 406.89 278.122C405.003 279.562 403.203 280.489 401.501 280.915C399.788 281.34 397.999 281.515 396.111 281.416C394.093 281.373 392.216 280.893 390.482 279.965C388.747 279.049 387.252 277.882 385.998 276.463C384.743 275.045 383.75 273.452 383.03 271.674C382.31 269.896 381.95 268.117 381.95 266.317C381.95 264.517 382.31 262.652 383.03 260.862C383.75 259.062 384.732 257.448 385.998 256.007C387.252 254.567 388.747 253.4 390.482 252.505C392.206 251.611 394.082 251.109 396.111 251.022C397.999 250.978 399.81 251.164 401.533 251.589C403.257 252.014 405.046 252.931 406.89 254.316C407.741 254.993 408.657 255.647 409.618 256.269C410.578 256.902 411.625 257.349 412.749 257.622C413.872 257.895 415.051 257.895 416.283 257.622C417.516 257.349 418.815 256.629 420.156 255.462C421.051 254.655 421.727 253.738 422.175 252.702C422.622 251.665 422.829 250.574 422.786 249.429C422.742 248.283 422.469 247.127 421.978 245.96C421.487 244.792 420.746 243.712 419.753 242.73C416.927 239.905 413.6 237.744 409.781 236.261C405.963 234.777 401.915 234.035 397.65 234.035C393.111 234.035 388.856 234.875 384.885 236.566C380.914 238.257 377.445 240.548 374.477 243.472C371.51 246.396 369.164 249.833 367.44 253.782C365.706 257.731 364.844 261.964 364.844 266.448C364.844 270.932 365.706 275.198 367.44 279.082C369.164 282.966 371.521 286.337 374.477 289.184C377.445 292.043 380.914 294.279 384.885 295.926C388.856 297.563 393.111 298.381 397.65 298.381C401.872 298.381 405.908 297.639 409.748 296.156C413.589 294.672 416.927 292.512 419.753 289.686C420.746 288.693 421.476 287.635 421.978 286.489C422.469 285.344 422.731 284.198 422.753 283.053C422.775 281.907 422.567 280.816 422.142 279.78C421.717 278.743 421.051 277.827 420.156 277.02V277.052Z" fill="#A8353A"/>
<path d="M373.637 210.688C376.419 206.75 375.492 201.306 371.553 198.524L356.411 187.81V156.979C356.411 155.812 356.192 154.732 355.767 153.75C355.341 152.757 354.741 151.895 353.978 151.153C353.214 150.411 352.33 149.833 351.316 149.397C350.301 148.971 349.21 148.753 348.043 148.753C346.875 148.753 345.784 148.971 344.77 149.397C343.755 149.822 342.871 150.411 342.108 151.153C341.344 151.895 340.744 152.757 340.319 153.75C339.893 154.743 339.675 155.812 339.675 156.979V175.984L291.694 142L209.652 199.102C205.692 201.851 204.721 207.295 207.47 211.255C209.172 213.688 211.878 214.997 214.638 214.997C216.362 214.997 218.096 214.485 219.613 213.437L291.595 163.34L339.675 197.378V238.126C337.384 236.872 334.951 235.901 332.365 235.224C329.78 234.548 327.096 234.21 324.314 234.21C319.906 234.21 315.772 235.05 311.877 236.741C307.993 238.421 304.589 240.723 301.665 243.647C298.741 246.57 296.429 249.974 294.727 253.858C293.014 257.742 292.163 261.91 292.163 266.361C292.163 270.812 293.014 274.914 294.727 278.831C296.429 282.736 298.741 286.14 301.665 289.042C304.589 291.944 307.993 294.235 311.877 295.915C315.761 297.595 319.906 298.446 324.314 298.446C327.369 298.446 330.292 298.043 333.074 297.235C335.856 296.428 338.464 295.283 340.886 293.799C341.606 294.966 342.577 295.915 343.821 296.624C345.053 297.345 346.461 297.705 348.032 297.705C349.199 297.705 350.29 297.497 351.305 297.061C352.319 296.635 353.203 296.046 353.967 295.304C354.73 294.563 355.33 293.701 355.756 292.708C356.181 291.726 356.4 290.646 356.4 289.479V209.193L361.462 212.772C365.4 215.554 370.844 214.626 373.626 210.688H373.637ZM339.697 266.339C339.697 268.455 339.293 270.441 338.486 272.307C337.678 274.172 336.587 275.798 335.213 277.194C333.838 278.591 332.224 279.682 330.358 280.467C328.492 281.253 326.485 281.645 324.325 281.645C322.165 281.645 320.223 281.253 318.357 280.467C316.492 279.682 314.866 278.591 313.47 277.194C312.073 275.798 310.971 274.172 310.164 272.307C309.357 270.441 308.953 268.455 308.953 266.339C308.953 264.222 309.357 262.182 310.164 260.339C310.971 258.495 312.073 256.88 313.47 255.484C314.866 254.087 316.492 253.007 318.357 252.211C320.223 251.425 322.208 251.032 324.325 251.032C326.441 251.032 328.34 251.414 330.183 252.178C332.027 252.942 333.631 253.978 335.006 255.276C336.38 256.575 337.471 258.135 338.311 259.924C339.14 261.724 339.599 263.655 339.697 265.717V266.328V266.339Z" fill="#A8353A"/>
</g>
<defs>
<clipPath id="clip0_2003_9993">
<rect width="346.222" height="178.451" fill="white" transform="translate(76.564 142)"/>
</clipPath>
</defs>
</svg>
