<svg width="500" height="500" viewBox="0 0 500 500" fill="none" xmlns="http://www.w3.org/2000/svg">
<rect width="500" height="500" fill="white"/>
<g clip-path="url(#clip0_2003_10567)">
<path d="M139.502 168.697H181.653L141.815 309.506H169.608L163.592 332.193H89.9453L139.502 168.697Z" fill="#00935B"/>
<path d="M206.32 258.534H197.61L201.965 248.421L206.32 258.534Z" fill="#FEFEFE"/>
<path d="M237.189 244.102V250.574H253.761V259.752H237.189V275.992H226.399V234.986H254.844V244.102H237.189Z" fill="black"/>
<path d="M223.938 273.925L206.05 234.986H197.659L179.967 273.495V266.654H162.755V234.986H151.854V275.992H190.056L193.734 267.441H210.147L213.825 275.992H224.886L223.938 273.925ZM197.61 258.534L201.965 248.421L206.32 258.534H197.61Z" fill="black"/>
<path d="M278.38 258.534H269.657L274.012 248.421L278.38 258.534Z" fill="#FEFEFE"/>
<path d="M336.303 275.094L331 261.462C330.582 260.355 330.053 259.358 329.438 258.485C330.176 257.833 330.84 257.107 331.419 256.32C333.252 253.834 334.174 250.882 334.174 247.523C334.174 242.762 332.563 238.997 329.401 236.315C326.411 233.805 322.191 232.525 316.839 232.525H295.986V268.02L280.348 233.953L279.684 232.525H268.131L267.479 233.953L256.222 258.46V248.113H239.65V246.563H257.305V232.525H223.939V268.02L208.289 233.953L207.637 232.525H196.084L195.42 233.953L181.53 264.194H165.216V232.525H149.394V278.453H191.668L192.307 276.964L195.358 269.902H208.523L211.562 276.964L212.201 278.453H239.65V262.213H254.5L248.643 274.959L247.044 278.453H263.727L264.367 276.964L267.405 269.902H280.57L283.621 276.964L284.261 278.453H311.709V262.914H313.481C314.231 262.914 314.649 263.025 314.834 263.099C314.859 263.136 314.883 263.185 314.92 263.271L320.137 276.866L320.739 278.453H337.607L336.303 275.094ZM213.825 275.992L210.147 267.442H193.734L190.056 275.992H151.855V234.986H162.755V266.654H179.967V273.495L197.659 234.986H206.05L223.939 273.925L224.886 275.992H213.825ZM253.761 259.752H237.189V275.992H226.399V234.986H254.844V244.103H237.189V250.574H253.761V259.752ZM285.872 275.992L282.194 267.442H265.781L262.103 275.992H250.882L269.706 234.986H278.109L295.986 273.901L296.945 275.992H285.872ZM322.437 275.992L317.208 262.373C316.925 261.659 316.532 261.179 316.003 260.921C315.363 260.613 314.514 260.453 313.481 260.453H309.248V275.992H298.446V234.986H316.839C321.588 234.986 325.279 236.069 327.814 238.197C330.397 240.387 331.714 243.524 331.714 247.523C331.714 250.353 330.951 252.813 329.438 254.868C328.466 256.184 327.211 257.279 325.698 258.116C326.989 259.063 327.998 260.478 328.712 262.36L334.015 275.992H322.437Z" fill="#FEFEFE"/>
<path d="M321.343 247.744C321.343 249.073 320.961 249.996 320.174 250.561C319.276 251.214 317.738 251.546 315.597 251.546H309.138V243.942H315.597C317.701 243.942 319.288 244.275 320.174 244.927C320.961 245.493 321.343 246.415 321.343 247.744Z" fill="#FEFEFE"/>
<path d="M328.712 262.36C327.999 260.478 326.99 259.063 325.698 258.116C327.211 257.279 328.466 256.184 329.438 254.868C330.952 252.813 331.714 250.352 331.714 247.523C331.714 243.524 330.398 240.387 327.814 238.197C325.28 236.069 321.589 234.986 316.84 234.986H298.447V275.992H309.249V260.453H313.481C314.515 260.453 315.364 260.613 316.003 260.921C316.532 261.179 316.926 261.659 317.209 262.373L322.438 275.992H334.015L328.712 262.36ZM320.174 250.562C319.276 251.214 317.738 251.546 315.597 251.546H309.138V243.943H315.597C317.701 243.943 319.288 244.275 320.174 244.927C320.961 245.493 321.343 246.415 321.343 247.744C321.343 249.073 320.961 249.996 320.174 250.562Z" fill="black"/>
<path d="M295.986 273.901L278.11 234.986H269.707L250.883 275.992H262.103L265.782 267.441H282.194L285.873 275.992H296.946L295.986 273.901ZM269.657 258.534L274.013 248.421L278.38 258.534H269.657Z" fill="black"/>
<path d="M370.887 249.787L371.244 248.999L374.935 240.732L375.673 239.083L374.307 237.889L373.631 237.287C371.699 235.589 369.263 234.26 366.372 233.337C363.628 232.476 360.639 232.033 357.501 232.033C352.961 232.033 348.889 232.993 345.42 234.9C341.852 236.844 339.059 239.649 337.115 243.229C335.22 246.711 334.261 250.82 334.261 255.434C334.261 260.047 335.22 264.317 337.115 267.798C339.071 271.403 341.901 274.196 345.53 276.128C349.049 277.985 353.208 278.933 357.87 278.933C360.737 278.933 363.579 278.662 366.323 278.108C369.115 277.542 371.625 276.73 373.766 275.697L374.467 275.365L375.858 274.7V249.787H370.887ZM373.397 273.15L372.696 273.482C370.739 274.43 368.439 275.168 365.831 275.697C363.247 276.214 360.577 276.472 357.87 276.472C353.614 276.472 349.849 275.623 346.687 273.95C343.488 272.252 340.991 269.791 339.28 266.63C337.583 263.505 336.721 259.74 336.721 255.434C336.721 251.128 337.583 247.523 339.28 244.398C340.991 241.236 343.451 238.775 346.588 237.053C349.701 235.355 353.367 234.494 357.501 234.494C360.38 234.494 363.124 234.9 365.634 235.687C368.193 236.499 370.333 237.656 372.007 239.132L372.683 239.735L368.992 248.003L367.762 247.117C366.064 245.899 364.416 245.001 362.841 244.472C361.278 243.943 359.556 243.672 357.71 243.672C350.944 243.672 347.794 247.412 347.794 255.434C347.794 263.455 351.104 267.466 358.203 267.466C359.9 267.466 361.635 267.282 363.358 266.913V260.613H355.779V252.247H373.397V273.15ZM360.897 263.074V264.833C359.987 264.944 359.088 265.006 358.203 265.006C351.608 265.006 350.255 261.179 350.255 255.434C350.255 247.707 353.232 246.133 357.71 246.133C359.285 246.133 360.737 246.354 362.041 246.797C363.382 247.252 364.822 248.04 366.335 249.122L367.27 249.787H353.318V263.074H360.897Z" fill="#FEFEFE"/>
<path d="M373.397 252.248V273.151L372.696 273.483C370.74 274.43 368.439 275.168 365.831 275.697C363.247 276.214 360.577 276.472 357.871 276.472C353.614 276.472 349.849 275.623 346.687 273.95C343.488 272.252 340.991 269.792 339.281 266.63C337.583 263.505 336.722 259.74 336.722 255.434C336.722 251.128 337.583 247.523 339.281 244.398C340.991 241.236 343.451 238.776 346.589 237.053C349.701 235.355 353.368 234.494 357.502 234.494C360.381 234.494 363.124 234.9 365.634 235.688C368.193 236.5 370.334 237.656 372.007 239.132L372.684 239.735L368.993 248.003L367.762 247.117C366.065 245.899 364.416 245.001 362.841 244.472C361.279 243.943 359.556 243.672 357.711 243.672C350.944 243.672 347.794 247.412 347.794 255.434C347.794 263.456 351.104 267.466 358.203 267.466C359.901 267.466 361.635 267.282 363.358 266.913V260.614H355.779V252.248H373.397Z" fill="black"/>
<path d="M390.227 243.992V250.623H407.451V259.69H390.227V266.974H408.583V275.992H379.548V234.986H408.583V243.992H390.227Z" fill="black"/>
<path d="M377.087 232.525V278.453H411.044V264.513H392.688V262.151H409.912V248.163H392.688V246.453H411.044V232.525H377.087ZM408.583 243.992H390.227V250.623H407.451V259.691H390.227V266.974H408.583V275.992H379.548V234.986H408.583V243.992Z" fill="#FEFEFE"/>
</g>
<defs>
<clipPath id="clip0_2003_10567">
<rect width="321.099" height="163.496" fill="white" transform="translate(89.9453 168.697)"/>
</clipPath>
</defs>
</svg>
