<svg width="500" height="500" viewBox="0 0 500 500" fill="none" xmlns="http://www.w3.org/2000/svg">
<rect width="500" height="500" fill="white"/>
<g clip-path="url(#clip0_2003_11358)">
<path d="M114.795 234.1L118.205 243.23H127.765L110.815 199.75H102.495L85.4751 243.23H94.6651L98.1051 234.1H114.785H114.795ZM103.425 220C103.755 219.05 104.105 218.07 104.485 217.08C104.855 216.09 105.205 215.06 105.545 214.01C105.875 212.96 106.195 211.94 106.505 210.93C106.815 211.91 107.135 212.92 107.475 213.98C107.845 215.14 108.205 216.24 108.565 217.27C108.915 218.31 109.215 219.15 109.465 219.82L111.995 226.59H100.955L103.435 220.01L103.425 220Z" fill="black"/>
<path d="M141.495 197.27H132.675V243.23H141.495V197.27Z" fill="black"/>
<path d="M171.555 230.06C171.555 230.97 171.385 231.82 171.055 232.61C170.725 233.4 170.265 234.08 169.685 234.66C169.105 235.24 168.405 235.68 167.575 235.99C166.745 236.3 165.855 236.46 164.905 236.46C163.575 236.46 162.465 236.17 161.555 235.59C160.645 235.01 159.935 234.17 159.445 233.07C158.945 231.97 158.695 230.68 158.695 229.19V210.37H149.875V230.62C149.875 233.39 150.345 235.77 151.275 237.73C152.205 239.7 153.535 241.21 155.255 242.26C156.975 243.32 159.035 243.84 161.435 243.84C163.295 243.84 165.035 243.49 166.655 242.78C168.275 242.07 169.655 241.1 170.815 239.86C171.175 239.47 171.495 239.07 171.785 238.66L171.995 243.22H180.375V210.37H171.555V230.06Z" fill="black"/>
<path d="M210.065 243.23H218.885V223.6C218.885 222.69 219.055 221.86 219.385 221.12C219.715 220.37 220.185 219.72 220.785 219.16C221.385 218.6 222.085 218.17 222.895 217.86C223.705 217.55 224.585 217.39 225.535 217.39C226.775 217.39 227.795 217.63 228.575 218.1C229.365 218.58 229.965 219.29 230.375 220.24C230.785 221.19 230.995 222.41 230.995 223.9V243.22H239.815V223.28C239.815 220.34 239.385 217.86 238.545 215.83C237.695 213.8 236.425 212.28 234.725 211.27C233.025 210.26 230.895 209.75 228.325 209.75C227.245 209.75 226.155 209.92 225.035 210.25C223.915 210.58 222.845 211.05 221.805 211.65C220.765 212.25 219.835 212.95 219.015 213.76C218.345 214.41 217.795 215.15 217.315 215.92C216.855 214.81 216.315 213.85 215.665 213.07C214.715 211.93 213.555 211.09 212.185 210.55C210.815 210.01 209.285 209.74 207.585 209.74C206.465 209.74 205.345 209.92 204.235 210.27C203.115 210.62 202.055 211.11 201.035 211.73C200.015 212.35 199.145 213.1 198.395 213.97C198.195 214.21 198.025 214.47 197.845 214.73L197.715 210.37H189.205V243.23H198.025V223.54C198.025 222.67 198.205 221.86 198.555 221.12C198.905 220.37 199.375 219.72 199.955 219.16C200.535 218.6 201.225 218.17 202.035 217.86C202.845 217.55 203.725 217.39 204.675 217.39C205.835 217.39 206.805 217.64 207.595 218.14C208.385 218.64 208.995 219.37 209.425 220.34C209.855 221.31 210.075 222.48 210.075 223.85V243.23H210.065Z" fill="black"/>
<path d="M253.295 203.6C254.955 203.6 256.265 203.17 257.235 202.3C258.205 201.43 258.695 200.27 258.695 198.82C258.695 197.37 258.215 196.16 257.265 195.31C256.315 194.46 254.985 194.04 253.295 194.04C251.605 194.04 250.325 194.49 249.355 195.38C248.385 196.27 247.895 197.42 247.895 198.83C247.895 200.36 248.365 201.54 249.325 202.37C250.275 203.2 251.605 203.61 253.305 203.61L253.295 203.6Z" fill="black"/>
<path d="M257.765 210.37H248.945V243.23H257.765V210.37Z" fill="black"/>
<path d="M276.025 223.48C276.025 222.61 276.195 221.8 276.555 221.06C276.905 220.31 277.385 219.65 277.985 219.07C278.585 218.49 279.305 218.05 280.155 217.73C281.005 217.42 281.925 217.26 282.915 217.26C284.155 217.18 285.205 217.37 286.055 217.85C286.905 218.33 287.535 219.06 287.945 220.06C288.355 221.05 288.565 222.3 288.565 223.79V243.23H297.385V223.11C297.385 220.17 296.965 217.7 296.115 215.69C295.265 213.68 294.005 212.18 292.325 211.19C290.645 210.2 288.565 209.7 286.085 209.7C284.265 209.7 282.525 210.07 280.865 210.82C279.205 211.57 277.795 212.55 276.615 213.77C276.325 214.07 276.055 214.38 275.815 214.7L275.655 210.39H267.205V243.25H276.025V223.5V223.48Z" fill="black"/>
<path d="M310.925 203.6C312.585 203.6 313.895 203.17 314.865 202.3C315.835 201.43 316.325 200.27 316.325 198.82C316.325 197.37 315.845 196.16 314.895 195.31C313.945 194.46 312.615 194.04 310.925 194.04C309.235 194.04 307.955 194.49 306.985 195.38C306.015 196.27 305.525 197.42 305.525 198.83C305.525 200.36 305.995 201.54 306.955 202.37C307.905 203.2 309.235 203.61 310.935 203.61L310.925 203.6Z" fill="black"/>
<path d="M315.395 210.37H306.575V243.23H315.395V210.37Z" fill="black"/>
<path d="M329.965 242.27C331.685 243.33 333.745 243.85 336.145 243.85C338.005 243.85 339.745 243.5 341.365 242.79C342.985 242.08 344.365 241.11 345.525 239.87C345.885 239.49 346.205 239.08 346.495 238.67L346.705 243.23H355.085V210.37H346.265V230.06C346.265 230.97 346.095 231.82 345.765 232.61C345.435 233.4 344.975 234.08 344.395 234.66C343.815 235.24 343.115 235.68 342.285 235.99C341.455 236.3 340.565 236.46 339.615 236.46C338.285 236.46 337.175 236.17 336.265 235.59C335.355 235.01 334.645 234.17 334.155 233.07C333.655 231.97 333.405 230.68 333.405 229.19V210.37H324.585V230.62C324.585 233.39 325.055 235.77 325.985 237.73C326.915 239.7 328.245 241.21 329.955 242.26L329.965 242.27Z" fill="black"/>
<path d="M413.255 215.84C412.405 213.81 411.135 212.29 409.435 211.28C407.735 210.27 405.605 209.76 403.035 209.76C401.955 209.76 400.865 209.93 399.745 210.26C398.625 210.59 397.545 211.06 396.515 211.66C395.475 212.26 394.545 212.96 393.725 213.77C393.055 214.42 392.505 215.16 392.025 215.93C391.565 214.82 391.025 213.86 390.375 213.08C389.425 211.94 388.265 211.1 386.895 210.56C385.525 210.02 383.995 209.75 382.295 209.75C381.175 209.75 380.055 209.93 378.945 210.28C377.825 210.63 376.765 211.12 375.745 211.74C374.725 212.36 373.855 213.11 373.105 213.98C372.905 214.22 372.735 214.48 372.555 214.74L372.425 210.38H363.915V243.24H372.735V223.55C372.735 222.68 372.915 221.87 373.265 221.13C373.615 220.38 374.085 219.73 374.665 219.17C375.245 218.61 375.935 218.18 376.745 217.87C377.555 217.56 378.435 217.4 379.385 217.4C380.545 217.4 381.515 217.65 382.305 218.15C383.095 218.65 383.705 219.38 384.135 220.35C384.575 221.32 384.785 222.49 384.785 223.86V243.24H393.605V223.61C393.605 222.7 393.775 221.87 394.105 221.13C394.435 220.38 394.905 219.73 395.505 219.17C396.105 218.61 396.805 218.18 397.615 217.87C398.425 217.56 399.305 217.4 400.255 217.4C401.495 217.4 402.515 217.64 403.295 218.11C404.085 218.59 404.685 219.3 405.095 220.25C405.505 221.2 405.715 222.42 405.715 223.91V243.23H414.535V223.29C414.535 220.35 414.115 217.87 413.265 215.84H413.255Z" fill="black"/>
<path d="M119.295 287.14H136.625V279.19H119.295V270.06H139.605V261.86H110.225V305.34H140.035V297.14H119.295V287.14Z" fill="black"/>
<path d="M178.915 272.48H168.545L162.915 282.35L155.935 272.48H145.255L157.335 288.62L145.135 305.34H155.505L161.935 295.01L169.165 305.34H179.725L167.545 288.71L178.915 272.48Z" fill="black"/>
<path d="M197.175 264.16H188.355V272.48H182.205V280.37H188.355V305.34H197.175V280.37H203.885V272.48H197.175V264.16Z" fill="black"/>
<path d="M228.105 271.8C226.445 271.8 224.865 272.19 223.355 272.98C221.845 273.77 220.525 274.85 219.415 276.24C219.005 276.75 218.655 277.28 218.335 277.83L218.175 272.48H209.665V305.34H218.545V288.32C218.545 287.28 218.725 286.33 219.075 285.46C219.425 284.59 219.915 283.84 220.535 283.19C221.155 282.54 221.895 282.05 222.735 281.7C223.585 281.35 224.505 281.17 225.495 281.17C226.245 281.17 226.965 281.26 227.665 281.45C228.365 281.64 228.965 281.85 229.465 282.1L231.825 272.41C231.365 272.25 230.805 272.1 230.145 271.98C229.485 271.86 228.795 271.79 228.095 271.79L228.105 271.8Z" fill="black"/>
<path d="M258.295 292.17C258.295 293.08 258.125 293.93 257.795 294.72C257.465 295.51 257.005 296.19 256.425 296.77C255.845 297.35 255.145 297.8 254.315 298.11C253.485 298.42 252.595 298.57 251.645 298.57C250.325 298.57 249.205 298.28 248.295 297.7C247.385 297.12 246.675 296.28 246.185 295.18C245.685 294.08 245.435 292.79 245.435 291.3V272.48H236.615V292.73C236.615 295.5 237.085 297.87 238.015 299.84C238.945 301.81 240.275 303.32 241.995 304.37C243.715 305.43 245.775 305.95 248.175 305.95C250.035 305.95 251.775 305.6 253.395 304.9C255.015 304.19 256.395 303.22 257.555 301.98C257.915 301.6 258.235 301.19 258.525 300.78L258.735 305.33H267.115V272.47H258.295V292.16V292.17Z" fill="black"/>
<path d="M298.105 289.75C297.275 288.88 296.165 288.11 294.785 287.45C293.395 286.79 291.715 286.19 289.725 285.65C288.195 285.24 286.985 284.86 286.095 284.53C285.205 284.2 284.535 283.91 284.075 283.66C283.665 283.37 283.335 283.02 283.115 282.61C282.885 282.2 282.775 281.76 282.775 281.31C282.775 280.86 282.865 280.43 283.055 280.04C283.245 279.65 283.525 279.33 283.895 279.08C284.265 278.83 284.735 278.64 285.295 278.52C285.855 278.4 286.485 278.33 287.185 278.33C287.975 278.33 288.865 278.5 289.855 278.83C290.845 279.16 291.815 279.62 292.745 280.2C293.675 280.78 294.515 281.42 295.255 282.13L299.975 276.91C298.935 275.87 297.725 274.97 296.345 274.21C294.955 273.44 293.455 272.85 291.845 272.44C290.235 272.03 288.575 271.82 286.875 271.82C285.175 271.82 283.565 272.06 282.035 272.53C280.505 273.01 279.145 273.68 277.965 274.55C276.785 275.42 275.865 276.46 275.205 277.69C274.545 278.91 274.215 280.27 274.215 281.76C274.215 283 274.415 284.13 274.805 285.14C275.195 286.16 275.765 287.1 276.515 287.97C277.385 288.88 278.555 289.7 280.025 290.42C281.495 291.15 283.285 291.78 285.395 292.31C286.765 292.68 287.875 293.02 288.745 293.34C289.615 293.65 290.255 293.91 290.675 294.12C291.425 294.66 291.795 295.38 291.795 296.29C291.795 296.75 291.705 297.17 291.515 297.56C291.325 297.95 291.045 298.29 290.675 298.55C290.305 298.82 289.855 299.03 289.345 299.17C288.825 299.32 288.255 299.39 287.635 299.39C286.065 299.39 284.485 299.09 282.915 298.49C281.345 297.89 279.915 296.91 278.625 295.54L273.155 300.26C274.605 302.04 276.515 303.44 278.905 304.45C281.285 305.46 284.005 305.97 287.075 305.97C289.555 305.97 291.795 305.52 293.785 304.64C295.775 303.75 297.335 302.51 298.475 300.91C299.615 299.32 300.185 297.5 300.185 295.47C300.185 294.31 300.015 293.26 299.685 292.3C299.355 291.35 298.835 290.5 298.135 289.76L298.105 289.75Z" fill="black"/>
<path d="M311.515 256.15C309.855 256.15 308.545 256.6 307.575 257.49C306.605 258.38 306.115 259.53 306.115 260.94C306.115 262.47 306.585 263.65 307.545 264.48C308.495 265.31 309.825 265.72 311.525 265.72C313.225 265.72 314.495 265.29 315.465 264.42C316.435 263.55 316.925 262.39 316.925 260.94C316.925 259.49 316.445 258.28 315.495 257.43C314.545 256.58 313.215 256.16 311.525 256.16L311.515 256.15Z" fill="black"/>
<path d="M315.985 272.48H307.165V305.34H315.985V272.48Z" fill="black"/>
<path d="M349.625 274.04C346.995 272.55 344.025 271.8 340.715 271.8C337.405 271.8 334.365 272.55 331.745 274.04C329.115 275.53 327.045 277.55 325.535 280.1C324.025 282.64 323.265 285.58 323.265 288.89C323.265 292.2 324.015 295.14 325.535 297.71C327.045 300.28 329.115 302.3 331.745 303.76C334.375 305.23 337.365 305.97 340.715 305.97C344.065 305.97 346.995 305.24 349.625 303.76C352.255 302.29 354.315 300.27 355.805 297.71C357.295 295.14 358.045 292.2 358.045 288.89C358.045 285.58 357.295 282.65 355.805 280.1C354.315 277.55 352.255 275.53 349.625 274.04ZM348.065 293.69C347.345 295.12 346.335 296.24 345.055 297.04C343.775 297.85 342.325 298.25 340.705 298.25C339.085 298.25 337.575 297.85 336.295 297.04C335.015 296.23 333.995 295.11 333.255 293.69C332.505 292.26 332.155 290.66 332.195 288.88C332.155 287.06 332.505 285.44 333.255 284.04C334.005 282.63 335.015 281.51 336.295 280.69C337.575 279.87 339.045 279.45 340.705 279.45C342.365 279.45 343.765 279.85 345.055 280.66C346.335 281.47 347.345 282.59 348.065 284.01C348.785 285.43 349.155 287.06 349.155 288.89C349.155 290.72 348.795 292.27 348.065 293.7V293.69Z" fill="black"/>
<path d="M389.805 273.29C388.125 272.3 386.045 271.8 383.565 271.8C381.745 271.8 380.005 272.17 378.345 272.92C376.685 273.66 375.275 274.65 374.095 275.87C373.805 276.17 373.535 276.48 373.295 276.8L373.135 272.49H364.685V305.35H373.505V285.6C373.505 284.73 373.675 283.92 374.035 283.18C374.385 282.43 374.865 281.77 375.465 281.19C376.065 280.61 376.785 280.17 377.635 279.86C378.485 279.55 379.405 279.39 380.395 279.39C381.635 279.31 382.685 279.51 383.535 279.98C384.385 280.46 385.015 281.19 385.425 282.19C385.835 283.18 386.045 284.43 386.045 285.92V305.36H394.865V285.24C394.865 282.3 394.445 279.83 393.595 277.82C392.745 275.81 391.485 274.31 389.805 273.32V273.29Z" fill="black"/>
</g>
<defs>
<clipPath id="clip0_2003_11358">
<rect width="329.05" height="111.92" fill="white" transform="translate(85.4751 194.04)"/>
</clipPath>
</defs>
</svg>
