<svg width="500" height="500" viewBox="0 0 500 500" fill="none" xmlns="http://www.w3.org/2000/svg">
<rect width="500" height="500" fill="white"/>
<g clip-path="url(#clip0_2003_11287)">
<path d="M318.039 216.618C320.731 213.851 323.182 210.862 325.41 207.706C336.55 192.295 342.473 172.893 340.857 152.154C337.673 111.484 304.764 78.5091 264.093 75.2692C221.808 71.9087 185.491 99.9073 175.855 138.48C174.184 145.154 173.618 152.052 173.618 158.931V409.238C197.485 409.062 216.748 389.687 216.748 365.783V236.531H273.432C277.136 236.531 280.729 237.18 284.034 238.359C296.585 242.964 305.395 255.413 304.327 269.839C303.111 286.169 288.796 298.46 272.42 298.46H239.789V335.157H273.432C294.32 335.157 313.007 325.706 325.41 310.825C335.222 299.11 341.117 284.015 341.117 267.509C341.117 251.003 335.222 235.918 325.41 224.165C323.145 221.473 320.703 218.92 318.039 216.618ZM259.702 199.332C258.876 199.369 258.05 199.406 257.224 199.406C256.397 199.406 255.571 199.369 254.745 199.332H216.748V160.983C216.711 160.296 216.711 159.581 216.711 158.894C216.711 158.207 216.711 157.492 216.748 156.805C217.862 135.416 235.547 118.381 257.224 118.381C278.9 118.381 297.699 136.53 297.699 158.894C297.699 181.257 280.915 198.032 259.712 199.332H259.702Z" fill="#22A73E"/>
</g>
<defs>
<clipPath id="clip0_2003_11287">
<rect width="167.5" height="334.238" fill="white" transform="translate(173.618 75)"/>
</clipPath>
</defs>
</svg>
