<svg width="500" height="500" viewBox="0 0 500 500" fill="none" xmlns="http://www.w3.org/2000/svg">
<rect width="500" height="500" fill="white"/>
<g clip-path="url(#clip0_2003_10975)">
<path d="M420.53 263.205C419.4 261.815 418.94 260.585 416.64 261.045C413.35 261.705 405.19 275.845 402.12 279.375C400.41 281.345 391.48 291.045 390.78 284.505C389.93 276.585 402.54 265.035 400.77 260.985C398.25 255.235 391.21 263.455 389.11 265.725C385.77 269.305 371.28 288.215 366.62 286.845C363.01 285.785 367.55 276.565 368.66 274.655C370.46 271.525 378.86 263.315 375.45 260.265C373.09 258.745 370.59 260.175 367.99 260.815C366.55 261.175 365.33 259.715 365.93 258.355C366.89 256.165 367.86 253.115 365.9 251.375C362.67 248.465 358 252.825 356.49 255.705C354.45 259.565 355.29 263.125 354.41 266.605C353.4 270.595 340.87 285.265 336.47 284.855C334.97 284.715 333.87 283.295 334.02 281.805C334.29 279.025 350.87 264.625 346.87 257.145C346.77 256.955 346.62 256.785 346.46 256.655C341.37 252.435 335.51 260.195 332.94 264.295C328.24 271.755 327.96 284.125 317.9 285.375C317.56 285.415 317.2 285.365 316.9 285.205C312.58 282.925 320.07 271.305 321.73 268.805C323.93 265.495 332.81 257.325 329.11 253.635C324.98 249.525 319.91 256.865 317.29 258.915C313.87 261.585 309.92 264.545 305.56 265.475C304.44 265.705 303.39 264.805 303.44 263.655C303.73 256.165 301.14 248.305 293.06 249.395C291.76 249.575 290.7 248.305 291.13 247.065C292.88 241.965 296.17 236.945 299.51 232.995C301.76 230.335 316.47 218.815 306.2 216.755C300.53 215.615 296.58 223.545 291.84 225.345C285.9 227.615 276.25 227.785 270.91 224.025C267.41 221.575 266.11 215.455 261.28 215.955C251.77 216.925 260.64 230.565 261.79 235.155C262.48 237.885 263.84 243.825 262.3 246.195C261.99 246.665 254.06 250.015 252.17 251.255C245.21 255.825 239.67 262.705 236.34 270.265C234.43 274.615 231.34 287.505 224.96 287.295C218.09 287.075 224.96 270.405 226.35 267.115C229.52 259.645 243.85 240.745 227.01 240.445C208.91 240.105 194.56 262.535 181.47 272.155C146.23 298.035 79.3 291.615 102.54 235.045C115.86 202.585 154.49 183.565 188.69 186.605C221.77 189.535 219.85 218.475 197.88 235.995C183.06 247.815 133.32 262.215 137.06 229.905C139.35 210.055 171 200.955 188.01 201.945C188.26 201.965 188.52 201.945 188.76 201.835C191.51 200.585 191.23 196.325 187.87 195.605C182.72 194.505 171.66 195.395 166.34 196.335C145.03 200.095 116.63 221.065 123.43 245.555C129.85 268.675 165.48 262.625 181.99 255.605C216.58 240.895 245.75 197.555 198.69 180.785C185.68 177.175 172.01 177.485 167.87 177.685C167.87 177.685 167.77 177.695 167.72 177.705C167.4 177.725 167.1 177.745 166.78 177.775C129.31 180.535 86.21 206.615 79.81 245.805C73.72 283.105 106.32 302.835 140.05 299.755C154.04 298.475 167.75 290.265 179.54 282.675C180.74 281.905 182.3 282.775 182.3 284.195C182.28 300.575 200.44 298.865 209.85 288.685C210.79 287.665 212.48 287.995 212.89 289.325C215.48 297.605 225.8 298.595 230.88 291.195C231.63 290.095 233.28 290.155 233.92 291.325C234.8 292.915 235.56 294.625 237.35 295.645C246.14 300.685 255.7 289.415 259.92 282.865C268.48 269.585 272.02 253.865 272.46 238.145C272.49 237.175 273.28 236.395 274.25 236.395H283.1C284.48 236.335 285.53 237.565 285.02 238.845C282.67 244.735 279.47 250.415 277.26 256.505C274.05 265.395 266.8 289.195 276.62 295.375C284.24 300.165 291.75 292.445 295.63 286.415C297.31 283.795 299.19 277.825 300.91 275.995C301.75 275.105 303.65 274.455 305.44 273.805C306.88 273.295 308.26 274.695 307.72 276.125C306.95 278.165 305.95 280.405 305.82 280.895C300.92 298.705 313.46 299.615 324.13 291.075C325 290.375 326.28 290.675 326.82 291.655C335.51 307.545 352.06 279.565 357.76 270.675C358.03 270.245 358.47 269.955 358.98 269.875L360.12 269.685C361.57 269.445 362.68 270.955 362.01 272.255C358.74 278.695 354.21 285.275 356.59 292.705C359.93 303.125 371.81 292.805 378.29 286.255C379.48 285.065 381.5 286.015 381.35 287.695C381.12 290.315 381.08 292.935 382.93 295.095C386.21 298.925 390.57 296.635 394.44 293.685C396.01 292.485 398.09 294.295 397.09 296.005C392.82 303.325 386.18 314.055 387.45 317.175C387.64 319.535 390.49 321.715 392.6 322.305C393.98 322.695 393.4 322.015 393.6 321.355C394.1 319.645 394.19 317.645 394.88 315.945C394.91 315.875 394.93 315.805 394.97 315.745C403.32 299.535 412.74 283.865 420.75 267.465C420.87 267.215 420.94 266.945 420.94 266.665V264.335C420.94 263.925 420.8 263.525 420.54 263.205H420.53ZM206.82 279.005C204.69 281.345 198.69 287.995 195.37 284.655C194.71 283.985 194.44 282.035 194.46 281.065C194.56 276.325 203.47 263.835 206.85 259.945C209.61 256.765 220.21 246.085 224.65 248.975C225.43 249.505 225.28 250.085 225.19 250.885C224.69 255.295 210.48 274.975 206.82 279.005ZM260.95 259.675C259.64 265.195 257.5 270.705 254.58 275.475C253.26 277.635 245.22 289.075 243.79 281.735C242.25 273.815 250.03 260.925 258.52 257.605C259.88 257.075 261.29 258.255 260.95 259.665V259.675ZM293.69 266.735C293.34 270.925 289.04 286.075 283.19 284.065C278.67 282.505 282.83 259.455 290.09 258.325C294.65 257.615 293.94 263.655 293.69 266.735Z" fill="#3E2774"/>
</g>
<defs>
<clipPath id="clip0_2003_10975">
<rect width="341.86" height="144.85" fill="white" transform="translate(79.07 177.575)"/>
</clipPath>
</defs>
</svg>
