<svg width="500" height="500" viewBox="0 0 500 500" fill="none" xmlns="http://www.w3.org/2000/svg">
<rect width="500" height="500" fill="white"/>
<g clip-path="url(#clip0_2003_10996)">
<path d="M377.52 294.728V123.398H122.5V294.298C122.48 295.098 122.47 295.918 122.47 296.728C122.47 367.048 179.68 424.248 250 424.248C320.32 424.248 377.53 367.048 377.53 296.728C377.53 296.038 377.53 295.358 377.51 294.738L377.52 294.728ZM250 415.958C184.25 415.958 130.76 362.468 130.76 296.718C130.76 295.948 130.76 295.178 130.78 294.408V131.698H369.21V294.788C369.21 295.428 369.23 296.078 369.23 296.728C369.23 362.468 315.74 415.968 249.99 415.968L250 415.958Z" fill="#D12421"/>
<path d="M369.22 294.788V131.698H130.78V294.418C130.76 295.188 130.76 295.958 130.76 296.728C130.76 362.468 184.24 415.969 250 415.969C315.76 415.969 369.24 362.478 369.24 296.728C369.24 296.078 369.24 295.428 369.22 294.788ZM351.18 266.568V257.858L358.77 256.448V265.878L351.18 266.568ZM358.77 275.088V284.348L351.18 283.748V275.198L358.77 275.078V275.088ZM351.18 248.838V239.408L358.77 236.608V246.828L351.18 248.838ZM351.18 229.438V218.518L358.77 214.158V225.978L351.18 229.438ZM344.01 211.638H328.78L358.77 186.888V201.618L344.01 211.638ZM345.7 219.548V287.268H153.5V219.548H345.69H345.7ZM321.26 206.888V194.178L358.77 150.728V170.888L321.26 206.888ZM346.4 144.858L313.18 189.738L311.96 189.928C308.53 190.458 305.09 190.928 301.66 191.368L329.76 144.858H346.41H346.4ZM315.75 144.858L291.64 192.518C288.77 192.818 285.9 193.078 283.02 193.308L302.07 144.858H315.75ZM277.9 144.858H289.98L274.82 193.898C272.41 194.038 269.99 194.168 267.57 194.268L277.91 144.858H277.9ZM255.4 144.858H266.77L260.22 194.528C257.98 194.588 255.77 194.628 253.53 194.658L255.4 144.868V144.858ZM244.59 144.858L246.45 194.648C243.05 194.618 239.65 194.558 236.25 194.438L227.55 144.848H244.59V144.858ZM216.28 144.858L228.79 194.128C226.29 194.008 223.8 193.858 221.32 193.678L203.93 144.848H216.29L216.28 144.858ZM191.48 144.858L212.82 193.018C209.79 192.758 206.76 192.448 203.73 192.108L177.26 144.868H191.48V144.858ZM162.62 144.858L193.08 190.768C191.27 190.518 189.45 190.248 187.64 189.978L180.6 188.908L145.01 144.858H162.62ZM141.23 160.608L177.96 199.658V211.358L141.23 178.998V160.608ZM141.23 193.878L164.71 211.638H148.03V211.848L141.23 207.648V193.888V193.878ZM141.23 219.548L148.03 223.078V233.548L141.23 230.798V219.548ZM141.23 241.058L148.03 243.238V252.418L141.23 250.928V241.058ZM141.23 260.338L148.03 261.308V269.908L141.23 269.588V260.338ZM141.23 278.708L148.03 278.518V287.088L141.23 287.908V278.708ZM141.26 297.238L148.02 295.888V296.968H174.84L141.96 306.758C141.58 303.628 141.35 300.448 141.26 297.238ZM143.48 316.218L182.78 301.238C183.41 303.038 184.1 304.818 184.85 306.548L145.93 325.748C144.97 322.638 144.16 319.458 143.49 316.228L143.48 316.218ZM149.19 334.958L187.58 312.308C188.47 314.018 189.41 315.688 190.41 317.328L153.42 344.118C151.87 341.138 150.45 338.088 149.18 334.958H149.19ZM164.41 361.158C162.29 358.458 160.29 355.648 158.42 352.758L193.97 322.698C195.11 324.288 196.3 325.848 197.55 327.348L164.42 361.158H164.41ZM171.05 368.838L201.91 332.218C203.3 333.658 204.74 335.048 206.23 336.388L178.66 376.118C176 373.828 173.47 371.388 171.05 368.838ZM186.72 382.508L211.34 340.638C212.97 341.898 214.63 343.078 216.35 344.208L195.71 388.309C192.62 386.519 189.62 384.588 186.72 382.518V382.508ZM214.99 397.039C211.57 395.879 208.21 394.549 204.95 393.059L222.17 347.708C224.01 348.718 225.91 349.668 227.83 350.538L215 397.039H214.99ZM235.77 401.879C232.14 401.409 228.57 400.738 225.06 399.928L234.27 353.168C236.3 353.898 238.38 354.558 240.48 355.138L235.77 401.879ZM249.99 402.789C248.73 402.789 247.48 402.768 246.23 402.728L247.41 356.738C248.09 356.868 248.79 356.988 249.48 357.108L249.67 357.068C251.12 356.838 252.56 356.558 253.98 356.258L257.15 402.569C254.78 402.719 252.4 402.789 250 402.789H249.99ZM267.59 401.379L260.84 354.488C262.91 353.858 264.96 353.148 266.96 352.378L278.23 399.099C274.75 400.039 271.2 400.799 267.59 401.379ZM288.21 395.898L273.29 349.598C275.18 348.688 277.03 347.698 278.83 346.638L298.13 391.589C294.91 393.179 291.59 394.618 288.21 395.888V395.898ZM307.22 386.538L284.55 343.018C286.24 341.848 287.87 340.628 289.45 339.348L316.03 380.468C313.2 382.628 310.26 384.658 307.22 386.528V386.538ZM323.9 373.828L294.44 334.998C295.89 333.628 297.29 332.208 298.63 330.748L331.27 366.298C328.95 368.928 326.48 371.438 323.89 373.828H323.9ZM337.67 358.418L302.86 325.788C304.08 324.268 305.24 322.688 306.35 321.078L343.39 349.798C341.63 352.778 339.72 355.648 337.67 358.418ZM348.13 341.008L309.77 315.638C310.74 313.968 311.65 312.278 312.49 310.538L352.07 331.688C350.9 334.858 349.58 337.968 348.13 340.998V341.008ZM355.05 322.358L315.1 304.718C315.81 302.958 316.46 301.168 317.05 299.358L357.17 312.738C356.61 315.998 355.9 319.208 355.05 322.358ZM358.78 294.018C358.78 297.128 358.65 300.208 358.39 303.238L333.54 296.968H351.18V292.488L358.78 293.668V294.018Z" fill="#F0F3FA"/>
<path d="M193.08 190.768C191.27 190.518 189.45 190.248 187.64 189.978L180.6 188.908L145.01 144.858H162.62L193.08 190.768Z" fill="#007336"/>
<path d="M212.82 193.008C209.79 192.748 206.76 192.438 203.73 192.098L177.26 144.858H191.48L212.82 193.018V193.008Z" fill="#007336"/>
<path d="M228.79 194.128C226.29 194.008 223.8 193.858 221.32 193.678L203.93 144.848H216.29L228.8 194.118L228.79 194.128Z" fill="#007336"/>
<path d="M148.02 243.238V252.428L141.23 250.928V241.058L148.02 243.238Z" fill="#007336"/>
<path d="M246.45 194.648C243.05 194.618 239.65 194.558 236.25 194.438L227.55 144.848H244.59L246.45 194.638V194.648Z" fill="#007336"/>
<path d="M177.96 199.668V211.368L141.23 178.998V160.608L177.96 199.668Z" fill="#007336"/>
<path d="M148.02 223.078V233.548L141.23 230.798V219.548L148.02 223.078Z" fill="#007336"/>
<path d="M266.78 144.858L260.23 194.528C257.99 194.588 255.78 194.628 253.54 194.658L255.41 144.868H266.78V144.858Z" fill="#007336"/>
<path d="M164.71 211.638H148.02V211.838L141.23 207.638V193.878L164.71 211.638Z" fill="#007336"/>
<path d="M289.98 144.858L274.82 193.898C272.41 194.038 269.99 194.168 267.57 194.268L277.91 144.858H289.99H289.98Z" fill="#007336"/>
<path d="M358.77 214.158V225.978L351.18 229.438V218.518L358.77 214.158Z" fill="#007336"/>
<path d="M358.77 236.608V246.828L351.18 248.838V239.408L358.77 236.608Z" fill="#007336"/>
<path d="M358.77 256.448V265.878L351.18 266.568V257.858L358.77 256.448Z" fill="#007336"/>
<path d="M358.77 150.719V170.879L321.26 206.889V194.179L358.77 150.719Z" fill="#007336"/>
<path d="M148.02 261.308V269.908L141.23 269.588V260.338L148.02 261.308Z" fill="#007336"/>
<path d="M315.75 144.858L291.64 192.518C288.77 192.818 285.9 193.078 283.02 193.308L302.07 144.858H315.75Z" fill="#007336"/>
<path d="M346.4 144.858L313.18 189.738L311.96 189.928C308.53 190.458 305.09 190.928 301.66 191.368L329.76 144.858H346.41H346.4Z" fill="#007336"/>
<path d="M358.77 275.088V284.348L351.18 283.748V275.208L358.77 275.088Z" fill="#007336"/>
<path d="M358.77 186.888V201.608L344.01 211.638H328.78L358.77 186.888Z" fill="#007336"/>
<path d="M316.02 380.478C313.19 382.638 310.25 384.668 307.21 386.538L284.54 343.018C286.23 341.848 287.86 340.628 289.44 339.348L316.02 380.468V380.478Z" fill="#007336"/>
<path d="M331.27 366.308C328.95 368.938 326.48 371.448 323.89 373.838L294.43 335.008C295.88 333.638 297.28 332.218 298.62 330.758L331.26 366.308H331.27Z" fill="#007336"/>
<path d="M298.13 391.598C294.91 393.188 291.59 394.628 288.21 395.898L273.29 349.598C275.18 348.688 277.03 347.698 278.83 346.638L298.13 391.588V391.598Z" fill="#007336"/>
<path d="M148.02 278.518V287.088L141.23 287.908V278.708L148.02 278.518Z" fill="#007336"/>
<path d="M278.23 399.098C274.75 400.038 271.2 400.798 267.59 401.378L260.84 354.488C262.91 353.858 264.96 353.148 266.96 352.378L278.23 399.098Z" fill="#007336"/>
<path d="M358.78 293.668V294.018C358.78 297.128 358.65 300.208 358.39 303.238L333.54 296.968H351.18V292.488L358.78 293.668Z" fill="#007336"/>
<path d="M357.17 312.738C356.61 315.998 355.9 319.208 355.05 322.358L315.1 304.718C315.81 302.958 316.46 301.168 317.05 299.358L357.17 312.738Z" fill="#007336"/>
<path d="M343.39 349.798C341.63 352.778 339.72 355.648 337.67 358.418L302.86 325.788C304.08 324.268 305.24 322.688 306.35 321.078L343.39 349.798Z" fill="#007336"/>
<path d="M352.07 331.698C350.9 334.868 349.58 337.978 348.13 341.008L309.77 315.638C310.74 313.968 311.65 312.278 312.49 310.538L352.07 331.688V331.698Z" fill="#007336"/>
<path d="M257.15 402.568C254.78 402.718 252.4 402.788 250 402.788C248.74 402.788 247.49 402.768 246.24 402.728L247.42 356.738C248.1 356.868 248.8 356.988 249.49 357.108L249.68 357.068C251.13 356.838 252.57 356.558 253.99 356.258L257.16 402.568H257.15Z" fill="#007336"/>
<path d="M184.84 306.538L145.92 325.738C144.96 322.628 144.15 319.448 143.48 316.218L182.78 301.238C183.41 303.038 184.1 304.818 184.85 306.548L184.84 306.538Z" fill="#007336"/>
<path d="M190.41 317.338L153.42 344.128C151.87 341.148 150.45 338.098 149.18 334.968L187.57 312.318C188.46 314.028 189.4 315.698 190.4 317.338H190.41Z" fill="#007336"/>
<path d="M197.55 327.348L164.42 361.158C162.3 358.458 160.3 355.648 158.43 352.758L193.98 322.698C195.12 324.288 196.31 325.848 197.56 327.348H197.55Z" fill="#007336"/>
<path d="M174.85 296.968L141.97 306.758C141.59 303.628 141.36 300.448 141.27 297.238L148.03 295.888V296.968H174.85Z" fill="#007336"/>
<path d="M240.48 355.138L235.77 401.878C232.14 401.408 228.57 400.738 225.06 399.928L234.27 353.168C236.3 353.898 238.38 354.558 240.48 355.138Z" fill="#007336"/>
<path d="M206.23 336.389L178.66 376.118C176 373.828 173.47 371.389 171.05 368.839L201.91 332.219C203.3 333.659 204.74 335.049 206.23 336.389Z" fill="#007336"/>
<path d="M227.83 350.538L215 397.039C211.58 395.879 208.22 394.549 204.96 393.059L222.18 347.708C224.02 348.718 225.92 349.668 227.84 350.538H227.83Z" fill="#007336"/>
<path d="M216.35 344.198L195.71 388.298C192.62 386.508 189.62 384.578 186.72 382.508L211.34 340.638C212.97 341.898 214.63 343.078 216.35 344.208V344.198Z" fill="#007336"/>
<path d="M337.42 227.568H161.78V279.248H337.42V227.568Z" fill="#D12421"/>
<path d="M153.5 219.548V287.268H345.69V219.548H153.5ZM342.38 283.948H156.82V222.868H342.38V283.948Z" fill="#D12421"/>
<path d="M156.82 222.868V283.948H342.38V222.868H156.82ZM337.43 279.248H161.78V227.568H337.42V279.248H337.43Z" fill="#F0F3FA"/>
<path d="M188.84 255.838C188.65 256.958 188.28 257.938 187.75 258.778C187.22 259.608 186.57 260.298 185.8 260.858C185.03 261.418 184.17 261.828 183.2 262.108C182.24 262.388 181.24 262.528 180.2 262.528C178.66 262.528 177.27 262.248 176.03 261.698C174.79 261.148 173.72 260.388 172.83 259.408C171.94 258.438 171.26 257.278 170.79 255.948C170.31 254.618 170.08 253.188 170.08 251.648C170.08 249.958 170.35 248.418 170.89 247.008C171.43 245.598 172.16 244.388 173.08 243.378C174 242.358 175.07 241.568 176.29 241.008C177.51 240.448 178.82 240.168 180.2 240.168C181.87 240.168 183.43 240.668 184.9 241.658C185.66 240.878 186.44 240.428 187.24 240.298C187.3 240.358 187.4 240.608 187.53 241.028C187.66 241.448 187.78 241.998 187.9 242.668C188.02 243.338 188.12 244.108 188.21 244.968C188.3 245.828 188.34 246.738 188.34 247.698H187.24C186.74 245.618 185.88 244.058 184.64 243.008C183.41 241.958 181.97 241.438 180.33 241.438C179.14 241.438 178.12 241.688 177.28 242.198C176.44 242.708 175.74 243.378 175.2 244.208C174.66 245.038 174.26 245.988 174.02 247.048C173.77 248.108 173.65 249.188 173.65 250.288C173.65 251.828 173.78 253.248 174.06 254.558C174.33 255.868 174.76 256.998 175.34 257.968C175.92 258.928 176.68 259.688 177.61 260.238C178.54 260.788 179.65 261.068 180.95 261.068C181.77 261.068 182.51 260.978 183.17 260.808C183.83 260.638 184.44 260.338 184.99 259.918C185.54 259.498 186.05 258.928 186.51 258.198C186.97 257.478 187.42 256.568 187.86 255.488L188.83 255.848L188.84 255.838Z" fill="#F0F3FA"/>
<path d="M202.82 262.029V261.059C204.96 261.059 206.03 260.309 206.03 258.819V252.039C205.64 251.719 204.82 251.549 203.56 251.549H197.72C197.29 251.549 196.88 251.589 196.49 251.659C196.1 251.739 195.73 251.859 195.39 252.029V258.809C195.39 260.299 196.38 261.049 198.37 261.049V262.019H188.86V261.049C191.07 261.049 192.17 260.299 192.17 258.809V244.349C192.17 242.439 191.07 241.489 188.86 241.489V240.519H198.37V241.489C196.38 241.489 195.39 242.449 195.39 244.359V249.929C196.1 250.169 196.88 250.289 197.73 250.289H203.57C204.78 250.289 205.6 250.169 206.04 249.929V244.359C206.04 242.449 204.97 241.489 202.83 241.489V240.519H212.21V241.489C210.24 241.489 209.26 242.439 209.26 244.349V258.809C209.26 260.299 210.24 261.049 212.21 261.049V262.019H202.83L202.82 262.029Z" fill="#F0F3FA"/>
<path d="M224.04 262.028V261.058C224.34 261.018 224.66 260.968 225 260.928C225.33 260.888 225.64 260.828 225.91 260.768C226.18 260.698 226.41 260.618 226.59 260.528C226.77 260.428 226.87 260.318 226.87 260.188C226.85 260.098 226.83 259.978 226.82 259.818C226.81 259.658 226.75 259.458 226.64 259.218L225.18 255.228C224.94 254.668 224.28 254.388 223.2 254.388H218.37C217.55 254.388 217.05 254.668 216.88 255.228L215.78 258.588C215.69 258.778 215.65 259.058 215.65 259.428C215.65 260.418 216.6 260.918 218.51 260.918V262.058H211.21V260.918C211.84 260.878 212.37 260.658 212.82 260.268C213.26 259.878 213.64 259.318 213.94 258.588L221.73 240.058L222.7 240.448L230.39 259.718C230.69 260.168 230.93 260.458 231.1 260.558C231.14 260.598 231.32 260.658 231.64 260.738C231.95 260.818 232.39 260.928 232.95 261.078V262.048H224.06L224.04 262.028ZM221.21 244.608L218.36 251.418C218.12 251.938 218 252.308 218 252.518C218 252.838 218.4 253.008 219.2 253.008H223.29C223.94 253.008 224.26 252.878 224.26 252.618C224.26 252.508 224.14 252.158 223.9 251.548L221.21 244.608Z" fill="#F0F3FA"/>
<path d="M248.4 262.029V261.059C250.3 261.059 251.26 260.269 251.26 258.689L251.03 243.599L244.12 262.029H243.21L235.81 243.889L235.68 258.199C235.66 260.099 236.74 261.049 238.92 261.049V262.019H231.1V261.049C233.07 261.049 234.11 260.009 234.21 257.929L234.47 243.439V243.109C234.47 242.869 234.44 242.659 234.39 242.459C234.34 242.259 234.2 242.089 233.97 241.939C233.74 241.789 233.41 241.679 232.98 241.599C232.55 241.519 231.96 241.489 231.23 241.489V240.519H237.91L244.46 256.969L250.72 240.519H257.31V241.489C256.6 241.489 256.03 241.539 255.62 241.639C255.21 241.739 254.9 241.879 254.7 242.059C254.49 242.239 254.36 242.459 254.31 242.689C254.26 242.919 254.23 243.179 254.23 243.439L254.59 258.449C254.59 260.179 255.57 261.049 257.54 261.049V262.019H248.39L248.4 262.029Z" fill="#F0F3FA"/>
<path d="M258.36 262.028V261.058C260.33 261.058 261.31 260.278 261.31 258.718V243.468C261.31 242.168 260.28 241.518 258.23 241.518V240.508H263.65C264.36 240.508 264.92 240.508 265.32 240.488C265.72 240.478 266.08 240.468 266.39 240.458C266.7 240.448 267.02 240.438 267.33 240.428C267.64 240.418 268.07 240.408 268.61 240.408C273.46 240.408 275.88 242.508 275.88 246.698C275.88 247.518 275.73 248.288 275.44 248.998C275.15 249.708 274.7 250.338 274.09 250.878C273.48 251.418 272.72 251.838 271.79 252.148C270.86 252.448 269.76 252.598 268.48 252.598C267.79 252.598 267.11 252.568 266.45 252.518C265.79 252.468 265.15 252.368 264.52 252.238V258.568C264.52 260.208 265.59 261.038 267.73 261.038V262.008H258.35L258.36 262.028ZM265.89 241.528C264.98 241.528 264.53 242.098 264.53 243.248V251.068C265.07 251.178 265.67 251.268 266.31 251.328C266.96 251.388 267.68 251.428 268.48 251.428C269.19 251.428 269.8 251.288 270.31 251.018C270.82 250.748 271.24 250.388 271.58 249.948C271.92 249.508 272.16 248.988 272.31 248.408C272.46 247.828 272.54 247.218 272.54 246.588C272.54 243.218 270.6 241.528 266.73 241.528H265.89Z" fill="#F0F3FA"/>
<path d="M276.34 262.028V261.058C278.39 261.058 279.42 260.308 279.42 258.818V244.358C279.42 242.448 278.35 241.498 276.21 241.498V240.528H285.62V241.498C283.63 241.498 282.63 242.448 282.63 244.358V258.818C282.63 260.308 283.67 261.058 285.74 261.058V262.028H276.33H276.34Z" fill="#F0F3FA"/>
<path d="M296.74 262.518C295.2 262.518 293.79 262.228 292.49 261.658C291.19 261.088 290.07 260.298 289.13 259.288C288.19 258.278 287.45 257.108 286.92 255.748C286.39 254.398 286.13 252.958 286.13 251.418C286.13 249.988 286.38 248.598 286.88 247.248C287.38 245.898 288.09 244.698 289.02 243.648C289.95 242.598 291.07 241.758 292.38 241.118C293.69 240.478 295.14 240.158 296.74 240.158C298.34 240.158 299.77 240.438 301.1 240.988C302.43 241.538 303.58 242.308 304.54 243.288C305.5 244.268 306.25 245.438 306.79 246.778C307.33 248.118 307.6 249.578 307.6 251.158C307.6 252.538 307.34 253.918 306.82 255.278C306.3 256.638 305.57 257.858 304.63 258.928C303.69 259.998 302.55 260.868 301.21 261.528C299.87 262.188 298.38 262.518 296.73 262.518H296.74ZM297 261.258C298.21 261.258 299.25 261.008 300.11 260.498C300.97 259.988 301.69 259.298 302.25 258.408C302.81 257.518 303.23 256.478 303.5 255.278C303.77 254.078 303.91 252.788 303.91 251.408C303.91 250.108 303.77 248.858 303.5 247.648C303.23 246.438 302.8 245.368 302.22 244.428C301.64 243.488 300.87 242.728 299.93 242.158C298.99 241.588 297.85 241.298 296.51 241.298C295.28 241.298 294.23 241.568 293.38 242.108C292.53 242.648 291.83 243.368 291.3 244.278C290.77 245.188 290.39 246.228 290.16 247.418C289.93 248.608 289.82 249.848 289.82 251.138C289.82 252.568 289.96 253.888 290.24 255.118C290.52 256.348 290.95 257.418 291.54 258.328C292.12 259.238 292.87 259.948 293.78 260.468C294.69 260.988 295.76 261.248 296.99 261.248L297 261.258Z" fill="#F0F3FA"/>
<path d="M326.5 262.388L312.16 244.118V257.198C312.16 259.768 313.27 261.058 315.5 261.058V262.028H307.71V261.058C309.53 261.058 310.44 259.768 310.44 257.188V242.858C310.44 241.948 309.37 241.498 307.23 241.498V240.528H313.16L325.85 256.718V245.078C325.85 242.698 324.75 241.498 322.54 241.498V240.528H330.33V241.498C328.34 241.498 327.35 242.688 327.35 245.068V262.158L326.51 262.388H326.5Z" fill="#F0F3FA"/>
</g>
<defs>
<clipPath id="clip0_2003_10996">
<rect width="255.06" height="300.85" fill="white" transform="translate(122.47 123.398)"/>
</clipPath>
</defs>
</svg>
