<svg width="500" height="500" viewBox="0 0 500 500" fill="none" xmlns="http://www.w3.org/2000/svg">
<rect width="500" height="500" fill="white"/>
<g clip-path="url(#clip0_2003_11070)">
<path d="M258.813 340.865C258.709 340.865 258.598 340.865 258.494 340.865C254.991 340.769 251.622 339.151 249.484 336.531C246.879 333.34 246.649 329.792 246.627 326.437C246.56 315.171 246.583 303.727 246.605 292.654C246.612 287.029 246.627 281.403 246.627 275.777V166.568C246.627 165.336 247.622 164.342 248.854 164.342C250.086 164.342 251.08 165.336 251.08 166.568V275.77C251.08 281.396 251.073 287.029 251.058 292.654C251.035 303.72 251.013 315.157 251.08 326.4C251.095 329.272 251.243 331.625 252.935 333.703C254.242 335.306 256.416 336.338 258.613 336.397C260.476 336.457 262.131 335.789 263.266 334.534C265.003 332.62 264.899 329.451 264.803 326.385C264.78 325.651 264.758 324.931 264.758 324.241C264.758 323.009 265.753 322.014 266.985 322.014C268.217 322.014 269.211 323.009 269.211 324.241C269.211 324.886 269.233 325.554 269.256 326.237C269.374 329.814 269.515 334.275 266.569 337.525C264.617 339.678 261.871 340.85 258.821 340.85L258.813 340.865Z" fill="#3B3B40"/>
<path d="M387.986 174.821C387.92 174.917 387.845 175.014 387.764 175.11C381.626 183.096 371.971 188.239 361.113 188.239C350.255 188.239 340.592 183.103 334.454 175.11C334.135 174.702 333.831 174.287 333.541 173.856C333.467 173.76 333.393 173.656 333.326 173.552C333.274 173.485 333.23 173.411 333.178 173.337C333.126 173.411 333.081 173.478 333.029 173.552H277.463C277.419 173.5 277.382 173.441 277.345 173.381C277.33 173.366 277.322 173.344 277.308 173.329C277.256 173.403 277.204 173.478 277.152 173.552C276.795 174.086 276.417 174.606 276.024 175.11C269.938 183.022 260.409 188.143 249.669 188.232C249.573 188.232 249.469 188.232 249.373 188.232C238.515 188.232 228.867 183.089 222.721 175.103C222.328 174.598 221.95 174.079 221.593 173.544C221.556 173.5 221.527 173.455 221.497 173.411C221.475 173.381 221.46 173.351 221.438 173.322C221.386 173.396 221.334 173.47 221.282 173.544H166.035C165.983 173.633 165.931 173.715 165.887 173.804C165.879 173.789 165.864 173.774 165.857 173.76C165.538 174.22 165.211 174.665 164.87 175.103C158.725 183.089 149.069 188.232 138.219 188.232C127.368 188.232 117.713 183.089 111.575 175.103C111.493 175.014 111.419 174.917 111.36 174.821C111.605 174.39 111.857 173.967 112.109 173.544C118.492 162.739 126.114 152.749 134.775 143.776C138.582 139.835 142.583 136.087 146.776 132.547C149.581 130.18 152.468 127.909 155.437 125.734C181.739 106.483 214.157 95.0755 249.232 94.979H249.87C285.026 95.0235 317.533 106.438 343.887 125.734C346.856 127.909 349.75 130.18 352.556 132.547C356.749 136.08 360.756 139.828 364.564 143.776C364.571 143.776 364.571 143.784 364.571 143.784C373.24 152.764 380.862 162.739 387.237 173.544C387.497 173.967 387.741 174.39 387.986 174.814V174.821Z" fill="#DA2726"/>
<path d="M333.03 173.552C332.666 174.079 332.287 174.598 331.894 175.11C325.749 183.096 316.101 188.239 305.243 188.239C294.385 188.239 284.737 183.096 278.592 175.11C278.199 174.598 277.82 174.086 277.464 173.552H333.03Z" fill="#DA2726"/>
<path d="M333.542 173.856C333.467 173.76 333.393 173.656 333.326 173.552C333.274 173.485 333.23 173.411 333.178 173.337C333.126 173.411 333.081 173.478 333.03 173.552H277.464C277.419 173.5 277.382 173.44 277.345 173.381C273.99 144.889 264.32 118.335 249.759 95.157C249.796 95.0977 249.833 95.0457 249.87 94.9938C285.145 111.952 314.349 139.516 333.371 173.552C333.43 173.656 333.482 173.752 333.542 173.856Z" fill="#EEDD02"/>
<path d="M221.282 173.552C220.926 174.086 220.547 174.606 220.154 175.11C214.009 183.096 204.353 188.239 193.495 188.239C182.637 188.239 172.989 183.096 166.844 175.11C166.518 174.687 166.198 174.249 165.887 173.812C165.931 173.722 165.983 173.641 166.035 173.552H221.282Z" fill="#DA2726"/>
<path d="M249.67 95.0087V95.3056C234.923 118.417 225.052 144.934 221.497 173.418C221.475 173.389 221.46 173.359 221.438 173.329C221.386 173.403 221.334 173.478 221.282 173.552H166.035C184.975 139.561 214.075 112.004 249.232 94.9864C249.336 94.9345 249.439 94.8825 249.543 94.838C249.543 94.838 249.558 94.838 249.566 94.8454C249.603 94.89 249.632 94.9419 249.655 94.9864C249.662 94.9939 249.67 95.0013 249.67 95.0087Z" fill="#EEDD02"/>
<path d="M381.374 175.318C376.595 181.352 369.203 185.219 360.898 185.219C352.593 185.219 345.194 181.359 340.414 175.318H381.374Z" fill="#EEDD02"/>
<path d="M270.317 175.11C265.537 181.144 258.145 185.011 249.841 185.011C241.536 185.011 234.136 181.152 229.357 175.11H270.317Z" fill="#EEDD02"/>
<path d="M158.836 175.318C154.056 181.352 146.664 185.219 138.36 185.219C130.055 185.219 122.656 181.359 117.876 175.318H158.836Z" fill="#EEDD02"/>
<path d="M249.544 242.596C249.596 242.692 249.648 242.781 249.7 242.878C251.355 245.972 251.607 249.698 250.39 252.852C248.898 256.689 245.937 258.649 243.028 260.326C233.268 265.951 223.308 271.592 213.675 277.047C208.777 279.822 203.886 282.591 198.995 285.374L130.62 327.18C129.551 327.788 128.193 327.417 127.584 326.349C126.976 325.28 127.347 323.922 128.415 323.313L196.791 281.507C201.682 278.724 206.58 275.948 211.478 273.173C221.104 267.718 231.057 262.085 240.801 256.467C243.287 255.034 245.262 253.743 246.234 251.242C246.983 249.312 246.805 246.915 245.766 244.978C244.876 243.345 243.495 242.224 241.848 241.853C239.324 241.289 236.623 242.944 234.01 244.547C233.387 244.933 232.771 245.304 232.17 245.646C231.101 246.254 229.743 245.883 229.134 244.815C228.526 243.746 228.897 242.388 229.966 241.779C230.522 241.46 231.094 241.111 231.68 240.755C234.738 238.885 238.538 236.554 242.82 237.512C245.655 238.15 248.03 239.953 249.544 242.603V242.596Z" fill="#3B3B40"/>
<path d="M115.828 345.036L111.539 347.478C105.527 350.899 97.8086 348.777 94.3872 342.765C92.6803 339.759 92.3463 336.331 93.2072 333.214C94.0681 330.097 96.0942 327.321 99.1 325.614L103.39 323.172" fill="#3B3B40"/>
<path d="M220.503 367.984C218.158 376.816 219.16 386.53 224.036 395.102C229.587 404.854 238.976 411.059 249.217 412.84C248.973 412.84 248.735 412.84 248.49 412.825C235.94 412.617 223.487 410.933 211.412 407.845C206.105 406.487 200.865 404.862 195.715 402.969C192.271 401.7 188.865 400.312 185.51 398.813C157.672 386.323 133.158 365.772 115.843 338.23C144.951 356.05 183.811 367.115 220.496 367.991L220.503 367.984Z" fill="#05A3DE"/>
<path d="M118.196 334.438C144.32 335.047 169.798 330.393 194.037 320.574C191.484 329.569 192.427 339.537 197.414 348.302C201.296 355.13 207.055 360.206 213.683 363.256C179.855 361.282 144.847 350.751 118.203 334.445L118.196 334.438Z" fill="#05A3DE"/>
<path d="M115.947 329.918C128.571 307.401 145.396 288.112 166.013 272.542C163.735 281.477 164.789 291.274 169.709 299.92C174.57 308.462 182.304 314.326 191.002 316.982C167.015 326.49 141.796 330.839 115.947 329.918Z" fill="#05A3DE"/>
<path d="M137.388 228.279C136.431 235.908 137.848 243.909 141.945 251.108C146.962 259.925 155.051 265.884 164.098 268.415C142.873 284.29 125.543 303.95 112.511 326.957C112.051 295.111 121.231 258.804 137.388 228.279Z" fill="#05A3DE"/>
<path d="M114.589 203.023C119.591 211.825 127.658 217.785 136.683 220.316C118.663 251.783 108.117 290.339 108.028 324.322C93.8007 295.779 88.9024 264.786 92.3386 235.003C92.7617 231.344 93.3035 227.708 93.9714 224.101C94.9659 218.713 96.2424 213.369 97.7935 208.114V208.107C100.94 197.383 105.2 186.992 110.544 177.129C108.733 185.657 109.935 194.859 114.589 203.031V203.023Z" fill="#05A3DE"/>
<path d="M248.341 242.513C248.289 242.61 248.237 242.699 248.186 242.796C246.53 245.89 246.278 249.616 247.495 252.77C248.987 256.607 251.948 258.566 254.858 260.244C264.617 265.869 274.577 271.51 284.21 276.965C289.108 279.74 293.999 282.509 298.89 285.292L359.235 319.016C360.304 319.624 361.662 319.253 362.271 318.184C362.879 317.116 362.508 315.758 361.44 315.149L301.094 281.425C296.203 278.642 291.305 275.866 286.407 273.091C276.781 267.636 266.829 262.003 257.084 256.385C254.598 254.952 252.624 253.661 251.651 251.16C250.902 249.23 251.08 246.833 252.119 244.896C253.01 243.263 254.39 242.142 256.038 241.771C258.561 241.207 261.262 242.862 263.875 244.465C264.498 244.851 265.114 245.222 265.715 245.564C266.784 246.172 268.142 245.801 268.751 244.733C269.359 243.664 268.988 242.306 267.92 241.697C267.363 241.378 266.792 241.029 266.205 240.673C263.148 238.803 259.348 236.472 255.065 237.43C252.23 238.068 249.855 239.871 248.341 242.521V242.513Z" fill="#3B3B40"/>
<path d="M384.172 345.036L388.462 347.478C394.473 350.899 402.192 348.777 405.613 342.765C407.32 339.759 407.654 336.33 406.793 333.213C405.932 330.096 403.906 327.321 400.9 325.614L396.611 323.172" fill="#3B3B40"/>
<path d="M279.49 367.984C281.835 376.815 280.833 386.53 275.957 395.102C270.406 404.854 261.017 411.059 250.775 412.84C251.02 412.84 251.258 412.84 251.503 412.825C264.053 412.617 276.506 410.933 288.581 407.845C293.888 406.487 299.127 404.862 304.278 402.969C307.722 401.7 311.128 400.312 314.483 398.813C342.321 386.322 366.835 365.772 384.15 338.23C355.042 356.05 316.182 367.115 279.497 367.991L279.49 367.984Z" fill="#DA2726"/>
<path d="M381.797 334.438C355.673 335.047 330.194 330.393 305.955 320.574C308.508 329.569 307.566 339.537 302.578 348.302C298.697 355.13 292.938 360.206 286.31 363.256C320.138 361.282 355.146 350.751 381.789 334.445L381.797 334.438Z" fill="#DA2726"/>
<path d="M384.046 329.918C371.421 307.401 354.597 288.112 333.979 272.542C336.258 281.477 335.204 291.274 330.283 299.92C325.422 308.462 317.689 314.325 308.991 316.982C332.977 326.489 358.196 330.838 384.046 329.918Z" fill="#DA2726"/>
<path d="M362.612 228.279C363.57 235.908 362.152 243.909 358.055 251.108C353.038 259.925 344.949 265.884 335.902 268.415C357.128 284.29 374.457 303.95 387.49 326.957C387.95 295.111 378.769 258.804 362.612 228.279Z" fill="#DA2726"/>
<path d="M385.404 203.023C380.402 211.825 372.334 217.785 363.31 220.316C381.329 251.783 391.875 290.339 391.965 324.322C406.199 295.786 411.097 264.786 407.661 235.01C407.238 231.352 406.696 227.715 406.028 224.108C405.034 218.72 403.757 213.376 402.206 208.122V208.114C399.06 197.39 394.8 187 389.456 177.136C391.267 185.664 390.065 194.867 385.411 203.038L385.404 203.023Z" fill="#DA2726"/>
<path d="M237.795 92.5151V87.5797C237.795 80.6627 243.458 75 250.375 75C253.834 75 256.98 76.4101 259.259 78.696C261.537 80.9818 262.955 84.1212 262.955 87.5797V92.5151" fill="#3B3B40"/>
<path d="M180.01 216.122H187.528V227.5H187.61C188.211 226.535 188.894 225.607 189.54 224.724L195.492 216.122H205.103L195.573 227.544L205.548 243.226H196.583L190.067 232.049L187.536 235.062V243.226H180.018V216.122H180.01Z" fill="#3B3B40"/>
<path d="M318.245 243.263C317.117 243.827 314.223 244.547 310.527 244.547C299.55 244.547 294.645 238.231 294.645 230.958C294.645 221.547 302.044 216.479 310.928 216.479C314.423 216.479 317.362 217.124 318.691 217.844L317.125 223.715C315.759 223.151 313.748 222.587 311.217 222.587C306.675 222.587 302.652 225.043 302.652 230.431C302.652 235.099 305.829 238.35 311.417 238.35C313.51 238.35 315.804 237.949 317.088 237.422L318.253 243.256L318.245 243.263Z" fill="#3B3B40"/>
</g>
<defs>
<clipPath id="clip0_2003_11070">
<rect width="317.431" height="337.84" fill="white" transform="translate(91.2847 75)"/>
</clipPath>
</defs>
</svg>
