<svg width="500" height="500" viewBox="0 0 500 500" fill="none" xmlns="http://www.w3.org/2000/svg">
<rect width="500" height="500" fill="white"/>
<g clip-path="url(#clip0_2003_10942)">
<path d="M161.187 224.888C159.902 201.613 150.712 160.745 124.438 154.1C109.635 150.349 92.9173 151.355 77.2139 151.914V348.645C96.3361 348.365 124.386 349.143 137.125 339.053C162.341 319.092 162.822 254.564 161.187 224.888ZM94.2027 332.05L94.0103 170.241C94.0103 170.241 144.968 151.696 146.874 248.767C148.78 345.838 94.2027 332.05 94.2027 332.05Z" fill="#09325E"/>
<path d="M307.162 152.797C302.204 156.916 300.613 164.741 293.539 165.834L265.201 348.645H283.563L288.074 319.948L288.372 318.034L302.79 339.027L316.78 318.042L317.191 320.945L321.16 348.645H339.522L307.162 152.797ZM288.87 314.396L288.984 313.609L302.361 223.603L316.028 313.609L316.15 314.396H288.87Z" fill="#09325E"/>
<path d="M418.389 167.041C411.936 145.488 367.588 152.736 358.757 151.914V348.645H377.119V263.832C398.453 264.226 413.352 258.507 419.91 237.112C424.684 221.522 423.04 182.587 418.389 167.041ZM404.757 227.135C404.443 231.656 403.481 236.482 400.263 239.849C394.475 245.908 384.7 244.675 377.119 245.471V170.276C377.119 169.725 391.117 170.459 392.455 170.757C400.176 172.444 404.075 178.845 404.923 186.312C406.454 199.742 405.693 213.679 404.749 227.135H404.757Z" fill="#09325E"/>
<path d="M198.75 245.471H236.347V263.832H198.75V330.24L236.347 330.283V348.645H180.388V263.832C172.3 263.832 172.528 263.797 172.379 263.797L176.611 245.532L180.388 245.471V151.914H227.603L236.347 170.276H198.75V245.471Z" fill="#09325E"/>
<path d="M302.79 341.493L283.737 313.61H322.331L302.79 341.493Z" fill="#D21112"/>
</g>
<defs>
<clipPath id="clip0_2003_10942">
<rect width="345.573" height="197.29" fill="white" transform="translate(77.2139 151.355)"/>
</clipPath>
</defs>
</svg>
