<svg width="500" height="500" viewBox="0 0 500 500" fill="none" xmlns="http://www.w3.org/2000/svg">
<rect width="500" height="500" fill="white"/>
<g clip-path="url(#clip0_2003_10953)">
<path d="M214.935 193.266C212.871 188.355 209.4 184.71 204.54 182.338C199.662 179.974 192.896 178.784 184.206 178.784H159.062V285.394H184.997C193.328 285.394 199.895 284.145 204.673 281.648C209.45 279.143 212.879 275.331 214.943 270.196C216.999 265.061 218.031 258.627 218.031 250.911V211.951C218.031 204.402 216.999 198.177 214.943 193.258L214.935 193.266ZM198.281 251.444C198.281 255.83 198.056 259.542 197.623 262.564C197.19 265.585 195.992 267.89 194.069 269.48C192.138 271.061 188.934 271.844 184.464 271.844H178.538V192.608H184.198C188.501 192.608 191.614 193.224 193.545 194.448C195.467 195.68 196.741 197.611 197.357 200.241C197.973 202.871 198.281 206.342 198.281 210.636V251.436V251.444Z" fill="black"/>
<path d="M271.856 178.792V239.6L245.93 178.792H232.363V285.402H248.951V221.697L275.011 285.402H287.92V178.792H271.856Z" fill="black"/>
<path d="M297.791 178.792V193.133H314.762V285.402H334.246V193.133H350.967V178.792H297.791Z" fill="black"/>
<path d="M406.631 232.884C409.96 231.569 412.574 229.704 414.463 227.282C416.344 224.877 417.684 221.956 418.475 218.535C419.265 215.106 419.657 211.252 419.657 206.941C419.657 199.841 418.358 194.223 415.778 190.095C413.19 185.967 409.419 183.054 404.459 181.339C399.49 179.633 393.422 178.776 386.231 178.776H360.696V285.385H380.181V236.554H380.222V224.311H380.181V192.084H387.288C392.823 192.084 396.569 193.424 398.541 196.104C400.514 198.776 401.504 202.796 401.504 208.148C401.504 211.918 401.03 215.014 400.056 217.428C399.09 219.833 397.492 221.598 395.254 222.688C393.015 223.787 390.01 224.336 386.24 224.336H385.84L389.136 236.579L392.066 247.649L402.037 285.41H421.521L406.648 232.892L406.631 232.884Z" fill="black"/>
<path d="M149.124 188.097H77.2134V193.499H149.124V188.097Z" fill="#FFE528"/>
<path d="M149.124 178.959H77.2134V188.564H149.124V178.959Z" fill="#D12C23"/>
<path d="M77.2135 276.488H149.125V271.086H77.2135V276.488Z" fill="#FFE528"/>
<path d="M77.2135 285.627H149.125V276.022H77.2135V285.627Z" fill="#D12C23"/>
<path d="M149.124 192.592H77.2134V231.843H149.124V192.592Z" fill="#1F1A17"/>
<path d="M149.124 231.369H77.2134V270.62H149.124V231.369Z" fill="#D12C23"/>
<path d="M95.3081 209.712V259.534L139.254 256.013L115.516 250.837L113.635 220.291L95.3081 209.712Z" fill="white"/>
<path d="M96.7227 205.959L116.224 219.118L119.511 249.197L136.432 249.663L122.807 205.484L96.7227 205.959Z" fill="white"/>
<path d="M422.786 312.485H77.2139V321.208H422.786V312.485Z" fill="#1B1617"/>
<path d="M422.786 303.854H77.2139V312.577H422.786V303.854Z" fill="#D12C23"/>
<path d="M422.786 295.706H77.2139V304.429H422.786V295.706Z" fill="#FFE528"/>
</g>
<defs>
<clipPath id="clip0_2003_10953">
<rect width="345.572" height="142.415" fill="white" transform="translate(77.2139 178.792)"/>
</clipPath>
</defs>
</svg>
