<svg width="500" height="500" viewBox="0 0 500 500" fill="none" xmlns="http://www.w3.org/2000/svg">
<rect width="500" height="500" fill="white"/>
<g clip-path="url(#clip0_2003_10758)">
<path d="M345.618 76.9329H154.382V423.067H345.618V76.9329Z" fill="#FF7225"/>
<path d="M185.989 113.422H220.713L221.493 127.362H219.119C218.563 124.074 217.865 121.709 217.031 120.258C216.198 118.816 215.096 117.732 213.743 117.006C212.382 116.289 210.608 115.931 208.422 115.931H202.975C202.133 115.931 201.524 116.101 201.138 116.433C200.762 116.764 200.574 117.23 200.574 117.821V131.654H202.437C204.579 131.654 206.236 131.044 207.41 129.817C208.583 128.599 209.282 126.628 209.497 123.913H211.925V142.467H209.497C209.336 139.394 208.664 137.226 207.472 135.972C206.281 134.718 204.498 134.081 202.106 134.081H200.565V148.828C200.565 149.473 200.753 149.93 201.129 150.198C201.703 150.593 202.527 150.79 203.611 150.79H208.413C211.701 150.79 214.389 149.742 216.476 147.636C218.563 145.531 219.853 142.359 220.355 138.122H222.783L222.192 153.298H185.98V150.79H189.564C190.37 150.79 190.988 150.584 191.409 150.172C191.83 149.759 192.045 149.204 192.045 148.496V117.812C192.045 117.167 191.83 116.692 191.409 116.388C190.988 116.083 190.226 115.931 189.133 115.931H185.98V113.422H185.989Z" fill="#F0F3FA"/>
<path d="M226.931 113.422H246.667V115.931H243.442C242.403 115.931 241.695 116.092 241.319 116.415C240.943 116.737 240.754 117.266 240.754 118.009V135.64L253.924 120.464C254.668 119.586 255.044 118.771 255.044 118.036C255.044 117.409 254.811 116.934 254.345 116.612C253.7 116.164 252.822 115.94 251.729 115.94H250.627V113.431H267.049V115.94H266.027C264.549 115.94 263.187 116.307 261.933 117.042C260.079 118.135 258.233 119.765 256.379 121.924L251.299 127.792L263.116 148.192C263.617 149.052 264.209 149.67 264.899 150.055C265.794 150.557 266.69 150.808 267.568 150.808H269.136V153.316H249.561V150.808H251.559C252.634 150.808 253.413 150.664 253.879 150.378C254.345 150.091 254.578 149.759 254.578 149.383C254.578 149.168 254.497 148.944 254.327 148.711L245.843 134.117L240.772 139.976V148.711C240.772 149.41 240.96 149.939 241.328 150.288C241.695 150.637 242.206 150.817 242.851 150.817H246.461V153.325H226.94V150.817H229.771C230.595 150.817 231.213 150.637 231.616 150.279C232.02 149.921 232.226 149.401 232.226 148.711V117.839C232.226 117.212 232.028 116.737 231.643 116.424C231.258 116.11 230.631 115.949 229.771 115.949H226.94V113.44L226.931 113.422Z" fill="#F0F3FA"/>
<path d="M290.682 112.428C294.436 112.428 297.903 113.333 301.074 115.151C304.246 116.961 306.719 119.443 308.492 122.578C310.266 125.714 311.144 129.244 311.144 133.177C311.144 139.161 309.191 144.142 305.276 148.129C301.37 152.116 296.514 154.114 290.727 154.114C286.884 154.114 283.434 153.209 280.388 151.39C277.342 149.58 274.941 147.126 273.177 144.044C271.412 140.962 270.534 137.387 270.534 133.311C270.534 127.255 272.469 122.265 276.33 118.332C280.191 114.399 284.975 112.428 290.673 112.428H290.682ZM290.843 115.017C288.702 115.017 286.848 115.608 285.28 116.782C283.703 117.956 282.458 119.855 281.535 122.48C280.612 125.105 280.147 128.697 280.147 133.257C280.147 138.05 280.577 141.688 281.428 144.151C282.279 146.624 283.524 148.452 285.164 149.634C286.803 150.817 288.702 151.408 290.879 151.408C294.095 151.408 296.667 150.028 298.593 147.269C300.519 144.51 301.478 139.717 301.478 132.899C301.478 128.124 301.065 124.531 300.241 122.139C299.417 119.738 298.181 117.956 296.55 116.782C294.911 115.608 293.02 115.017 290.861 115.017H290.843Z" fill="#F0F3FA"/>
<path d="M318.258 163.359H183.346V169.433H318.258V163.359Z" fill="#F0F3FA"/>
<path d="M271.349 185.72L264.612 183.391C264.245 181.644 262.695 180.327 260.831 180.327C258.699 180.327 256.97 182.056 256.97 184.188C256.97 186.32 258.699 188.049 260.831 188.049C262.274 188.049 263.51 187.252 264.182 186.078L270.48 188.255C274.718 189.716 277.145 194.267 276.017 198.603L265.66 238.156C264.424 242.86 260.993 246.739 256.468 248.522C252.58 250.054 248.181 249.928 244.392 248.172L243.917 247.948C239.903 246.094 236.893 242.591 235.657 238.353L224.181 199.149C222.926 194.858 225.22 190.244 229.404 188.659L234.25 186.813C234.958 187.566 235.953 188.049 237.064 188.049C239.196 188.049 240.925 186.32 240.925 184.188C240.925 182.056 239.196 180.327 237.064 180.327C234.931 180.327 233.202 182.056 233.202 184.188C233.202 184.242 233.211 184.287 233.22 184.332L228.445 186.141C222.962 188.229 219.952 194.276 221.601 199.902L233.077 239.106C234.537 244.087 238.076 248.199 242.788 250.385L243.263 250.609C245.001 251.415 246.847 251.926 248.719 252.141V378.873C243.953 379.169 240.28 380.996 240.28 383.209C240.28 385.628 244.661 387.59 250.063 387.59C255.465 387.59 259.846 385.628 259.846 383.209C259.846 380.996 256.173 379.169 251.407 378.873V252.24C253.467 252.177 255.519 251.783 257.454 251.012C262.767 248.907 266.807 244.356 268.258 238.828L278.615 199.275C280.102 193.586 276.922 187.628 271.358 185.702L271.349 185.72Z" fill="#F0F3FA"/>
<path d="M247.725 374.071C253.611 373.865 275.712 370.138 240.593 336.086C238.506 334.061 237.529 331.105 238.148 328.256C239.178 323.498 243.657 316.609 257.257 306.512C260.07 304.425 261.898 301.182 261.942 297.688C261.996 293.038 259.219 288.855 256.495 285.316C253.951 282.001 251.084 278.937 248.182 275.945C246.237 273.947 244.258 271.985 242.26 270.041C240.88 268.697 239.267 267.765 238.237 266.072C238.013 265.714 237.816 265.32 237.789 264.899C237.744 264.227 238.157 263.582 238.694 263.178C240.065 262.148 242.09 261.835 243.738 261.638C250.045 260.858 256.182 262.157 262.444 261.915C264.451 261.835 266.879 261.512 268.276 259.891C271.036 256.683 268.187 251.263 266.583 248.208C263.671 242.645 259.882 237.547 256.227 232.459C253.494 228.651 249.714 224.494 248.191 219.979C247.993 219.388 247.752 218.76 247.841 218.124C248.853 211.208 250.708 209.354 250.538 206.827C250.368 204.301 245.987 205.143 246.157 198.397C246.327 191.651 245.987 189.626 243.792 189.626C241.597 189.626 235.191 199.409 237.386 206.326C239.581 213.242 237.046 212.229 237.888 215.266C238.416 217.166 240.11 219.047 241.194 220.651C243.433 223.948 245.736 227.209 247.984 230.497C250.511 234.188 253.01 237.906 255.349 241.713C257.472 245.171 260.034 248.997 260.903 253.01C260.984 253.368 261.046 253.754 260.903 254.094C260.661 254.721 259.9 254.936 259.246 255.053C253.414 256.065 247.384 255.053 241.489 255.429C237.691 255.671 231.85 256.235 230.291 260.455C226.752 270.068 257.517 290.449 254.91 297.222C252.168 304.344 233.453 315.14 231.599 325.595C228.642 342.267 254.193 353.466 254.533 363.079C254.632 365.901 250.681 371.84 247.707 372.494C246.82 372.692 247.277 374.098 247.707 374.08L247.725 374.071Z" fill="#F0F3FA"/>
<path d="M336.363 412.881H164.309V88.0417H336.363V412.881ZM167.892 409.297H332.78V91.6253H167.892V409.297Z" fill="#F0F3FA"/>
<path d="M326.303 403.385H174.369V97.5293H326.303V403.385ZM177.953 399.801H322.719V101.113H177.953V399.801Z" fill="#F0F3FA"/>
</g>
<defs>
<clipPath id="clip0_2003_10758">
<rect width="191.236" height="346.134" fill="white" transform="translate(154.382 76.9329)"/>
</clipPath>
</defs>
</svg>
