<svg width="500" height="500" viewBox="0 0 500 500" fill="none" xmlns="http://www.w3.org/2000/svg">
<rect width="500" height="500" fill="white"/>
<g clip-path="url(#clip0_2003_10819)">
<path d="M317.156 380.013H127.228L182.844 119.987H372.773L317.156 380.013Z" fill="#DFAD0E"/>
<path d="M182.602 375.129L177.035 365.964L192.108 331.222L191.55 290.3L227.111 315.366L216.94 365.73L221.463 375.129H182.602Z" fill="#002E69"/>
<path d="M193.943 294.842L224.53 316.4L214.502 366.036L217.758 372.809H183.915L179.652 365.794L194.446 331.698L193.943 294.851M189.158 285.768L189.284 294.905L189.77 330.754L175.38 363.932L174.417 366.144L175.668 368.204L179.931 375.219L181.289 377.458H225.169L221.949 370.776L219.368 365.416L229.081 317.318L229.684 314.341L227.201 312.587L196.614 291.029L189.14 285.759L189.158 285.768Z" fill="#DFAD0E"/>
<path d="M255.864 374.886C255.343 374.886 254.821 374.707 254.399 374.365L224.063 349.794C223.496 349.335 223.172 348.634 223.199 347.896C223.226 347.159 223.595 346.484 224.198 346.071L241.232 334.208L193.898 301.723L164.956 313.199C164.687 313.307 164.39 313.361 164.102 313.361C164.075 313.361 149.604 312.857 149.604 312.857C148.921 312.83 148.282 312.506 147.859 311.976C147.437 311.436 147.266 310.743 147.401 310.069L166.341 216.67C166.485 215.977 166.926 215.392 167.547 215.069C167.879 214.889 168.257 214.808 168.626 214.808C168.941 214.808 169.255 214.871 169.552 214.997L249.02 249.344C249.83 249.694 250.378 250.477 250.423 251.358L251.925 279.94C251.943 280.246 251.898 280.552 251.799 280.839L247.671 292.531L266.585 321.14C266.828 321.509 266.963 321.932 266.972 322.363L267.475 342.167C267.475 342.482 267.43 342.797 267.313 343.094C260.919 359.067 259.102 363.006 258.41 364.166C258.176 365.236 258.113 369.247 258.203 372.494C258.23 373.402 257.726 374.248 256.908 374.653C256.584 374.814 256.224 374.895 255.873 374.895L255.864 374.886Z" fill="#002E69"/>
<path d="M168.626 217.128L248.094 251.475L249.596 280.057L245.081 292.846L264.633 322.426L265.137 342.23C265.137 342.23 257.114 362.286 256.359 363.033C255.603 363.788 255.855 372.557 255.855 372.557L225.52 347.986L245.324 334.199L194.186 299.106L164.084 311.04L149.667 310.537L168.608 217.137M168.626 212.469C167.879 212.469 167.142 212.649 166.467 213C165.226 213.648 164.336 214.826 164.057 216.202L145.116 309.601C144.846 310.941 145.179 312.335 146.024 313.415C146.87 314.494 148.156 315.141 149.523 315.186L163.94 315.69C163.994 315.69 164.048 315.69 164.102 315.69C164.686 315.69 165.271 315.582 165.82 315.366L193.61 304.349L237.139 334.226L222.866 344.164C221.661 345 220.924 346.358 220.87 347.824C220.816 349.29 221.454 350.693 222.597 351.62L252.932 376.19C253.778 376.874 254.821 377.234 255.864 377.234C256.566 377.234 257.276 377.072 257.933 376.748C259.561 375.939 260.577 374.257 260.523 372.44C260.442 369.454 260.496 366.18 260.64 364.948C261.665 363.042 263.779 358.185 269.463 343.975C269.697 343.39 269.813 342.761 269.795 342.122L269.292 322.318C269.274 321.446 269.004 320.592 268.518 319.863L250.243 292.216L253.985 281.622C254.191 281.046 254.272 280.435 254.245 279.823L252.743 251.241C252.653 249.469 251.565 247.914 249.937 247.203L170.469 212.856C169.876 212.604 169.246 212.469 168.617 212.469H168.626Z" fill="#DFAD0E"/>
<path d="M299.636 336.456C295.481 336.456 291.569 334.838 288.628 331.897C285.39 328.659 283.753 324.198 284.122 319.638L287.873 273.15L282.359 242.742L263.338 262.375L262.313 262.348C261.746 262.33 248.255 261.917 231.122 258.436C207.973 253.733 190.219 245.98 178.375 235.412C168.212 226.347 162.896 212.487 162.573 194.212C162.303 179.31 165.514 165.028 167.447 157.842C168.508 153.894 172.106 151.142 176.189 151.142C176.63 151.142 177.07 151.178 177.502 151.241L222.587 157.806L227.543 154.973C230.421 153.327 233.686 152.464 236.995 152.464C237.814 152.464 238.632 152.518 239.442 152.617L257.231 154.919C261.431 155.459 265.388 157.428 268.365 160.441L292.414 184.841C296.039 188.519 298.026 193.583 297.892 198.736L297.856 200.058L308.216 213.405C312.209 218.549 314.566 224.701 315.024 231.194L317.624 267.871C317.983 272.97 317.129 278.168 315.15 282.881L299.223 316.787C298.782 317.723 298.701 318.784 298.998 319.782C299.528 321.563 301.183 322.804 303.036 322.804C303.126 322.804 303.216 322.804 303.306 322.804L308.72 322.462L309.493 335.215L301.912 336.321C301.174 336.429 300.419 336.483 299.672 336.483L299.636 336.456ZM250.603 196.829L256.997 196.182L254.569 193.538L250.612 196.829H250.603Z" fill="#002E69"/>
<path d="M176.163 153.471C176.486 153.471 176.81 153.498 177.143 153.543L223.02 160.225L228.668 156.996C231.204 155.548 234.064 154.793 236.96 154.793C237.67 154.793 238.39 154.838 239.109 154.928L256.899 157.23C260.604 157.707 264.049 159.416 266.666 162.078L290.715 186.478C293.908 189.724 295.644 194.122 295.518 198.673L295.455 200.823L306.328 214.826C310.024 219.583 312.228 225.339 312.651 231.356L315.25 268.032C315.592 272.799 314.8 277.575 312.947 281.973L297.065 315.789C296.381 317.246 296.255 318.892 296.714 320.439C297.541 323.236 300.104 325.124 302.991 325.124C303.126 325.124 303.27 325.124 303.414 325.115L306.499 324.917L307.003 333.192L301.543 333.983C300.905 334.073 300.266 334.118 299.637 334.118C296.156 334.118 292.775 332.742 290.274 330.242C287.531 327.499 286.128 323.685 286.443 319.818L290.211 273.024L283.835 237.859L262.367 260.01C262.367 260.01 207.73 258.481 179.904 233.668C157.492 213.684 165.649 173.374 169.678 158.435C170.479 155.467 173.168 153.462 176.172 153.462M243.246 199.914L261.863 198.035L254.785 190.327L243.255 199.914M176.163 148.812C171.027 148.812 166.503 152.275 165.172 157.23C160.63 174.093 152.671 215.626 176.801 237.148C188.97 247.994 207.083 255.927 230.637 260.72C247.968 264.246 261.656 264.66 262.232 264.678L264.283 264.732L265.713 263.257L280.867 247.617L285.517 273.258L281.793 319.44C281.371 324.684 283.259 329.819 286.983 333.533C290.364 336.915 294.861 338.777 299.637 338.777C300.5 338.777 301.364 338.714 302.218 338.588L307.677 337.796L311.913 337.176L311.652 332.904L311.149 324.63L310.87 319.962L306.202 320.259L303.117 320.457C303.117 320.457 303.036 320.457 302.991 320.457C302.164 320.457 301.418 319.899 301.184 319.107C301.049 318.667 301.085 318.19 301.283 317.767L317.165 283.951L317.21 283.861L317.246 283.771C319.369 278.717 320.286 273.159 319.9 267.691L317.3 231.014C316.806 224.053 314.287 217.47 310.006 211.957L300.158 199.267V198.781C300.329 192.998 298.09 187.305 294.025 183.186L269.976 158.786C266.639 155.396 262.205 153.192 257.483 152.589L239.694 150.287C238.786 150.17 237.868 150.107 236.951 150.107C233.236 150.107 229.567 151.079 226.338 152.922L222.084 155.351L177.799 148.902C177.251 148.821 176.702 148.785 176.154 148.785L176.163 148.812Z" fill="#DFAD0E"/>
<path d="M337.76 270.568C334.504 270.568 332.364 270.425 332.049 270.407C293.826 268.68 266.638 242.472 265.505 241.357L263.742 239.63L272.259 231.86C275.47 228.928 279.634 227.318 283.978 227.318C287.593 227.318 291.074 228.424 294.024 230.52C305.005 238.308 325.106 251.826 336.375 254.928C342.005 256.475 348.75 257.258 356.422 257.258C358.976 257.258 361.611 257.168 364.274 256.997C364.39 256.997 364.498 256.988 364.606 256.988C366.846 256.988 368.707 258.535 369.148 260.747C369.589 262.96 368.429 265.109 366.333 265.964C356.557 269.975 344.227 270.568 337.751 270.568H337.76Z" fill="#002E69"/>
<path d="M283.987 229.647C287.018 229.647 290.067 230.565 292.684 232.417C304.529 240.817 324.315 254.02 335.764 257.168C342.509 259.021 349.92 259.578 356.431 259.578C359.327 259.578 362.043 259.47 364.436 259.308C364.499 259.308 364.553 259.308 364.616 259.308C367.107 259.308 367.844 262.825 365.461 263.805C356.198 267.601 344.533 268.239 337.769 268.239C334.361 268.239 332.202 268.077 332.202 268.077C294.411 266.386 267.151 239.684 267.151 239.684L273.842 233.577C276.702 230.969 280.336 229.647 283.987 229.647ZM283.987 224.989C279.059 224.989 274.337 226.814 270.695 230.142L264.003 236.249L260.361 239.576L263.886 243.03C264.183 243.318 271.234 250.171 283.115 257.267C294.096 263.814 311.472 271.819 331.933 272.745C332.364 272.772 334.55 272.916 337.769 272.916C345.891 272.916 357.592 272.088 367.233 268.14C370.372 266.854 372.107 263.634 371.451 260.316C370.794 256.997 367.988 254.677 364.625 254.677C364.463 254.677 364.301 254.677 364.139 254.695C361.531 254.866 358.941 254.955 356.44 254.955C348.976 254.955 342.437 254.2 337.005 252.707C328.911 250.486 314.134 241.942 295.382 228.649C292.028 226.275 288.088 225.016 283.987 225.016V224.989Z" fill="#DFAD0E"/>
</g>
<defs>
<clipPath id="clip0_2003_10819">
<rect width="245.545" height="260.025" fill="white" transform="translate(127.228 119.987)"/>
</clipPath>
</defs>
</svg>
