<svg width="500" height="500" viewBox="0 0 500 500" fill="none" xmlns="http://www.w3.org/2000/svg">
<rect width="500" height="500" fill="white"/>
<g clip-path="url(#clip0_2003_8672)">
<path d="M249.808 128.886C249.808 132.451 250.09 135.955 250.632 139.374H185.604C185.604 139.374 158.445 186.861 185.604 214.662C206.992 236.569 230.396 238.806 240.625 250.157H77.5237C77.5237 154.809 154.819 77.5215 250.159 77.5215C257.716 77.5215 265.166 78.01 272.463 78.9565C258.578 91.1164 249.808 108.978 249.808 128.886Z" fill="#C1C0C0"/>
<path d="M422.786 250.156H259.678C269.906 238.806 293.31 236.569 314.706 214.661C320.576 208.654 323.904 201.731 325.523 194.563C354.59 190.456 377.605 167.518 381.803 138.481C407.367 168.587 422.786 207.57 422.786 250.156Z" fill="#C1C0C0"/>
<path d="M325.523 194.563C322.462 195.006 319.332 195.227 316.149 195.227C283.074 195.227 255.655 171.029 250.632 139.374H314.706C314.706 139.374 331.393 168.556 325.523 194.563Z" fill="#E67716"/>
<path d="M421.191 273.72C419.924 283.025 417.909 292.101 415.214 300.872H85.096C82.4015 292.101 80.3863 283.025 79.1191 273.72H421.191Z" fill="#E67716"/>
<path d="M411.298 312.192C408.138 320.421 404.352 328.344 400.016 335.909H100.302C95.9583 328.344 92.1798 320.421 89.012 312.192H411.298Z" fill="#E67716"/>
<path d="M390.398 350.832C385.521 357.61 380.17 364.015 374.391 370.007H125.904C120.125 364.015 114.774 357.61 109.904 350.832H390.398Z" fill="#E67716"/>
<path d="M358.544 384.518C351.216 390.442 343.392 395.77 335.141 400.449H165.162C156.91 395.777 149.086 390.442 141.758 384.518H358.544Z" fill="#E67716"/>
<path d="M293.646 417.257C280.44 420.685 266.616 422.593 252.38 422.769H247.922C233.686 422.593 219.862 420.685 206.657 417.257H293.646Z" fill="#E67716"/>
</g>
<defs>
<clipPath id="clip0_2003_8672">
<rect width="345.263" height="345.247" fill="white" transform="translate(77.5237 77.5215)"/>
</clipPath>
</defs>
</svg>
