<svg width="500" height="500" viewBox="0 0 500 500" fill="none" xmlns="http://www.w3.org/2000/svg">
<rect width="500" height="500" fill="white"/>
<path d="M249.997 419.604C204.69 419.604 162.105 401.965 130.066 369.926C98.0349 337.895 80.3965 295.302 80.3965 249.996C80.3965 204.69 98.0349 162.105 130.074 130.073C162.113 98.0421 204.698 80.396 249.997 80.396C295.295 80.396 337.888 98.0344 369.927 130.073C401.958 162.105 419.604 204.697 419.604 250.004C419.604 295.31 401.966 337.895 369.927 369.934C337.896 401.965 295.303 419.611 249.997 419.611V419.604Z" fill="#FF0000"/>
<path d="M249.996 85.7927C340.686 85.7927 414.2 159.307 414.2 249.996C414.2 340.686 340.686 414.2 249.996 414.2C159.307 414.2 85.7927 340.686 85.7927 249.996C85.7927 159.307 159.307 85.7927 249.996 85.7927ZM249.996 75C226.376 75 203.457 79.6255 181.879 88.753C161.041 97.5645 142.323 110.184 126.258 126.25C110.192 142.316 97.5722 161.033 88.7607 181.871C79.6255 203.457 75 226.376 75 249.996C75 273.617 79.6255 296.536 88.753 318.114C97.5645 338.952 110.184 357.669 126.25 373.735C142.316 389.801 161.033 402.421 181.871 411.232C203.457 420.36 226.376 424.985 249.989 424.985C273.602 424.985 296.528 420.36 318.106 411.232C338.944 402.421 357.662 389.801 373.727 373.735C389.793 357.669 402.413 338.952 411.224 318.114C420.352 296.528 424.977 273.609 424.977 249.996C424.977 226.383 420.352 203.457 411.224 181.879C402.413 161.041 389.793 142.323 373.727 126.258C357.662 110.192 338.944 97.5722 318.106 88.7607C296.536 79.6255 273.617 75 249.996 75Z" fill="#FFFF00"/>
<path d="M249.996 406.868C311.387 406.868 361.154 357.102 361.154 295.711C361.154 234.321 311.387 184.554 249.996 184.554C188.606 184.554 138.839 234.321 138.839 295.711C138.839 357.102 188.606 406.868 249.996 406.868Z" fill="#FFFF00"/>
<path d="M219.453 259.47C219.453 259.47 210.456 262.084 202.038 262.955C193.62 263.826 184.338 258.892 184.338 258.892C195.655 277.463 193.912 308.23 193.912 308.23L188.979 312.871L183.174 303.004C168.665 315.77 153.571 308.808 153.571 308.808C153.571 308.808 161.041 332.861 187.529 335.513C205.584 337.317 213.648 323.61 213.648 323.61C207.843 294.585 219.453 259.47 219.453 259.47Z" fill="#FF0000"/>
<path d="M252.247 291.933C252.247 291.933 257.474 306.95 252.903 315.222H239.404C239.404 315.222 236.575 307.39 243.104 293.02C243.104 293.02 230.045 300.853 221.989 292.588C221.989 292.588 210.672 313.919 228.958 330.024C239.659 339.452 251.107 336.877 258.762 333.115C264.705 330.193 268.976 324.72 270.402 318.26C271.852 311.684 272.969 302.009 270.965 291.062C270.965 291.062 264.651 296.936 252.247 291.933Z" fill="#FF0000"/>
<path d="M275.105 261.899C275.105 261.899 289.035 290.415 272.276 337.209H300.792C300.792 337.209 291.433 298.247 305.363 263.633C305.363 263.633 289.259 269.508 275.105 261.891V261.899Z" fill="#FF0000"/>
<path d="M336.053 293.02C336.053 293.02 322.778 299.55 307.321 293.236C307.321 293.236 316.248 314.567 307.537 336.985H332.352C332.352 336.985 320.164 321.529 336.053 293.013V293.02Z" fill="#FF0000"/>
<path d="M322.123 290.414C337.14 290.63 335.837 269.955 335.837 269.955C335.837 269.955 324.736 267.996 333.44 257.551C333.44 257.551 324.952 252.979 322.554 239.92C322.554 239.92 321.683 252.763 309.927 257.119C309.927 257.119 318.854 266.046 308.624 270.833C308.624 270.833 307.098 290.206 322.123 290.422V290.414Z" fill="#FF0000"/>
</svg>
