<svg width="500" height="500" viewBox="0 0 500 500" fill="none" xmlns="http://www.w3.org/2000/svg">
<rect width="500" height="500" fill="white"/>
<g clip-path="url(#clip0_2003_10371)">
<path d="M406.823 206.577C415.115 198.868 401.752 171.012 376.975 144.358C352.199 117.704 325.39 102.346 317.098 110.055C308.805 117.764 322.168 145.62 346.945 172.274C371.722 198.927 398.53 214.285 406.823 206.577Z" fill="#204BEF"/>
<path d="M333.737 362.544C312.712 382.118 249.237 348.085 192.045 286.462C134.812 224.879 105.491 159.148 126.515 139.614C141.981 125.236 180.324 139.735 222.212 172.883C194.663 153.55 170.738 146.018 160.347 155.685C144.277 170.587 166.993 221.134 211.055 268.579C255.158 315.985 303.892 342.325 319.962 327.342C330.313 317.716 324.594 293.349 307.396 264.471C337.482 308.815 349.243 348.165 333.737 362.544Z" fill="#61D0F9"/>
<path d="M288.829 382.642C253.748 406.043 190.555 386.911 141.981 336.566C91.2735 284.005 75.163 216.704 104.766 183.798C88.4139 202.687 114.473 259.84 164.335 313.447C213.794 366.693 268.449 396.819 288.829 382.682V382.642Z" fill="#204BEF"/>
<path d="M333.616 178.926C286.614 128.379 234.536 100.468 217.298 116.498C200.06 132.528 224.065 186.498 271.027 237.045C318.029 287.551 370.066 315.503 387.345 299.433C404.623 283.363 380.578 229.433 333.616 178.886V178.926ZM286.654 222.304C250.486 183.397 230.992 142.758 243.075 131.481C255.158 120.203 294.306 142.677 330.475 181.584C366.643 220.491 386.137 261.13 374.054 272.407C361.971 283.685 322.822 261.211 286.654 222.304Z" fill="#204BEF"/>
</g>
<defs>
<clipPath id="clip0_2003_10371">
<rect width="319.311" height="284.472" fill="white" transform="translate(89.9846 108.079)"/>
</clipPath>
</defs>
</svg>
