<svg width="500" height="500" viewBox="0 0 500 500" fill="none" xmlns="http://www.w3.org/2000/svg">
<rect width="500" height="500" fill="white"/>
<g clip-path="url(#clip0_2003_10399)">
<path d="M167.5 274.24H191.19V264.17H177.81V216.96H191.19V207.19H177.81V168.23H191.19V157.94H167.5V274.24Z" fill="black"/>
<path d="M246.38 159.11C245.07 158.7 243.68 158.48 242.24 158.48C240.8 158.48 239.41 158.7 238.11 159.1C233.77 160.45 230.34 163.88 228.99 168.22C228.66 169.28 228.45 170.4 228.39 171.56V261.12C228.72 267 232.71 271.9 238.12 273.58C239.42 273.99 240.81 274.2 242.25 274.2C243.69 274.2 245.08 273.98 246.39 273.57C251.84 271.87 255.85 266.9 256.12 260.96V230.74H246.39V258.87C246.39 261.15 244.54 263.01 242.25 263.01C239.96 263.01 238.27 261.31 238.12 259.16C238.12 259.07 238.11 258.97 238.11 258.88C238.11 258.79 238.11 258.69 238.12 258.6V172.58C238.12 172.51 238.12 172.44 238.12 172.37C238.12 172.3 238.12 172.23 238.12 172.16C238.23 170.05 239.92 168.35 242.04 168.24C242.11 168.24 242.18 168.24 242.25 168.24C242.32 168.24 242.39 168.24 242.46 168.24C244.64 168.35 246.38 170.16 246.38 172.37V193.36H256.11V171.72C256.06 170.51 255.85 169.34 255.5 168.23C254.15 163.89 250.72 160.46 246.38 159.11Z" fill="black"/>
<path d="M348.91 157.97H348.9C348.78 157.97 348.67 157.97 348.55 157.97C348.51 157.97 348.47 157.97 348.42 157.97L345.83 157.94H327.11V274.24H336.83V168.23H344.95C345.43 168.23 345.82 168.62 345.82 169.1V274.24H355.54V219.01C355.53 218.3 355.41 217.61 355.19 216.96C355.19 216.96 355.19 216.96 355.19 216.95C354.33 214.31 351.95 212.36 349.09 212.12C351.98 211.87 354.37 209.89 355.21 207.21C355.21 207.21 355.21 207.21 355.21 207.2C355.21 207.2 355.48 206.45 355.54 205.65V164.55C355.33 160.99 352.46 158.15 348.89 157.97H348.91Z" fill="black"/>
<path d="M296.96 257.5C296.98 257.67 296.99 257.85 296.99 258.03C296.99 258.21 296.98 258.39 296.96 258.56C296.7 261.07 294.57 263.03 291.99 263.03C289.41 263.03 287.13 260.93 287 258.29C287 258.21 287 258.12 287 258.03C287 257.94 287 257.86 287 257.77V157.94H277.27V258.82C277.58 264.87 281.54 269.96 287 271.92C288.56 272.48 290.23 272.78 291.98 272.78C293.73 272.78 295.41 272.47 296.97 271.91C302.47 269.93 306.45 264.78 306.7 258.66V157.94H296.97V257.5H296.96Z" fill="black"/>
<path d="M400.21 168.23V157.94H377.2V274.24H400.21V264.26H386.93V216.96H400.21V207.19H386.93V168.23H400.21Z" fill="black"/>
<path d="M150.32 168.22C148.85 163.71 145.3 160.15 140.81 158.66C139.44 158.2 137.98 157.94 136.46 157.9C136.33 157.9 136.2 157.9 136.07 157.9C135.94 157.9 135.81 157.9 135.68 157.9C134.21 157.94 132.79 158.19 131.46 158.62C129.57 159.23 127.84 160.21 126.36 161.47C126.36 161.47 126.35 161.48 126.34 161.49C124.88 160.25 123.18 159.28 121.32 158.67C120.05 158.25 118.72 158 117.33 157.94H115.96C114.58 158 113.26 158.25 112 158.66C107.49 160.14 103.92 163.71 102.44 168.23C101.96 169.69 101.7 171.25 101.7 172.87V274.24H112.01V173.01C112.01 173.01 112.01 172.93 112.01 172.89C112.01 172.85 112.01 172.81 112.01 172.77C112.07 170.26 114.12 168.25 116.65 168.25C118.8 168.25 120.61 169.71 121.14 171.7C121.14 171.7 121.31 172.39 121.33 173.09V175.55V274.24H131.44V172.94C131.44 172.85 131.44 172.75 131.45 172.66C131.47 172.37 131.51 172.08 131.58 171.83C132.06 169.78 133.91 168.25 136.11 168.25C138.59 168.25 140.62 170.18 140.76 172.63V274.24H151.07V172.57C151.04 171.06 150.78 169.6 150.34 168.23C150.34 168.23 150.34 168.23 150.34 168.22H150.32Z" fill="black"/>
<path d="M104.97 285.83V309.88H101.74V285.83H104.97Z" fill="black"/>
<path d="M124.14 309.88V285.83H127.86L135.8 300.15C136.06 300.62 136.36 301.19 136.69 301.85C137.02 302.51 137.37 303.25 137.74 304.07C138.11 304.89 138.47 305.79 138.83 306.76H138.43C138.35 305.84 138.28 304.94 138.24 304.04C138.2 303.14 138.17 302.3 138.15 301.51C138.13 300.72 138.12 300.06 138.12 299.52V285.83H141.39V309.88H137.65L130.53 297.08C130.15 296.38 129.78 295.68 129.42 294.96C129.06 294.25 128.66 293.43 128.22 292.5C127.78 291.57 127.25 290.44 126.61 289.1H127.12C127.17 290.28 127.21 291.39 127.26 292.42C127.31 293.45 127.34 294.36 127.37 295.15C127.4 295.94 127.41 296.57 127.41 297.05V309.88H124.14Z" fill="black"/>
<path d="M163.8 285.83V309.88H160.57V285.83H163.8ZM167.43 309.88H162.22V306.65H167.26C168.86 306.65 170.18 306.31 171.24 305.63C172.3 304.95 173.09 303.95 173.62 302.64C174.15 301.32 174.41 299.72 174.41 297.82C174.41 295.92 174.15 294.34 173.62 293.04C173.1 291.74 172.32 290.75 171.28 290.07C170.25 289.39 168.96 289.05 167.42 289.05H162.1V285.82H167.64C169.72 285.82 171.5 286.3 172.98 287.26C174.46 288.22 175.6 289.59 176.39 291.38C177.18 293.17 177.58 295.32 177.58 297.81C177.58 300.3 177.18 302.47 176.38 304.27C175.58 306.07 174.43 307.45 172.91 308.42C171.39 309.39 169.57 309.87 167.42 309.87L167.43 309.88Z" fill="black"/>
<path d="M204.42 310.25C202.73 310.25 201.25 309.88 199.99 309.14C198.72 308.4 197.75 307.38 197.05 306.08C196.35 304.78 196.01 303.29 196.01 301.62V285.83H199.24V301.31C199.24 302.4 199.45 303.36 199.87 304.2C200.29 305.04 200.89 305.7 201.66 306.19C202.43 306.67 203.35 306.92 204.42 306.92C205.49 306.92 206.39 306.68 207.16 306.19C207.93 305.7 208.52 305.04 208.94 304.2C209.36 303.36 209.56 302.4 209.56 301.31V285.83H212.8V301.62C212.8 303.3 212.45 304.79 211.76 306.08C211.07 307.38 210.09 308.4 208.83 309.14C207.57 309.88 206.1 310.25 204.42 310.25Z" fill="black"/>
<path d="M239.05 310.29C237.47 310.29 236.1 310 234.94 309.43C233.78 308.86 232.87 308.04 232.21 306.98C231.55 305.92 231.19 304.66 231.13 303.19H234.37C234.44 304.06 234.68 304.78 235.11 305.35C235.54 305.92 236.1 306.35 236.79 306.63C237.48 306.91 238.22 307.05 239.03 307.05C239.93 307.05 240.72 306.89 241.42 306.57C242.11 306.25 242.66 305.8 243.07 305.21C243.48 304.62 243.68 303.94 243.68 303.17C243.68 302.47 243.5 301.9 243.15 301.45C242.8 301 242.32 300.63 241.72 300.34C241.12 300.05 240.44 299.78 239.67 299.56L237.21 298.78C235.48 298.25 234.13 297.47 233.17 296.44C232.21 295.41 231.72 294.07 231.72 292.42C231.72 291.03 232.05 289.82 232.7 288.78C233.36 287.74 234.25 286.93 235.38 286.36C236.51 285.78 237.78 285.5 239.2 285.5C240.62 285.5 241.92 285.79 243.02 286.36C244.12 286.94 244.98 287.72 245.61 288.72C246.24 289.72 246.57 290.86 246.59 292.14H243.45C243.35 291.04 242.9 290.19 242.11 289.59C241.32 288.99 240.33 288.69 239.13 288.69C238.28 288.69 237.54 288.84 236.91 289.14C236.28 289.44 235.8 289.86 235.45 290.39C235.11 290.92 234.93 291.53 234.93 292.21C234.93 292.97 235.14 293.59 235.55 294.06C235.96 294.53 236.46 294.9 237.05 295.17C237.64 295.44 238.2 295.66 238.74 295.82L240.79 296.43C241.46 296.62 242.15 296.89 242.86 297.21C243.57 297.53 244.23 297.96 244.84 298.49C245.44 299.01 245.93 299.66 246.31 300.43C246.69 301.2 246.87 302.13 246.87 303.21C246.87 304.57 246.56 305.78 245.95 306.84C245.34 307.91 244.45 308.74 243.28 309.35C242.11 309.96 240.7 310.26 239.05 310.26V310.29Z" fill="black"/>
<path d="M264.15 288.99V285.83H280.53V288.99H273.97V309.88H270.73V288.99H264.15Z" fill="black"/>
<path d="M298.64 309.88V285.83H306.2C307.82 285.83 309.18 286.15 310.26 286.79C311.34 287.43 312.16 288.32 312.7 289.46C313.24 290.6 313.51 291.91 313.51 293.38C313.51 294.85 313.24 296.17 312.7 297.28C312.16 298.39 311.34 299.26 310.26 299.87C309.18 300.48 307.81 300.79 306.18 300.79H300.5V297.64H305.87C306.91 297.64 307.75 297.47 308.38 297.13C309.02 296.79 309.49 296.3 309.79 295.67C310.09 295.04 310.24 294.27 310.24 293.38C310.24 292.49 310.09 291.7 309.79 291.04C309.49 290.38 309.02 289.88 308.37 289.51C307.73 289.15 306.88 288.97 305.83 288.97H301.87V309.88H298.64ZM310.64 309.88L305.53 299.02H309.11L314.31 309.88H310.64Z" fill="black"/>
<path d="M335.17 285.83V309.88H331.94V285.83H335.17Z" fill="black"/>
<path d="M354.34 309.88V285.83H367.62V288.99H357.57V296.16H366.9V299.31H357.57V306.72H367.71V309.88H354.34Z" fill="black"/>
<path d="M393.41 310.29C391.83 310.29 390.46 310 389.3 309.43C388.14 308.86 387.23 308.04 386.57 306.98C385.91 305.92 385.55 304.66 385.49 303.19H388.73C388.8 304.06 389.04 304.78 389.47 305.35C389.9 305.92 390.46 306.35 391.15 306.63C391.84 306.91 392.59 307.05 393.39 307.05C394.29 307.05 395.08 306.89 395.78 306.57C396.47 306.25 397.02 305.8 397.43 305.21C397.84 304.62 398.04 303.94 398.04 303.17C398.04 302.47 397.86 301.9 397.51 301.45C397.16 301 396.68 300.63 396.08 300.34C395.48 300.05 394.8 299.78 394.03 299.56L391.57 298.78C389.84 298.25 388.49 297.47 387.53 296.44C386.57 295.41 386.08 294.07 386.08 292.42C386.08 291.03 386.41 289.82 387.06 288.78C387.72 287.74 388.61 286.93 389.74 286.36C390.87 285.78 392.14 285.5 393.56 285.5C394.98 285.5 396.28 285.79 397.38 286.36C398.48 286.94 399.34 287.72 399.97 288.72C400.6 289.72 400.93 290.86 400.95 292.14H397.81C397.71 291.04 397.26 290.19 396.47 289.59C395.68 288.99 394.69 288.69 393.49 288.69C392.64 288.69 391.9 288.84 391.27 289.14C390.64 289.44 390.16 289.86 389.81 290.39C389.47 290.92 389.29 291.53 389.29 292.21C389.29 292.97 389.5 293.59 389.91 294.06C390.32 294.53 390.82 294.9 391.41 295.17C392 295.44 392.56 295.66 393.1 295.82L395.15 296.43C395.82 296.62 396.51 296.89 397.22 297.21C397.93 297.53 398.59 297.96 399.2 298.49C399.8 299.01 400.29 299.66 400.67 300.43C401.04 301.2 401.23 302.13 401.23 303.21C401.23 304.57 400.92 305.78 400.31 306.84C399.7 307.91 398.81 308.74 397.64 309.35C396.47 309.96 395.06 310.26 393.41 310.26V310.29Z" fill="black"/>
<path d="M234.57 341.901V326.541H239.4C240.44 326.541 241.3 326.761 241.99 327.201C242.68 327.641 243.2 328.231 243.55 328.981C243.9 329.731 244.07 330.581 244.07 331.531C244.07 332.481 243.9 333.331 243.55 334.081C243.2 334.831 242.68 335.431 241.99 335.861C241.3 336.301 240.43 336.511 239.39 336.511H236.09V334.521H239.19C239.85 334.521 240.39 334.391 240.8 334.131C241.21 333.871 241.51 333.511 241.7 333.061C241.89 332.611 241.98 332.101 241.98 331.521C241.98 330.941 241.89 330.431 241.7 329.981C241.51 329.531 241.21 329.181 240.8 328.921C240.39 328.671 239.85 328.541 239.18 328.541H236.65V341.891H234.59L234.57 341.901Z" fill="black"/>
<path d="M246.46 341.901V326.541H248.52V339.881H254.62V341.901H246.46Z" fill="black"/>
<path d="M262 342.11C260.84 342.11 259.8 341.8 258.88 341.17C257.96 340.54 257.24 339.64 256.72 338.46C256.2 337.28 255.93 335.88 255.93 334.24C255.93 332.6 256.19 331.19 256.72 330.01C257.24 328.83 257.96 327.93 258.88 327.29C259.8 326.66 260.84 326.34 262 326.34C262.71 326.34 263.38 326.46 264 326.69C264.62 326.92 265.18 327.26 265.67 327.71C266.16 328.16 266.57 328.7 266.89 329.34C267.21 329.98 267.43 330.7 267.55 331.51H265.48C265.4 331.02 265.25 330.59 265.03 330.22C264.82 329.85 264.56 329.53 264.25 329.27C263.94 329.01 263.6 328.81 263.22 328.68C262.84 328.55 262.44 328.48 262.02 328.48C261.25 328.48 260.56 328.7 259.94 329.14C259.33 329.58 258.85 330.23 258.5 331.09C258.15 331.95 257.98 332.99 257.98 334.23C257.98 335.47 258.16 336.51 258.51 337.37C258.86 338.23 259.35 338.87 259.96 339.31C260.57 339.75 261.26 339.97 262.02 339.97C262.44 339.97 262.84 339.9 263.22 339.77C263.6 339.64 263.94 339.44 264.25 339.18C264.56 338.92 264.82 338.6 265.04 338.23C265.26 337.86 265.4 337.42 265.49 336.94H267.57C267.47 337.7 267.26 338.39 266.95 339.02C266.64 339.65 266.24 340.2 265.75 340.66C265.26 341.13 264.7 341.49 264.07 341.74C263.44 341.99 262.75 342.12 262.01 342.12L262 342.11Z" fill="black"/>
<path d="M229.03 332.01H98.77V334.71H229.03V332.01Z" fill="#ECCC75"/>
<path d="M401.09 332.01H270.83V334.71H401.09V332.01Z" fill="#ECCC75"/>
</g>
<defs>
<clipPath id="clip0_2003_10399">
<rect width="302.46" height="184.22" fill="white" transform="translate(98.77 157.89)"/>
</clipPath>
</defs>
</svg>
