<svg width="500" height="500" viewBox="0 0 500 500" fill="none" xmlns="http://www.w3.org/2000/svg">
<rect width="500" height="500" fill="white"/>
<g clip-path="url(#clip0_2003_10428)">
<path d="M441.785 128.72L439.915 131.72C439.785 131.93 439.585 132.09 439.355 132.17L366.445 159.39C365.215 159.85 365.645 161.69 366.955 161.54L386.135 159.41C386.555 159.37 386.965 159.56 387.195 159.91L389.625 163.65C384.335 165.02 308.825 184.92 223.335 227.38C137.445 270.05 95.0945 325.72 92.5245 329.16C92.8845 328.55 92.5745 327.72 91.8545 327.52L90.9245 327.27C90.4645 327.14 90.1345 326.73 90.1145 326.26L89.8145 321.15C89.7945 320.84 89.9045 320.52 90.1345 320.3L108.955 301.47C109.205 301.22 109.325 300.87 109.275 300.52L109.095 299.36C108.965 298.48 107.915 298.1 107.255 298.69L58.6445 342.21C57.9145 342.87 56.7445 342.31 56.7945 341.32L57.0045 337.24C57.0245 336.98 57.1245 336.74 57.2945 336.55L88.0345 302.82C88.0345 302.82 88.1045 302.76 88.1445 302.72L129.955 267.45C130.145 267.28 130.275 267.06 130.325 266.81L132.435 256.1C132.485 255.85 132.615 255.62 132.815 255.46L151.645 239.73C151.815 239.6 151.935 239.42 151.995 239.21L155.735 227.48C155.805 227.23 155.965 227.03 156.175 226.89C161.755 223.23 237.185 173.82 237.735 173.64C238.285 173.46 326.555 127.88 330.055 126.07C330.125 126.04 330.195 126.01 330.275 125.99L349.215 121.01C350.445 120.69 351.175 122.33 350.105 123.02L322.965 140.6C322.865 140.67 322.775 140.75 322.705 140.84L322.365 141.27C321.655 142.16 322.565 143.41 323.625 143.01L399.535 114.07C399.715 114.01 399.905 113.98 400.085 114.01L415.065 116.09C416.165 116.24 416.385 117.73 415.385 118.2L370.495 139.05C369.675 139.43 369.625 140.57 370.395 141.02C370.575 141.12 370.765 141.18 370.965 141.18C371.065 141.18 371.175 141.16 371.275 141.13L430.335 123.67C430.555 123.61 430.795 123.61 431.005 123.68L441.195 127.08C441.875 127.3 442.165 128.11 441.785 128.72Z" fill="#E23730"/>
<path d="M374.034 237.79L369.454 243.8C369.244 244.07 368.924 244.23 368.574 244.24L354.224 244.41C353.694 244.41 353.234 244.79 353.144 245.32L351.134 256.04C351.074 256.31 350.924 256.56 350.704 256.73L346.004 260.25C345.854 260.36 345.684 260.43 345.494 260.46L336.254 261.8C335.764 261.88 335.374 262.26 335.304 262.75L334.034 271.5C333.964 271.97 333.614 272.34 333.154 272.43L323.944 274.31C323.324 274.43 322.934 275.05 323.084 275.66L325.284 284.78C325.384 285.19 325.244 285.63 324.914 285.9L318.204 291.43C318.024 291.58 317.794 291.67 317.554 291.68L299.834 292.59C299.604 292.6 299.374 292.69 299.194 292.84L277.594 310.37C277.504 310.45 277.394 310.51 277.274 310.55L220.854 331.17C220.854 331.17 220.774 331.2 220.734 331.23L186.194 348.86C185.734 349.1 185.164 348.98 184.834 348.59L181.774 344.94C181.564 344.7 181.474 344.38 181.524 344.06L181.794 342.28C181.904 341.54 181.274 340.9 180.534 341.01L172.264 342.21C171.894 342.27 171.514 342.13 171.264 341.84L167.174 337.12C166.924 336.83 166.544 336.69 166.164 336.74L163.234 337.18C163.084 337.21 162.934 337.26 162.804 337.34L153.304 343.26C153.124 343.37 152.914 343.43 152.704 343.42C150.654 343.39 139.714 343.22 140.224 343.05C140.594 342.93 143.724 337.86 145.834 334.39C146.404 333.44 145.394 332.33 144.394 332.81L133.134 338.23C132.974 338.31 132.794 338.34 132.614 338.34L127.754 338.19C137.284 329.57 215.134 261.56 332.544 229.97C332.514 230.3 332.634 230.64 332.904 230.88L336.904 234.45C337.154 234.68 337.504 234.78 337.844 234.72L367.174 229.29C367.564 229.22 367.964 229.36 368.224 229.66L373.994 236.39C374.334 236.79 374.354 237.38 374.034 237.79Z" fill="#383F83"/>
<path d="M395.475 174.46L385.685 182.71C385.565 182.81 385.415 182.89 385.265 182.93L327.605 198.98C327.425 199.03 327.265 199.12 327.135 199.25L316.425 209.51C315.635 210.27 316.305 211.6 317.385 211.41L339.055 207.61C339.385 207.56 339.715 207.65 339.965 207.85L346.555 213.34C347.055 213.76 347.095 214.51 346.645 214.98L332.845 229.28C332.655 229.47 332.555 229.72 332.545 229.97C215.135 261.56 137.285 329.57 127.755 338.19L121.255 337.99C120.885 337.98 120.535 337.77 120.335 337.45L115.685 329.69C115.325 329.1 114.525 328.97 114.005 329.42L95.1747 345.61C94.9747 345.78 94.7147 345.88 94.4447 345.88H87.3947C86.8247 345.88 86.3447 345.45 86.2847 344.89L85.5047 337.89C85.4747 337.58 85.5647 337.27 85.7647 337.04L92.4047 329.33C92.4047 329.33 92.4447 329.27 92.5247 329.16C95.0947 325.72 137.445 270.05 223.335 227.38C308.825 184.92 384.335 165.02 389.625 163.65L395.695 173C395.995 173.48 395.905 174.1 395.475 174.46Z" fill="#F7BF2A"/>
</g>
<defs>
<clipPath id="clip0_2003_10428">
<rect width="385.16" height="234.99" fill="white" transform="translate(56.7944 114)"/>
</clipPath>
</defs>
</svg>
