<svg width="500" height="500" viewBox="0 0 500 500" fill="none" xmlns="http://www.w3.org/2000/svg">
<rect width="500" height="500" fill="white"/>
<g clip-path="url(#clip0_2003_10201)">
<path d="M228.96 235.365H245.91V277.815H259.09V235.365H276.03V222.185H228.96V235.365Z" fill="black"/>
<path d="M250 166.565C157.84 166.565 83.13 203.925 83.13 249.995C83.13 296.065 157.84 333.435 250 333.435C342.16 333.435 416.87 296.075 416.87 249.995C416.87 203.915 342.16 166.565 250 166.565ZM250 320.265C165.12 320.265 96.3 288.815 96.3 250.005C96.3 211.195 165.12 179.735 250 179.735C334.88 179.735 403.7 211.195 403.7 249.995C403.7 288.795 334.89 320.255 250 320.255V320.265Z" fill="black"/>
<path d="M319.69 255.305L295.79 222.185H282.63V277.815H295.79V244.705L319.69 277.815H332.86V222.185H319.69V255.305Z" fill="black"/>
<path d="M194.56 244.705L179.93 222.185H166.75V277.815H179.93V246.355L189.92 261.715H199.2L209.19 246.355V277.815H222.36V222.185H209.19L194.56 244.705Z" fill="black"/>
</g>
<defs>
<clipPath id="clip0_2003_10201">
<rect width="333.74" height="166.87" fill="white" transform="translate(83.13 166.565)"/>
</clipPath>
</defs>
</svg>
