<svg width="500" height="500" viewBox="0 0 500 500" fill="none" xmlns="http://www.w3.org/2000/svg">
<rect width="500" height="500" fill="white"/>
<circle cx="250" cy="250" r="174.657" fill="#FFDD25"/>
<g clip-path="url(#clip0_2003_10170)">
<path d="M295.843 212.034C295.985 212.12 296.127 212.205 296.27 212.297C296.27 212.297 296.12 212.205 295.843 212.034Z" fill="#1F1A17"/>
<path d="M163.113 225.146C162.964 204.706 181.803 196.823 181.803 196.823C229.642 173.601 290.187 208.647 295.843 212.041C227.002 169.844 176.361 178.154 158.005 189.516C139.792 200.793 144.715 224.221 144.715 224.221L163.113 225.146Z" fill="#1F1A17"/>
<path d="M334.603 281.921C331.238 297.381 316.596 303.507 316.596 303.507C269.071 326.579 209.003 292.137 202.678 288.36C271.461 330.471 322.053 322.168 340.402 310.806C352.902 303.065 354.496 289.598 354.268 281.921H334.603Z" fill="#1F1A17"/>
<path d="M150.869 233.364C137.48 233.364 127.697 243.324 127.697 256.493C127.697 266.446 134.855 272.899 144.765 272.899C158.098 272.899 168.137 263.352 168.137 249.876C168.137 240.507 161.513 233.356 150.869 233.356V233.364ZM146.124 265.657C141.115 265.657 137.537 262.099 137.537 256.344C137.537 249.193 141.962 240.613 149.831 240.613C156.177 240.613 158.297 246.056 158.297 250.218C158.297 257.973 153.217 265.657 146.124 265.657Z" fill="#1F1A17"/>
<path d="M216.487 240.984C220.286 240.984 221.738 243.467 221.738 247.152C221.738 248.547 221.474 250.276 221.24 251.556L217.476 271.975H226.576L230.631 250.261C230.93 248.533 231.172 245.729 231.172 244.079C231.172 236.651 226.526 233.364 221.154 233.364C215.484 233.428 210.347 236.054 206.719 241.574C206.456 237.42 203.553 233.364 196.979 233.364C191.735 233.364 186.649 235.854 182.921 241.176H182.778L183.696 234.296H175.536C175.102 237.533 174.554 241.311 173.714 245.701L168.855 271.982H177.955L181.028 255.021C182.444 247.145 187.63 240.991 192.354 240.991C196.616 240.991 197.505 244.029 197.505 247.159C197.505 248.39 197.306 249.749 197.043 251.229L193.137 271.982H202.237L205.424 254.722C206.904 246.548 211.834 240.991 216.473 240.991L216.487 240.984Z" fill="#1F1A17"/>
<path d="M274.691 235.143C271.49 234.182 266.68 233.364 262.305 233.364C244.027 233.364 234.003 246.106 234.003 259.475C234.003 267.301 239.019 272.907 246.311 272.907C251.747 272.907 257.246 270.317 261.117 262.911H261.273C260.896 266.355 260.576 269.706 260.555 271.982H269.37C269.185 267.422 269.796 260.215 270.906 254.295L274.698 235.143H274.691ZM262.347 249.884C260.434 260.272 254.692 265.351 250.075 265.351C245.692 265.351 243.928 261.872 243.928 257.945C243.928 248.782 251.185 240.65 259.872 240.65C261.778 240.65 263.151 240.863 264.069 241.112L262.355 249.884H262.347Z" fill="#1F1A17"/>
<path d="M315.586 272.907C320.417 272.907 326.159 271.776 330.064 269.677L329.154 262.89C326.258 264.362 322.359 265.536 317.721 265.536C313.95 265.536 310.926 264.284 309.233 261.623C308.401 260.2 307.959 257.838 308.095 256.43C324.045 256.828 334.86 253.982 334.86 244.292C334.86 237.512 329.403 233.364 321.591 233.364C308.152 233.364 298.959 245.054 298.959 256.707C298.959 266.376 304.573 272.9 315.579 272.9L315.586 272.907ZM320.403 240.201C323.59 240.201 325.817 241.731 325.817 244.157C325.817 248.568 319.613 249.585 309.048 249.486C310.023 245.63 313.978 240.201 320.403 240.201Z" fill="#1F1A17"/>
<path d="M294.861 222.607L284.125 224.798L282.24 233.777L276.84 233.748L275.772 238.835L281.172 238.864L276.712 260.115C275.111 267.749 277.9 272.103 286.395 272.146C289.788 272.16 293.666 271.356 297.009 269.798L296.27 264.853C294.74 265.522 293.303 266.112 291.062 266.098C287.668 266.084 286.288 263.452 287.576 257.319L291.439 238.913L301.549 238.963L302.616 233.876L292.506 233.826L294.861 222.6V222.607Z" fill="#1F1A17"/>
<path d="M372.773 236.644L365.872 233.464L349.729 248.888L348.569 248.881L355.356 216.56L345.09 216.51L333.55 271.498L343.81 271.548L347.957 251.798H348.114L358.316 272.373L368.903 269.051L358.217 250.055L372.773 236.644Z" fill="#1F1A17"/>
<path d="M364.84 224.357H365.488C366.242 224.357 366.598 224.642 366.711 225.289C366.889 225.972 366.996 226.506 367.181 226.726H368.654C368.511 226.513 368.405 226.15 368.22 225.254C368.042 224.464 367.715 224.03 367.145 223.816V223.745C367.864 223.532 368.369 223.027 368.369 222.379C368.369 221.803 368.12 221.341 367.793 221.084C367.359 220.835 366.861 220.65 365.744 220.65C364.776 220.65 364.022 220.722 363.481 220.828V226.712H364.847V224.343L364.84 224.357ZM364.876 221.703C365.018 221.668 365.274 221.632 365.63 221.632C366.491 221.632 366.889 221.988 366.889 222.529C366.889 223.14 366.277 223.39 365.523 223.39H364.876V221.703Z" fill="#1F1A17"/>
<path d="M365.772 229.601C369.18 229.601 371.805 226.982 371.805 223.639C371.805 220.295 369.187 217.755 365.772 217.755C362.357 217.755 359.704 220.373 359.704 223.639C359.704 226.904 362.393 229.601 365.772 229.601ZM365.772 218.943C368.391 218.943 370.297 221.063 370.297 223.681C370.297 226.299 368.398 228.348 365.808 228.348C363.218 228.348 361.212 226.264 361.212 223.646C361.212 221.028 363.147 218.943 365.772 218.943Z" fill="#1F1A17"/>
</g>
<defs>
<clipPath id="clip0_2003_10170">
<rect width="245.076" height="139.681" fill="white" transform="translate(127.697 180.325)"/>
</clipPath>
</defs>
</svg>
