<svg width="500" height="500" viewBox="0 0 500 500" fill="none" xmlns="http://www.w3.org/2000/svg">
<rect width="500" height="500" fill="white"/>
<g clip-path="url(#clip0_2003_8701)">
<path d="M372.93 348.15C370.29 319.55 321.96 321.15 326.74 357.33C329.23 376.22 354.89 383.62 367.54 370.5C374.19 363.6 372.5 359.48 362.49 360.82C359.16 361.27 358.36 364.46 355.21 365.88C348.15 369.07 338.95 364.32 339.01 356.23H370.24C373.52 356.23 373.14 350.39 372.93 348.14V348.15ZM339 346.99C340.16 334.54 359.44 334.53 360.59 346.99H339Z" fill="#63513D"/>
<path d="M213.6 328.56C176.56 323.95 176.85 378.23 210.61 377.11C217.88 376.87 229.21 371.5 230.28 363.39C230.46 362.05 229.38 360.86 228.03 360.86C225.64 360.86 223.05 360.88 220.65 360.88C218.25 360.88 216.91 364.45 214.61 365.64C207.33 369.42 198.29 364.49 197.88 356.23H229.88C232.94 356.23 231.97 348.33 231.75 346.66C230.56 337.83 222.4 329.65 213.6 328.55V328.56ZM197.88 346.99C200.18 334.26 217.45 334.7 220.24 346.99H197.88Z" fill="#63513D"/>
<path d="M248.72 343.58C244.52 337.93 257.33 335.17 262.86 339.25C264.08 340.16 264.38 342.4 266.28 342.97C267.71 343.39 274.26 343.26 274.89 342.27C274.43 321.03 228.66 324.88 236.84 346.97C240.66 357.3 254.01 355.07 261.65 359.17C269.96 363.64 256.84 370.68 249.15 365.5C247.52 364.4 246.31 361.38 245.17 361C243.52 360.43 235.55 360.38 234.97 362.14C234.18 364.51 236.35 368.7 237.98 370.5C248.77 382.44 281.48 377.57 275.8 358.13C272.12 345.54 252.86 349.15 248.72 343.58Z" fill="#63513D"/>
<path d="M367.45 310.24L329.41 314.36C328.58 314.45 327.96 315.1 327.95 315.87C327.95 316.9 327.95 318.42 327.95 320.02C327.95 320.86 328.69 321.54 329.59 321.54L367.78 321.7C369.45 321.7 370.81 320.45 370.81 318.89V313.02C370.81 311.34 369.24 310.04 367.45 310.23V310.24Z" fill="#63513D"/>
<path d="M319.08 311.65H313.13C311.285 311.65 309.79 313.146 309.79 314.99V373.33C309.79 375.175 311.285 376.67 313.13 376.67H319.08C320.925 376.67 322.42 375.175 322.42 373.33V314.99C322.42 313.146 320.925 311.65 319.08 311.65Z" fill="#63513D"/>
<path d="M271.8 321.54C272.54 321.54 273.13 321.25 273.61 320.67C274.06 320.11 274.25 319.4 274.26 318.69V313.16C274.26 312.98 274.24 312.81 274.21 312.64C273.96 311.25 272.75 310.2 271.3 310.2H171.96C171.54 310.2 171.13 310.28 170.75 310.43C169.48 310.91 168.58 312.14 168.58 313.58V353.9C168.58 354.33 168.01 354.49 167.79 354.12L143.71 312.14C143.1 311.08 141.97 310.43 140.75 310.43H130.57C128.69 310.43 127.17 311.95 127.16 313.83L126.94 373.9C126.94 375.79 128.46 377.32 130.35 377.32H135.86C137.74 377.32 139.27 375.79 139.27 373.91V331.56C141.42 333.71 157.69 362.19 166.92 375.83C167.55 376.76 168.61 377.32 169.74 377.32H177.51C179.39 377.32 180.92 375.79 180.92 373.91V321.54H267.99C269.26 321.54 270.53 321.54 271.82 321.54H271.8Z" fill="#63513D"/>
<path d="M302.94 365.371L300.12 365.091C296.16 365.091 295.09 363.711 295.09 360.061V338.921H303.55C305.08 338.921 306.32 337.681 306.32 336.151V332.221C306.32 330.691 305.08 329.451 303.55 329.451H295.09V313.121C295.09 311.801 294.02 310.721 292.69 310.721H285.15C283.83 310.721 282.75 311.791 282.75 313.121V329.451H279.04C277.51 329.451 276.27 330.691 276.27 332.221V336.151C276.27 337.681 277.51 338.921 279.04 338.921H282.75V360.061C282.75 369.521 286.29 377.431 300.12 377.431H302.54C304.8 377.431 306.63 375.601 306.63 373.341V369.441C306.63 367.341 305.03 365.591 302.95 365.381L302.94 365.371Z" fill="#63513D"/>
<path d="M336.16 296.27C340.19 305.19 345.41 294.59 349.83 292.61C356.05 289.82 365.44 294.95 363.37 285.24L354.46 260.62L370.63 269.57C374.8 270.33 372.4 263.75 371.81 261.4C370.33 255.58 367.5 248.28 363.77 240.2L363.83 240.05C363.78 240.03 363.72 240 363.67 239.98C350.15 210.79 324.92 171.7 308.97 156.88C305.27 153.45 300.66 150.64 296.99 147.27C287.29 138.38 281.87 126.25 268.09 122.57H261.15C246.61 125.53 245.32 139.84 238.01 150.33L245.72 150.35L242.64 157.28C251.79 156.03 260.1 152.03 263.08 163.44C264.95 170.64 264.74 178.45 267.09 185.64C270.94 197.39 280.39 207.12 290.06 214.34C290.65 214.45 290.54 213.61 290.45 213.18C290.2 211.89 282.3 203.9 280.56 201.48C275.94 195.06 272.59 188.13 270.77 180.42C267.3 165.67 271.53 147.09 248.81 152.65L251.12 146.49L246.49 146.09C251.62 136.11 252.34 126.88 266.19 127.95C276.72 128.76 280.12 136.97 286.19 143.41C292.38 149.97 299.14 154.38 305.5 160.35C323.48 177.2 343.62 210.85 355.88 235.96C334.67 223 313.8 195.32 313.57 195L310.48 197.31C310.55 197.4 317.33 206.44 327.02 216.57C338.61 228.7 349.26 237.21 358.74 241.96C359.17 242.88 359.58 243.79 359.98 244.68C361.84 248.81 365.83 257.07 366.74 261.06C367.01 262.24 366.78 262.32 365.64 262.16C356.91 255.94 348.13 249.65 339.67 243L339.63 242.83L339.5 242.86C324.85 231.33 311.13 218.71 300.17 203.47C292.06 192.2 286.8 181.21 280.77 168.86C280.23 167.75 280.94 166.92 278.89 167.32C284.72 195.64 303.74 217.8 325.06 236.8L331.55 268.77L336.16 296.3V296.27ZM348.9 256.54C349.96 260.51 359.97 285.16 358.32 286.84C356.53 286.7 354.38 287.19 352.68 286.69C351.5 286.34 350.48 284.49 349.54 281.99L341.64 250.75C344.07 252.71 346.49 254.64 348.89 256.54H348.9ZM337.64 247.5L346.46 282.4C346.81 284.24 346.97 285.89 346.76 287.19C346.44 289.23 341.55 293.64 339.83 292.22C337.55 283.69 335.99 274.2 333.95 265.1L328.89 240.15C331.79 242.65 334.71 245.1 337.64 247.5Z" fill="#63513D"/>
<path d="M130.21 272.07C131.17 271.81 131.89 271.01 132.07 270.02C133.02 264.87 130.68 260.86 135.83 256.76C139.08 254.18 157.98 246.39 162.6 244.98C173.3 241.73 180.78 248.57 188.42 255.14L191.69 253.2C187.43 247.25 176.44 239.53 168.99 239.46C166.24 239.43 163.19 240.88 160.58 240.56C156.86 240.12 145.72 226.55 149.34 223.6C153.64 226.48 158.68 229.03 163.98 229C164.91 224.62 158.58 223.98 155.25 221.93C151.59 219.66 142.85 212.77 146.65 208.18C151.41 210.74 155.93 213.79 161.56 213.89C167.05 214 170.2 210.72 176.7 211.28C181.64 211.7 190.99 216.74 193.72 216.66C195.3 216.61 195.81 214.81 196.37 213.6C189.23 211.01 180.07 205.24 172.29 206.06C168.45 206.46 165.24 209.14 161.32 208.98C157.64 208.84 146.97 204.82 146.44 200.74C146.4 197.62 151.26 196.06 153.8 195.31C158.47 193.92 167.59 195.05 167.84 189.69C162.22 188.83 140.92 192.86 140.06 199.37C139.84 201.07 140.95 202.9 140.92 204.72C140.84 208.5 139.2 209.52 140.94 213.9C141.68 215.77 144.24 218.16 144.58 219.58C145.03 221.45 143.57 225.12 144.13 228.46C145.08 234.07 151.39 238.95 154.73 243.29C145.55 249.34 129.93 249.8 126.96 262.16V269.59C126.96 271.29 128.57 272.52 130.21 272.07Z" fill="#63513D"/>
<path d="M138.92 185.82C141.7 185.57 150.06 184.52 152.17 183.63C153.92 182.9 155.64 180.62 156.09 180.47C157.73 179.9 159.45 180.42 161.61 179.2C163.38 178.2 167.57 174.11 165.91 171.94C163.17 176.33 157.3 175.49 153.97 176.97C152.52 177.61 152.01 179.95 149.69 180.4C146.94 180.93 144.72 179.68 142.73 179.74C141.09 179.8 139.85 181.32 137.39 181.24C132.77 181.09 131.33 176.62 132.69 172.65C133.36 170.71 135.04 170.63 135.76 169.56C138.18 165.98 136.87 164.02 142.95 162.87C148.51 161.81 149.04 161.98 154.31 159.58C159.28 157.3 153.42 157.07 150.92 155.31C146.42 152.12 148.99 152.46 142.59 149.76C136.71 147.28 137.31 143.57 135.01 138.84C134.49 137.78 132.9 137.19 132.51 135.93C131.06 131.22 133.9 127.42 138.93 127.93C140.64 128.1 141.51 129.28 142.81 129.5C146.23 130.09 147.55 129.11 151.28 131.07C156.08 133.59 155.07 136.52 157.05 138.41C158.15 139.47 160.4 139.37 162.1 141.06C164.11 143.05 164.21 145.76 165.35 147.84C165.84 148.72 165.3 149.14 167.07 148.83C167.98 145.08 170.91 135.83 173.63 133.39C176.34 130.95 179.33 131.76 180.79 130.91C181.19 130.68 181.42 129.33 182.08 128.77C186.66 124.84 193.33 129.46 191.42 135.76C190.33 139.36 190.61 139.35 189.93 142.69C188.95 147.56 186.18 146.89 184.02 149.19C181.48 151.91 181.43 157.02 175.57 157.33C174.95 159.61 177.47 159.02 178.96 158.79C180.68 158.53 183.61 157.35 184.77 156.11C186.2 154.59 186.01 152.72 187.15 151.54C188.29 150.36 190.37 150.31 192.09 148.01C194.7 144.53 193.42 142.65 194.23 139.36C195.06 136 197.04 135.74 196.2 130.89C195.34 125.92 191.94 124.51 187.89 122.61H184.03L169.73 131.06L165.9 140.35C165.32 137.14 161.08 136.36 160.07 135.19C159.47 134.49 159.08 132.38 158.14 131.14C152.2 123.29 146.92 127.8 140.07 122.57H135.44C131.06 124.37 128.77 126.67 126.96 131.05V135.68C127.57 138.26 131.16 140.21 131.94 141.89C133.29 144.76 132.83 147.75 135.71 150.84C139.18 154.56 142.6 153.29 144.69 154.59C144.88 154.7 147.73 157.46 147.79 157.67C148.35 159.44 146.53 158.67 145.84 158.79C135.75 160.51 137.36 160.34 131.54 167.64C130.24 169.27 127.69 170.18 126.96 173.47V177.33C129.32 183.11 132.2 186.45 138.92 185.82Z" fill="#63513D"/>
<path d="M278.13 260.241C264.72 267.421 250.65 263.441 236.1 264.481C224.13 265.331 211.38 273.001 201 263.301C200.44 261.111 208.44 259.711 202.93 256.101L180.95 272.181C181.5 264.481 179.22 258.281 171.44 255.781C169.37 255.121 164.92 256.961 166.29 258.291C184.2 262.371 178.73 283.031 162.09 282.461C161.02 282.421 160.07 283.141 159.87 284.191C159.6 285.591 160.75 286.861 162.16 286.731C176.02 285.521 185.3 273.881 196.09 266.061C201.88 270.321 207.03 273.221 214.49 273.281C220.94 273.341 226.76 270.431 233.01 269.881C248.74 268.481 264.46 272.861 279.41 265.381C291.82 259.181 303.48 246.001 308.9 233.311L305.48 230.551C299.19 242.481 290.18 253.791 278.12 260.241H278.13Z" fill="#63513D"/>
<path d="M293.52 224.751C288.59 219.371 278.44 230.831 275.05 234.801C270.27 240.401 268.67 246.341 261.36 249.651C259.57 250.461 253.28 252.571 251.64 252.191C248.62 245.851 244.81 239.401 236.85 239.751C233.5 239.901 211.93 249.471 211.83 250.971C211.81 251.331 213.42 254.041 214.35 253.591C224.88 249.171 241.19 236.051 246.49 253.671C243.9 254.141 240.98 255.001 238.38 255.211C233.58 255.601 224.44 252.961 224.9 259.841C236.14 258.861 247.15 258.951 258.07 255.611C261.07 254.691 266.76 251.351 268.77 251.011C270.39 250.731 273.13 251.561 275.41 251.351C280.25 250.921 290.92 246.951 289.68 240.571C289.29 240.131 281.55 245.891 279.68 246.371C277.36 246.961 275.07 246.741 272.72 246.731C277.16 237.241 284.44 229.891 293.52 224.751Z" fill="#63513D"/>
<path d="M182.94 177.39C177.84 184.37 173.72 192.25 170.92 200.46C172.29 200.21 175.22 200.94 176.19 200.34C176.84 199.94 181.64 188.8 182.92 186.64C187.65 178.7 195.66 171.61 199.59 163.97C204.13 155.11 202.47 141.88 216.62 144.34C219.8 144.9 222.6 147.53 226.44 146.48L224.16 150.73L227.98 154.18C226.01 154.53 223.63 155.92 222.27 157.35C221.71 157.94 217.29 164.34 219.88 164.2C220.23 164.18 223.85 160.03 224.95 159.26C226.31 158.28 234.13 155.1 234.13 154.58L228.83 149.84L233.37 142.63C224.25 144.81 217.27 137.71 208.68 139.9C198.12 142.59 198.96 154.75 194.96 162.43C192.18 167.75 186.51 172.49 182.93 177.4L182.94 177.39Z" fill="#63513D"/>
<path d="M231.38 168.228C224.25 168.398 220.93 164.038 213.32 170.218C206.21 175.998 209.4 183.058 206.31 190.198C205.25 192.658 194.15 206.728 194.83 207.628L198.45 209.058C199.38 209.248 199.7 208.548 200.24 208.038C202.18 206.208 210.12 193.888 211.17 191.188C213.5 185.148 211.44 176.348 218.21 172.778C224.02 169.708 228.35 173.528 234.17 171.388L232.63 175.998L237.26 177.568C230.32 185.812 227.75 191.188 227.75 205.875C227.378 207.34 227.99 207.238 230.32 206.858C230.23 197.028 232.56 188.668 239.17 181.398C240.22 180.238 243.13 178.548 243.43 177.938C244.13 176.528 238.38 174.928 237.31 174.418L239.57 166.768C238.88 166.138 232.95 168.188 231.4 168.228H231.38Z" fill="#63513D"/>
<path d="M331.34 145.711C333.82 145.121 332.55 147.821 333.24 149.581C336.28 157.481 344.2 154.641 350.61 153.031C356.19 151.621 362.03 149.101 367.45 147.121L367.18 142.611C361.94 143.711 342.2 153.111 338.45 149.371C335.62 142.341 339.76 134.271 342.89 127.971L337.65 128.121L319.06 157.491L321.67 160.341L331.33 145.701L331.34 145.711Z" fill="#63513D"/>
<path d="M179.79 230.54C176.41 231.03 172.12 230.19 168.61 230.54L169.88 234.29L184.3 233.57C192.74 247.23 208.95 246.87 221.46 239.06L221.04 235.94C209.44 240.99 198.51 244.61 189.44 233.23C185.34 228.09 183.24 217.39 175.83 216.7C173.54 216.49 163.78 218.43 164.75 221.67C165.48 224.11 170.2 221.43 172.08 221.27C178.54 220.72 178.6 224.12 181.62 228.74C182.26 229.69 180.12 230.5 179.78 230.54H179.79Z" fill="#63513D"/>
<path d="M372.97 153.43C363.47 156.39 353.95 160.09 344.94 164.33C342.77 165.35 333.07 169.78 332.09 170.78C330.95 171.94 331.76 173.97 332.88 174.67C334.3 175.56 341.56 172.31 344.14 172.01C351.54 171.15 359.75 172.2 367.14 169.7L367.57 165.75C363.98 166.5 359.09 167.86 355.52 167.99C354.04 168.04 353.17 168.39 352.17 166.9L372.85 157.91L372.97 153.41V153.43Z" fill="#63513D"/>
<path d="M278.64 216.01C277.07 216.43 273.13 222.7 271.58 224.39C270.11 225.97 262.54 233.87 261.38 234.24C254.89 236.32 256.31 228.83 255.76 224.74C255.61 223.59 256.2 223.5 254.6 223.6C247.88 224.04 234.56 228.23 228.72 231.67C226.21 233.14 226.18 233.62 226.45 236.72C234.4 233.6 242.21 228.59 251.09 229.05C251.53 234.76 254.21 241.55 261.18 239.46C265.29 238.23 277.46 223.85 280.06 219.78C281.39 217.7 281.68 215.21 278.63 216.02L278.64 216.01Z" fill="#63513D"/>
<path d="M204.92 221.74C208.6 218.81 214.24 216.44 218.73 215.11C218.2 209.5 210.94 213.88 207.93 215.5C203.37 217.92 194.23 223.74 196.78 229.76C200.74 239.11 223.22 228.81 229.53 225.91C228.65 219.69 220.1 226.2 216.07 227.49C213 228.47 203.28 231.4 201.36 228.25C199.93 225.53 203 223.28 204.92 221.75V221.74Z" fill="#63513D"/>
<path d="M272.23 209.1C271.61 208.98 262.75 211.85 260.02 212.06C249.9 212.83 241.67 209.21 231.34 211.91C228.98 212.53 227.21 213.83 224.91 214.35C225.59 219.77 233.93 215.27 238.37 215.08C245.89 214.76 252.96 217.39 260.77 216.64C262.81 216.45 275.03 213.21 275.03 211.63C274.2 210.97 273.22 209.28 272.24 209.09L272.23 209.1Z" fill="#63513D"/>
<path d="M242.99 190.38L241.99 190.56L240.33 194.29H261.92L259.9 190.53L242.99 190.38Z" fill="#63513D"/>
<path d="M166.69 158.051C165.62 158.271 165.56 159.451 165.84 160.411C166.17 161.571 174.01 176.551 174.01 176.551C174.97 177.441 178.17 174.091 177.55 171.911C176.99 169.941 168.28 157.721 166.69 158.051Z" fill="#63513D"/>
<path d="M144.67 137.791C144.07 137.601 143.64 138.361 144.1 138.781L154.14 147.871C154.51 148.201 155.02 148.331 155.5 148.211L155.57 148.191C156.64 147.921 157.05 146.611 156.32 145.771C153.26 142.231 149.19 139.181 144.67 137.781V137.791Z" fill="#63513D"/>
<path d="M174.96 150.901L183.26 137.231C182.3 136.271 176.43 142.891 175.69 143.921C174.86 145.031 170.01 152.051 172.87 152.651C174.11 152.911 174.4 151.591 174.97 150.911L174.96 150.901Z" fill="#63513D"/>
<path d="M152.45 166.951C151.35 167.281 141.29 171.531 143.16 173.471L160.1 166.911C158.27 164.611 154.73 166.251 152.44 166.951H152.45Z" fill="#63513D"/>
<path d="M257.81 135.811C253.4 137.311 256.34 146.201 262.32 139.551C265.57 135.931 260.86 134.771 257.81 135.811Z" fill="#63513D"/>
<path d="M214.87 153.551L216.29 153.081C217.4 152.711 218.04 151.541 217.76 150.401C216.83 146.721 211.86 148.411 211.94 151.601C211.98 153.051 213.5 154.011 214.88 153.551H214.87Z" fill="#63513D"/>
<path d="M227.66 176.511C227.44 176.271 227.11 176.151 226.79 176.131L225.53 176.061C223.49 175.951 221.73 177.671 222 179.691C222.54 183.681 229.83 178.891 227.67 176.511H227.66Z" fill="#63513D"/>
</g>
<defs>
<clipPath id="clip0_2003_8701">
<rect width="246.12" height="254.86" fill="white" transform="translate(126.94 122.57)"/>
</clipPath>
</defs>
</svg>
