<svg width="500" height="500" viewBox="0 0 500 500" fill="none" xmlns="http://www.w3.org/2000/svg">
<rect width="500" height="500" fill="white"/>
<g clip-path="url(#clip0_2003_10155)">
<path d="M314.015 157.77L291.075 220.08C290.405 221.91 288.665 223.12 286.715 223.12H214.505C211.275 223.12 209.025 219.9 210.145 216.87L228.025 168.3C227.825 170.86 227.755 173.5 227.825 176.19C228.035 185.19 229.705 193.64 232.515 200C235.525 206.8 239.575 210.52 243.965 210.52H244.145C252.665 210.32 258.825 196.27 258.825 177.53C258.825 176.84 258.825 176.14 258.795 175.44C258.585 166.44 256.915 157.98 254.105 151.63C254.085 151.59 254.065 151.55 254.055 151.51H309.645C312.875 151.51 315.125 154.73 314.005 157.76L314.015 157.77Z" fill="#00A850"/>
<path d="M244.055 206.63H243.965C241.255 206.63 238.385 203.64 236.075 198.42C233.465 192.53 231.925 184.59 231.715 176.09C231.515 167.59 232.665 159.6 234.995 153.58C235.225 152.98 235.475 152.39 235.725 151.85C237.695 147.53 240.145 145.06 242.575 145H242.675C245.065 145 247.605 147.34 249.745 151.52C250.025 152.05 250.295 152.62 250.565 153.21C251.865 156.16 252.905 159.61 253.645 163.4C254.385 167.17 254.815 171.29 254.915 175.54C255.355 193.7 249.545 206.49 244.055 206.63Z" fill="#F7941D"/>
<path d="M166.025 239.83H177.725L172.035 270.05L172.395 270.01C174.495 267.51 176.745 265.32 178.715 263.18L201.205 239.84H216.435L187.275 267.95L205.755 305.33H192.745L177.975 275.03L169.755 282.25L165.315 305.33H153.615L166.035 239.85L166.025 239.83Z" fill="#00A850"/>
<path d="M273.085 267.82C273.085 278.96 269.045 288.86 261.715 296.07C255.065 302.55 245.935 306.48 235.015 306.48C216.915 306.48 205.695 294.64 205.695 277.49C205.695 266.25 210.095 256.09 217.525 248.92C224.115 242.59 233.625 238.66 243.775 238.66C262.575 238.66 273.085 250.58 273.085 267.82ZM226.875 255.13C221.485 260.52 218.335 268.53 218.335 276.61C218.335 288.23 224.095 296.73 236.755 296.73C242.535 296.73 247.975 294.26 252.115 290.07C257.265 284.92 260.465 277.08 260.465 268.47C260.465 258.84 256.645 248.41 242.385 248.41C236.315 248.41 230.985 251.02 226.875 255.14V255.13Z" fill="#00A850"/>
<path d="M332.176 305.31L336.496 274.56C337.566 267.45 339.106 257.2 340.756 249.01H340.516C336.866 256.62 332.636 265.54 328.586 273.25L311.456 304.53H302.056L298.006 274.06C297.056 265.91 296.366 256.88 295.796 249.01H295.606C293.916 256.42 291.676 267.5 289.956 274.56L282.286 305.31H271.186L287.966 239.83H304.326L308.406 269.24C308.986 275.43 309.906 282.5 310.076 289.1H310.436C313.056 282.5 316.506 275.3 319.576 269.38L335.906 239.83H352.566L343.946 305.31H332.176Z" fill="#00A850"/>
<path d="M376.186 239.24L369.276 275.76C368.806 278.11 368.516 280.94 368.516 283.91C368.576 291.32 373.076 296.1 380.856 296.1C389.986 296.1 396.446 290.07 399.186 275.76L406.136 239.24H417.946L410.966 275.9C406.926 296.9 396.736 305.88 379.306 305.88C366.046 305.88 356.706 299.07 356.706 283.9C356.706 281.04 357.056 277.85 357.576 274.99L364.376 239.23H376.186V239.24Z" fill="#00A850"/>
<path d="M150.906 267.82C150.906 278.96 146.866 288.86 139.536 296.07C132.886 302.55 123.756 306.48 112.836 306.48C94.7356 306.48 83.5156 294.64 83.5156 277.49C83.5156 266.25 87.9156 256.09 95.3456 248.92C101.936 242.59 111.446 238.66 121.596 238.66C140.396 238.66 150.906 250.58 150.906 267.82ZM104.696 255.13C99.3056 260.52 96.1556 268.53 96.1556 276.61C96.1556 288.23 101.916 296.73 114.576 296.73C120.356 296.73 125.796 294.26 129.936 290.07C135.086 284.92 138.286 277.08 138.286 268.47C138.286 258.84 134.466 248.41 120.206 248.41C114.136 248.41 108.806 251.02 104.696 255.14V255.13Z" fill="#F7941D"/>
<path d="M112.845 307.93C94.4354 307.93 82.0654 295.69 82.0654 277.48C82.0654 266.02 86.4254 255.5 94.3354 247.86C101.395 241.08 111.335 237.2 121.595 237.2C140.575 237.2 152.355 248.93 152.355 267.82C152.355 279.22 148.165 289.62 140.555 297.11C133.285 304.19 123.705 307.94 112.835 307.94L112.845 307.93ZM121.605 240.12C112.085 240.12 102.885 243.71 96.3654 249.97C89.0254 257.05 84.9854 266.82 84.9854 277.49C84.9854 294.22 95.9254 305.02 112.845 305.02C122.935 305.02 131.815 301.56 138.525 295.03C145.575 288.1 149.455 278.44 149.455 267.83C149.455 250.75 138.785 240.13 121.605 240.13V240.12ZM114.575 298.19C102.125 298.19 94.6954 290.12 94.6954 276.61C94.6954 268.13 98.0454 259.72 103.665 254.1C108.345 249.42 114.065 246.95 120.205 246.95C132.625 246.95 139.745 254.79 139.745 268.47C139.745 277.28 136.545 285.53 130.965 291.1C126.445 295.67 120.625 298.19 114.575 298.19ZM120.205 249.87C114.855 249.87 109.845 252.05 105.725 256.17C100.645 261.25 97.6054 268.89 97.6054 276.61C97.6054 292.84 108.235 295.27 114.575 295.27C119.835 295.27 124.925 293.06 128.895 289.04C133.935 284 136.825 276.5 136.825 268.47C136.825 253.1 127.785 249.87 120.205 249.87Z" fill="#00A850"/>
</g>
<defs>
<clipPath id="clip0_2003_10155">
<rect width="335.87" height="162.93" fill="white" transform="translate(82.0654 145)"/>
</clipPath>
</defs>
</svg>
