<svg width="500" height="500" viewBox="0 0 500 500" fill="none" xmlns="http://www.w3.org/2000/svg">
<rect width="500" height="500" fill="white"/>
<g clip-path="url(#clip0_2003_8747)">
<path d="M250.091 425.182C346.791 425.182 425.182 346.791 425.182 250.091C425.182 153.391 346.791 75 250.091 75C153.391 75 75 153.391 75 250.091C75 346.791 153.391 425.182 250.091 425.182Z" fill="#5AAD3E"/>
<path d="M174.001 162.271C173.76 164.949 175.744 167.318 178.422 167.552C181.1 167.793 183.469 165.809 183.703 163.131C183.944 160.453 181.96 158.084 179.282 157.85C176.604 157.609 174.235 159.593 174.001 162.271Z" fill="#FFFEEE"/>
<path d="M186.042 161.402C188.69 161.877 191.224 160.112 191.692 157.464C192.167 154.816 190.402 152.281 187.754 151.806C185.106 151.331 182.571 153.096 182.096 155.744C181.621 158.392 183.386 160.927 186.034 161.394L186.042 161.402Z" fill="#FFFEEE"/>
<path d="M215.916 138.491C213.487 137.337 210.583 138.37 209.428 140.799C208.274 143.229 209.308 146.133 211.737 147.287C214.166 148.442 217.071 147.408 218.225 144.979C219.379 142.55 218.345 139.645 215.916 138.491Z" fill="#FFFEEE"/>
<path d="M221.016 144.172C223.332 145.537 226.32 144.76 227.685 142.444C229.05 140.128 228.273 137.141 225.957 135.775C223.641 134.41 220.654 135.187 219.288 137.503C217.923 139.819 218.7 142.806 221.016 144.172Z" fill="#FFFEEE"/>
<path d="M237.334 140.747C238.896 138.559 238.39 135.519 236.202 133.95C234.015 132.388 230.974 132.894 229.405 135.081C227.836 137.269 228.349 140.309 230.537 141.879C232.725 143.44 235.765 142.935 237.334 140.747Z" fill="#FFFEEE"/>
<path d="M247.096 139.917C248.846 137.872 248.612 134.802 246.576 133.044C244.531 131.294 241.461 131.528 239.703 133.565C237.953 135.609 238.187 138.68 240.223 140.437C242.26 142.195 245.338 141.954 247.096 139.917Z" fill="#FFFEEE"/>
<path d="M250.008 139.865C251.887 141.788 254.972 141.834 256.896 139.955C258.82 138.077 258.865 134.991 256.986 133.067C255.108 131.144 252.022 131.098 250.099 132.977C248.175 134.855 248.13 137.941 250.008 139.865Z" fill="#FFFEEE"/>
<path d="M281.007 136.703C278.653 138.008 277.808 140.973 279.113 143.327C280.418 145.681 283.383 146.526 285.737 145.221C288.091 143.915 288.936 140.951 287.631 138.597C286.325 136.243 283.361 135.398 281.007 136.703Z" fill="#FFFEEE"/>
<path d="M294.911 148.66C297.37 147.567 298.479 144.692 297.385 142.233C296.291 139.773 293.417 138.665 290.958 139.758C288.498 140.852 287.389 143.727 288.483 146.186C289.577 148.645 292.451 149.754 294.911 148.66Z" fill="#FFFEEE"/>
<path d="M322.364 165.469C322.537 168.155 324.846 170.192 327.531 170.026C330.217 169.852 332.254 167.544 332.088 164.858C331.915 162.172 329.606 160.135 326.92 160.301C324.235 160.475 322.198 162.783 322.364 165.469Z" fill="#FFFEEE"/>
<path d="M347.938 183.265C345.305 182.722 342.725 184.42 342.19 187.06C341.646 189.693 343.344 192.273 345.984 192.809C348.617 193.352 351.197 191.654 351.733 189.014C352.276 186.381 350.579 183.801 347.938 183.265Z" fill="#FFFEEE"/>
<path d="M353.498 192.062C350.918 191.293 348.202 192.749 347.433 195.329C346.663 197.909 348.119 200.625 350.699 201.394C353.279 202.164 355.995 200.708 356.765 198.128C357.534 195.547 356.078 192.832 353.498 192.062Z" fill="#FFFEEE"/>
<path d="M351.929 204.034C350.933 206.532 352.148 209.368 354.645 210.364C357.142 211.36 359.979 210.145 360.974 207.648C361.97 205.151 360.756 202.314 358.258 201.319C355.761 200.323 352.925 201.537 351.929 204.034Z" fill="#FFFEEE"/>
<path d="M367.402 231.08C365.252 229.458 362.196 229.888 360.582 232.038C358.968 234.188 359.39 237.243 361.54 238.858C363.69 240.48 366.746 240.05 368.36 237.9C369.974 235.75 369.552 232.694 367.402 231.08Z" fill="#FFFEEE"/>
<path d="M361.774 241.755C359.971 243.754 360.129 246.832 362.121 248.635C364.12 250.438 367.198 250.28 369.001 248.288C370.804 246.289 370.646 243.211 368.654 241.408C366.655 239.605 363.577 239.764 361.774 241.755Z" fill="#FFFEEE"/>
<path d="M368.986 251.812C367.251 249.941 364.392 249.745 362.423 251.284C342.537 238.474 313.288 226.192 281.603 235.003C271.833 237.719 264.108 241.823 258.684 245.392L258.805 231.08C261.988 228.493 270.287 222.525 283.164 218.67C305.646 211.941 330.715 214.483 357.67 226.222L357.866 225.769C358.078 227.127 358.847 228.387 360.099 229.164C362.385 230.59 365.388 229.888 366.814 227.61C368.239 225.324 367.538 222.322 365.259 220.896C363.57 219.847 361.495 219.953 359.948 221.001L360.318 220.149C361.978 220.043 363.547 219.085 364.354 217.493C365.569 215.094 364.611 212.16 362.212 210.945C359.813 209.731 356.878 210.689 355.663 213.088C355.535 213.337 355.445 213.586 355.362 213.842C321.707 200.844 295.725 203.748 279.506 208.727C270.724 211.428 263.836 214.974 258.933 218.052L259.069 201.115C267.737 195.774 301.821 176.982 338.395 186.291L338.931 184.186C339.421 184.428 339.964 184.601 340.537 184.669C343.208 184.978 345.622 183.055 345.931 180.384C346.241 177.713 344.317 175.299 341.646 174.99C340.62 174.869 339.632 175.088 338.787 175.541C338.576 175.495 338.372 175.443 338.161 175.39C338.885 174.56 339.338 173.489 339.368 172.304C339.436 169.611 337.309 167.378 334.623 167.31C331.93 167.242 329.697 169.37 329.629 172.055C329.614 172.727 329.734 173.368 329.961 173.956C299.249 169.958 272.233 181.682 259.174 188.811L259.325 170.878C268.604 167.567 295.876 158.966 316.253 164.142L316.6 162.761C317.596 163.463 318.848 163.802 320.153 163.606C322.816 163.199 324.642 160.709 324.235 158.053C323.835 155.451 321.436 153.648 318.841 153.957L318.856 153.904C317.882 153.655 316.902 153.444 315.913 153.248C315.921 152.833 315.883 152.41 315.778 151.98C315.136 149.37 312.496 147.771 309.886 148.412C308.03 148.865 306.687 150.336 306.295 152.079C305.955 152.063 305.623 152.041 305.284 152.033C306.815 150.781 307.494 148.669 306.815 146.692C305.948 144.15 303.179 142.784 300.629 143.659C298.079 144.534 296.721 147.296 297.596 149.845C297.898 150.728 298.426 151.46 299.098 152.011C283.949 152.471 269.087 156.499 260.238 159.389C261.204 155.149 262.961 151.113 265.458 147.469L269.623 141.373C271.147 143.539 274.134 144.089 276.33 142.603C278.555 141.094 279.136 138.069 277.627 135.836C276.118 133.603 273.093 133.03 270.86 134.538C269.291 135.602 268.544 137.428 268.763 139.186L268.167 138.778C268.755 137.209 268.521 135.383 267.382 133.988C265.685 131.906 262.614 131.589 260.532 133.294C259.001 134.546 258.427 136.538 258.91 138.333L256.737 141.517C253.101 146.843 250.664 152.803 249.533 159.042C241.476 155.526 227.112 150.675 208.101 149.928C208.508 149.476 208.84 148.948 209.066 148.344C210.002 145.824 208.712 143.018 206.192 142.083C203.672 141.147 200.866 142.437 199.93 144.957C199.289 146.684 199.696 148.548 200.828 149.853C200.609 149.853 200.391 149.861 200.172 149.868C199.712 148.299 198.474 146.994 196.784 146.534C194.189 145.824 191.511 147.356 190.802 149.951C190.364 151.55 190.779 153.18 191.768 154.357L192.356 160.875C221.152 158.287 241.845 166.918 248.778 170.35L248.628 188.66C236.044 182.014 209.783 172.116 170.199 176.574C170.214 176.25 170.199 175.91 170.139 175.578C170.041 174.998 169.844 174.462 169.565 173.979C170.139 174.22 170.772 174.349 171.429 174.349C174.122 174.349 176.302 172.168 176.302 169.475C176.302 166.782 174.122 164.602 171.429 164.602C168.735 164.602 166.555 166.782 166.555 169.475C166.555 170.35 166.789 171.165 167.189 171.874C166.374 171.535 165.461 171.407 164.526 171.565C161.87 172.003 160.075 174.515 160.52 177.17C160.663 178.023 161.018 178.785 161.523 179.418C160.61 178.936 159.547 178.732 158.453 178.913C155.797 179.35 154.002 181.863 154.447 184.518C154.884 187.174 157.397 188.969 160.052 188.524C161.523 188.283 162.723 187.4 163.432 186.216L163.726 188.094C211.956 180.565 240.774 195.91 248.522 200.829L248.379 218.361C243.151 215.185 235.674 211.39 226.146 208.441C209.345 203.243 182.843 199.833 149.702 211.571C149.973 210.523 149.898 209.376 149.415 208.32C148.291 205.876 145.402 204.804 142.957 205.928C140.513 207.052 139.442 209.942 140.566 212.386C141.086 213.525 141.999 214.363 143.07 214.823L143.259 215.291C142.029 214.921 140.656 215.042 139.449 215.728C137.111 217.063 136.303 220.036 137.639 222.375C138.974 224.713 141.946 225.52 144.285 224.185C145.085 223.725 145.703 223.076 146.118 222.322L146.797 223.981C173.466 213.11 198.935 211.224 222.51 218.376C235.727 222.382 244.622 228.274 248.273 230.997L248.152 246.101C219.123 227.15 191.805 228.727 173.33 233.842C159.268 237.734 148.419 244.064 142.316 248.206C142.082 247.564 141.712 246.961 141.192 246.44C139.291 244.539 136.205 244.539 134.304 246.44C132.403 248.341 132.403 251.427 134.304 253.328C135.534 254.558 137.261 254.988 138.838 254.626L139.381 255.259C137.616 254.799 135.67 255.35 134.425 256.844C132.697 258.911 132.969 261.981 135.036 263.709C137.103 265.436 140.173 265.165 141.901 263.098C142.769 262.057 143.131 260.766 143.018 259.514L143.697 260.314C143.825 260.201 156.899 249.254 176.536 243.913C201.696 237.07 225.739 242.117 248.054 258.911L247.941 273.033C242.162 269.51 233.592 265.263 222.797 262.743C204.902 258.556 177.472 258.549 146.42 280.849C146.842 278.835 145.952 276.692 144.074 275.621C141.735 274.286 138.763 275.093 137.427 277.431C136.092 279.77 136.899 282.742 139.238 284.078C140.03 284.53 140.898 284.734 141.743 284.712L142.203 285.292C141.388 285.783 140.702 286.507 140.279 287.435C139.155 289.879 140.226 292.769 142.671 293.893C144.79 294.866 147.25 294.187 148.593 292.391C172.153 274.074 196.143 267.511 219.93 272.913C234.248 276.164 244.282 283.007 247.843 285.715L247.73 299.407C242.132 296.526 233.977 293.055 224.079 290.988C207.459 287.518 182.843 287.541 157.902 306.182C157.397 304.673 156.159 303.436 154.507 303.013C151.905 302.342 149.241 303.904 148.57 306.506C147.899 309.109 149.46 311.772 152.063 312.444C153.474 312.806 154.892 312.512 156.009 311.757L156.242 312.044C155.066 312.753 154.19 313.952 153.949 315.416C153.511 318.072 155.299 320.576 157.955 321.021C160.61 321.459 163.115 319.671 163.56 317.015C163.666 316.389 163.643 315.763 163.515 315.175C181.153 301.686 200.655 297.001 221.537 301.248C234.022 303.791 243.565 308.973 247.639 311.463L247.526 325.08C243.052 322.613 237.01 319.837 229.88 317.973C216.256 314.413 196.151 313.643 176.008 329.048C175.14 327.622 173.571 326.672 171.783 326.694C169.09 326.732 166.94 328.935 166.978 331.628C167.015 334.322 169.218 336.472 171.912 336.434C173.269 336.419 174.492 335.845 175.367 334.933L175.608 335.212C174.808 336.177 174.378 337.46 174.514 338.803C174.786 341.481 177.177 343.427 179.855 343.156C182.534 342.884 184.48 340.493 184.208 337.814C184.156 337.301 184.027 336.819 183.831 336.374C196.898 326.928 211.345 324.137 226.863 328.09C236.557 330.557 244.056 335.091 247.428 337.377L247.239 360.303C245.429 358.704 242.668 358.666 240.804 360.303C238.782 362.084 238.586 365.162 240.367 367.176C242.147 369.198 245.225 369.387 247.239 367.614C247.896 367.04 248.356 366.324 248.62 365.554H249.442C249.676 366.354 250.114 367.108 250.755 367.719C252.701 369.575 255.787 369.492 257.643 367.546C259.385 365.713 259.416 362.868 257.786 360.998L257.982 337.332C265.044 332.534 289.728 318.683 317.219 337.46C316.087 338.199 315.265 339.406 315.061 340.855C314.684 343.518 316.547 345.985 319.21 346.354C321.873 346.732 324.34 344.868 324.71 342.205C324.823 341.405 324.733 340.636 324.484 339.919L325.072 339.225C325.766 339.67 326.573 339.949 327.456 339.995C330.142 340.131 332.435 338.063 332.571 335.378C332.707 332.692 330.64 330.399 327.954 330.263C327.207 330.225 326.49 330.361 325.842 330.633C305.887 315.74 286.823 315.997 274.013 319.037C267.631 320.554 262.215 322.87 258.088 325.035L258.201 311.395C277.778 298.781 297.355 296.171 316.419 303.64C326.566 307.615 334.057 313.568 337.897 317.076C336.954 318.094 336.449 319.512 336.637 320.999C336.977 323.669 339.413 325.555 342.084 325.216C344.755 324.876 346.641 322.44 346.301 319.769C346.135 318.486 345.486 317.393 344.566 316.631L344.77 316.45L344.875 316.359C345.894 316.947 347.123 317.181 348.361 316.91C350.986 316.336 352.653 313.741 352.08 311.108C351.507 308.483 348.911 306.816 346.279 307.389C345.456 307.57 344.732 307.947 344.136 308.46C339.474 304.334 331.439 298.246 320.704 293.968C306.166 288.167 284.07 284.81 258.292 299.03L258.405 285.383C280.26 270.302 302.311 267.066 324.001 275.779C341.133 282.66 351.74 294.775 351.846 294.896L351.891 294.858C351.944 295.296 352.05 295.741 352.231 296.171C353.257 298.653 356.108 299.837 358.598 298.804C361.08 297.778 362.264 294.926 361.231 292.437C360.627 290.988 359.405 289.985 358.002 289.6L358.334 289.313C359.624 289.849 361.133 289.834 362.468 289.14C364.852 287.895 365.772 284.953 364.528 282.569C363.283 280.185 360.341 279.265 357.957 280.509C356.689 281.173 355.844 282.312 355.505 283.595C350.413 278.857 341.043 271.328 328.361 266.153C311.975 259.469 287.14 255.712 258.51 272.777L258.624 258.586C262.101 255.629 271.305 248.696 284.983 244.999C308.535 238.64 333.665 244.381 359.684 262.064L362.061 258.564C363.909 260.367 366.859 260.427 368.767 258.654C370.744 256.828 370.857 253.743 369.032 251.766L368.986 251.812Z" fill="#FFFEEE"/>
<path d="M368.39 262.199C366.746 260.071 363.683 259.679 361.555 261.331C359.428 262.976 359.036 266.039 360.688 268.166C362.332 270.294 365.395 270.686 367.523 269.034C369.65 267.389 370.042 264.326 368.39 262.199Z" fill="#FFFEEE"/>
<path d="M360.152 271.019C357.889 272.467 357.225 275.485 358.681 277.748C360.129 280.011 363.147 280.675 365.41 279.219C367.674 277.771 368.337 274.753 366.881 272.49C365.433 270.227 362.415 269.563 360.152 271.019Z" fill="#FFFEEE"/>
<path d="M350.903 298.826C348.338 299.633 346.905 302.364 347.712 304.929C348.519 307.494 351.25 308.927 353.815 308.12C356.38 307.313 357.813 304.582 357.006 302.017C356.199 299.452 353.468 298.018 350.903 298.826Z" fill="#FFFEEE"/>
<path d="M329.983 328.279C330.089 330.964 332.344 333.062 335.038 332.963C337.723 332.858 339.821 330.602 339.723 327.909C339.625 325.216 337.361 323.126 334.668 323.224C331.982 323.33 329.885 325.585 329.983 328.279Z" fill="#FFFEEE"/>
<path d="M310.376 351.99C312.994 352.601 315.612 350.964 316.223 348.346C316.834 345.728 315.197 343.11 312.579 342.499C309.961 341.888 307.343 343.525 306.732 346.143C306.121 348.761 307.758 351.378 310.376 351.99Z" fill="#FFFEEE"/>
<path d="M301.15 356.795C303.707 357.633 306.461 356.237 307.298 353.68C308.136 351.122 306.74 348.369 304.182 347.531C301.625 346.694 298.871 348.089 298.034 350.647C297.197 353.204 298.592 355.958 301.15 356.795Z" fill="#FFFEEE"/>
<path d="M291.523 360.763C293.998 361.827 296.857 360.68 297.921 358.206C298.984 355.731 297.838 352.872 295.363 351.808C292.889 350.745 290.03 351.891 288.966 354.366C287.902 356.84 289.049 359.699 291.523 360.763Z" fill="#FFFEEE"/>
<path d="M286.212 355.286C283.843 354.011 280.886 354.894 279.611 357.262C278.336 359.631 279.219 362.589 281.588 363.863C283.957 365.138 286.914 364.256 288.189 361.887C289.464 359.518 288.581 356.561 286.212 355.286Z" fill="#FFFEEE"/>
<path d="M270.03 359.323C268.551 361.571 269.17 364.588 271.418 366.067C273.666 367.546 276.684 366.927 278.163 364.679C279.641 362.431 279.023 359.413 276.775 357.935C274.526 356.456 271.509 357.075 270.03 359.323Z" fill="#FFFEEE"/>
<path d="M260.313 360.529C258.639 362.634 258.993 365.697 261.098 367.372C263.203 369.046 266.266 368.692 267.94 366.587C269.615 364.482 269.261 361.419 267.156 359.745C265.051 358.07 261.988 358.424 260.313 360.529Z" fill="#FFFEEE"/>
<path d="M231.035 358.937C228.87 360.529 228.402 363.577 229.994 365.75C231.585 367.915 234.633 368.382 236.806 366.791C238.971 365.199 239.439 362.151 237.847 359.978C236.255 357.806 233.207 357.345 231.035 358.937Z" fill="#FFFEEE"/>
<path d="M226.546 365.026C228.847 363.63 229.579 360.635 228.19 358.334C226.795 356.033 223.8 355.302 221.499 356.69C219.198 358.078 218.466 361.08 219.854 363.381C221.25 365.682 224.245 366.414 226.546 365.026Z" fill="#FFFEEE"/>
<path d="M216.49 362.355C218.904 361.171 219.9 358.251 218.715 355.837C217.531 353.423 214.611 352.427 212.197 353.611C209.783 354.796 208.787 357.715 209.972 360.129C211.156 362.544 214.076 363.539 216.49 362.355Z" fill="#FFFEEE"/>
<path d="M206.712 358.81C209.225 357.844 210.477 355.023 209.511 352.511C208.546 349.998 205.724 348.746 203.212 349.712C200.7 350.677 199.447 353.499 200.413 356.011C201.379 358.523 204.2 359.776 206.712 358.81Z" fill="#FFFEEE"/>
<path d="M197.282 354.403C199.87 353.664 201.364 350.963 200.624 348.383C199.885 345.803 197.184 344.302 194.604 345.041C192.017 345.78 190.523 348.481 191.262 351.061C192.002 353.641 194.702 355.143 197.282 354.403Z" fill="#FFFEEE"/>
<path d="M186.441 339.617C183.801 340.123 182.073 342.68 182.579 345.32C183.084 347.961 185.642 349.689 188.282 349.183C190.923 348.678 192.65 346.12 192.145 343.48C191.639 340.839 189.082 339.112 186.441 339.617Z" fill="#FFFEEE"/>
<path d="M169.754 324.574C169.958 321.889 167.951 319.55 165.265 319.346C162.579 319.143 160.241 321.149 160.037 323.835C159.833 326.521 161.84 328.859 164.526 329.063C167.212 329.267 169.55 327.26 169.754 324.574Z" fill="#FFFEEE"/>
<path d="M153.119 300.441C154.024 297.906 152.697 295.122 150.162 294.217C147.627 293.312 144.843 294.64 143.938 297.174C143.033 299.709 144.36 302.493 146.895 303.398C149.43 304.304 152.214 302.976 153.119 300.441Z" fill="#FFFEEE"/>
<path d="M143.41 272.783C144.949 270.573 144.406 267.54 142.195 266.001C139.985 264.462 136.952 265.005 135.413 267.216C133.874 269.426 134.417 272.459 136.628 273.998C138.838 275.537 141.871 274.994 143.41 272.783Z" fill="#FFFEEE"/>
<path d="M134.455 242.947C136.182 245.014 139.253 245.286 141.32 243.558C143.387 241.831 143.659 238.76 141.931 236.693C140.204 234.626 137.133 234.354 135.066 236.082C133.006 237.81 132.727 240.88 134.455 242.947Z" fill="#FFFEEE"/>
<path d="M142.354 233.812C144.564 232.273 145.107 229.24 143.568 227.029C142.029 224.819 138.997 224.276 136.786 225.815C134.576 227.354 134.033 230.387 135.572 232.597C137.11 234.807 140.143 235.351 142.354 233.812Z" fill="#FFFEEE"/>
<path d="M147.272 196.497C144.738 197.403 143.417 200.186 144.315 202.721C145.22 205.256 148.004 206.576 150.539 205.678C153.074 204.773 154.394 201.989 153.496 199.455C152.591 196.92 149.807 195.6 147.272 196.497Z" fill="#FFFEEE"/>
<path d="M154.899 196.898C157.502 196.227 159.071 193.563 158.392 190.961C157.721 188.358 155.058 186.789 152.455 187.468C149.852 188.139 148.283 190.802 148.962 193.405C149.634 196.008 152.297 197.577 154.899 196.898Z" fill="#FFFEEE"/>
<path d="M253.554 85.0029H248.069V96.7114H253.554V85.0029Z" fill="#FFFEEE"/>
<path d="M254.682 84.9952L254.215 96.6943L259.695 96.9135L260.163 85.2144L254.682 84.9952Z" fill="#FFFEEE"/>
<path d="M261.329 85.2568L260.392 96.9277L265.859 97.3666L266.796 85.6957L261.329 85.2568Z" fill="#FFFEEE"/>
<path d="M267.915 85.786L266.512 97.4102L271.957 98.0672L273.36 86.443L267.915 85.786Z" fill="#FFFEEE"/>
<path d="M274.485 86.5701L272.619 98.1289L278.034 99.003L279.9 87.4441L274.485 86.5701Z" fill="#FFFEEE"/>
<path d="M281.018 87.6099L278.692 99.085L284.067 100.175L286.393 88.6996L281.018 87.6099Z" fill="#FFFEEE"/>
<path d="M287.496 88.922L284.713 100.295L290.041 101.599L292.824 90.2256L287.496 88.922Z" fill="#FFFEEE"/>
<path d="M293.957 90.5048L290.72 101.757L295.991 103.273L299.228 92.0211L293.957 90.5048Z" fill="#FFFEEE"/>
<path d="M300.31 92.3228L296.626 103.437L301.832 105.162L305.516 94.0485L300.31 92.3228Z" fill="#FFFEEE"/>
<path d="M306.586 94.3988L302.46 105.356L307.593 107.289L311.718 96.3312L306.586 94.3988Z" fill="#FFFEEE"/>
<path d="M312.776 96.7091L308.217 107.493L313.268 109.629L317.828 98.845L312.776 96.7091Z" fill="#FFFEEE"/>
<path d="M318.901 99.3061L313.912 109.898L318.874 112.235L323.863 101.643L318.901 99.3061Z" fill="#FFFEEE"/>
<path d="M324.893 102.118L319.485 112.503L324.35 115.036L329.758 104.652L324.893 102.118Z" fill="#FFFEEE"/>
<path d="M330.758 105.163L324.939 115.323L329.698 118.049L335.517 107.889L330.758 105.163Z" fill="#FFFEEE"/>
<path d="M336.497 108.436L330.277 118.355L334.923 121.269L341.144 111.35L336.497 108.436Z" fill="#FFFEEE"/>
<path d="M342.136 111.976L335.523 121.638L340.049 124.736L346.662 115.074L342.136 111.976Z" fill="#FFFEEE"/>
<path d="M347.6 115.705L340.606 125.095L345.004 128.371L351.998 118.981L347.6 115.705Z" fill="#FFFEEE"/>
<path d="M352.903 119.647L345.539 128.75L349.804 132.199L357.167 123.096L352.903 119.647Z" fill="#FFFEEE"/>
<path d="M358.048 123.791L350.326 132.593L354.449 136.21L362.171 127.408L358.048 123.791Z" fill="#FFFEEE"/>
<path d="M363.05 128.186L354.981 136.671L358.956 140.45L367.024 131.966L363.05 128.186Z" fill="#FFFEEE"/>
<path d="M367.844 132.738L359.443 140.894L363.263 144.829L371.664 136.673L367.844 132.738Z" fill="#FFFEEE"/>
<path d="M372.456 137.467L363.736 145.28L367.396 149.365L376.116 141.552L372.456 137.467Z" fill="#FFFEEE"/>
<path d="M376.873 142.384L367.848 149.843L371.342 154.071L380.367 146.612L376.873 142.384Z" fill="#FFFEEE"/>
<path d="M381.111 147.522L371.793 154.612L375.115 158.977L384.432 151.887L381.111 147.522Z" fill="#FFFEEE"/>
<path d="M385.126 152.779L375.533 159.491L378.677 163.985L388.27 157.273L385.126 152.779Z" fill="#FFFEEE"/>
<path d="M388.915 158.188L379.061 164.512L382.023 169.128L391.877 162.804L388.915 158.188Z" fill="#FFFEEE"/>
<path d="M392.493 163.738L382.395 169.663L385.17 174.394L395.269 168.469L392.493 163.738Z" fill="#FFFEEE"/>
<path d="M395.858 169.497L385.53 175.012L388.113 179.85L398.442 174.335L395.858 169.497Z" fill="#FFFEEE"/>
<path d="M398.977 175.31L388.437 180.408L390.825 185.346L401.365 180.248L398.977 175.31Z" fill="#FFFEEE"/>
<path d="M401.868 181.261L391.132 185.934L393.321 190.963L404.057 186.29L401.868 181.261Z" fill="#FFFEEE"/>
<path d="M404.517 187.307L393.603 191.547L395.589 196.659L406.503 192.419L404.517 187.307Z" fill="#FFFEEE"/>
<path d="M406.918 193.531L395.842 197.329L397.622 202.517L408.697 198.719L406.918 193.531Z" fill="#FFFEEE"/>
<path d="M409.067 199.78L397.849 203.133L399.42 208.388L410.638 205.035L409.067 199.78Z" fill="#FFFEEE"/>
<path d="M410.975 206.103L399.632 209.005L400.992 214.318L412.335 211.416L410.975 206.103Z" fill="#FFFEEE"/>
<path d="M412.622 212.501L401.172 214.947L402.318 220.311L413.768 217.864L412.622 212.501Z" fill="#FFFEEE"/>
<path d="M414.006 219.022L402.467 221.007L403.397 226.412L414.936 224.427L414.006 219.022Z" fill="#FFFEEE"/>
<path d="M415.136 225.53L403.527 227.052L404.24 232.49L415.849 230.968L415.136 225.53Z" fill="#FFFEEE"/>
<path d="M416.011 232.079L404.35 233.136L404.846 238.598L416.506 237.541L416.011 232.079Z" fill="#FFFEEE"/>
<path d="M416.614 238.657L404.92 239.247L405.197 244.725L416.89 244.134L416.614 238.657Z" fill="#FFFEEE"/>
<path d="M416.967 245.255L405.259 245.378L405.316 250.862L417.024 250.74L416.967 245.255Z" fill="#FFFEEE"/>
<path d="M405.343 251.574L405.181 257.057L416.884 257.404L417.047 251.922L405.343 251.574Z" fill="#FFFEEE"/>
<path d="M405.151 257.71L404.769 263.182L416.449 263.996L416.831 258.525L405.151 257.71Z" fill="#FFFEEE"/>
<path d="M404.728 263.837L404.128 269.289L415.767 270.57L416.367 265.118L404.728 263.837Z" fill="#FFFEEE"/>
<path d="M404.063 269.951L403.246 275.374L414.824 277.119L415.641 271.695L404.063 269.951Z" fill="#FFFEEE"/>
<path d="M403.197 276.065L402.162 281.451L413.661 283.659L414.695 278.273L403.197 276.065Z" fill="#FFFEEE"/>
<path d="M402.038 282.098L400.79 287.438L412.191 290.104L413.439 284.764L402.038 282.098Z" fill="#FFFEEE"/>
<path d="M400.641 288.083L399.179 293.369L410.465 296.488L411.926 291.202L400.641 288.083Z" fill="#FFFEEE"/>
<path d="M399.011 294.006L397.34 299.229L408.492 302.797L410.163 297.573L399.011 294.006Z" fill="#FFFEEE"/>
<path d="M397.178 299.904L395.299 305.057L406.298 309.069L408.178 303.916L397.178 299.904Z" fill="#FFFEEE"/>
<path d="M395.073 305.681L392.99 310.754L403.82 315.202L405.904 310.129L395.073 305.681Z" fill="#FFFEEE"/>
<path d="M392.742 311.361L390.457 316.347L401.101 321.224L403.386 316.238L392.742 311.361Z" fill="#FFFEEE"/>
<path d="M390.183 316.944L387.701 321.835L398.142 327.134L400.624 322.243L390.183 316.944Z" fill="#FFFEEE"/>
<path d="M387.436 322.494L384.759 327.281L394.979 332.995L397.655 328.208L387.436 322.494Z" fill="#FFFEEE"/>
<path d="M384.438 327.853L381.573 332.529L391.556 338.647L394.421 333.971L384.438 327.853Z" fill="#FFFEEE"/>
<path d="M381.236 333.09L378.185 337.648L387.916 344.16L390.966 339.602L381.236 333.09Z" fill="#FFFEEE"/>
<path d="M377.818 338.194L374.589 342.627L384.051 349.522L387.281 345.09L377.818 338.194Z" fill="#FFFEEE"/>
<path d="M374.225 343.229L370.82 347.528L379.998 354.798L383.404 350.498L374.225 343.229Z" fill="#FFFEEE"/>
<path d="M370.409 348.048L366.835 352.208L375.715 359.838L379.289 355.678L370.409 348.048Z" fill="#FFFEEE"/>
<path d="M366.411 352.707L362.674 356.721L371.242 364.7L374.98 360.686L366.411 352.707Z" fill="#FFFEEE"/>
<path d="M362.232 357.2L358.337 361.062L366.58 369.377L370.475 365.515L362.232 357.2Z" fill="#FFFEEE"/>
<path d="M357.871 361.601L353.824 365.303L361.727 373.942L365.774 370.24L357.871 361.601Z" fill="#FFFEEE"/>
<path d="M353.348 365.744L349.157 369.281L356.708 378.229L360.899 374.692L353.348 365.744Z" fill="#FFFEEE"/>
<path d="M348.647 369.717L344.318 373.084L351.505 382.327L355.835 378.96L348.647 369.717Z" fill="#FFFEEE"/>
<path d="M343.805 373.481L339.344 376.672L346.157 386.194L350.617 383.003L343.805 373.481Z" fill="#FFFEEE"/>
<path d="M338.802 377.127L334.217 380.137L340.642 389.925L345.227 386.915L338.802 377.127Z" fill="#FFFEEE"/>
<path d="M333.673 380.496L328.972 383.32L335 393.357L339.702 390.534L333.673 380.496Z" fill="#FFFEEE"/>
<path d="M328.406 383.672L323.595 386.306L329.217 396.576L334.028 393.942L328.406 383.672Z" fill="#FFFEEE"/>
<path d="M323.034 386.616L318.121 389.056L323.329 399.542L328.241 397.103L323.034 386.616Z" fill="#FFFEEE"/>
<path d="M317.5 389.413L312.494 391.653L317.277 402.34L322.283 400.1L317.5 389.413Z" fill="#FFFEEE"/>
<path d="M311.896 391.925L306.804 393.964L311.156 404.833L316.248 402.795L311.896 391.925Z" fill="#FFFEEE"/>
<path d="M306.195 394.21L301.026 396.044L304.94 407.079L310.109 405.245L306.195 394.21Z" fill="#FFFEEE"/>
<path d="M300.412 396.276L295.174 397.901L298.644 409.084L303.882 407.458L300.412 396.276Z" fill="#FFFEEE"/>
<path d="M294.509 398.152L289.21 399.566L292.229 410.879L297.528 409.465L294.509 398.152Z" fill="#FFFEEE"/>
<path d="M288.583 399.738L283.231 400.939L285.795 412.364L291.147 411.163L288.583 399.738Z" fill="#FFFEEE"/>
<path d="M282.59 401.094L277.195 402.08L279.3 413.598L284.695 412.611L282.59 401.094Z" fill="#FFFEEE"/>
<path d="M276.551 402.203L271.121 402.973L272.764 414.565L278.195 413.795L276.551 402.203Z" fill="#FFFEEE"/>
<path d="M270.483 403.075L265.026 403.627L266.206 415.276L271.662 414.724L270.483 403.075Z" fill="#FFFEEE"/>
<path d="M264.311 403.737L258.836 404.07L259.547 415.757L265.021 415.424L264.311 403.737Z" fill="#FFFEEE"/>
<path d="M258.193 404.119L252.709 404.232L252.953 415.938L258.436 415.824L258.193 404.119Z" fill="#FFFEEE"/>
<path d="M246.545 404.142L246.321 415.849L251.804 415.954L252.029 404.248L246.545 404.142Z" fill="#FFFEEE"/>
<path d="M240.397 403.805L239.705 415.493L245.18 415.817L245.872 404.13L240.397 403.805Z" fill="#FFFEEE"/>
<path d="M234.293 403.286L233.132 414.937L238.589 415.48L239.75 403.83L234.293 403.286Z" fill="#FFFEEE"/>
<path d="M228.19 402.458L226.564 414.053L231.996 414.814L233.621 403.219L228.19 402.458Z" fill="#FFFEEE"/>
<path d="M222.123 401.387L220.036 412.908L225.432 413.886L227.52 402.365L222.123 401.387Z" fill="#FFFEEE"/>
<path d="M216.107 400.073L213.56 411.501L218.914 412.694L221.46 401.265L216.107 400.073Z" fill="#FFFEEE"/>
<path d="M210.16 398.587L207.157 409.904L212.458 411.311L215.461 399.994L210.16 398.587Z" fill="#FFFEEE"/>
<path d="M204.269 396.791L200.817 407.979L206.057 409.596L209.51 398.408L204.269 396.791Z" fill="#FFFEEE"/>
<path d="M198.452 394.769L194.555 405.81L199.727 407.635L203.624 396.594L198.452 394.769Z" fill="#FFFEEE"/>
<path d="M192.717 392.521L188.382 403.397L193.477 405.428L197.812 394.552L192.717 392.521Z" fill="#FFFEEE"/>
<path d="M187.083 390.097L182.316 400.791L187.325 403.024L192.093 392.331L187.083 390.097Z" fill="#FFFEEE"/>
<path d="M181.554 387.397L176.362 397.892L181.278 400.323L186.47 389.829L181.554 387.397Z" fill="#FFFEEE"/>
<path d="M176.129 384.476L170.523 394.755L175.338 397.381L180.944 387.102L176.129 384.476Z" fill="#FFFEEE"/>
<path d="M170.833 381.33L164.821 391.377L169.527 394.194L175.54 384.147L170.833 381.33Z" fill="#FFFEEE"/>
<path d="M165.656 378.04L159.245 387.837L163.835 390.84L170.246 381.043L165.656 378.04Z" fill="#FFFEEE"/>
<path d="M160.623 374.487L153.826 384.021L158.291 387.205L165.089 377.671L160.623 374.487Z" fill="#FFFEEE"/>
<path d="M155.741 370.736L148.568 379.99L152.902 383.35L160.075 374.096L155.741 370.736Z" fill="#FFFEEE"/>
<path d="M151.012 366.806L143.475 375.766L147.672 379.296L155.209 370.336L151.012 366.806Z" fill="#FFFEEE"/>
<path d="M146.424 362.725L138.533 371.375L142.585 375.071L150.476 366.421L146.424 362.725Z" fill="#FFFEEE"/>
<path d="M142.02 358.422L133.791 366.75L137.692 370.605L145.922 362.277L142.02 358.422Z" fill="#FFFEEE"/>
<path d="M137.793 353.943L129.237 361.936L132.981 365.943L141.537 357.951L137.793 353.943Z" fill="#FFFEEE"/>
<path d="M133.75 349.3L124.881 356.944L128.462 361.099L137.331 353.454L133.75 349.3Z" fill="#FFFEEE"/>
<path d="M129.873 344.535L120.705 351.817L124.116 356.112L133.284 348.83L129.873 344.535Z" fill="#FFFEEE"/>
<path d="M126.211 339.596L116.76 346.506L119.996 350.933L129.448 344.023L126.211 339.596Z" fill="#FFFEEE"/>
<path d="M122.759 334.498L113.039 341.025L116.096 345.579L125.817 339.052L122.759 334.498Z" fill="#FFFEEE"/>
<path d="M119.504 329.28L109.531 335.413L112.404 340.085L122.377 333.952L119.504 329.28Z" fill="#FFFEEE"/>
<path d="M116.438 323.952L106.226 329.68L108.909 334.463L119.121 328.735L116.438 323.952Z" fill="#FFFEEE"/>
<path d="M113.615 318.477L103.182 323.793L105.672 328.68L116.105 323.364L113.615 318.477Z" fill="#FFFEEE"/>
<path d="M111.012 312.9L100.376 317.794L102.669 322.776L113.305 317.882L111.012 312.9Z" fill="#FFFEEE"/>
<path d="M108.633 307.23L97.8098 311.695L99.9016 316.765L110.725 312.3L108.633 307.23Z" fill="#FFFEEE"/>
<path d="M106.454 301.473L95.46 305.501L97.3466 310.651L108.341 306.623L106.454 301.473Z" fill="#FFFEEE"/>
<path d="M104.541 295.628L93.3948 299.213L95.0741 304.434L106.22 300.849L104.541 295.628Z" fill="#FFFEEE"/>
<path d="M102.858 289.717L91.5774 292.854L93.0468 298.138L104.327 295.001L102.858 289.717Z" fill="#FFFEEE"/>
<path d="M101.414 283.73L90.0173 286.413L91.2744 291.752L102.671 289.068L101.414 283.73Z" fill="#FFFEEE"/>
<path d="M100.177 277.711L88.6815 279.935L89.7233 285.319L101.219 283.095L100.177 277.711Z" fill="#FFFEEE"/>
<path d="M99.2163 271.626L87.6414 273.389L88.4672 278.811L100.042 277.048L99.2163 271.626Z" fill="#FFFEEE"/>
<path d="M98.4976 265.518L86.8615 266.817L87.47 272.268L99.1061 270.969L98.4976 265.518Z" fill="#FFFEEE"/>
<path d="M98.0245 259.385L86.3457 260.218L86.7359 265.688L98.4147 264.855L98.0245 259.385Z" fill="#FFFEEE"/>
<path d="M97.7691 253.24L86.0663 253.604L86.2366 259.085L97.9395 258.722L97.7691 253.24Z" fill="#FFFEEE"/>
<path d="M86.092 246.986L86.0432 252.471L97.7512 252.575L97.8 247.091L86.092 246.986Z" fill="#FFFEEE"/>
<path d="M86.3659 240.364L86.098 245.842L97.7925 246.414L98.0604 240.936L86.3659 240.364Z" fill="#FFFEEE"/>
<path d="M86.8993 233.759L86.4127 239.222L98.075 240.26L98.5616 234.798L86.8993 233.759Z" fill="#FFFEEE"/>
<path d="M87.6989 227.177L86.9944 232.616L98.6059 234.12L99.3103 228.681L87.6989 227.177Z" fill="#FFFEEE"/>
<path d="M88.7639 220.665L87.8417 226.071L99.3834 228.04L100.306 222.634L88.7639 220.665Z" fill="#FFFEEE"/>
<path d="M90.084 214.169L88.9465 219.534L100.4 221.963L101.538 216.597L90.084 214.169Z" fill="#FFFEEE"/>
<path d="M91.6637 207.743L90.3127 213.059L101.66 215.943L103.011 210.627L91.6637 207.743Z" fill="#FFFEEE"/>
<path d="M93.4999 201.367L91.9376 206.624L103.161 209.959L104.723 204.702L93.4999 201.367Z" fill="#FFFEEE"/>
<path d="M95.5918 195.11L93.8198 200.301L104.9 204.084L106.672 198.893L95.5918 195.11Z" fill="#FFFEEE"/>
<path d="M97.9309 188.906L95.9529 194.021L106.873 198.244L108.851 193.129L97.9309 188.906Z" fill="#FFFEEE"/>
<path d="M100.515 182.805L98.3337 187.837L109.077 192.493L111.258 187.46L100.515 182.805Z" fill="#FFFEEE"/>
<path d="M103.343 176.816L100.963 181.757L111.511 186.838L113.891 181.897L103.343 176.816Z" fill="#FFFEEE"/>
<path d="M106.405 170.967L103.828 175.809L114.164 181.309L116.741 176.467L106.405 170.967Z" fill="#FFFEEE"/>
<path d="M109.699 165.217L106.931 169.952L117.039 175.861L119.807 171.126L109.699 165.217Z" fill="#FFFEEE"/>
<path d="M113.226 159.612L110.271 164.232L120.134 170.541L123.089 165.92L113.226 159.612Z" fill="#FFFEEE"/>
<path d="M116.974 154.142L113.837 158.641L123.441 165.338L126.578 160.839L116.974 154.142Z" fill="#FFFEEE"/>
<path d="M120.929 148.852L117.614 153.222L126.941 160.299L130.256 155.93L120.929 148.852Z" fill="#FFFEEE"/>
<path d="M125.104 143.706L121.617 147.939L130.654 155.384L134.141 151.151L125.104 143.706Z" fill="#FFFEEE"/>
<path d="M129.47 138.732L125.816 142.822L134.549 150.622L138.202 146.531L129.47 138.732Z" fill="#FFFEEE"/>
<path d="M134.048 133.935L130.234 137.876L138.647 146.018L142.462 142.077L134.048 133.935Z" fill="#FFFEEE"/>
<path d="M138.803 129.336L134.834 133.121L142.914 141.594L146.883 137.809L138.803 129.336Z" fill="#FFFEEE"/>
<path d="M143.733 124.926L139.615 128.55L147.351 137.339L151.468 133.716L143.733 124.926Z" fill="#FFFEEE"/>
<path d="M148.842 120.712L144.584 124.168L151.962 133.259L156.22 129.803L148.842 120.712Z" fill="#FFFEEE"/>
<path d="M154.116 116.699L149.722 119.982L156.731 129.361L161.125 126.078L154.116 116.699Z" fill="#FFFEEE"/>
<path d="M159.538 112.92L155.016 116.024L161.643 125.677L166.164 122.573L159.538 112.92Z" fill="#FFFEEE"/>
<path d="M165.122 109.342L160.48 112.263L166.716 122.172L171.358 119.252L165.122 109.342Z" fill="#FFFEEE"/>
<path d="M170.836 106.004L166.081 108.737L171.916 118.888L176.671 116.155L170.836 106.004Z" fill="#FFFEEE"/>
<path d="M176.669 102.888L171.808 105.429L177.233 115.805L182.093 113.264L176.669 102.888Z" fill="#FFFEEE"/>
<path d="M182.64 100.025L177.681 102.369L182.685 112.955L187.644 110.611L182.64 100.025Z" fill="#FFFEEE"/>
<path d="M188.715 97.3825L183.667 99.5264L188.243 110.303L193.292 108.159L188.715 97.3825Z" fill="#FFFEEE"/>
<path d="M194.884 94.9902L189.754 96.9307L193.896 107.882L199.026 105.941L194.884 94.9902Z" fill="#FFFEEE"/>
<path d="M201.142 92.8422L195.938 94.5762L199.64 105.684L204.843 103.95L201.142 92.8422Z" fill="#FFFEEE"/>
<path d="M207.489 90.9704L202.22 92.4941L205.473 103.742L210.742 102.218L207.489 90.9704Z" fill="#FFFEEE"/>
<path d="M213.912 89.3306L208.587 90.6426L211.387 102.011L216.713 100.699L213.912 89.3306Z" fill="#FFFEEE"/>
<path d="M220.386 87.9458L215.012 89.0439L217.357 100.515L222.73 99.4172L220.386 87.9458Z" fill="#FFFEEE"/>
<path d="M226.909 86.8274L221.496 87.71L223.38 99.2658L228.793 98.3833L226.909 86.8274Z" fill="#FFFEEE"/>
<path d="M233.475 85.9975L228.031 86.6621L229.45 98.2843L234.894 97.6197L233.475 85.9975Z" fill="#FFFEEE"/>
<path d="M240.068 85.3933L234.602 85.8398L235.555 97.5094L241.022 97.0629L240.068 85.3933Z" fill="#FFFEEE"/>
<path d="M246.683 85.0594L241.204 85.2871L241.69 96.9855L247.17 96.7577L246.683 85.0594Z" fill="#FFFEEE"/>
</g>
<defs>
<clipPath id="clip0_2003_8747">
<rect width="350.19" height="350.19" fill="white" transform="translate(75 75)"/>
</clipPath>
</defs>
</svg>
