<svg width="500" height="500" viewBox="0 0 500 500" fill="none" xmlns="http://www.w3.org/2000/svg">
<rect width="500" height="500" fill="white"/>
<g clip-path="url(#clip0_2003_9693)">
<path d="M199.045 328.075C190.325 328.505 183.225 322.995 181.005 314.895C174.675 292.725 170.535 262.195 144.875 253.905C136.755 251.275 128.005 251.865 119.485 251.375C110.325 250.855 100.925 248.915 93.515 243.515C86.115 238.115 82.375 231.095 84.415 222.155C86.225 214.225 91.905 205.715 99.565 202.975C107.225 200.235 116.295 200.375 124.275 201.985C174.645 212.155 190.975 214.075 225.735 219.865C263.005 226.075 296.095 232.345 330.745 233.015C344.725 233.285 358.905 233.235 372.415 229.495C380.205 227.315 373.465 219.915 369.645 217.665C337.435 198.695 285.385 205.635 275.855 246.995C271.545 265.715 280.355 284.725 297.665 293.055C314.975 301.385 335.475 300.255 354.035 295.285C360.385 293.585 366.815 291.435 373.375 291.935C379.935 292.435 386.785 296.445 388.155 302.875C389.195 307.725 386.855 312.825 383.255 316.225C379.655 319.635 374.965 321.615 370.275 323.235C345.305 331.855 317.805 331.775 292.145 325.515C273.265 320.905 255.005 311.155 244.835 294.585C238.325 283.985 235.245 272.135 235.145 259.695C234.965 239.095 242.165 218.465 255.745 202.685C270.135 185.965 289.035 177.805 310.185 173.425C313.115 172.815 316.065 172.325 319.025 171.885C353.995 166.685 396.495 170.255 412.495 207.165C417.715 219.215 417.425 233.595 410.945 245.025C397.685 268.415 367.315 269.655 357.025 270.115C306.305 272.385 254.485 264.915 203.955 259.845C202.085 259.655 201.015 261.415 201.365 263.255C204.275 278.675 203.985 275.855 211.035 306.735C212.575 313.495 210.935 321.665 205.395 325.835C203.495 327.265 201.315 327.955 199.045 328.075Z" fill="url(#paint0_linear_2003_9693)"/>
<path d="M410.945 245.035C397.685 268.425 367.315 269.665 357.025 270.125C330.285 271.325 303.235 269.815 276.235 267.375C274.455 260.915 274.255 253.935 275.855 246.995C277.435 240.105 280.205 234.175 283.875 229.155C299.535 231.245 314.985 232.705 330.745 233.015C344.725 233.285 358.905 233.235 372.415 229.495C380.205 227.315 373.465 219.915 369.645 217.665C342.795 201.845 302.165 204.035 283.875 229.155C270.515 227.375 256.995 225.135 242.975 222.775C246.245 215.545 250.525 208.765 255.745 202.695C270.125 185.975 289.035 177.815 310.185 173.435C313.115 172.835 316.065 172.345 319.025 171.905C353.995 166.695 396.495 170.265 412.495 207.175C417.725 219.235 417.425 233.605 410.945 245.035Z" fill="url(#paint1_radial_2003_9693)"/>
<path d="M384.275 316.199C380.619 319.608 375.857 321.604 371.094 323.228C345.749 331.871 317.824 331.791 291.768 325.504C272.597 320.882 254.055 311.105 243.728 294.5C237.737 284.854 234.599 274.195 234 262.995C247.82 264.479 262.368 266.151 276.27 267.394C279.326 278.394 286.8 287.346 297.363 292.956C314.941 301.299 335.757 300.176 354.604 295.192C361.052 293.478 367.581 291.322 374.242 291.833C380.893 292.334 387.849 296.355 389.25 302.803C390.306 307.666 387.93 312.78 384.275 316.199Z" fill="url(#paint2_linear_2003_9693)"/>
<path d="M358.875 270.125V232.25C342.958 233.6 321.546 232.568 305 231.375C283.632 229.835 264.292 225.972 260.671 225.43C256.44 237.962 246.662 264.159 247.939 264.309C255.482 265.197 277.867 267.879 300.5 269.146C320.804 270.282 341.625 271.125 358.875 270.125Z" fill="url(#paint3_linear_2003_9693)"/>
<path d="M204.568 278.835L172.163 284.152C173.89 289.959 178.031 303.425 180.233 312.524C182.917 323.615 189.85 329.674 201.551 327.751C210.912 326.212 213.362 315.522 211.65 309.157L204.568 278.835Z" fill="url(#paint4_linear_2003_9693)"/>
</g>
<defs>
<linearGradient id="paint0_linear_2003_9693" x1="91.0192" y1="237.484" x2="406.921" y2="237.484" gradientUnits="userSpaceOnUse">
<stop stop-color="#FE0201"/>
<stop offset="1" stop-color="#FE0201"/>
</linearGradient>
<radialGradient id="paint1_radial_2003_9693" cx="0" cy="0" r="1" gradientUnits="userSpaceOnUse" gradientTransform="translate(329.557 133.323) rotate(73.1623) scale(121.287 607.732)">
<stop stop-color="#0186F5"/>
<stop offset="0.537954" stop-color="#0186F5"/>
<stop offset="0.902324" stop-color="#8F30C2"/>
</radialGradient>
<linearGradient id="paint2_linear_2003_9693" x1="258.761" y1="262.995" x2="388.961" y2="321.117" gradientUnits="userSpaceOnUse">
<stop stop-color="#0F95E3"/>
<stop offset="1" stop-color="#FED700"/>
</linearGradient>
<linearGradient id="paint3_linear_2003_9693" x1="259.137" y1="247.65" x2="347.839" y2="251.105" gradientUnits="userSpaceOnUse">
<stop stop-color="#FE0201"/>
<stop offset="1" stop-color="#8F30C2"/>
</linearGradient>
<linearGradient id="paint4_linear_2003_9693" x1="191.958" y1="278.817" x2="191.958" y2="328.104" gradientUnits="userSpaceOnUse">
<stop stop-color="#FE0201"/>
<stop offset="1" stop-color="#FF7F00"/>
</linearGradient>
<clipPath id="clip0_2003_9693">
<rect width="332.27" height="159.99" fill="white" transform="translate(83.865 170.005)"/>
</clipPath>
</defs>
</svg>
