<svg width="500" height="500" viewBox="0 0 500 500" fill="none" xmlns="http://www.w3.org/2000/svg">
<rect width="500" height="500" fill="white"/>
<g clip-path="url(#clip0_2003_9684)">
<path d="M386.772 111.29H113.228V388.71H386.772V111.29Z" fill="#3A2956"/>
<path d="M369.068 241.281H133.95C137.251 175.179 188.623 122.667 251.509 122.667C314.395 122.667 365.768 175.179 369.068 241.281Z" fill="#F0F3FA"/>
<path d="M369.214 250.592C367.954 318.674 315.733 373.449 251.509 373.449C187.285 373.449 135.064 318.674 133.804 250.592H369.214Z" fill="#F0F3FA"/>
<path d="M315.356 157.526V222.882H160.433L315.356 157.526Z" fill="#058D3C"/>
<path d="M315.356 259.68V324.075H168.664V314.395H237.654C250.352 314.395 260.648 304.099 260.648 291.401C260.648 278.704 250.352 268.407 237.654 268.407H167.695V259.697H315.356V259.68Z" fill="#058D3C"/>
</g>
<defs>
<clipPath id="clip0_2003_9684">
<rect width="273.545" height="277.42" fill="white" transform="translate(113.228 111.29)"/>
</clipPath>
</defs>
</svg>
