<svg width="500" height="500" viewBox="0 0 500 500" fill="none" xmlns="http://www.w3.org/2000/svg">
<rect width="500" height="500" fill="white"/>
<g clip-path="url(#clip0_2003_9000)">
<path d="M312.785 197.215C312.785 197.215 312.765 197.255 312.765 197.345C312.765 197.395 312.765 197.465 312.745 197.545C312.745 197.565 312.745 197.595 312.745 197.615C312.745 197.645 312.745 197.685 312.745 197.725C312.745 197.815 312.745 197.925 312.735 198.045C312.735 198.105 312.735 198.165 312.735 198.235C312.735 198.365 312.735 198.505 312.725 198.655C312.725 198.655 312.725 198.655 312.725 198.675C312.725 198.825 312.725 198.985 312.705 199.155C312.705 199.505 312.685 199.905 312.675 200.335C312.675 200.515 312.675 200.705 312.675 200.905C312.655 201.785 312.645 202.805 312.625 203.925C312.625 204.335 312.615 204.755 312.605 205.195C312.605 205.355 312.605 205.515 312.605 205.675C312.605 205.835 312.605 206.005 312.605 206.165C312.605 206.325 312.605 206.495 312.605 206.665C312.605 207.005 312.605 207.345 312.595 207.695V207.725C312.595 208.005 312.595 208.285 312.595 208.575C312.595 209.565 312.575 210.585 312.565 211.645C312.565 211.895 312.565 212.145 312.565 212.395C312.565 212.495 312.565 212.605 312.565 212.705C312.565 212.905 312.565 213.095 312.565 213.295C312.565 213.495 312.565 213.685 312.565 213.885C312.565 214.275 312.565 214.675 312.565 215.085C312.565 215.135 312.565 215.175 312.565 215.225C312.665 205.505 312.775 197.235 312.895 197.235H312.875L312.785 197.215ZM312.465 216.405C312.465 216.565 312.465 216.735 312.465 216.895C312.465 216.685 312.465 216.485 312.465 216.285C312.465 216.085 312.465 215.875 312.465 215.675C312.465 215.515 312.465 215.365 312.465 215.215C312.465 215.285 312.465 215.365 312.465 215.435C312.465 215.755 312.465 216.075 312.465 216.405ZM312.435 220.605C312.435 220.395 312.435 220.195 312.435 219.985C312.435 219.775 312.435 219.565 312.435 219.365C312.435 219.575 312.435 219.775 312.435 219.985C312.435 220.195 312.435 220.405 312.435 220.605Z" fill="#01AFEF"/>
<path d="M409.335 182.685C400.625 162.095 388.155 143.605 372.275 127.725C356.395 111.845 337.905 99.3752 317.305 90.6652C295.985 81.6452 273.345 77.0752 249.995 77.0752C226.645 77.0752 204.005 81.6452 182.685 90.6652C162.095 99.3752 143.595 111.845 127.715 127.725C111.835 143.605 99.3652 162.095 90.6552 182.685C81.6452 204.005 77.0752 226.655 77.0752 249.995C77.0752 273.335 81.6452 295.985 90.6652 317.305C99.3752 337.895 111.845 356.385 127.725 372.265C143.605 388.145 162.095 400.615 182.695 409.325C204.015 418.345 226.665 422.915 250.005 422.915C273.345 422.915 295.995 418.345 317.315 409.325C337.905 400.615 356.395 388.145 372.285 372.265C388.165 356.385 400.635 337.895 409.345 317.305C409.515 316.905 409.685 316.505 409.845 316.105C418.535 295.135 422.935 272.895 422.935 249.995C422.935 227.095 418.365 204.005 409.345 182.685H409.335ZM315.535 94.8652C335.585 103.345 353.585 115.485 369.055 130.945C384.515 146.405 396.655 164.415 405.135 184.465C407.565 190.215 409.665 196.055 411.435 201.995C410.735 200.585 410.005 199.195 409.235 197.805C400.485 181.895 387.985 167.615 372.055 155.365C366.885 151.385 361.435 147.695 355.725 144.275C352.315 138.575 348.615 133.125 344.645 127.945C332.395 112.025 318.115 99.5152 302.205 90.7652C300.815 89.9952 299.415 89.2752 298.015 88.5652C303.945 90.3352 309.795 92.4252 315.545 94.8552L315.535 94.8652ZM352.955 148.565C343.715 144.335 333.795 141.315 323.415 139.735C322.315 137.325 321.185 134.965 320.005 132.645C331.545 136.695 342.375 141.695 352.395 147.595C352.585 147.915 352.765 148.235 352.955 148.565ZM300.005 94.7652C315.365 103.205 329.165 115.305 341.025 130.725C343.225 133.595 345.345 136.545 347.375 139.585C337.895 134.595 327.795 130.335 317.125 126.865C317.045 126.835 316.965 126.815 316.895 126.795C308.395 111.535 298.535 99.4952 287.565 90.9752C285.555 89.4152 283.525 87.9852 281.475 86.6852C287.775 88.7552 293.965 91.4452 300.005 94.7752V94.7652ZM318.075 139.055C314.255 138.665 310.375 138.455 306.455 138.455C300.965 138.455 295.575 138.855 290.295 139.625C289.375 135.865 288.395 132.215 287.365 128.695C286.895 127.065 286.405 125.485 285.915 123.925C295.405 125.505 304.705 127.725 313.765 130.575C315.255 133.325 316.695 136.155 318.075 139.055ZM284.765 94.5652C294.235 101.925 302.865 112.085 310.495 124.825C301.955 122.355 293.215 120.425 284.315 119.045C280.405 107.645 276.025 98.3952 271.235 91.4652C269.185 88.4952 267.085 85.9752 264.935 83.9252C271.725 86.0352 278.355 89.5852 284.765 94.5652ZM252.275 81.8452C261.905 83.6152 271.415 96.5552 279.225 118.325C270.375 117.165 261.385 116.535 252.275 116.445V81.8452ZM252.275 121.005C261.955 121.105 271.505 121.825 280.875 123.155C281.595 125.355 282.305 127.625 282.985 129.975C283.965 133.325 284.895 136.805 285.775 140.375C273.825 142.605 262.555 146.745 252.265 152.465V121.005H252.275ZM247.725 81.8452V116.445C238.615 116.535 229.625 117.165 220.775 118.325C228.585 96.5652 238.095 83.6252 247.725 81.8452ZM165.015 171.785C161.995 182.615 159.625 193.995 157.935 205.775C147.485 207.715 137.685 210.015 128.705 212.635C127.075 213.115 125.495 213.595 123.935 214.085C125.515 204.595 127.735 195.295 130.575 186.235C141.015 180.565 152.595 175.735 165.015 171.795V171.785ZM132.655 179.995C136.705 168.455 141.705 157.625 147.605 147.605C157.625 141.705 168.455 136.705 179.995 132.655C174.715 143.035 170.215 154.405 166.545 166.545C154.415 170.225 143.035 174.725 132.655 179.995ZM200.105 299.895C201.265 312.995 202.875 325.555 204.925 337.345C192.855 335.545 181.215 333.015 170.205 329.795C166.995 318.785 164.465 307.145 162.655 295.075C174.455 297.125 187.015 298.735 200.105 299.895ZM161.985 290.335C160.355 278.015 159.475 265.265 159.385 252.285H194.765C194.935 261.805 196.305 271.035 198.715 279.825C198.985 285.045 199.315 290.205 199.715 295.285C186.495 294.095 173.835 292.435 161.985 290.335ZM198.695 220.635C196.325 229.295 194.965 238.365 194.765 247.725H159.385C159.475 234.735 160.355 221.995 161.985 209.675C173.835 207.575 186.495 205.915 199.715 204.725C199.305 209.955 198.955 215.265 198.685 220.645L198.695 220.635ZM129.975 217.005C138.395 214.555 147.545 212.395 157.285 210.535C155.755 222.605 154.915 235.055 154.825 247.725H121.005C121.105 238.045 121.825 228.495 123.155 219.115C125.355 218.395 127.625 217.695 129.975 217.005ZM154.825 252.275C154.915 264.945 155.745 277.395 157.285 289.465C147.545 287.605 138.395 285.445 129.975 282.995C127.625 282.305 125.355 281.605 123.155 280.885C121.825 271.505 121.105 261.965 121.005 252.285H154.825V252.275ZM128.695 287.375C137.675 289.995 147.475 292.285 157.925 294.235C159.625 306.015 161.995 317.395 165.005 328.225C152.585 324.285 141.005 319.455 130.565 313.785C127.715 304.725 125.505 295.425 123.925 285.935C125.475 286.425 127.065 286.905 128.695 287.385V287.375ZM166.545 333.455C170.215 345.585 174.725 356.955 179.995 367.345C168.445 363.295 157.625 358.295 147.605 352.395C141.705 342.375 136.705 331.545 132.655 320.005C143.035 325.285 154.415 329.785 166.545 333.455ZM171.785 334.985C182.615 338.005 193.995 340.375 205.775 342.075C207.725 352.515 210.015 362.325 212.635 371.305C213.105 372.935 213.585 374.515 214.085 376.075C204.595 374.495 195.295 372.275 186.235 369.425C180.565 358.985 175.735 347.405 171.795 334.985H171.785ZM204.715 300.275C205.355 300.325 206.005 300.365 206.645 300.415C214.665 316.325 226.385 330.045 240.655 340.465C230.105 340.155 219.745 339.335 209.665 337.995C207.565 326.145 205.905 313.485 204.715 300.265V300.275ZM200.105 200.105C187.005 201.265 174.445 202.875 162.655 204.925C164.455 192.855 166.985 181.215 170.205 170.205C181.225 166.995 192.855 164.465 204.925 162.655C202.885 174.455 201.265 187.005 200.105 200.105ZM171.785 165.015C175.725 152.595 180.555 141.015 186.225 130.575C195.285 127.725 204.585 125.515 214.075 123.925C213.585 125.485 213.105 127.075 212.625 128.695C210.005 137.675 207.715 147.475 205.765 157.925C193.985 159.615 182.605 161.995 171.775 165.005L171.785 165.015ZM217.005 129.975C217.685 127.625 218.395 125.345 219.115 123.155C228.495 121.825 238.045 121.105 247.725 121.005V154.825C235.055 154.915 222.605 155.745 210.535 157.285C212.395 147.545 214.555 138.395 217.005 129.975ZM228.755 91.4652C223.975 98.3952 219.595 107.655 215.675 119.045C206.775 120.425 198.035 122.355 189.495 124.825C197.125 112.075 205.765 101.915 215.225 94.5652C221.635 89.5852 228.265 86.0352 235.045 83.9252C232.895 85.9752 230.795 88.4952 228.745 91.4652H228.755ZM212.435 90.9652C201.465 99.4852 191.605 111.525 183.105 126.785C183.025 126.815 182.945 126.835 182.875 126.855C172.205 130.325 162.105 134.585 152.625 139.575C154.655 136.535 156.775 133.585 158.975 130.715C170.835 115.295 184.645 103.195 199.995 94.7552C206.035 91.4352 212.225 88.7352 218.525 86.6652C216.475 87.9652 214.445 89.3952 212.435 90.9552V90.9652ZM94.8652 184.465C103.345 164.415 115.485 146.415 130.945 130.945C146.405 115.485 164.415 103.345 184.465 94.8652C190.215 92.4352 196.055 90.3352 201.995 88.5752C200.595 89.2752 199.195 90.0052 197.805 90.7752C181.895 99.5252 167.615 112.035 155.365 127.955C151.385 133.125 147.695 138.575 144.285 144.285C138.575 147.695 133.125 151.395 127.955 155.375C112.035 167.625 99.5252 181.905 90.7752 197.815C90.0152 199.205 89.2852 200.605 88.5752 202.005C90.3452 196.075 92.4352 190.225 94.8752 184.475L94.8652 184.465ZM94.7652 199.995C103.205 184.635 115.305 170.835 130.725 158.975C133.595 156.765 136.545 154.655 139.585 152.625C134.595 162.095 130.335 172.205 126.865 182.875C126.835 182.955 126.815 183.035 126.795 183.105C111.545 191.605 99.4952 201.465 90.9752 212.435C89.4152 214.445 87.9852 216.475 86.6852 218.525C88.7452 212.225 91.4452 206.035 94.7652 199.995ZM94.5652 215.235C101.915 205.765 112.075 197.135 124.825 189.505C122.355 198.045 120.435 206.785 119.045 215.685C107.645 219.595 98.3952 223.985 91.4652 228.765C88.4952 230.815 85.9752 232.915 83.9252 235.065C86.0352 228.275 89.5852 221.655 94.5652 215.235ZM118.325 220.775C117.165 229.625 116.535 238.615 116.445 247.725H81.8452C83.6152 238.095 96.5552 228.575 118.325 220.775ZM116.445 252.275C116.535 261.375 117.165 270.375 118.325 279.225C96.5652 271.425 83.6252 261.905 81.8452 252.275H116.445ZM91.4652 271.245C98.3952 276.025 107.655 280.405 119.045 284.325C120.425 293.225 122.355 301.965 124.825 310.505C112.075 302.875 101.915 294.235 94.5652 284.775C89.5852 278.365 86.0352 271.735 83.9252 264.945C85.9752 267.095 88.4952 269.205 91.4652 271.245ZM90.9652 287.565C99.4852 298.535 111.535 308.395 126.785 316.895C126.815 316.975 126.835 317.055 126.855 317.125C130.325 327.795 134.585 337.895 139.575 347.375C136.535 345.345 133.585 343.235 130.715 341.025C115.295 329.165 103.195 315.355 94.7552 300.005C91.4352 293.965 88.7352 287.775 86.6752 281.475C87.9752 283.525 89.4052 285.555 90.9652 287.565ZM184.465 405.135C164.415 396.655 146.415 384.515 130.945 369.055C115.485 353.595 103.345 335.585 94.8652 315.535C92.4352 309.795 90.3352 303.945 88.5652 298.005C89.2652 299.415 89.9952 300.815 90.7652 302.205C99.5152 318.115 112.025 332.395 127.945 344.645C133.115 348.625 138.565 352.315 144.275 355.735C147.685 361.445 151.385 366.885 155.355 372.065C167.605 387.985 181.885 400.495 197.795 409.245C199.185 410.015 200.585 410.735 201.985 411.445C196.055 409.685 190.205 407.585 184.455 405.155L184.465 405.135ZM199.995 405.235C184.635 396.795 170.835 384.695 158.975 369.275C156.775 366.405 154.655 363.455 152.625 360.415C162.105 365.415 172.205 369.665 182.875 373.145C182.955 373.165 183.025 373.195 183.105 373.215C191.605 388.475 201.475 400.515 212.435 409.035C214.445 410.595 216.475 412.025 218.525 413.325C212.225 411.255 206.035 408.565 199.995 405.235ZM215.235 405.435C205.765 398.085 197.125 387.915 189.505 375.175C198.045 377.645 206.785 379.575 215.685 380.955C219.595 392.355 223.975 401.605 228.765 408.535C230.815 411.505 232.915 414.025 235.065 416.075C228.285 413.975 221.655 410.415 215.245 405.435H215.235ZM247.725 418.155C238.095 416.375 228.585 403.445 220.775 381.675C229.625 382.835 238.615 383.465 247.725 383.555V418.155ZM247.725 378.995C238.045 378.895 228.495 378.175 219.125 376.845C218.405 374.645 217.695 372.375 217.015 370.025C214.555 361.605 212.395 352.455 210.545 342.715C222.585 344.245 235.005 345.075 247.645 345.175C247.675 345.195 247.705 345.215 247.735 345.235V379.005L247.725 378.995ZM252.275 418.155V383.555C261.385 383.465 270.375 382.835 279.225 381.675C271.415 403.435 261.905 416.375 252.275 418.155ZM252.275 378.995V347.905C262.535 353.605 273.775 357.735 285.695 359.975C284.835 363.435 283.935 366.785 282.985 370.025C282.305 372.375 281.595 374.655 280.875 376.845C271.495 378.175 261.955 378.895 252.275 378.995ZM271.245 408.525C276.025 401.595 280.405 392.345 284.325 380.945C293.225 379.565 301.965 377.635 310.505 375.165C302.875 387.915 294.235 398.075 284.775 405.425C278.365 410.405 271.735 413.955 264.945 416.065C267.095 414.015 269.205 411.495 271.245 408.525ZM285.925 376.075C286.415 374.515 286.895 372.935 287.375 371.305C288.365 367.895 289.315 364.365 290.215 360.735C295.525 361.505 300.945 361.915 306.465 361.915C310.325 361.915 314.145 361.715 317.905 361.335C316.585 364.105 315.205 366.805 313.785 369.435C304.725 372.285 295.425 374.495 285.935 376.085L285.925 376.075ZM287.565 409.035C298.535 400.515 308.395 388.475 316.895 373.215C316.975 373.195 317.055 373.165 317.125 373.145C327.795 369.675 337.895 365.415 347.375 360.415C345.345 363.455 343.225 366.405 341.025 369.275C329.165 384.695 315.355 396.795 300.005 405.235C293.965 408.565 287.775 411.255 281.475 413.325C283.525 412.025 285.555 410.595 287.565 409.035ZM320.005 367.345C321.115 365.155 322.195 362.925 323.235 360.645C333.575 359.085 343.455 356.115 352.665 351.925C352.575 352.075 352.485 352.235 352.395 352.385C342.375 358.285 331.545 363.295 320.005 367.335V367.345ZM405.135 315.535C405.055 315.735 404.965 315.925 404.885 316.115C396.415 335.935 384.365 353.735 369.055 369.045C353.595 384.505 335.585 396.645 315.535 405.125C309.785 407.555 303.935 409.655 298.005 411.415C299.405 410.715 300.805 409.985 302.195 409.215C318.105 400.465 332.385 387.955 344.635 372.035C348.615 366.865 352.305 361.415 355.715 355.705C361.425 352.295 366.875 348.595 372.045 344.615C383.175 336.055 392.635 326.495 400.305 316.085H367.145L339.005 260.355H312.795V316.905H293.755V197.185H208.055C207.635 197.965 207.225 198.745 206.825 199.525C206.115 199.585 205.405 199.625 204.705 199.685C205.895 186.455 207.555 173.805 209.655 161.955C219.905 160.605 230.445 159.765 241.175 159.475C232.935 165.415 225.535 172.455 219.185 180.375H337.675C337.675 180.375 370.585 181.285 375.675 209.875C375.755 210.505 375.845 211.095 375.845 211.095C375.845 211.095 376.155 213.345 376.325 216.555C376.535 220.575 376.515 226.085 375.355 230.535C373.895 237.595 369.215 248.835 354.525 256.675L377.975 299.985H410.805C409.175 305.225 407.285 310.395 405.125 315.485L405.135 315.535Z" fill="#01AFEF"/>
<path d="M312.435 219.985C312.435 220.195 312.435 220.405 312.435 220.605C312.435 220.395 312.435 220.195 312.435 219.985C312.435 219.775 312.435 219.565 312.435 219.365C312.435 219.575 312.435 219.775 312.435 219.985ZM312.785 197.215C312.785 197.215 312.765 197.255 312.765 197.345C312.765 197.395 312.765 197.465 312.745 197.545C312.745 197.565 312.745 197.595 312.745 197.615C312.745 197.645 312.745 197.685 312.745 197.725C312.745 197.815 312.745 197.925 312.735 198.045C312.735 198.105 312.735 198.165 312.735 198.235C312.735 198.365 312.735 198.505 312.725 198.655C312.725 198.655 312.725 198.655 312.725 198.675C312.725 198.825 312.725 198.985 312.705 199.155C312.705 199.505 312.685 199.905 312.675 200.335C312.675 200.515 312.675 200.705 312.675 200.905C312.655 201.785 312.645 202.805 312.625 203.925C312.625 204.335 312.625 204.755 312.605 205.195C312.605 205.355 312.605 205.515 312.605 205.675C312.605 205.835 312.605 206.005 312.605 206.165C312.605 206.325 312.605 206.495 312.605 206.665C312.605 207.005 312.605 207.345 312.595 207.695V207.725C312.595 208.005 312.595 208.285 312.595 208.575C312.595 209.565 312.575 210.585 312.565 211.645C312.565 211.895 312.565 212.145 312.565 212.395C312.565 212.495 312.565 212.605 312.565 212.705C312.565 212.905 312.565 213.095 312.565 213.295C312.565 213.495 312.565 213.685 312.565 213.885C312.565 214.275 312.565 214.675 312.565 215.085C312.565 215.135 312.565 215.175 312.565 215.225C312.665 205.505 312.775 197.235 312.895 197.235H312.875L312.785 197.215ZM312.465 216.405C312.465 216.565 312.465 216.735 312.465 216.895C312.465 216.685 312.465 216.485 312.465 216.285C312.465 216.085 312.465 215.875 312.465 215.675C312.465 215.515 312.465 215.365 312.465 215.215C312.465 215.285 312.465 215.365 312.465 215.435C312.465 215.755 312.465 216.075 312.465 216.405Z" fill="#01AFEF"/>
<path d="M312.465 216.406C312.465 216.406 312.465 216.326 312.465 216.286C312.465 216.086 312.465 215.876 312.465 215.676V215.436C312.465 215.756 312.465 216.076 312.465 216.406ZM312.435 219.986C312.435 219.776 312.435 219.566 312.435 219.366C312.435 219.576 312.435 219.776 312.435 219.986Z" fill="#01AFEF"/>
<path d="M360.835 219.276C360.835 227.426 357.615 234.086 352.415 238.696C347.215 243.306 340.025 245.886 332.095 245.886H312.245C312.245 245.886 312.275 240.396 312.325 233.096C312.325 232.416 312.325 231.726 312.345 231.016C312.345 230.666 312.345 230.306 312.345 229.946C312.345 229.406 312.345 228.866 312.355 228.316C312.355 227.766 312.355 227.216 312.365 226.656C312.365 226.096 312.365 225.536 312.375 224.966C312.375 224.246 312.375 223.516 312.395 222.796C312.395 222.486 312.395 222.166 312.395 221.856C312.395 221.446 312.395 221.026 312.395 220.606C312.395 220.396 312.395 220.196 312.395 219.986C312.395 219.776 312.395 219.566 312.395 219.366C312.395 219.156 312.395 218.956 312.395 218.746C312.395 218.536 312.395 218.336 312.395 218.126C312.395 217.716 312.395 217.306 312.395 216.896C312.395 216.686 312.395 216.486 312.395 216.286C312.395 216.086 312.395 215.876 312.395 215.676C312.395 215.516 312.395 215.366 312.395 215.216C312.495 205.496 312.605 197.226 312.725 197.226H339.295C351.145 197.226 360.755 207.096 360.755 219.276H360.835Z" fill="#01AFEF"/>
<path d="M312.805 197.215C312.695 197.215 312.575 205.485 312.475 215.205C312.475 215.155 312.475 215.115 312.475 215.065C312.475 214.665 312.475 214.265 312.475 213.865C312.475 213.665 312.475 213.465 312.475 213.275C312.475 213.075 312.475 212.885 312.475 212.685C312.475 212.585 312.475 212.475 312.475 212.375C312.475 212.125 312.475 211.875 312.475 211.625C312.475 210.565 312.495 209.545 312.505 208.555C312.505 208.265 312.505 207.985 312.505 207.705V207.675C312.505 207.325 312.505 206.985 312.515 206.645C312.515 206.475 312.515 206.305 312.515 206.145C312.515 205.975 312.515 205.815 312.515 205.655C312.515 205.495 312.515 205.335 312.515 205.175C312.515 204.735 312.525 204.315 312.535 203.905C312.555 202.785 312.575 201.765 312.585 200.885C312.585 200.685 312.585 200.495 312.585 200.315C312.585 199.885 312.605 199.485 312.615 199.135C312.615 198.965 312.615 198.805 312.635 198.665C312.635 198.665 312.635 198.655 312.635 198.645C312.635 198.495 312.635 198.355 312.645 198.225C312.645 198.155 312.645 198.095 312.645 198.035C312.645 197.915 312.645 197.815 312.655 197.715C312.655 197.675 312.655 197.645 312.655 197.605C312.655 197.575 312.655 197.555 312.655 197.535C312.655 197.455 312.655 197.395 312.675 197.335C312.675 197.255 312.695 197.205 312.695 197.205H312.715L312.805 197.215Z" fill="#01AFEF"/>
</g>
<defs>
<clipPath id="clip0_2003_9000">
<rect width="345.85" height="345.85" fill="white" transform="translate(77.0752 77.0752)"/>
</clipPath>
</defs>
</svg>
