<svg width="500" height="500" viewBox="0 0 500 500" fill="none" xmlns="http://www.w3.org/2000/svg">
<rect width="500" height="500" fill="white"/>
<g clip-path="url(#clip0_2003_8971)">
<path d="M414.822 166.045H84.9375V333.225H414.822V166.045Z" fill="#233082"/>
<path d="M135.916 252.978C134.101 250.556 131.493 248.839 128.114 247.836C130.51 246.727 132.411 245.064 133.817 242.846C135.216 240.628 135.916 238.192 135.916 235.539C135.916 233.09 135.348 230.878 134.213 228.905C133.078 226.931 131.652 225.354 129.949 224.165C128.246 222.977 126.312 222.198 124.153 221.829C121.995 221.452 118.721 221.268 114.324 221.268H92.1323V277.962H111.031C118.173 277.916 122.681 277.784 124.549 277.58C127.533 277.243 130.041 276.345 132.074 274.893C134.101 273.434 135.705 271.487 136.88 269.051C138.055 266.616 138.642 264.107 138.642 261.526C138.642 258.252 137.731 255.401 135.916 252.978ZM103.341 230.7H109.783C115.057 230.7 118.252 230.766 119.361 230.898C121.229 231.129 122.642 231.789 123.585 232.885C124.536 233.981 125.005 235.407 125.005 237.162C125.005 238.918 124.457 240.469 123.361 241.592C122.259 242.714 120.754 243.387 118.833 243.618C117.77 243.75 115.057 243.816 110.687 243.816H103.341V230.7ZM125.48 265.804C124.43 266.998 123.077 267.757 121.407 268.061C120.325 268.299 117.757 268.411 113.717 268.411H103.341V253.249H112.39C117.493 253.249 120.806 253.519 122.338 254.061C123.863 254.602 125.031 255.467 125.843 256.655C126.648 257.843 127.051 259.282 127.051 260.985C127.051 262.998 126.529 264.602 125.48 265.804Z" fill="white"/>
<path d="M186.558 266.906C183.885 262.497 181.759 259.427 180.182 257.698C178.597 255.975 176.597 254.384 174.175 252.939C179.046 252.219 182.71 250.47 185.159 247.697C187.608 244.932 188.835 241.413 188.835 237.162C188.835 233.809 188.023 230.832 186.406 228.225C184.796 225.624 182.644 223.809 179.951 222.792C177.264 221.776 172.947 221.268 167.013 221.268H143.421V277.962H154.63V254.298H156.9C159.481 254.298 161.363 254.51 162.544 254.932C163.732 255.361 164.854 256.147 165.917 257.295C166.98 258.437 168.947 261.216 171.825 265.625L179.931 277.962H193.344L186.558 266.906ZM162.927 245.242H154.63V230.859H163.382C167.924 230.859 170.65 230.925 171.561 231.05C173.383 231.36 174.789 232.1 175.785 233.275C176.782 234.45 177.284 235.988 177.284 237.895C177.284 239.598 176.901 241.017 176.142 242.153C175.389 243.288 174.34 244.087 173 244.549C171.66 245.011 168.307 245.242 162.927 245.242Z" fill="white"/>
<path d="M194.327 221.268V277.962H205.542V221.268H194.327Z" fill="white"/>
<path d="M251.583 252.418C250.104 249.982 248.058 248.061 245.444 246.655C242.83 245.249 238.797 243.889 233.345 242.576C227.892 241.262 224.453 240.001 223.041 238.787C221.932 237.83 221.377 236.688 221.377 235.341C221.377 233.876 221.971 232.701 223.153 231.823C225.001 230.457 227.549 229.777 230.81 229.777C234.071 229.777 236.328 230.41 237.913 231.691C239.49 232.965 240.513 235.057 240.995 237.975L252.21 237.473C252.032 232.265 250.184 228.1 246.659 224.978C243.134 221.856 237.893 220.298 230.922 220.298C226.651 220.298 223.008 220.958 219.991 222.272C216.975 223.585 214.664 225.499 213.06 228.014C211.456 230.529 210.658 233.229 210.658 236.12C210.658 240.602 212.361 244.411 215.767 247.526C218.196 249.744 222.414 251.612 228.42 253.137C233.094 254.319 236.084 255.144 237.398 255.612C239.319 256.306 240.658 257.124 241.431 258.068C242.203 259.005 242.586 260.147 242.586 261.487C242.586 263.58 241.675 265.402 239.84 266.959C238.012 268.524 235.292 269.303 231.681 269.303C228.269 269.303 225.562 268.425 223.556 266.676C221.549 264.92 220.216 262.174 219.556 258.431L208.651 259.52C209.384 265.857 211.628 270.689 215.39 274.003C219.153 277.316 224.546 278.973 231.562 278.973C236.388 278.973 240.414 278.28 243.649 276.9C246.883 275.521 249.378 273.415 251.147 270.577C252.916 267.745 253.801 264.702 253.801 261.448C253.801 257.87 253.062 254.853 251.583 252.418Z" fill="white"/>
<path d="M294.026 257.117C293.096 261.269 291.551 264.312 289.406 266.246C287.26 268.181 284.699 269.151 281.716 269.151C277.676 269.151 274.395 267.626 271.867 264.583C269.346 261.54 268.078 256.438 268.078 249.269C268.078 242.51 269.366 237.625 271.927 234.609C274.488 231.592 277.828 230.087 281.947 230.087C284.924 230.087 287.459 230.932 289.538 232.635C291.624 234.338 292.99 236.661 293.65 239.599L304.746 236.892C303.485 232.351 301.591 228.872 299.063 226.45C294.825 222.351 289.307 220.298 282.514 220.298C274.732 220.298 268.461 222.912 263.689 228.133C258.916 233.354 256.527 240.681 256.527 250.121C256.527 259.038 258.903 266.075 263.649 271.217C268.395 276.359 274.455 278.933 281.828 278.933C287.789 278.933 292.706 277.428 296.581 274.425C300.462 271.422 303.235 266.827 304.898 260.636L294.026 257.117Z" fill="white"/>
<path d="M354.008 228.074C349.097 222.892 342.549 220.298 334.371 220.298C329.849 220.298 325.862 221.044 322.404 222.542C319.803 223.651 317.407 225.354 315.222 227.645C313.037 229.942 311.314 232.536 310.053 235.42C308.363 239.341 307.519 244.186 307.519 249.962C307.519 258.992 309.954 266.075 314.826 271.217C319.697 276.359 326.265 278.933 334.523 278.933C342.78 278.933 349.19 276.346 354.068 271.177C358.939 266.009 361.375 258.847 361.375 249.692C361.375 240.536 358.92 233.255 354.008 228.074ZM345.487 264.213C342.622 267.501 338.952 269.151 334.483 269.151C330.014 269.151 326.324 267.494 323.427 264.18C320.522 260.867 319.07 255.995 319.07 249.579C319.07 243.163 320.483 238.173 323.308 234.939C326.14 231.704 329.862 230.087 334.483 230.087C339.104 230.087 342.813 231.684 345.599 234.879C348.391 238.081 349.784 242.926 349.784 249.421C349.784 255.916 348.352 260.926 345.487 264.213Z" fill="white"/>
<path d="M376.603 268.411V252.978H404.485V243.427H376.603V230.859H406.565V221.268H365.395V277.962H407.627V268.411H376.603Z" fill="white"/>
<path d="M414.822 184.87H84.9375V195.306H414.822V184.87Z" fill="white"/>
<path d="M414.822 303.963H84.9375V314.399H414.822V303.963Z" fill="white"/>
</g>
<defs>
<clipPath id="clip0_2003_8971">
<rect width="329.885" height="167.18" fill="white" transform="translate(84.9375 166.045)"/>
</clipPath>
</defs>
</svg>
