<svg width="500" height="500" viewBox="0 0 500 500" fill="none" xmlns="http://www.w3.org/2000/svg">
<rect width="500" height="500" fill="white"/>
<g clip-path="url(#clip0_2003_9032)">
<path d="M250 74.8799C153.44 74.8799 74.8799 153.44 74.8799 250C74.8799 346.56 153.44 425.12 250 425.12C346.56 425.12 425.12 346.56 425.12 250C425.12 153.44 346.56 74.8799 250 74.8799ZM250 419.36C188.65 419.36 134.81 386.56 105.09 337.58H179.85C183.96 340.86 188.3 343.86 192.84 346.54C200.09 350.83 207.86 354.32 216.04 356.89C222.77 359.01 229.77 360.51 236.98 361.32C241.12 361.79 245.32 362.03 249.6 362.03C253.88 362.03 258.3 361.78 262.55 361.28C269.68 360.46 276.61 358.97 283.26 356.86C291.56 354.24 299.44 350.68 306.78 346.29C311.18 343.68 315.38 340.77 319.37 337.58H394.88C365.17 386.56 311.33 419.36 249.97 419.36H250ZM190.79 337.57H308.87L302.89 341.91C296.67 345.54 290.04 348.55 283.1 350.85H283.08C275.7 353.32 267.94 354.99 259.93 355.76H259.9C256.52 356.1 253.09 356.26 249.63 356.26C246.35 356.26 243.1 356.11 239.89 355.81H239.86C231.32 355.04 223.08 353.24 215.25 350.55H215.21C209.25 348.5 203.53 345.94 198.11 342.91L190.79 337.58V337.57ZM102.29 332.75C88.5199 308.26 80.6499 280.03 80.6499 250C80.6399 156.62 156.62 80.6399 250 80.6399C343.38 80.6399 419.36 156.61 419.36 250C419.36 280.04 411.49 308.27 397.72 332.75H102.29Z" fill="#1C458C"/>
<path d="M231.27 115.71L224.02 127.82L223.94 127.76L231.27 115.71Z" fill="#1C458C"/>
<path d="M275.75 127.89L275.62 127.99L264.09 108.75L275.75 127.89Z" fill="#1C458C"/>
<path d="M413.62 267.27L371.15 287.38L360.05 268.86L355.33 260.98C355.66 257.73 355.85 254.44 355.87 251.12C355.89 250.76 355.89 250.38 355.89 250.01C355.89 242.18 355.04 234.55 353.41 227.19C351.93 220.43 349.8 213.9 347.08 207.69C343.86 200.29 339.82 193.32 335.07 186.91C331.02 181.44 326.46 176.37 321.44 171.77C315.76 166.56 309.52 161.95 302.82 158.07C298.65 155.64 294.3 153.49 289.8 151.66L285.49 144.47L285.07 143.75L275.63 128.01L275.76 127.91L316.82 99.5596L323.21 149.01L372.24 139.82L357.95 187.6L406.48 199.15L373.99 236.98L413.63 267.28L413.62 267.27Z" fill="#1C458C"/>
<path d="M346.55 383.29L300.54 364.06L283.95 411.11L249.75 374.83L215.46 411.05L198.97 363.99L152.9 383.14L156.65 337.58H179.85C183.96 340.86 188.3 343.86 192.84 346.54C200.09 350.83 207.86 354.32 216.04 356.89C222.77 359.01 229.77 360.51 236.98 361.32C241.12 361.79 245.32 362.03 249.6 362.03C253.88 362.03 258.3 361.78 262.55 361.28C269.68 360.46 276.61 358.97 283.26 356.86C291.56 354.24 299.44 350.68 306.78 346.29C311.18 343.68 315.38 340.77 319.37 337.58H342.87L346.53 383.3L346.55 383.29Z" fill="#ED1C24"/>
<path d="M231.27 115.71L224.02 127.82L223.93 127.76L183.1 99.4396L176.61 148.9L127.62 139.6L141.81 187.43L93.2798 198.88L125.7 236.79L86.0298 267L128.49 287.21L103.09 329.6L151.24 303.53L156.3 300.78L249.76 250.18V85.3896L231.27 115.71ZM209.2 152.55L144.77 260.08L143.98 261.4C143.57 257.66 143.37 253.85 143.37 250C143.37 249 143.37 248.01 143.42 247.02C143.57 241.38 144.17 235.86 145.18 230.48C146.89 221.24 149.81 212.43 153.76 204.19C156.29 198.91 159.25 193.86 162.59 189.1C167.64 181.9 173.57 175.35 180.21 169.61C184.92 165.55 189.98 161.89 195.33 158.69C199.95 155.92 204.8 153.5 209.84 151.48L209.2 152.55Z" fill="#1C458C"/>
<path d="M249.77 84.8604V85.3904L231.27 115.71L249.77 84.8604Z" fill="#1C458C"/>
<path d="M264.09 108.75L249.81 85.3204L249.77 85.3904V84.8604L264.09 108.75Z" fill="#ED1C24"/>
<path d="M396.45 329.6L348.07 303.41L343 300.66L249.77 250.18V85.3903L249.81 85.3203L264.09 108.75L275.62 127.99L285.06 143.73L285.48 144.45L289.79 151.64L290.29 152.47L354.9 260.26L355.32 260.98L360.04 268.86L371.14 287.38L396.45 329.6Z" fill="#ED1C24"/>
</g>
<defs>
<clipPath id="clip0_2003_9032">
<rect width="350.24" height="350.24" fill="white" transform="translate(74.8799 74.8799)"/>
</clipPath>
</defs>
</svg>
