<svg width="500" height="500" viewBox="0 0 500 500" fill="none" xmlns="http://www.w3.org/2000/svg">
<rect width="500" height="500" fill="white"/>
<g clip-path="url(#clip0_2003_9555)">
<path d="M347.86 230.569H161.35V412.069H347.86V230.569Z" fill="#1C2657"/>
<path d="M349.18 195.66V130.99H315.34V157.81L252.85 87.9297L125 225.81L375.69 225.31L349.18 195.66Z" fill="#1C2657"/>
<path d="M214.5 288.439L205.25 284.409C198.85 281.959 193.23 279.949 193.23 274.459C193.23 268.969 197.74 266.229 204.43 266.229C211.53 266.229 216.4 268.429 221.2 272.249L227.61 264.289C221.84 258.679 213.68 255.319 205.03 255.319C190.64 255.319 180.54 263.969 180.54 275.189C180.54 285.529 188.18 291.009 195.59 293.889L205.28 298.099C212.16 300.999 216.99 302.679 216.99 308.969C216.99 313.899 212.65 317.509 204.45 317.509C197.06 317.509 190.13 314.299 184.77 309.489L177.48 318.119C184.4 324.639 193.78 328.419 203.7 328.419C220.18 328.419 229.83 318.869 229.83 307.419C229.83 297.239 223.48 291.879 214.51 288.429L214.5 288.439Z" fill="white"/>
<path d="M248.38 267.169H275.15L280.96 256.619H235.83V327.139H248.38V297.709H273.09V287.169H248.38V267.169Z" fill="white"/>
<path d="M296.42 293.909L306.11 298.119C312.99 301.019 317.82 302.699 317.82 308.989C317.82 313.919 313.48 317.529 305.28 317.529C297.89 317.529 290.96 314.319 285.6 309.509L278.31 318.139C285.23 324.659 294.61 328.439 304.53 328.439C321.01 328.439 330.66 318.889 330.66 307.439C330.66 297.259 324.31 291.899 315.34 288.449L306.09 284.419C299.69 281.969 294.07 279.959 294.07 274.469C294.07 268.979 298.58 266.239 305.27 266.239C312.37 266.239 317.24 268.439 322.04 272.259L328.45 264.299C322.68 258.689 314.52 255.329 305.87 255.329C291.48 255.329 281.38 263.979 281.38 275.199C281.38 285.539 289.02 291.019 296.43 293.899L296.42 293.909Z" fill="white"/>
<path d="M198.73 363.15C200.4 362.34 201.66 361.19 202.52 359.71C203.38 358.22 203.81 356.46 203.81 354.43C203.81 352.4 203.39 350.64 202.54 349.12C201.69 347.6 200.44 346.42 198.79 345.57C197.14 344.73 195.1 344.3 192.66 344.3H180.8V375.94H186.53V364.35H192.36L198.58 375.94H204.98L198.13 363.41C198.34 363.33 198.54 363.24 198.74 363.14L198.73 363.15ZM186.53 349.1H191.78C193.21 349.1 194.38 349.31 195.29 349.73C196.2 350.15 196.87 350.75 197.31 351.55C197.75 352.35 197.97 353.31 197.97 354.43C197.97 355.55 197.75 356.5 197.31 357.26C196.87 358.03 196.2 358.61 195.29 359.01C194.38 359.41 193.22 359.6 191.8 359.6H186.52V349.1H186.53Z" fill="white"/>
<path d="M215.56 369.529C214.62 369.529 213.82 369.859 213.15 370.519C212.48 371.179 212.15 371.969 212.16 372.899C212.15 373.849 212.48 374.649 213.15 375.309C213.82 375.969 214.62 376.299 215.56 376.299C216.17 376.299 216.73 376.149 217.24 375.839C217.75 375.539 218.16 375.129 218.48 374.609C218.79 374.099 218.96 373.519 218.97 372.899C218.96 371.969 218.62 371.179 217.94 370.519C217.27 369.859 216.47 369.529 215.57 369.529H215.56Z" fill="white"/>
<path d="M233.99 362.509H247.77V357.709H233.99V349.119H248.84V344.319H228.26V375.949H248.96V371.149H233.99V362.509Z" fill="white"/>
<path d="M261.15 369.529C260.21 369.529 259.41 369.859 258.74 370.519C258.07 371.179 257.74 371.969 257.75 372.899C257.74 373.849 258.07 374.649 258.74 375.309C259.41 375.969 260.21 376.299 261.15 376.299C261.76 376.299 262.32 376.149 262.83 375.839C263.34 375.539 263.75 375.129 264.07 374.609C264.38 374.099 264.55 373.519 264.56 372.899C264.55 371.969 264.21 371.179 263.53 370.519C262.86 369.859 262.06 369.529 261.16 369.529H261.15Z" fill="white"/>
<path d="M279.58 344.319H273.85V375.959H279.58V344.319Z" fill="white"/>
<path d="M292.27 369.529C291.33 369.529 290.53 369.859 289.86 370.519C289.19 371.179 288.86 371.969 288.87 372.899C288.86 373.849 289.19 374.649 289.86 375.309C290.53 375.969 291.33 376.299 292.27 376.299C292.88 376.299 293.44 376.149 293.95 375.839C294.46 375.539 294.87 375.129 295.19 374.609C295.5 374.099 295.67 373.519 295.68 372.899C295.67 371.969 295.33 371.179 294.65 370.519C293.98 369.859 293.18 369.529 292.28 369.529H292.27Z" fill="white"/>
<path d="M302.1 349.119H311.87V375.949H317.56V349.119H327.34V344.319H302.1V349.119Z" fill="white"/>
</g>
<defs>
<clipPath id="clip0_2003_9555">
<rect width="250.69" height="324.14" fill="white" transform="translate(125 87.9297)"/>
</clipPath>
</defs>
</svg>
