<svg width="500" height="500" viewBox="0 0 500 500" fill="none" xmlns="http://www.w3.org/2000/svg">
<rect width="500" height="500" fill="white"/>
<g clip-path="url(#clip0_2003_9601)">
<path d="M218.12 233.93C216.15 231.88 214.17 228.63 214.17 225.59V225.54C214.17 225.33 214.18 225.13 214.21 224.92C214.22 224.77 214.24 224.63 214.27 224.48C214.27 224.47 214.28 224.46 214.27 224.44C214.57 223.03 215.43 221.82 216.6 221.06C216.61 221.05 216.62 221.05 216.63 221.05C217.45 220.51 218.43 220.21 219.48 220.21C219.68 220.21 219.88 220.22 220.08 220.25C221.23 220.36 222.27 220.86 223.06 221.62C224.02 222.47 224.66 223.68 224.77 225.04V226.24H226.82C226.82 226.24 226.84 226.25 226.85 226.25H240.44C244.43 215.09 236.89 207.63 225.99 207.65C219.76 207.67 213.55 207.69 207.32 207.7C201.69 207.72 196.22 209.12 194.07 214.94C194.05 214.97 194.04 215.01 194.03 215.04C187.92 231.92 206.74 248.97 218.28 257.57C221.38 259.88 230.46 264.03 233.77 268.79C233.77 268.81 233.79 268.83 233.8 268.84C234.75 270.22 235.2 271.66 234.87 273.11C234.87 273.12 234.86 273.13 234.86 273.15C234.52 276.37 231.77 278.88 228.46 278.88C224.91 278.88 222.03 276 222.03 272.45C222.03 272.09 222.06 271.75 222.12 271.4C222.09 271.34 222.06 271.28 222.03 271.21H209.29C208.27 284.25 210.19 291.67 224.32 292.97C241.76 294.57 253.01 288.77 251.65 269.81C250.44 252.82 228.58 244.85 218.11 233.91L218.12 233.93Z" fill="#2A2B64"/>
<path d="M413.09 212.03C411.39 210.99 409.41 210.52 407.42 210.52H394.39C392.03 210.52 389.68 211.19 387.81 212.62C387.05 213.2 386.44 213.84 385.99 214.56C382.93 219.39 379.63 230.15 376.89 240.53C374.82 248.37 373.07 256 372.01 260.66C371.69 262.04 371.08 264.39 370.4 267.15C368.61 274.59 366.45 285.03 368.87 287.56C372.95 291.86 391.39 291.98 396.49 289.29C402.06 286.35 405.12 271.64 406.85 265.46C411.15 250.12 413.69 234.33 417.23 218.81C417.32 215.86 415.68 213.61 413.09 212.03ZM393.01 267.14C392.38 269.18 391.83 270.8 391.44 271.8C390.47 274.27 387.59 279.75 384.22 277.38C383.68 277 383.46 274.25 383.56 273.28C383.67 272.02 384.07 269.86 384.65 267.14C386.18 260.05 389 249.15 391.48 240.52C393.12 234.87 394.6 230.19 395.49 228.17C397.59 223.4 402.97 222.96 402.75 228.09C402.53 233.17 396.45 256.2 393.02 267.14H393.01Z" fill="#2A2B64"/>
<path d="M361.81 267.14H352.96C351.74 267.14 350.66 267.94 350.31 269.1C349.21 272.77 348.1 279.12 345.08 277.25C343.6 276.32 343.01 274.44 343.49 272.76L345.1 267.13L352.67 240.51L356.24 227.95C356.76 226.12 358.39 224.75 360.29 224.77C364.39 224.82 360.75 231.8 359.34 237.13C358.89 238.84 360.17 240.51 361.94 240.51H369.76C370.98 240.51 372.05 239.69 372.36 238.51L377.76 217.98C377.81 217.76 377.85 217.54 377.89 217.32C378.43 213.69 375.4 210.5 371.75 210.5H351.09C350.44 210.5 349.79 210.59 349.18 210.8C346.35 211.78 344.13 213.14 343.08 214.91C340.49 219.23 337.93 232.09 336.17 240.51C335.79 242.37 335.43 244.02 335.13 245.31C333.57 251.99 326.31 281.69 327.57 286.02C329.49 292.58 353.26 292.06 358.04 289.98C358.91 289.6 359.75 288.65 360.54 287.35C360.63 287.19 360.71 287.02 360.75 286.84L364.48 270.51C364.87 268.78 363.56 267.14 361.79 267.14H361.81Z" fill="#2A2B64"/>
<path d="M290.11 222.54H276.67L278.91 184.21H259.41L259.61 222.54H250.41C249.45 222.48 248.5 222.45 247.63 222.54V241.19H259.61L259.22 315.78H263.89L275.26 305.91L276.94 241.13L290.11 241.2V222.54Z" fill="#2A2B64"/>
<path d="M335.43 220.73C335.44 220.68 335.44 220.62 335.45 220.56C336.08 215.2 331.83 210.51 326.44 210.51H304.57C300.85 210.51 297.4 212.75 296.14 216.25C295.19 218.89 294.86 222.3 295.3 226.68H309.8C310.3 226.68 310.5 218.81 317.04 221.99C320.6 223.72 318.54 229.03 317.44 231.75C311.2 247.08 286.89 251.81 283.31 269.11C281.29 278.9 284.64 287.19 290.96 289.72C293.5 290.76 296.52 290.84 299.88 289.72C301.7 289.12 303.63 288.15 305.63 286.78C305.63 286.79 305.62 286.8 305.62 286.81C305.23 288.28 306.39 289.72 307.91 289.72H317.76C318.87 289.72 319.82 288.95 320.06 287.88C321.83 279.96 328.64 249.24 328.64 249.24L335.43 220.74V220.73ZM313.69 257.26C312.88 262.32 310.88 272.73 307.19 273.35C297.1 275.05 305.2 257.98 312.09 255.88C312.97 255.61 313.84 256.35 313.69 257.26Z" fill="#2A2B64"/>
<path d="M154.99 248.301C154.97 248.641 154.94 248.981 154.91 249.321C154.88 249.591 154.85 249.871 154.81 250.141M154.67 250.951C154.6 251.341 154.51 251.731 154.42 252.111" stroke="#404066" stroke-width="2" stroke-miterlimit="10"/>
<path d="M164.41 218.581C161.17 218.781 157.9 219.721 154.89 221.461C150.74 223.861 147.68 227.421 145.91 231.461C145.61 231.281 145.3 231.121 144.99 230.961C144.68 230.791 144.36 230.651 144.04 230.501C143.77 230.381 143.5 230.261 143.23 230.161C142.93 230.041 142.62 229.921 142.31 229.831C142.01 229.721 141.7 229.621 141.38 229.531C141.04 229.431 140.7 229.331 140.35 229.261C140.02 229.181 139.69 229.101 139.36 229.041C139.09 228.991 138.83 228.941 138.56 228.891C138.49 228.881 138.41 228.871 138.34 228.861C137.85 228.791 137.36 228.741 136.86 228.691C136.61 228.671 136.35 228.651 136.1 228.641C135.85 228.631 135.6 228.621 135.34 228.621C135.01 228.611 134.67 228.611 134.32 228.621C134.02 228.621 133.73 228.631 133.43 228.651C133.13 228.671 132.83 228.691 132.53 228.721C132.37 228.731 132.22 228.751 132.06 228.771C131.6 228.811 131.14 228.881 130.68 228.961C130.4 229.011 130.12 229.061 129.84 229.121C129.56 229.181 129.27 229.231 128.99 229.311C128.78 229.361 128.57 229.411 128.36 229.471C127.73 229.641 127.1 229.821 126.47 230.041C126.08 230.171 125.68 230.321 125.3 230.481C125.02 230.581 124.73 230.701 124.45 230.831C124.1 230.971 123.75 231.131 123.4 231.311C123.19 231.401 122.99 231.511 122.79 231.611C122.63 231.681 122.49 231.771 122.33 231.851C122.06 232.001 121.79 232.141 121.52 232.301C121.14 232.521 120.76 232.751 120.4 232.991C119.64 233.461 118.93 233.961 118.25 234.521C118.21 234.531 118.17 234.571 118.13 234.611C118.12 234.601 118.12 234.611 118.11 234.631C117.91 234.781 117.72 234.931 117.52 235.111C117.32 235.271 117.13 235.431 116.94 235.611C116.81 235.721 116.68 235.841 116.55 235.961C116.25 236.231 115.96 236.511 115.68 236.801C114.99 237.491 114.33 238.231 113.74 239.001C113.52 239.281 113.3 239.561 113.12 239.841C113.05 239.921 112.99 240.011 112.92 240.101C112.67 240.451 112.42 240.811 112.19 241.181C111.99 241.501 111.8 241.821 111.62 242.141C111.53 242.291 111.44 242.441 111.36 242.611C111.21 242.861 111.09 243.111 110.97 243.371C110.95 243.411 110.93 243.451 110.91 243.491C110.81 243.701 110.7 243.901 110.62 244.121C110.59 244.161 110.57 244.211 110.55 244.271C110.53 244.311 110.51 244.361 110.49 244.421C110.41 244.601 110.33 244.781 110.26 244.961C110.23 245.031 110.2 245.091 110.18 245.171C110.1 245.381 110.01 245.571 109.95 245.781C109.59 246.751 109.31 247.741 109.09 248.741C109.02 249.091 108.94 249.441 108.89 249.811C107.01 249.271 105.06 249.001 103.07 249.001C102.78 249.001 102.48 249.011 102.19 249.021C101.96 249.031 101.71 249.041 101.49 249.061C101.44 249.061 101.38 249.061 101.31 249.071H101.3C100.07 249.171 98.8201 249.381 97.5901 249.711C97.3001 249.791 97.0101 249.881 96.7201 249.961C96.4101 250.061 96.1101 250.171 95.8101 250.271C95.5001 250.381 95.2001 250.501 94.9001 250.621C94.3001 250.871 93.7101 251.141 93.1201 251.451C92.8401 251.601 92.5701 251.741 92.2901 251.911C92.1901 251.971 92.0701 252.031 91.9701 252.111C91.3601 252.461 90.7701 252.861 90.2101 253.291C90.1001 253.361 89.9701 253.451 89.8601 253.551C89.7401 253.631 89.6201 253.741 89.5101 253.831C89.5001 253.831 89.4901 253.831 89.4901 253.851C89.2801 254.011 89.0801 254.171 88.8801 254.361C88.6801 254.531 88.4901 254.701 88.2901 254.891C88.0401 255.121 87.8001 255.361 87.5601 255.591C87.5601 252.781 87.8801 249.951 88.4901 247.161C91.1701 235.041 99.5101 223.421 112.19 216.121C113.84 215.171 115.49 214.321 117.18 213.571H117.19C120.1 212.261 123.06 211.261 126.04 210.541C131.26 209.261 136.51 208.851 141.55 209.291C143.47 209.451 145.36 209.741 147.21 210.141C153.69 211.541 159.61 214.401 164.41 218.601V218.581Z" stroke="#404066" stroke-width="2" stroke-miterlimit="10"/>
<path d="M137.19 270.16C136.91 270.25 136.63 270.35 136.35 270.43" stroke="#404066" stroke-width="2" stroke-miterlimit="10"/>
<path d="M132.14 271.351C131.86 271.391 131.58 271.421 131.3 271.451" stroke="#404066" stroke-width="2" stroke-miterlimit="10"/>
<path d="M112.93 240.08C112.68 240.43 112.44 240.79 112.2 241.16" stroke="#404066" stroke-width="2" stroke-miterlimit="10"/>
<path d="M176.09 244.97C175.84 244.86 175.59 244.75 175.33 244.66C175.03 244.53 174.74 244.42 174.43 244.32C174.36 244.29 174.28 244.26 174.21 244.25C174.03 244.18 173.85 244.12 173.66 244.07C173.46 244 173.27 243.94 173.06 243.88C172.76 243.8 172.45 243.71 172.13 243.65C171.77 243.56 171.4 243.48 171.03 243.43C170.73 243.37 170.43 243.33 170.13 243.3C169.89 243.26 169.64 243.23 169.39 243.22C168.73 243.15 168.05 243.12 167.38 243.12C166.96 243.12 166.54 243.13 166.12 243.16C165.9 243.17 165.68 243.19 165.48 243.21C165.15 243.24 164.83 243.27 164.51 243.32C164.35 243.34 164.19 243.36 164.03 243.39C163.86 243.41 163.71 243.44 163.54 243.47C163.12 243.54 162.68 243.64 162.26 243.75H162.25C162.01 243.81 161.78 243.87 161.55 243.95C161.31 244.01 161.07 244.08 160.84 244.17C159.41 244.63 158.01 245.25 156.65 246.02C156.09 246.34 155.54 246.69 155.02 247.06C155.02 246.29 154.97 245.54 154.87 244.79C154.57 242.46 153.82 240.2 152.61 238.1C150.97 235.26 148.65 233.03 145.91 231.45C147.68 227.41 150.74 223.86 154.89 221.45C157.9 219.71 161.17 218.77 164.41 218.57H164.42C167.19 221.02 169.58 223.88 171.49 227.19C172.96 229.73 174.06 232.39 174.82 235.13C175.57 237.82 175.98 240.58 176.07 243.38C176.09 243.91 176.1 244.44 176.09 244.98V244.97Z" fill="#FF0000" stroke="#404066" stroke-width="2" stroke-miterlimit="10"/>
<path d="M176.09 244.971C176.08 246.451 175.98 247.931 175.79 249.421" stroke="#404066" stroke-width="2" stroke-miterlimit="10"/>
<path d="M176.09 244.971C176.08 246.451 175.98 247.931 175.79 249.421" stroke="#404066" stroke-width="2" stroke-miterlimit="10"/>
<path d="M115.5 267.221C111.17 266.771 106.63 267.661 102.53 270.021C99.37 271.841 96.84 274.341 95.04 277.211C93.99 275.891 93.03 274.501 92.17 273.001C91.32 271.531 90.6 270.021 89.98 268.471C88.84 265.591 88.1 262.601 87.77 259.551C87.76 259.481 87.76 259.421 87.75 259.341C87.62 258.091 87.55 256.831 87.55 255.571C87.79 255.321 88.03 255.081 88.28 254.861C88.48 254.671 88.67 254.501 88.87 254.331C89.07 254.141 89.27 253.981 89.48 253.821C89.48 253.801 89.49 253.801 89.5 253.801C89.61 253.711 89.73 253.601 89.85 253.521C89.96 253.421 90.09 253.331 90.2 253.261C90.76 252.821 91.35 252.431 91.96 252.081C92.06 252.011 92.18 251.951 92.28 251.881C92.56 251.711 92.83 251.571 93.11 251.421C93.7 251.111 94.29 250.841 94.89 250.591C95.19 250.471 95.49 250.351 95.8 250.241C96.1 250.141 96.4 250.031 96.71 249.931C97 249.851 97.29 249.761 97.58 249.681C98.81 249.351 100.06 249.141 101.29 249.041H101.3C101.36 249.031 101.42 249.031 101.48 249.031C101.71 249.011 101.96 249.001 102.18 248.991C102.47 248.981 102.77 248.971 103.06 248.971C105.05 248.971 107.01 249.241 108.88 249.781C108.32 253.241 108.65 256.741 109.99 259.961C110.28 260.691 110.63 261.401 111.04 262.091C111.42 262.741 111.84 263.361 112.28 263.951C113.21 265.181 114.28 266.271 115.48 267.201L115.5 267.221Z" fill="#FF0000" stroke="#404066" stroke-width="2" stroke-miterlimit="10"/>
<path d="M179.57 228.99C179.57 234.28 178.29 239.23 176.07 243.38C175.98 240.58 175.56 237.83 174.82 235.13C175.31 233.18 175.56 231.12 175.56 228.99C175.56 216.76 167.23 206.85 156.95 206.85C153.39 206.85 150.05 208.04 147.22 210.11C145.38 209.71 143.48 209.42 141.56 209.26C145.59 204.79 151 202.07 156.95 202.07C169.44 202.07 179.58 214.12 179.58 228.99H179.57Z" stroke="#404066" stroke-width="2" stroke-miterlimit="10"/>
<path d="M126.05 210.52C123.08 211.23 120.11 212.24 117.2 213.55H117.19C109.42 212.96 100.26 217.95 94.1701 226.89C89.6601 233.51 87.7901 240.9 88.4901 247.13C87.8801 249.93 87.5601 252.76 87.5601 255.56C87.5601 256.83 87.6201 258.09 87.7601 259.34C87.7401 259.38 87.7201 259.42 87.7101 259.45C81.5801 251.08 82.5801 236.79 90.8601 224.63C100.28 210.81 115.7 204.75 126.05 210.52Z" stroke="#404066" stroke-width="2" stroke-miterlimit="10"/>
<path d="M176.62 282.08C168.27 294.34 153.12 298.58 142.8 291.55C141.72 290.82 140.75 290 139.87 289.08C141.6 288.58 143.32 287.98 145.03 287.28C145.18 287.39 145.33 287.51 145.49 287.61C153.99 293.39 166.44 289.91 173.31 279.82C178.8 271.75 179.06 261.9 174.59 255.32C175.15 253.37 175.55 251.39 175.79 249.42C183.59 257.15 184.16 270.99 176.62 282.08Z" stroke="#404066" stroke-width="2" stroke-miterlimit="10"/>
<path d="M176.09 244.971C176.08 246.451 175.98 247.931 175.79 249.421C175.55 251.391 175.15 253.371 174.59 255.321C174.34 256.211 174.06 257.101 173.75 257.981C170.6 266.951 164.33 275.331 155.53 281.521C154.23 282.431 152.89 283.301 151.48 284.111C149.37 285.331 147.21 286.391 145.04 287.281C143.33 287.981 141.61 288.591 139.88 289.081C137.79 289.701 135.69 290.171 133.6 290.491C131.2 290.871 128.8 291.081 126.43 291.091C123.67 291.121 120.95 290.901 118.31 290.451H118.3C115.77 290.011 113.33 289.351 110.98 288.491C104.7 286.191 99.1901 282.391 95.0601 277.201C96.8601 274.331 99.3901 271.831 102.55 270.011C106.65 267.651 111.19 266.771 115.52 267.211C117.83 269.041 120.57 270.311 123.54 270.991C124.37 271.181 125.22 271.321 126.09 271.411C127.13 271.531 128.19 271.591 129.26 271.561C129.52 271.571 129.77 271.561 130.03 271.541C130.08 271.541 130.13 271.541 130.2 271.531C130.37 271.521 130.53 271.511 130.7 271.501C130.91 271.491 131.12 271.471 131.33 271.451C131.62 271.431 131.89 271.391 132.17 271.351C132.52 271.311 132.86 271.261 133.22 271.181C133.48 271.141 133.75 271.091 134.02 271.031C134.24 270.991 134.47 270.941 134.68 270.871C134.91 270.831 135.13 270.771 135.35 270.711C135.69 270.621 136.03 270.511 136.38 270.411C136.66 270.331 136.94 270.241 137.22 270.141C137.75 269.961 138.27 269.771 138.79 269.551C138.93 269.501 139.07 269.441 139.21 269.371C139.49 269.251 139.77 269.121 140.06 268.991C140.35 268.861 140.64 268.711 140.93 268.551C141.33 268.351 141.74 268.131 142.14 267.901C143.51 267.111 144.78 266.221 145.95 265.261C149.02 262.731 151.38 259.671 152.92 256.381C153.05 256.101 153.18 255.811 153.29 255.531C153.36 255.371 153.42 255.231 153.48 255.071C153.54 254.921 153.6 254.771 153.65 254.621C153.74 254.411 153.82 254.201 153.88 253.991C153.97 253.741 154.06 253.481 154.13 253.221C154.18 253.071 154.22 252.931 154.25 252.781C154.32 252.551 154.38 252.311 154.44 252.081C154.54 251.701 154.63 251.311 154.69 250.921C154.72 250.791 154.74 250.651 154.76 250.521C154.79 250.391 154.81 250.251 154.82 250.111C154.86 249.841 154.9 249.571 154.92 249.291C154.96 248.951 154.99 248.611 155 248.271C155.03 247.861 155.03 247.451 155.03 247.041C155.55 246.681 156.1 246.331 156.66 246.001C158.02 245.221 159.42 244.601 160.85 244.151C161.09 244.071 161.33 243.991 161.56 243.931C161.8 243.861 162.03 243.801 162.26 243.731H162.27C162.69 243.631 163.13 243.531 163.55 243.451C163.72 243.421 163.87 243.391 164.04 243.371C164.2 243.341 164.36 243.321 164.52 243.301C164.84 243.251 165.16 243.221 165.49 243.191C165.7 243.171 165.91 243.151 166.13 243.141C166.55 243.111 166.97 243.101 167.39 243.101C168.06 243.101 168.74 243.131 169.4 243.201C169.65 243.221 169.9 243.251 170.14 243.281C170.44 243.321 170.74 243.361 171.04 243.411C171.41 243.471 171.78 243.541 172.14 243.631C172.46 243.691 172.77 243.781 173.07 243.861C173.28 243.911 173.47 243.971 173.67 244.051C173.86 244.101 174.04 244.151 174.22 244.231C174.29 244.241 174.37 244.271 174.44 244.301C174.74 244.401 175.04 244.521 175.34 244.641C175.6 244.731 175.85 244.841 176.1 244.951L176.09 244.971Z" stroke="#404066" stroke-width="2" stroke-miterlimit="10"/>
<path d="M126.42 291.1C116.66 298.74 104.1 300.31 94.9302 294.06C84.6602 287.07 81.9802 272.55 87.7002 259.46C87.7202 259.49 87.7402 259.52 87.7702 259.55C88.1002 262.6 88.8402 265.59 89.9802 268.47C88.7702 276.89 91.5802 285.01 98.0802 289.44C103.93 293.43 111.46 293.53 118.28 290.46H118.29C120.93 290.92 123.66 291.13 126.41 291.1H126.42Z" stroke="#404066" stroke-width="2" stroke-miterlimit="10"/>
<path d="M285.23 297.83H282.83V311.09H285.23V297.83Z" fill="black"/>
<path d="M294.77 301.461C294.26 301.171 293.66 301.021 292.97 301.021C292.23 301.021 291.6 301.181 291.1 301.511C290.6 301.841 290.23 302.281 290 302.841H289.88V301.151H287.64V311.101H289.98V305.271C289.98 304.791 290.07 304.381 290.25 304.051C290.43 303.711 290.68 303.461 290.99 303.281C291.31 303.101 291.67 303.011 292.08 303.011C292.68 303.011 293.16 303.201 293.5 303.571C293.84 303.951 294.01 304.471 294.01 305.131V311.101H296.35V304.771C296.35 303.981 296.21 303.301 295.93 302.741C295.65 302.181 295.25 301.761 294.74 301.461H294.77Z" fill="black"/>
<path d="M303.96 305.421L302.26 305.061C301.76 304.941 301.39 304.791 301.18 304.611C300.96 304.431 300.85 304.191 300.86 303.901C300.86 303.561 301.02 303.291 301.35 303.081C301.68 302.871 302.09 302.761 302.58 302.761C302.94 302.761 303.25 302.821 303.5 302.931C303.75 303.051 303.95 303.201 304.1 303.391C304.25 303.581 304.35 303.781 304.41 304.001L306.55 303.771C306.39 302.921 305.97 302.251 305.3 301.761C304.63 301.261 303.71 301.021 302.54 301.021C301.75 301.021 301.04 301.141 300.44 301.391C299.84 301.641 299.36 301.991 299.02 302.441C298.68 302.891 298.51 303.421 298.52 304.041C298.52 304.771 298.74 305.361 299.2 305.841C299.66 306.311 300.36 306.651 301.32 306.851L303.02 307.211C303.48 307.311 303.82 307.451 304.03 307.641C304.25 307.831 304.36 308.061 304.36 308.351C304.36 308.691 304.19 308.971 303.85 309.201C303.51 309.431 303.06 309.541 302.51 309.541C301.96 309.541 301.53 309.431 301.2 309.201C300.87 308.971 300.64 308.631 300.54 308.181L298.25 308.401C298.39 309.321 298.83 310.031 299.58 310.541C300.32 311.051 301.3 311.311 302.52 311.311C303.35 311.311 304.08 311.181 304.72 310.911C305.36 310.641 305.86 310.271 306.22 309.791C306.58 309.311 306.76 308.761 306.77 308.131C306.77 307.421 306.53 306.841 306.07 306.401C305.61 305.961 304.91 305.641 303.97 305.441L303.96 305.421Z" fill="black"/>
<path d="M314.94 306.91C314.94 307.41 314.84 307.83 314.63 308.17C314.42 308.5 314.15 308.76 313.83 308.92C313.51 309.09 313.17 309.17 312.83 309.17C312.27 309.17 311.82 308.98 311.47 308.61C311.12 308.24 310.95 307.74 310.95 307.11V301.14H308.61V307.47C308.61 308.26 308.75 308.94 309.03 309.5C309.31 310.06 309.7 310.49 310.2 310.78C310.7 311.07 311.27 311.22 311.93 311.22C312.68 311.22 313.31 311.04 313.82 310.69C314.33 310.34 314.7 309.88 314.92 309.32H315.02V311.09H317.29V301.14H314.95V306.9L314.94 306.91Z" fill="black"/>
<path d="M324.43 301.01C323.86 301.01 323.35 301.17 322.91 301.48C322.47 301.79 322.16 302.24 321.97 302.81H321.87V301.15H319.6V311.1H321.94V305.25C321.94 304.83 322.04 304.45 322.23 304.13C322.42 303.81 322.69 303.55 323.03 303.37C323.37 303.19 323.75 303.09 324.18 303.09C324.38 303.09 324.59 303.1 324.8 303.13C325.01 303.16 325.17 303.19 325.27 303.22V301.06C325.16 301.04 325.03 301.02 324.87 301.01C324.71 301 324.56 300.99 324.43 300.99V301.01Z" fill="black"/>
<path d="M333.37 301.741C332.98 301.481 332.54 301.301 332.07 301.191C331.59 301.081 331.12 301.021 330.64 301.021C329.94 301.021 329.31 301.121 328.74 301.331C328.17 301.541 327.68 301.841 327.28 302.251C326.88 302.661 326.6 303.171 326.43 303.771L328.62 304.081C328.74 303.741 328.96 303.441 329.3 303.191C329.63 302.941 330.09 302.811 330.66 302.811C331.2 302.811 331.62 302.941 331.91 303.211C332.2 303.481 332.34 303.861 332.34 304.341V304.381C332.34 304.601 332.26 304.771 332.09 304.881C331.92 304.991 331.66 305.061 331.3 305.111C330.94 305.161 330.46 305.221 329.88 305.281C329.4 305.331 328.93 305.421 328.48 305.531C328.03 305.641 327.62 305.811 327.27 306.031C326.91 306.251 326.63 306.541 326.42 306.911C326.21 307.281 326.11 307.741 326.11 308.301C326.11 308.951 326.26 309.501 326.55 309.941C326.84 310.391 327.24 310.721 327.74 310.951C328.24 311.181 328.81 311.291 329.44 311.291C329.96 311.291 330.41 311.221 330.8 311.071C331.19 310.931 331.51 310.731 331.77 310.491C332.03 310.251 332.23 309.991 332.37 309.721H332.45V311.091H334.7V304.431C334.7 303.771 334.58 303.221 334.34 302.781C334.1 302.341 333.78 301.991 333.39 301.731L333.37 301.741ZM332.34 307.531C332.34 307.901 332.25 308.241 332.06 308.551C331.87 308.861 331.6 309.111 331.26 309.301C330.91 309.491 330.51 309.581 330.04 309.581C329.57 309.581 329.15 309.471 328.84 309.251C328.52 309.031 328.37 308.701 328.37 308.271C328.37 307.971 328.45 307.721 328.61 307.531C328.77 307.341 328.99 307.191 329.26 307.081C329.54 306.971 329.85 306.891 330.2 306.851C330.36 306.831 330.54 306.801 330.75 306.771C330.96 306.741 331.18 306.711 331.39 306.671C331.6 306.631 331.8 306.591 331.98 306.531C332.16 306.471 332.28 306.421 332.35 306.361V307.531H332.34Z" fill="black"/>
<path d="M344.07 301.461C343.56 301.171 342.96 301.021 342.27 301.021C341.53 301.021 340.9 301.181 340.4 301.511C339.9 301.841 339.53 302.281 339.3 302.841H339.18V301.151H336.94V311.101H339.28V305.271C339.28 304.791 339.37 304.381 339.55 304.051C339.73 303.711 339.98 303.461 340.29 303.281C340.61 303.101 340.97 303.011 341.38 303.011C341.98 303.011 342.46 303.201 342.8 303.571C343.14 303.951 343.31 304.471 343.31 305.131V311.101H345.65V304.771C345.65 303.981 345.51 303.301 345.23 302.741C344.95 302.181 344.55 301.761 344.04 301.461H344.07Z" fill="black"/>
<path d="M351.07 303.301C351.43 303.041 351.85 302.911 352.33 302.911C352.9 302.911 353.35 303.071 353.69 303.391C354.03 303.711 354.24 304.111 354.33 304.591H356.57C356.52 303.871 356.31 303.251 355.94 302.711C355.57 302.171 355.07 301.761 354.45 301.461C353.83 301.161 353.11 301.021 352.3 301.021C351.33 301.021 350.49 301.241 349.78 301.671C349.07 302.101 348.52 302.711 348.13 303.481C347.74 304.251 347.55 305.151 347.55 306.161C347.55 307.171 347.74 308.051 348.12 308.831C348.5 309.601 349.05 310.211 349.76 310.641C350.47 311.081 351.32 311.291 352.31 311.291C353.14 311.291 353.87 311.141 354.49 310.831C355.11 310.531 355.6 310.101 355.95 309.561C356.31 309.021 356.52 308.391 356.57 307.691H354.33C354.26 308.051 354.13 308.351 353.95 308.601C353.76 308.851 353.53 309.041 353.26 309.171C352.99 309.301 352.68 309.371 352.33 309.371C351.84 309.371 351.42 309.241 351.06 308.981C350.7 308.721 350.42 308.351 350.22 307.861C350.02 307.371 349.92 306.791 349.92 306.111C349.92 305.431 350.02 304.871 350.22 304.391C350.42 303.911 350.7 303.541 351.07 303.291V303.301Z" fill="black"/>
<path d="M365.89 302.221C365.47 301.811 364.98 301.511 364.44 301.311C363.89 301.111 363.31 301.021 362.7 301.021C361.75 301.021 360.92 301.241 360.22 301.671C359.52 302.101 358.97 302.711 358.58 303.481C358.19 304.251 357.99 305.151 357.99 306.181C357.99 307.211 358.18 308.121 358.57 308.891C358.96 309.661 359.51 310.251 360.24 310.661C360.96 311.081 361.82 311.281 362.82 311.281C363.59 311.281 364.28 311.161 364.88 310.931C365.48 310.691 365.97 310.361 366.36 309.931C366.75 309.501 367.01 309.001 367.15 308.421L364.96 308.171C364.86 308.451 364.7 308.691 364.5 308.881C364.3 309.071 364.06 309.211 363.78 309.311C363.5 309.411 363.2 309.461 362.85 309.461C362.34 309.461 361.89 309.351 361.52 309.131C361.15 308.911 360.84 308.601 360.63 308.181C360.43 307.781 360.33 307.301 360.32 306.751H367.24V306.031C367.24 305.161 367.12 304.411 366.88 303.771C366.64 303.141 366.31 302.621 365.89 302.211V302.221ZM360.33 305.181C360.35 304.791 360.44 304.431 360.62 304.101C360.82 303.731 361.1 303.421 361.46 303.191C361.82 302.961 362.24 302.841 362.72 302.841C363.17 302.841 363.56 302.941 363.9 303.141C364.24 303.341 364.5 303.621 364.69 303.971C364.88 304.321 364.98 304.721 364.98 305.171H360.32L360.33 305.181Z" fill="black"/>
<path d="M381.22 298.4C380.53 298.02 379.67 297.83 378.65 297.83H373.68V311.09H376.08V306.61H378.62C379.64 306.61 380.5 306.42 381.2 306.04C381.9 305.66 382.43 305.14 382.79 304.48C383.15 303.82 383.33 303.06 383.33 302.21C383.33 301.36 383.15 300.62 382.8 299.95C382.44 299.29 381.92 298.77 381.23 298.39L381.22 298.4ZM380.6 303.47C380.42 303.83 380.13 304.12 379.75 304.32C379.37 304.53 378.88 304.63 378.29 304.63H376.08V299.83H378.28C378.88 299.83 379.37 299.93 379.75 300.13C380.13 300.33 380.42 300.61 380.6 300.97C380.78 301.33 380.88 301.74 380.88 302.21C380.88 302.68 380.79 303.1 380.6 303.46V303.47Z" fill="black"/>
<path d="M387.55 297.83H385.21V311.09H387.55V297.83Z" fill="black"/>
<path d="M395.85 308.611C395.66 308.861 395.43 309.051 395.16 309.181C394.89 309.311 394.58 309.381 394.23 309.381C393.74 309.381 393.32 309.251 392.96 308.991C392.6 308.731 392.32 308.361 392.12 307.871C391.92 307.381 391.82 306.801 391.82 306.121C391.82 305.441 391.92 304.881 392.12 304.401C392.32 303.921 392.6 303.551 392.97 303.301C393.33 303.041 393.75 302.911 394.23 302.911C394.8 302.911 395.25 303.071 395.59 303.391C395.93 303.711 396.14 304.111 396.23 304.591H398.47C398.42 303.871 398.21 303.251 397.84 302.711C397.47 302.171 396.97 301.761 396.35 301.461C395.73 301.161 395.01 301.021 394.2 301.021C393.23 301.021 392.39 301.241 391.68 301.671C390.97 302.101 390.42 302.711 390.03 303.481C389.64 304.251 389.45 305.151 389.45 306.161C389.45 307.171 389.64 308.051 390.02 308.831C390.4 309.601 390.95 310.211 391.66 310.641C392.37 311.081 393.22 311.291 394.21 311.291C395.04 311.291 395.77 311.141 396.39 310.831C397.01 310.531 397.5 310.101 397.85 309.561C398.21 309.021 398.42 308.391 398.47 307.691H396.23C396.16 308.051 396.03 308.351 395.85 308.601V308.611Z" fill="black"/>
</g>
<defs>
<clipPath id="clip0_2003_9601">
<rect width="334.46" height="131.58" fill="white" transform="translate(82.77 184.21)"/>
</clipPath>
</defs>
</svg>
