<svg width="500" height="500" viewBox="0 0 500 500" fill="none" xmlns="http://www.w3.org/2000/svg">
<rect width="500" height="500" fill="white"/>
<g clip-path="url(#clip0_2003_9957)">
<path d="M224.029 181.245H84.4546V318.755H224.029V181.245Z" fill="#1C2753"/>
<path d="M244.393 267.287H233.015V283.268H227.828V238.558H244.722C254.785 238.558 261.817 244.073 261.817 252.895C261.817 260 257.288 264.986 250.311 266.629L263.863 283.268H257.415L244.393 267.287ZM233.015 262.484H244.576C251.553 262.484 256.667 258.867 256.667 252.877C256.667 246.886 251.534 243.343 244.576 243.343H233.015V262.465V262.484Z" fill="#1C2753"/>
<path d="M272.082 280.437C272.082 278.592 273.597 277.223 275.442 277.223C277.287 277.223 278.858 278.611 278.858 280.437C278.858 282.264 277.342 283.798 275.442 283.798C273.543 283.798 272.082 282.355 272.082 280.437Z" fill="#1C2753"/>
<path d="M296.08 243.36V258.684H319.549V263.487H296.08V278.482H322.179V283.286H290.893V238.575H322.179V243.379H296.08V243.36Z" fill="#1C2753"/>
<path d="M332.116 280.437C332.116 278.592 333.632 277.223 335.476 277.223C337.321 277.223 338.892 278.611 338.892 280.437C338.892 282.264 337.376 283.798 335.476 283.798C333.577 283.798 332.116 282.355 332.116 280.437Z" fill="#1C2753"/>
<path d="M356.114 238.558V283.268H350.927V238.558H356.114Z" fill="#1C2753"/>
<path d="M368.078 280.437C368.078 278.592 369.594 277.223 371.438 277.223C373.283 277.223 374.854 278.611 374.854 280.437C374.854 282.264 373.338 283.798 371.438 283.798C369.539 283.798 368.078 282.355 368.078 280.437Z" fill="#1C2753"/>
<path d="M415.546 243.361H399.035V283.268H393.848V243.361H377.41V238.558H415.546V243.361Z" fill="#1C2753"/>
<path d="M192.998 239.069V257.023H174.789V239.069H153.164V263.123C153.164 269.954 149.347 274.228 143.503 274.228C137.658 274.228 133.896 269.954 133.896 263.123V239.069H122.718V262.94C122.718 276.821 130.736 284.638 143.485 284.638C154.206 284.638 161.548 279.159 163.666 269.26V283.78H174.771V267.013H192.98V283.78H204.03V239.069H192.98H192.998Z" fill="#FFFDFF"/>
<path d="M204.158 235.563H154.881L179.739 202.56L204.158 235.563Z" fill="#FFFDFF"/>
<path d="M176.207 212.005L163.433 229.679L164.913 230.749L177.688 213.075L176.207 212.005Z" fill="#1C2753"/>
</g>
<defs>
<clipPath id="clip0_2003_9957">
<rect width="331.091" height="137.51" fill="white" transform="translate(84.4546 181.245)"/>
</clipPath>
</defs>
</svg>
