<svg width="500" height="500" viewBox="0 0 500 500" fill="none" xmlns="http://www.w3.org/2000/svg">
<rect width="500" height="500" fill="white"/>
<g clip-path="url(#clip0_2003_9861)">
<path d="M403.105 172.276C402.289 170.939 400.815 170.123 399.251 170.123H381.75C380.027 170.123 378.463 171.097 377.692 172.639L280.416 368.029L276.766 361.41L365.337 176.606C366.017 175.201 365.926 173.546 365.088 172.231C364.249 170.916 362.821 170.123 361.256 170.123H344.186C342.441 170.123 340.854 171.12 340.106 172.684L262.598 332.574L255.819 319.176L327.751 176.697C328.453 175.291 328.385 173.614 327.569 172.276C326.753 170.939 325.279 170.123 323.715 170.123H306.214C304.491 170.123 302.927 171.097 302.156 172.639L242.399 292.653L238.182 284.31L289.824 176.606C290.504 175.201 290.413 173.546 289.575 172.231C288.736 170.916 287.308 170.123 285.743 170.123H268.673C266.928 170.123 265.341 171.12 264.593 172.684L224.036 256.358L180.103 169.624C178.969 167.38 176.249 166.496 174.004 167.629C171.76 168.762 170.876 171.483 172.009 173.727L219.026 266.628L187.062 332.597L104.567 169.624C103.456 167.38 100.713 166.496 98.4915 167.629C96.2472 168.762 95.3631 171.483 96.4966 173.704L183.118 344.816C183.888 346.334 185.453 347.309 187.153 347.309H187.198C188.921 347.309 190.485 346.312 191.233 344.748L224.195 276.761L228.072 284.423L192.027 359.596C191.392 360.911 191.437 362.475 192.14 363.745L201.095 379.954C201.911 381.427 203.384 382.334 205.153 382.289C206.83 382.243 208.372 381.291 209.12 379.772L242.444 312.851L245.641 319.176L209.12 391.515C207.986 393.76 208.893 396.48 211.115 397.613C211.772 397.953 212.475 398.112 213.155 398.112C214.81 398.112 216.419 397.205 217.213 395.618L250.719 329.242L258.608 344.838C259.379 346.38 261.011 347.241 262.688 347.332C264.411 347.332 265.975 346.334 266.724 344.77L347.042 179.191H354.07L267.562 359.596C266.928 360.911 266.973 362.475 267.676 363.745L276.63 379.954C277.446 381.427 278.943 382.334 280.688 382.289C282.366 382.243 283.907 381.291 284.655 379.772L384.561 179.191H391.883L284.678 391.515C283.545 393.76 284.451 396.48 286.673 397.613C287.33 397.953 288.033 398.112 288.713 398.112C290.368 398.112 291.978 397.205 292.771 395.618L403.286 176.697C403.989 175.291 403.921 173.614 403.105 172.276ZM229.16 266.514L271.507 179.191H278.535L233.014 274.131L229.16 266.537V266.514ZM204.881 368.029L201.231 361.41L233.24 294.625L237.366 302.763L204.881 368.007V368.029ZM247.5 302.741L309.025 179.191H316.348L250.741 309.133L247.5 302.741Z" fill="#991988"/>
</g>
<defs>
<clipPath id="clip0_2003_9861">
<rect width="307.764" height="230.959" fill="white" transform="translate(95.9979 167.131)"/>
</clipPath>
</defs>
</svg>
